<?xml version="1.0" standalone="no"?>
<!DOCTYPE svg PUBLIC "-//W3C//DTD SVG 1.1//EN" "http://www.w3.org/Graphics/SVG/1.1/DTD/svg11.dtd" >
<svg xmlns="http://www.w3.org/2000/svg" xmlns:xlink="http://www.w3.org/1999/xlink" version="1.1">
<metadata>
Created by FontForge 20170731 at Sun Nov  5 19:20:41 2023
 By Aleksey,,,
Copyright (c) 2023 Kil Hyung-jin
</metadata>
<defs>
<font id="Pretendard-Medium" horiz-adv-x="1770" >
  <font-face 
    font-family="Pretendard Medium"
    font-weight="500"
    font-stretch="normal"
    units-per-em="2048"
    panose-1="2 0 6 3 0 0 0 2 0 4"
    ascent="1638"
    descent="-410"
    x-height="1086"
    cap-height="1448"
    bbox="-898 -532 5132 2186"
    underline-thickness="155"
    underline-position="-475"
    unicode-range="U+0020-F0000"
  />
<missing-glyph horiz-adv-x="2048" 
d="M152 1900h1744v-208h-1744v208zM152 -244h1744v-208h-1744v208zM152 186h1744v-210h-1744v210zM152 614h1744v-210h-1744v210zM152 1044h1744v-210h-1744v210zM152 1472h1744v-210h-1744v210z" />
    <glyph glyph-name=".notdef" horiz-adv-x="2048" 
d="M152 1900h1744v-208h-1744v208zM152 -244h1744v-208h-1744v208zM152 186h1744v-210h-1744v210zM152 614h1744v-210h-1744v210zM152 1044h1744v-210h-1744v210zM152 1472h1744v-210h-1744v210z" />
    <glyph glyph-name=".null" horiz-adv-x="0" 
 />
    <glyph glyph-name="nonmarkingreturn" horiz-adv-x="682" 
 />
    <glyph glyph-name="space" unicode=" " horiz-adv-x="500" 
 />
    <glyph glyph-name="exclam" unicode="!" horiz-adv-x="560" 
d="M378 418h-198l-18 1030h234zM208.5 5q-33.5 19 -52.5 52t-18 71q-1 38 18 71t52.5 52t71.5 19q37 0 70 -19t52.5 -52t19.5 -71t-19.5 -71t-52.5 -52t-70 -19q-38 0 -71.5 19z" />
    <glyph glyph-name="quotedbl" unicode="&#x22;" horiz-adv-x="774" 
d="M292 932h-176v516h176v-516zM656 932h-176v516h176v-516z" />
    <glyph glyph-name="numbersign" unicode="#" horiz-adv-x="1244" 
d="M736 388h-338l-64 -388h-172l64 388h-208l26 170h210l54 332h-206l26 172h209l63 386h172l-63 -386h338l63 386h170l-63 -386h211l-28 -172h-211l-54 -332h209l-30 -170h-207l-63 -388h-172zM764 558l54 332h-338l-54 -332h338z" />
    <glyph glyph-name="dollar" unicode="$" horiz-adv-x="1258" 
d="M574 -22q-144 9 -251 62.5t-167 146t-66 215.5h220q9 -101 80.5 -159.5t183.5 -71.5v479l-68 18q-378 104 -378 384q0 113 57.5 202t158.5 143.5t230 67.5v165h116v-163q133 -8 236.5 -61.5t162 -141.5t61.5 -198h-214q-9 89 -75 143.5t-171 65.5v-450l62 -17
q175 -41 296 -136t122 -272q-1 -116 -57.5 -208t-164.5 -148.5t-258 -65.5v-160h-116v160zM411.5 932.5q63.5 -48.5 162.5 -76.5v418q-104 -14 -165 -71t-61 -139q0 -83 63.5 -131.5zM879 247.5q72 62.5 73 156.5q-1 85 -68 133t-194 82v-448q117 14 189 76.5z" />
    <glyph glyph-name="percent" unicode="%" horiz-adv-x="1832" 
d="M294 804q-69 45 -104 126.5t-34 189.5q-1 106 35 187t105 126t164 45q97 0 165.5 -45t103.5 -125.5t35 -187.5q0 -108 -36 -190t-104.5 -126.5t-163.5 -43.5q-97 -1 -166 44zM563.5 959q34.5 59 34.5 161t-34 160t-104 58q-68 -1 -104 -59.5t-36 -158.5q0 -102 35.5 -161
t104.5 -59t103.5 59zM1208 15q-69 45 -104 126t-34 189q-1 107 35 188.5t105.5 126.5t163.5 45q97 0 165.5 -45t103.5 -126t35 -189q0 -107 -36 -188.5t-104.5 -126.5t-163.5 -45q-97 0 -166 45zM1477 170.5q35 58.5 35 159.5q0 103 -34 161.5t-104 58.5q-68 -1 -104 -60.5
t-36 -159.5t36.5 -159t103.5 -59q68 0 103 58.5zM1314 1448h182l-994 -1448h-182z" />
    <glyph glyph-name="ampersand" unicode="&#x26;" horiz-adv-x="1274" 
d="M303.5 32q-106.5 52 -164 144t-57.5 208q0 83 34 150.5t93.5 124t151.5 118.5q-79 96 -119 174.5t-40 168.5q0 99 45.5 177.5t129 122.5t191.5 44q109 0 190.5 -43t125.5 -115t44 -158q0 -99 -48.5 -178t-143.5 -148l-100 -73l290 -346q60 117 60 255h192
q0 -139 -33.5 -240.5t-87.5 -170.5l207 -247h-240l-98 115q-71 -66 -170.5 -100.5t-203.5 -34.5q-142 0 -248.5 52zM328.5 275q32.5 -53 91 -84t134.5 -31q66 0 131 24.5t121 70.5l-324 380l-36 -27q-78 -57 -114 -116.5t-36 -101.5q0 -62 32.5 -115zM432 1014.5
q30 -53.5 88 -124.5l88 62q64 42 95 85.5t31 104.5q0 35 -20.5 68t-57.5 54.5t-84 21.5q-48 0 -87 -24t-61 -63t-22 -81q0 -50 30 -103.5z" />
    <glyph glyph-name="quotesingle" unicode="'" horiz-adv-x="410" 
d="M292 932h-176v516h176v-516z" />
    <glyph glyph-name="parenleft" unicode="(" horiz-adv-x="732" 
d="M470 1510h196q-70 -101 -132 -259.5t-100 -343t-38 -355.5q0 -172 38 -356.5t100 -343t132 -260.5h-196q-293 418 -296 960q3 540 296 958z" />
    <glyph glyph-name="parenright" unicode=")" horiz-adv-x="732" 
d="M262 -408h-196q70 102 132 260.5t100 343t38 356.5q0 171 -38 355.5t-100 343t-132 259.5h196q293 -418 296 -958q-3 -542 -296 -960z" />
    <glyph glyph-name="asterisk" unicode="*" horiz-adv-x="1012" 
d="M430 634l12 298l-252 -160l-76 132l266 136l-266 138l76 132l252 -160l-12 298h152l-14 -298l252 160l78 -132l-266 -138l266 -136l-78 -132l-252 160l14 -298h-152z" />
    <glyph glyph-name="plus" unicode="+" horiz-adv-x="1302" 
d="M554 474h-382v192h382v382h192v-382h384v-192h-384v-382h-192v382z" />
    <glyph glyph-name="comma" unicode="," horiz-adv-x="548" 
d="M228 -414h-170l106 552h224z" />
    <glyph glyph-name="hyphen" unicode="-" horiz-adv-x="898" 
d="M770 520h-642v184h642v-184z" />
    <glyph glyph-name="period" unicode="." horiz-adv-x="540" 
d="M198.5 5q-33.5 19 -52.5 52t-18 71q-1 38 18 71t52.5 52t71.5 19q37 0 70 -19t52.5 -52t19.5 -71t-19.5 -71t-52.5 -52t-70 -19q-38 0 -71.5 19z" />
    <glyph glyph-name="slash" unicode="/" horiz-adv-x="710" 
d="M216 -218h-190l466 1734h190z" />
    <glyph glyph-name="zero" unicode="0" horiz-adv-x="1264" 
d="M345.5 67q-119.5 87 -182.5 254.5t-63 402.5q0 233 63.5 400.5t183.5 255.5t285 88t285 -88t183.5 -255.5t63.5 -400.5q0 -235 -63 -402t-183 -254.5t-286 -87.5q-167 0 -286.5 87zM800 233.5q70 63.5 107 187.5t37 303q0 178 -37.5 303.5t-107.5 190t-167 64.5
t-167 -64.5t-107.5 -190t-37.5 -303.5q0 -179 37 -303t107 -187.5t168 -63.5t168 63.5z" />
    <glyph glyph-name="one" unicode="1" horiz-adv-x="918" 
d="M678 0h-222v1228h-8l-346 -226v210l360 236h216v-1448z" />
    <glyph glyph-name="two" unicode="2" horiz-adv-x="1218" 
d="M128 160l502 506q91 96 139 154t73.5 113.5t25.5 116.5q0 70 -35 123t-96 82t-137 29q-79 0 -139 -32t-92.5 -90t-32.5 -134h-208q-1 130 60 230t170 155t246 55q138 0 245.5 -53.5t167.5 -147.5t61 -211q-1 -83 -32 -159.5t-106 -170t-212 -228.5l-294 -298v-12h668
v-188h-974v160z" />
    <glyph glyph-name="three" unicode="3" horiz-adv-x="1278" 
d="M376.5 30q-117.5 50 -185 140.5t-71.5 207.5h224q4 -63 43.5 -110t105.5 -72.5t147 -25.5q86 0 155 30t108 83.5t39 122.5q0 71 -39 127t-112.5 87.5t-174.5 31.5h-124v180h124q81 0 145 29t99.5 81t35.5 120q0 66 -31 116t-88 78t-133 28q-74 0 -137 -26t-101.5 -74
t-41.5 -112h-212q3 115 69.5 205.5t178.5 140.5t246 50q138 0 243.5 -53t162.5 -143.5t56 -197.5q1 -122 -68.5 -207.5t-187.5 -114.5v-10q147 -21 229.5 -113t82.5 -231q0 -119 -68 -214.5t-187 -149.5t-267 -54t-265.5 50z" />
    <glyph glyph-name="four" unicode="4" horiz-adv-x="1300" 
d="M96 460l640 988h272v-980h198v-186h-198v-282h-208v282h-704v178zM800 468v718h-16l-456 -706v-12h472z" />
    <glyph glyph-name="five" unicode="5" horiz-adv-x="1242" 
d="M375 31.5q-110 51.5 -175 142t-70 204.5h214q6 -61 44 -110t99 -76.5t133 -27.5q87 0 155.5 39t107.5 107.5t39 153.5q0 87 -40 156.5t-111 109t-161 40.5q-183 0 -254 -128h-208l94 806h820v-188h-638l-48 -406h14q46 44 118.5 71t153.5 27q134 0 242.5 -62t170 -172
t61.5 -248q0 -141 -66 -253t-183.5 -174.5t-266.5 -62.5q-135 0 -245 51.5z" />
    <glyph glyph-name="six" unicode="6" horiz-adv-x="1276" 
d="M384.5 45.5q-123.5 65.5 -202 220.5t-78.5 410q0 249 68.5 427.5t196 271.5t301.5 93q130 0 234.5 -50.5t169.5 -140.5t82 -205h-218q-22 92 -92 148t-176 56q-111 0 -190.5 -62.5t-121.5 -180t-42 -279.5h16q59 92 156.5 144t215.5 52q128 0 235 -61.5t169 -170
t62 -244.5q0 -139 -64 -251.5t-181 -177.5t-269 -65q-148 0 -271.5 65.5zM806 205q70 41 110 111t40 154q0 82 -39 151t-107.5 109t-153.5 40q-87 0 -158.5 -41.5t-113 -111t-42.5 -149.5q1 -80 41 -150t110.5 -112t156.5 -42t156 41z" />
    <glyph glyph-name="seven" unicode="7" horiz-adv-x="1146" 
d="M824 1248v12h-746v188h974v-196l-644 -1252h-230z" />
    <glyph glyph-name="eight" unicode="8" horiz-adv-x="1266" 
d="M357.5 32q-121.5 52 -189 144.5t-66.5 209.5q-1 91 39 169.5t109.5 130t153.5 64.5v8q-73 17 -129.5 63.5t-87.5 114.5t-31 146q0 110 62 198t171 138t245 50q135 0 243.5 -50t170 -138t62.5 -198q-1 -78 -32.5 -146t-87.5 -114.5t-128 -63.5v-8q83 -13 152.5 -64.5
t110 -130t41.5 -169.5q-1 -117 -69 -209.5t-189 -144.5t-274 -52q-155 0 -276.5 52zM796.5 192q69.5 30 107.5 84.5t38 125.5q0 74 -40 133t-110 92t-158 33q-89 0 -160 -33t-110.5 -92t-37.5 -133q-2 -71 35 -125t107.5 -84.5t165.5 -30.5q93 0 162.5 30zM768.5 862.5
q59.5 28.5 92.5 80.5t33 119q0 66 -33 117.5t-92 80t-135 28.5q-79 0 -139 -28t-92.5 -79.5t-32.5 -118.5t34 -119t94 -80.5t136 -28.5q75 0 134.5 28.5z" />
    <glyph glyph-name="nine" unicode="9" horiz-adv-x="1276" 
d="M891.5 1402.5q123.5 -65.5 202 -220t78.5 -406.5q0 -251 -68.5 -430t-196 -272.5t-301.5 -93.5q-131 0 -235.5 50.5t-170 141t-82.5 208.5h218q23 -95 93.5 -151.5t176.5 -56.5q111 0 190.5 62.5t122 181t43.5 282.5h-18q-59 -92 -156.5 -144t-213.5 -52q-129 0 -236 61
t-169.5 170t-62.5 245q0 137 64.5 249t182 176.5t269.5 64.5q146 0 269.5 -65.5zM470 1243.5q-70 -40.5 -110 -110t-40 -151.5q0 -83 39 -152t108 -108.5t155 -39.5q85 0 156 42t112.5 111.5t41.5 148.5q0 78 -39.5 147t-110 111t-156.5 42t-156 -40.5z" />
    <glyph glyph-name="colon" unicode=":" horiz-adv-x="540" 
d="M198.5 5q-33.5 19 -52.5 52t-18 71q-1 38 18 71t52.5 52t71.5 19q37 0 70 -19t52.5 -52t19.5 -71t-19.5 -71t-52.5 -52t-70 -19q-38 0 -71.5 19zM198.5 795q-33.5 19 -52.5 52t-18 71q-1 38 18 71t52.5 52t71.5 19q37 0 70 -19t52.5 -52t19.5 -71t-19.5 -71t-52.5 -52
t-70 -19q-38 0 -71.5 19z" />
    <glyph glyph-name="semicolon" unicode=";" horiz-adv-x="540" 
d="M228 -414h-170l106 552h224zM198.5 797q-33.5 19 -52.5 52t-18 71q-1 38 18 71t52.5 52t71.5 19q37 0 70 -19t52.5 -52t19.5 -71t-19.5 -71t-52.5 -52t-70 -19q-38 0 -71.5 19z" />
    <glyph glyph-name="less" unicode="&#x3c;" horiz-adv-x="1302" 
d="M182 650l940 456v-218l-686 -312v-12l686 -312v-216l-940 454v160z" />
    <glyph glyph-name="equal" unicode="=" horiz-adv-x="1302" 
d="M198 882h908v-186h-908v186zM198 446h908v-188h-908v188z" />
    <glyph glyph-name="greater" unicode="&#x3e;" horiz-adv-x="1302" 
d="M182 36v216l686 313v10l-686 313v218l940 -456v-160z" />
    <glyph glyph-name="question" unicode="?" horiz-adv-x="1022" 
d="M385.5 634.5q24.5 78.5 68.5 126t118 93.5q148 92 148 230q0 61 -28.5 107.5t-78 71.5t-109.5 25q-56 0 -105 -23.5t-80.5 -71.5t-36.5 -119h-216q4 123 62.5 212.5t156.5 135.5t219 46q128 0 226.5 -48.5t153 -135.5t54.5 -200q0 -116 -52 -200.5t-152 -145.5
q-62 -37 -97.5 -77t-53 -95t-19.5 -136v-12h-204v12q1 126 25.5 204.5zM398.5 5q-33.5 19 -52.5 52t-18 71q-1 38 18 71t52.5 52t71.5 19q37 0 70 -19t52.5 -52t19.5 -71t-19.5 -71t-52.5 -52t-70 -19q-38 0 -71.5 19z" />
    <glyph glyph-name="at" unicode="@" horiz-adv-x="1798" 
d="M668.5 246q-76.5 50 -120.5 144t-44 222q0 127 44.5 221t121.5 143.5t172 49.5q91 0 145 -41.5t79 -94.5h10v120h174v-560q1 -55 24 -81.5t68 -26.5q55 0 98 41t66.5 115.5t23.5 171.5q0 177 -80 312.5t-223 209.5t-327 74q-189 -1 -332.5 -87t-221.5 -235t-78 -332
q0 -200 70 -347.5t208 -228t336 -80.5q111 0 194.5 10t173.5 34v-160q-170 -48 -358 -48q-246 0 -424.5 99.5t-273 284.5t-94.5 436q0 234 102.5 420.5t284.5 292t413 105.5q233 0 414.5 -98.5t282.5 -271.5t101 -388q0 -150 -47 -259.5t-130 -167t-189 -57.5q-65 0 -118 20
t-86.5 56t-41.5 82h-10q-78 -150 -234 -150q-97 0 -173.5 50zM1028 428.5q50 68.5 52 185.5q-2 116 -51 182t-143 66q-92 0 -143 -69t-51 -179q0 -73 23 -130.5t67 -90.5t104 -33q92 0 142 68.5z" />
    <glyph glyph-name="A" unicode="A" horiz-adv-x="1370" 
d="M38 0l520 1448h254l522 -1448h-234l-132 382h-564l-132 -382h-234zM904 566l-214 618h-10l-213 -618h437z" />
    <glyph glyph-name="B" unicode="B" horiz-adv-x="1280" 
d="M148 1448h530q149 0 252 -49.5t154.5 -135.5t51.5 -195q0 -127 -67 -202.5t-177 -103.5v-14q75 -4 144 -48t112.5 -123.5t43.5 -186.5q0 -114 -53 -202t-163 -138t-274 -50h-554v1448zM902.5 246q71.5 58 71.5 154q0 69 -35 126t-99.5 90.5t-149.5 33.5h-322v-462h314
q149 0 220.5 58zM792.5 850.5q59.5 28.5 93.5 80.5t34 119q0 94 -65 152t-191 58h-296v-438h292q73 0 132.5 28.5z" />
    <glyph glyph-name="C" unicode="C" horiz-adv-x="1440" 
d="M1057 1132.5q-53 65.5 -131.5 99.5t-171.5 34q-126 0 -225 -63.5t-155 -185.5t-56 -293t56.5 -293.5t155 -185.5t224.5 -63q92 0 170 33.5t131.5 98t72.5 154.5l222 -2q-23 -142 -104.5 -252.5t-209 -172t-284.5 -61.5q-189 0 -337 90t-231.5 258.5t-83.5 395.5t84 395.5
t232 258.5t336 90q153 0 280 -58.5t210 -169.5t108 -264h-222q-18 91 -71 156.5z" />
    <glyph glyph-name="D" unicode="D" horiz-adv-x="1414" 
d="M148 0v1448h484q212 0 365.5 -86.5t235 -249t81.5 -386.5q0 -225 -82.5 -388.5t-239 -250.5t-374.5 -87h-470zM606 192q243 0 366.5 137.5t123.5 396.5q0 257 -121.5 393.5t-356.5 136.5h-250v-1064h238z" />
    <glyph glyph-name="E" unicode="E" horiz-adv-x="1178" 
d="M148 1448h908v-190h-688v-438h640v-188h-640v-442h696v-190h-916v1448z" />
    <glyph glyph-name="F" unicode="F" horiz-adv-x="1144" 
d="M148 1448h898v-190h-678v-438h614v-188h-614v-632h-220v1448z" />
    <glyph glyph-name="G" unicode="G" horiz-adv-x="1468" 
d="M988.5 1193.5q-96.5 72.5 -238.5 72.5q-123 0 -221.5 -63.5t-154.5 -186t-56 -292.5q0 -171 56.5 -293t156.5 -185.5t229 -63.5q115 0 202 46t135.5 131.5t50.5 200.5h-356v182h570v-164q0 -180 -77 -315.5t-214.5 -209t-312.5 -73.5q-195 0 -344 90.5t-231.5 259
t-82.5 394.5t83 394.5t230.5 259t334.5 90.5q155 0 283.5 -60.5t212 -169t108.5 -248.5h-226q-41 131 -137.5 203.5z" />
    <glyph glyph-name="H" unicode="H" horiz-adv-x="1456" 
d="M148 1448h220v-628h720v628h220v-1448h-220v632h-720v-632h-220v1448z" />
    <glyph glyph-name="I" unicode="I" horiz-adv-x="514" 
d="M368 0h-220v1448h220v-1448z" />
    <glyph glyph-name="J" unicode="J" horiz-adv-x="1076" 
d="M930 1448v-1026q0 -138 -54.5 -237.5t-154.5 -152t-233 -52.5q-124 0 -221.5 45t-153 132t-55.5 207h218q1 -90 61.5 -143t156.5 -53q104 0 160 65t56 189v1026h220z" />
    <glyph glyph-name="K" unicode="K" horiz-adv-x="1302" 
d="M148 1448h220v-690h18l606 690h276l-584 -652l586 -796h-266l-466 646l-170 -196v-450h-220v1448z" />
    <glyph glyph-name="L" unicode="L" horiz-adv-x="1100" 
d="M148 1448h220v-1258h654v-190h-874v1448z" />
    <glyph glyph-name="M" unicode="M" horiz-adv-x="1766" 
d="M416 1448l458 -1122h18l458 1122h268v-1448h-210v1046h-14l-424 -1044h-174l-426 1046h-12v-1048h-210v1448h268z" />
    <glyph glyph-name="N" unicode="N" horiz-adv-x="1464" 
d="M1316 0h-202l-734 1058h-12v-1058h-220v1448h204l734 -1060h14v1060h216v-1448z" />
    <glyph glyph-name="O" unicode="O" horiz-adv-x="1506" 
d="M1322 329.5q-84 -168.5 -232.5 -259t-335.5 -90.5q-189 0 -337.5 90.5t-232.5 259t-84 394.5q0 227 84 395.5t232.5 258.5t337.5 90q187 0 335.5 -90t232.5 -258.5t84 -395.5q0 -226 -84 -394.5zM1132 1018q-56 122 -154.5 185t-223.5 63q-126 0 -225 -63t-155 -185
t-56 -294t56 -294t155 -185t225 -63q125 0 223.5 63t154.5 185.5t56 293.5q0 172 -56 294z" />
    <glyph glyph-name="P" unicode="P" horiz-adv-x="1250" 
d="M148 1448h516q163 0 276 -60.5t169.5 -166.5t56.5 -243q0 -136 -56.5 -242t-169.5 -167t-276 -61h-296v-508h-220v1448zM642 696q153 0 227.5 76.5t74.5 205.5q0 130 -74 206t-228 76h-274v-564h274z" />
    <glyph glyph-name="Q" unicode="Q" horiz-adv-x="1506" 
d="M894 470l140 -181q73 70 113.5 180t40.5 255q0 172 -56 294t-154.5 185t-223.5 63q-126 0 -225 -63t-155 -185t-56 -294t56 -294t155 -185t225 -63q70 0 130 19l-206 269h216zM1342.5 374.5q-63.5 -153.5 -178.5 -250.5l196 -254h-226l-122 160q-118 -50 -258 -50
q-189 0 -337.5 90.5t-232.5 259t-84 394.5q0 227 84 395.5t232.5 258.5t337.5 90q187 0 335.5 -90t232.5 -258.5t84 -395.5q0 -196 -63.5 -349.5z" />
    <glyph glyph-name="R" unicode="R" horiz-adv-x="1262" 
d="M148 1448h516q164 0 276.5 -57t169 -159.5t56.5 -237.5q0 -148 -67 -254t-197 -155l320 -585h-250l-294 546h-14h-296v-546h-220v1448zM642 736q156 0 229 65.5t73 192.5q0 128 -73.5 197t-228.5 69h-274v-524h274z" />
    <glyph glyph-name="S" unicode="S" horiz-adv-x="1258" 
d="M845 1221.5q-81 56.5 -207 56.5q-87 0 -153 -27.5t-101.5 -76t-35.5 -110.5q0 -92 75 -141t189 -77l140 -38q175 -41 296 -136t122 -272q-1 -123 -65 -219t-185 -150.5t-288 -54.5q-161 0 -280.5 51.5t-187 147.5t-74.5 227h220q10 -114 99 -174t223 -60q91 0 163.5 29.5
t114 83t42.5 123.5q-1 87 -71 135.5t-203 82.5l-172 46q-378 104 -378 384q0 122 67.5 217t185.5 147t263 52t259 -51.5t179 -143t68 -207.5h-214q-10 99 -91 155.5z" />
    <glyph glyph-name="T" unicode="T" horiz-adv-x="1274" 
d="M76 1448h1122v-190h-450v-1258h-220v1258h-452v190z" />
    <glyph glyph-name="U" unicode="U" horiz-adv-x="1446" 
d="M1298 1448v-952q0 -151 -71.5 -269t-202 -184.5t-300.5 -66.5q-172 0 -303 66t-202 184.5t-71 269.5v952h220v-934q0 -98 43.5 -174.5t124 -120t188.5 -43.5q107 0 187 43.5t123.5 120t43.5 174.5v934h220z" />
    <glyph glyph-name="V" unicode="V" horiz-adv-x="1370" 
d="M678 270h16l402 1178h238l-522 -1448h-254l-520 1448h238z" />
    <glyph glyph-name="W" unicode="W" horiz-adv-x="1932" 
d="M32 1448h232l282 -1120h12l294 1120h228l294 -1120h12l282 1120h232l-402 -1448h-222l-304 1082h-12l-304 -1082h-222z" />
    <glyph glyph-name="X" unicode="X" horiz-adv-x="1304" 
d="M646 884h12l346 564h254l-452 -724l456 -724h-258l-346 558h-12l-348 -558h-256l462 724l-460 724h258z" />
    <glyph glyph-name="Y" unicode="Y" horiz-adv-x="1340" 
d="M286 1448l376 -656h16l378 656h250l-526 -880v-568h-220v568l-524 880h250z" />
    <glyph glyph-name="Z" unicode="Z" horiz-adv-x="1248" 
d="M110 146l760 1112h-768v190h1038v-146l-760 -1112h766v-190h-1036v146z" />
    <glyph glyph-name="bracketleft" unicode="[" horiz-adv-x="732" 
d="M214 1510h468v-168h-264v-1580h264v-170h-468v1918z" />
    <glyph glyph-name="backslash" unicode="\" horiz-adv-x="710" 
d="M26 1516h190l466 -1734h-190z" />
    <glyph glyph-name="bracketright" unicode="]" horiz-adv-x="732" 
d="M50 -408v170h264v1580h-264v168h468v-1918h-468z" />
    <glyph glyph-name="asciicircum" unicode="^" horiz-adv-x="922" 
d="M356 1408h210l294 -616h-200l-192 422h-12l-194 -422h-200z" />
    <glyph glyph-name="underscore" unicode="_" horiz-adv-x="890" 
d="M906 -180h-920v180h920v-180z" />
    <glyph glyph-name="grave" unicode="`" horiz-adv-x="966" 
d="M288 1558h226l164 -326h-170z" />
    <glyph glyph-name="a" unicode="a" horiz-adv-x="1112" 
d="M194 547q114 72 292 85q68 5 148.5 9.5t136.5 6.5l-1 86q0 93 -56 143.5t-164 50.5q-91 0 -149 -37.5t-75 -100.5h-212q10 90 67 160.5t154.5 110t222.5 39.5q103 0 198.5 -32t161.5 -116t66 -230v-722h-208v148h-8q-37 -72 -117.5 -122t-204.5 -50q-104 0 -187 39
t-131 113.5t-48 177.5q0 169 114 241zM344.5 187q56.5 -41 149.5 -41q84 0 147 33.5t97 90t34 122.5l-1 99l-255 -17q-109 -8 -168.5 -49.5t-59.5 -120.5q0 -76 56.5 -117z" />
    <glyph glyph-name="b" unicode="b" horiz-adv-x="1224" 
d="M148 1448h212v-538h12q30 51 63 90t95 69.5t154 30.5q132 0 236 -67t163 -193.5t59 -299.5q0 -172 -58.5 -299t-162 -195t-235.5 -68q-91 0 -153.5 30.5t-97.5 71t-63 90.5h-16v-170h-208v1448zM389 343q33 -87 97 -135t152 -48q91 0 155.5 49.5t97.5 136.5t33 198
q0 109 -32.5 193.5t-97 132.5t-156.5 48q-90 0 -153 -46t-96 -130.5t-33 -197.5q0 -114 33 -201z" />
    <glyph glyph-name="c" unicode="c" horiz-adv-x="1108" 
d="M320 49.5q-115 71.5 -176.5 198.5t-61.5 290q0 165 62.5 292.5t176.5 198.5t265 71q123 0 221 -45.5t158 -128.5t71 -192h-208q-18 81 -80 134.5t-158 53.5q-88 0 -154.5 -46t-103 -131.5t-36.5 -200.5q0 -118 36.5 -204.5t102.5 -133t155 -46.5q91 0 155 48.5t83 135.5
h208q-12 -106 -69.5 -189t-154.5 -130t-222 -47q-155 0 -270 71.5z" />
    <glyph glyph-name="d" unicode="d" horiz-adv-x="1224" 
d="M302 46q-103 68 -161.5 195.5t-58.5 298.5q0 173 58.5 299.5t162 193.5t235.5 67q93 0 155.5 -30.5t97 -70.5t61.5 -89h10v538h214v-1448h-208v170h-16q-44 -80 -115 -136t-201 -56q-131 0 -234 68zM737 208q64 48 97.5 135t33.5 201t-33 198t-97 130t-154 46
q-92 0 -156 -48t-96 -132.5t-32 -193.5q0 -111 32.5 -198t97 -136.5t154.5 -49.5q89 0 153 48z" />
    <glyph glyph-name="e" unicode="e" horiz-adv-x="1148" 
d="M323.5 47q-116.5 69 -179 195t-62.5 294q0 166 62.5 294t176.5 199t263 71q131 0 240 -57t175.5 -179.5t66.5 -309.5v-76h-772q3 -101 41.5 -174.5t106.5 -111.5t158 -38q87 0 147 32.5t89 85.5h216q-24 -88 -86 -154.5t-156.5 -103t-211.5 -36.5q-158 0 -274.5 69z
M856 638q0 83 -33.5 148t-94.5 101.5t-142 36.5q-83 0 -147.5 -38.5t-101.5 -104t-42 -143.5h561z" />
    <glyph glyph-name="f" unicode="f" horiz-adv-x="712" 
d="M648 916h-234v-916h-214v916h-168v170h168v126q0 144 86.5 224t237.5 80q73 0 146 -14v-178q-53 8 -90 8q-86 0 -126 -36.5t-40 -115.5v-94h234v-170z" />
    <glyph glyph-name="g" unicode="g" horiz-adv-x="1206" 
d="M346.5 -391q-103.5 39 -164 112t-70.5 173h218q15 -75 82 -113.5t176 -38.5q132 0 205 59t73 183v214h-14q-41 -75 -112.5 -128.5t-203.5 -53.5q-129 0 -232.5 63t-162.5 185t-59 290q0 169 58.5 292.5t162 188.5t235.5 65q93 0 155.5 -30.5t96.5 -70t64 -89.5h14v176
h208v-1110q0 -135 -63 -226t-173 -135.5t-254 -44.5q-136 0 -239.5 39zM794 286.5q74 94.5 74 263.5q0 111 -33 194t-97 128.5t-154 45.5q-92 0 -156 -47.5t-96 -131t-32 -189.5q0 -107 32.5 -187.5t96.5 -125.5t155 -45q136 0 210 94.5z" />
    <glyph glyph-name="h" unicode="h" horiz-adv-x="1176" 
d="M344 0h-214v1448h210v-540h14q85 192 322 192q113 0 196.5 -46.5t129.5 -138.5t46 -225v-690h-214v664q0 120 -61 186t-169 66q-76 0 -134.5 -32t-92 -93.5t-33.5 -146.5v-644z" />
    <glyph glyph-name="i" unicode="i" horiz-adv-x="474" 
d="M130 1086h214v-1086h-214v1086zM170.5 1271q-31.5 17 -50 46t-18.5 63t18.5 63t50 46t67.5 17t66.5 -17t49 -46t18.5 -63t-18.5 -63t-49 -46t-66.5 -17t-67.5 17z" />
    <glyph glyph-name="j" unicode="j" horiz-adv-x="474" 
d="M344 1086v-1156q0 -165 -89 -251.5t-257 -86.5q-28 0 -44 2v182h34q73 0 107.5 39.5t34.5 116.5v1154h214zM168.5 1271q-31.5 17 -50 46t-18.5 63t18.5 63t50 46t67.5 17t66.5 -17t49 -46t18.5 -63t-18.5 -63t-49 -46t-66.5 -17t-67.5 17z" />
    <glyph glyph-name="k" unicode="k" horiz-adv-x="1086" 
d="M130 1448h214v-820h18l430 458h256l-439 -466l469 -620h-262l-369 488l-103 -102v-386h-214v1448z" />
    <glyph glyph-name="l" unicode="l" horiz-adv-x="474" 
d="M344 0h-214v1448h214v-1448z" />
    <glyph glyph-name="m" unicode="m" horiz-adv-x="1738" 
d="M130 1086h206v-178h12q35 92 111.5 142t184.5 50q107 0 182 -50.5t110 -141.5h12q40 90 124.5 141t201.5 51q100 0 175.5 -42t118 -125.5t42.5 -204.5v-728h-214v708q0 104 -57 156t-147 52q-67 0 -116 -28.5t-74.5 -79.5t-25.5 -116v-692h-212v720q0 58 -25 102.5
t-70 69t-103 24.5q-60 0 -111 -31.5t-81 -87.5t-30 -127v-670h-214v1086z" />
    <glyph glyph-name="n" unicode="n" horiz-adv-x="1168" 
d="M344 0h-214v1086h206v-178h12q40 90 121 141t199 51q113 0 196 -46.5t128.5 -138.5t45.5 -225v-690h-212v664q0 118 -61 185t-169 67q-73 0 -130.5 -32t-89.5 -93.5t-32 -146.5v-644z" />
    <glyph glyph-name="o" unicode="o" horiz-adv-x="1176" 
d="M323 48q-115 70 -178 196.5t-63 293.5q0 168 63 295t178 197t267 70q151 0 266 -70t177.5 -197.5t62.5 -294.5t-62.5 -293.5t-177.5 -196.5t-266 -70q-152 0 -267 70zM750 207q65 51 97.5 137.5t32.5 193.5t-32.5 194.5t-98 139.5t-159.5 52q-96 0 -162.5 -52t-99 -139.5
t-32.5 -194.5t32.5 -193.5t99 -137.5t162.5 -51q95 0 160 51z" />
    <glyph glyph-name="p" unicode="p" horiz-adv-x="1206" 
d="M130 1086h208v-176h18q27 49 61 89t96.5 70.5t154.5 30.5q132 0 235.5 -67t162 -193.5t58.5 -299.5q0 -172 -58 -299t-161 -195t-235 -68q-130 0 -201 56.5t-113 135.5h-12v-578h-214v1494zM373 342.5q33 -86.5 96.5 -134.5t152.5 -48q91 0 155.5 49.5t97.5 136.5t33 198
q0 109 -32.5 193.5t-97 132.5t-156.5 48q-136 0 -209 -100.5t-73 -273.5q0 -115 33 -201.5z" />
    <glyph glyph-name="q" unicode="q" horiz-adv-x="1206" 
d="M862 170h-10q-44 -80 -115 -136t-201 -56q-131 0 -234 68t-161.5 195.5t-58.5 298.5q0 173 58.5 299.5t162 193.5t235.5 67q93 0 155.5 -30.5t97 -70.5t61.5 -89h16v176h208v-1494h-214v578zM737 208q64 48 97.5 135t33.5 201t-33 198t-97 130t-154 46q-92 0 -156 -48
t-96 -132.5t-32 -193.5q0 -111 32.5 -198t97 -136.5t154.5 -49.5q89 0 153 48z" />
    <glyph glyph-name="r" unicode="r" horiz-adv-x="744" 
d="M130 1086h206v-172h12q30 87 105 137.5t171 50.5q46 0 90 -4v-204q-18 4 -50.5 8t-61.5 4q-73 0 -132 -31.5t-92.5 -87t-33.5 -125.5v-662h-214v1086z" />
    <glyph glyph-name="s" unicode="s" horiz-adv-x="1044" 
d="M672.5 894.5q-52.5 37.5 -138.5 37.5q-60 0 -108 -19.5t-74.5 -52.5t-25.5 -74q-2 -49 39.5 -83t130.5 -55l172 -40q150 -33 223 -105.5t75 -188.5q-1 -98 -54.5 -174.5t-153.5 -119t-236 -42.5q-194 0 -308 83t-134 235h218q27 -146 222 -146q104 0 165.5 39.5
t62.5 108.5q-2 53 -42.5 88t-125.5 54l-170 36q-147 33 -222.5 109t-75.5 189q0 96 52.5 170t147.5 115t220 41q119 0 208.5 -38.5t142 -108.5t63.5 -163h-206q-15 67 -67.5 104.5z" />
    <glyph glyph-name="t" unicode="t" horiz-adv-x="716" 
d="M638 916h-222v-596q0 -83 34.5 -113.5t95.5 -32.5q28 0 88 4q6 2 20 2v-186q-60 -8 -134 -8q-87 0 -159 32t-115 97.5t-42 160.5v640h-160v170h160v260h212v-260h222v-170z" />
    <glyph glyph-name="u" unicode="u" horiz-adv-x="1162" 
d="M820 1086h212v-1086h-208v188h-12q-39 -91 -123 -146.5t-201 -55.5q-106 0 -187 47t-126 139t-45 224v690h214v-664q0 -73 28 -128t77.5 -84.5t114.5 -29.5q62 0 121 30.5t97 92t38 149.5v634z" />
    <glyph glyph-name="v" unicode="v" horiz-adv-x="1106" 
d="M668 0h-230l-394 1086h230l274 -834h10l274 834h230z" />
    <glyph glyph-name="w" unicode="w" horiz-adv-x="1620" 
d="M46 1086h220l212 -796h12l212 796h220l210 -792h12l210 792h220l-318 -1086h-218l-220 782h-16l-218 -782h-220z" />
    <glyph glyph-name="x" unicode="x" horiz-adv-x="1076" 
d="M538 664l240 422h234l-338 -542l340 -544h-232l-244 406l-242 -406h-234l336 544l-334 542h236z" />
    <glyph glyph-name="y" unicode="y" horiz-adv-x="1106" 
d="M148 -402v178q48 -4 96 -4q41 0 68 8t53.5 39t50.5 95l26 72l-398 1100h228l274 -842h12l274 842h230l-448 -1230q-47 -131 -133.5 -197.5t-218.5 -66.5q-72 0 -114 6z" />
    <glyph glyph-name="z" unicode="z" horiz-adv-x="1074" 
d="M106 146l588 746v10h-568v184h834v-154l-564 -738v-10h584v-184h-874v146z" />
    <glyph glyph-name="braceleft" unicode="{" horiz-adv-x="732" 
d="M183 675q46 21 66.5 66.5t20.5 122.5v262q0 144 44 228t133.5 120t234.5 36v-168q-82 0 -128 -24t-65 -73t-19 -129v-314q0 -95 -46 -154.5t-170 -83.5v-24q124 -24 170 -83.5t46 -154.5v-314q0 -81 19 -130t65 -72.5t128 -23.5v-170q-145 0 -234.5 36.5t-133.5 120.5
t-44 229v260q0 77 -20.5 123t-66.5 67.5t-125 21.5v204q79 0 125 21z" />
    <glyph glyph-name="bar" unicode="|" horiz-adv-x="660" 
d="M426 -204h-192v1856h192v-1856z" />
    <glyph glyph-name="braceright" unicode="}" horiz-adv-x="732" 
d="M549 428.5q-46 -21.5 -66.5 -67.5t-20.5 -123v-260q0 -145 -44 -229t-133.5 -120.5t-234.5 -36.5v170q82 0 128 23.5t65 72.5t19 130v314q0 95 46 154.5t170 83.5v24q-124 24 -170 83.5t-46 154.5v314q0 80 -19 129t-65 73t-128 24v168q145 0 234.5 -36t133.5 -120
t44 -228v-262q0 -77 20.5 -122.5t66.5 -66.5t125 -21v-204q-79 0 -125 -21.5z" />
    <glyph glyph-name="asciitilde" unicode="~" horiz-adv-x="1302" 
d="M301.5 693.5q60.5 28.5 128.5 28.5q53 0 104.5 -15t121.5 -43q72 -28 120.5 -42t99.5 -14q141 0 234 120v-192q-103 -112 -238 -112q-53 0 -104.5 15t-121.5 43q-76 29 -123.5 42.5t-98.5 13.5q-136 0 -232 -120v192q49 55 109.5 83.5z" />
    <glyph glyph-name="exclamdown" unicode="&#xa1;" horiz-adv-x="560" 
d="M162 -366l18 1030h198l18 -1030h-234zM350 1077q33 -19 52.5 -52t19.5 -71t-19.5 -71t-52.5 -52t-70 -19q-38 0 -71.5 19t-52.5 52t-18 71q-1 38 18 71t52.5 52t71.5 19q37 0 70 -19z" />
    <glyph glyph-name="cent" unicode="&#xa2;" horiz-adv-x="1108" 
d="M522 168q-135 15 -234.5 89.5t-152.5 195t-53 271.5q0 153 54 274.5t153.5 195.5t232.5 89v165h116v-164q110 -9 196.5 -57t139 -127t62.5 -180h-208q-15 70 -64.5 120.5t-125.5 63.5v-754q73 11 123.5 58t66.5 122h208q-11 -99 -62 -178.5t-137.5 -128t-198.5 -57.5
v-166h-116v168zM356.5 478q60.5 -99 165.5 -124v746q-105 -25 -165.5 -123t-60.5 -247q0 -153 60.5 -252z" />
    <glyph glyph-name="sterling" unicode="&#xa3;" horiz-adv-x="1260" 
d="M120 0v190h70q52 3 73 69t19 145l-5 164h-161v188h155l-9 264q-5 143 54 244.5t160.5 152.5t223.5 51q124 0 221.5 -49.5t152 -133t54.5 -183.5q0 -30 -6 -60l-206 32l2 24q0 59 -29 100t-77.5 61.5t-105.5 20.5q-63 0 -116 -28.5t-85 -87t-31 -144.5l10 -264h332v-188
h-326l6 -158q5 -142 -57 -220h673v-190h-992z" />
    <glyph glyph-name="currency" unicode="&#xa4;" horiz-adv-x="1442" 
d="M523 14q-93 34 -168 96l-127 -128l-120 126l130 130q-50 76 -77 166t-27 188q0 102 29.5 195t83.5 169l-139 142l120 124l140 -140q75 57 163.5 87.5t186.5 30.5t188 -31.5t165 -89.5l141 143l122 -124l-142 -145q54 -77 83 -168.5t29 -192.5q0 -98 -27 -186.5
t-77 -163.5l134 -134l-122 -126l-128 130q-76 -63 -170 -97.5t-196 -34.5t-195 34zM926.5 206q95.5 60 151.5 162.5t56 223.5q0 122 -56 224t-151.5 161t-208.5 59q-114 0 -210.5 -59t-152.5 -161t-55 -224q-1 -121 55 -223.5t152.5 -162.5t210.5 -60q113 0 208.5 60z" />
    <glyph glyph-name="yen" unicode="&#xa5;" horiz-adv-x="1082" 
d="M542 795l290 653h236l-347 -718h235v-144h-305l-1 -2v-134h306v-144h-306v-306h-220v306h-314v144h314v136h-314v144h247l-347 718h236z" />
    <glyph glyph-name="brokenbar" unicode="&#xa6;" horiz-adv-x="660" 
d="M426 548v-752h-192v752h192zM426 902h-192v750h192v-750z" />
    <glyph glyph-name="section" unicode="&#xa7;" horiz-adv-x="1100" 
d="M677.5 1232q-44.5 50 -131.5 50q-53 0 -91.5 -18.5t-58.5 -49t-20 -66.5q0 -53 44 -99t104 -77l272 -150q221 -113 212 -314q-2 -54 -29.5 -103t-70.5 -84t-90 -49l-2 -4q106 -91 106 -240q0 -103 -51 -176t-136.5 -109.5t-190.5 -36.5q-118 0 -210 46t-143.5 130.5
t-50.5 197.5h198q0 -88 55 -138t145 -50q78 0 132 35t54 101q0 44 -21.5 77t-50.5 54t-72 45l-274 146q-85 46 -151 122t-63 198q3 53 30 102t70 85t94 51v2q-108 108 -108 238q0 91 47.5 164t131.5 114.5t189 41.5q112 0 197 -47t131 -130.5t46 -190.5h-198q0 82 -44.5 132
zM787 594.5q-35 40.5 -93 71.5l-262 142q-13 8 -32 8q-28 0 -56 -19t-46 -52t-18 -73q0 -52 34 -91.5t94 -72.5l256 -136q12 -6 30 -6q28 0 58 18t50 50t20 72q0 48 -35 88.5z" />
    <glyph glyph-name="dieresis" unicode="&#xa8;" horiz-adv-x="1120" 
d="M290 1273q-29 17 -46.5 46t-17.5 61q0 34 17 62.5t46 45t63 16.5q54 0 89 -35.5t35 -88.5q0 -33 -16 -61.5t-44.5 -45.5t-63.5 -17q-33 0 -62 17zM706 1273q-29 17 -46.5 46t-17.5 61q0 34 17 62.5t46 45t63 16.5q53 0 89.5 -36t36.5 -88q0 -33 -17 -61.5t-46 -45.5
t-63 -17q-33 0 -62 17z" />
    <glyph glyph-name="copyright" unicode="&#xa9;" horiz-adv-x="1694" 
d="M497.5 930.5q55.5 94.5 150 150t206.5 55.5q98 0 182.5 -42.5t139.5 -117t68 -166.5h-186q-8 43 -37.5 77.5t-73.5 53.5t-93 19q-64 0 -118 -32t-86 -86t-32 -118t32 -118t86 -86t118 -32q73 0 126.5 42t67.5 108h184q-12 -92 -64.5 -166.5t-134.5 -117t-179 -42.5
q-112 0 -206.5 55.5t-150 150t-55.5 206.5t55.5 206.5zM473 78.5q-172 100.5 -273 272t-100 373.5q1 204 102 375t272 271t374 100q204 0 374.5 -100t270.5 -271t101 -375q1 -203 -99 -374t-271.5 -271.5t-375.5 -100.5q-203 0 -375 100.5zM1127.5 241q128.5 75 203.5 203.5
t75 279.5q-1 152 -76.5 280.5t-203 203t-278.5 74.5t-279.5 -75t-203.5 -203.5t-75 -279.5q-1 -150 74 -278.5t204 -204t280 -75.5t279.5 75z" />
    <glyph glyph-name="ordfeminine" unicode="&#xaa;" horiz-adv-x="738" 
d="M116.5 1086q74.5 53 197.5 60q133 10 180 10v64q0 50 -33.5 79t-92.5 29q-56 0 -96 -26t-46 -64h-164q13 103 97.5 160.5t210.5 57.5q79 0 146.5 -25.5t108.5 -80t41 -136.5v-490h-164v104h-6q-28 -52 -82.5 -85t-133.5 -33q-68 0 -122 25t-85 73.5t-31 117.5
q0 107 74.5 160zM240 858.5q34 -26.5 86 -26.5q48 0 86.5 21t60 56.5t21.5 78.5v59l-152 -13q-67 -4 -101.5 -30.5t-34.5 -73.5q0 -45 34 -71.5z" />
    <glyph glyph-name="guillemotleft" unicode="&#xab;" horiz-adv-x="1110" 
d="M400 156l-286 424v20l286 424h190l-268 -434l268 -434h-190zM798 156l-286 424v20l286 424h190l-268 -434l268 -434h-190z" />
    <glyph glyph-name="logicalnot" unicode="&#xac;" horiz-adv-x="1076" 
d="M950 364h-198v252h-622v168h820v-420z" />
    <glyph glyph-name="registered" unicode="&#xae;" horiz-adv-x="1306" 
d="M452 1170h262q40 0 78.5 -20t63 -58.5t24.5 -91.5q0 -50 -23 -89t-61 -61l104 -202h-134l-87 176h-105v-176h-122v522zM369.5 412q-129.5 76 -205.5 206t-76 284t76 284t205.5 206t282.5 76q154 0 284 -76t206 -206t76 -284t-76 -284t-206 -206t-284 -76
q-153 0 -282.5 76zM866 533.5q98 57.5 155 155.5t57 213q0 116 -57 214t-155 155t-214 57q-115 0 -212.5 -57t-154.5 -155t-57 -214q0 -115 57 -213t154.5 -155.5t212.5 -57.5q116 0 214 57.5zM674 914q29 0 52.5 23t23.5 63q0 41 -23 60.5t-51 19.5h-102v-166h100z" />
    <glyph glyph-name="macron" unicode="&#xaf;" horiz-adv-x="942" 
d="M806 1298h-670v150h670v-150z" />
    <glyph glyph-name="degree" unicode="&#xb0;" horiz-adv-x="884" 
d="M275 838.5q-76 44.5 -120.5 120.5t-44.5 167t44.5 167.5t121 121.5t166.5 45t166.5 -45t121 -121.5t44.5 -167.5t-44.5 -167t-120.5 -120.5t-167 -44.5t-167 44.5zM527 977.5q39 23.5 62 63t23 85.5t-23 85t-62 62t-85 23t-85.5 -23t-63 -62t-23.5 -85t23.5 -85.5t63 -63
t85.5 -23.5t85 23.5z" />
    <glyph glyph-name="plusminus" unicode="&#xb1;" horiz-adv-x="1302" 
d="M182 250h940v-186h-940v186zM182 824h374v274h192v-274h374v-184h-374v-274h-192v274h-374v184z" />
    <glyph glyph-name="uni00B2" unicode="&#xb2;" horiz-adv-x="816" 
d="M84 850l336 288q78 68 110 109.5t32 90.5q0 57 -45.5 92.5t-114.5 35.5q-72 0 -116 -37.5t-44 -100.5h-168q0 83 42 145.5t117 96.5t171 34t170 -34.5t115 -94t41 -133.5q0 -59 -24 -110t-73 -102.5t-133 -117.5l-164 -138v-6h414v-144h-666v126z" />
    <glyph glyph-name="uni00B3" unicode="&#xb3;" horiz-adv-x="840" 
d="M238.5 745q-79.5 33 -125 91.5t-47.5 133.5h178q1 -50 51 -81t123 -31q77 0 126.5 34t49.5 88q0 55 -53 88.5t-143 33.5h-78v130h78q76 0 124 32.5t48 85.5q0 51 -41.5 83.5t-108.5 32.5q-69 0 -117 -32.5t-49 -83.5h-168q1 74 45.5 131.5t121 90t169.5 32.5t166 -31.5
t113.5 -87.5t40.5 -125q0 -74 -51 -122.5t-131 -61.5v-6q102 -13 159 -67.5t57 -134.5q0 -73 -45.5 -131.5t-127.5 -91.5t-185 -33q-100 0 -179.5 33z" />
    <glyph glyph-name="acute" unicode="&#xb4;" horiz-adv-x="966" 
d="M542 1558h224l-220 -326h-168z" />
    <glyph glyph-name="paragraph" unicode="&#xb6;" horiz-adv-x="1178" 
d="M832 1266h-176v-728h-82q-152 0 -261 58t-165 161t-56 235t56 235.5t165 162t261 58.5h456v-1448h-198v1266z" />
    <glyph glyph-name="periodcentered" unicode="&#xb7;" horiz-adv-x="540" 
d="M198.5 511q-33.5 19 -52.5 52t-18 71q-1 38 18 71t52.5 52t71.5 19q37 0 70 -19t52.5 -52t19.5 -71t-19.5 -71t-52.5 -52t-70 -19q-38 0 -71.5 19z" />
    <glyph glyph-name="cedilla" unicode="&#xb8;" horiz-adv-x="576" 
d="M358 6l-10 -58q67 -10 110.5 -52.5t43.5 -117.5q0 -64 -37.5 -112.5t-110.5 -75t-176 -26.5l-4 118q77 0 121.5 22.5t44.5 67.5t-34 65.5t-116 28.5l30 140h138z" />
    <glyph glyph-name="uni00B9" unicode="&#xb9;" horiz-adv-x="604" 
d="M288 1424h-6l-218 -144v164l230 148h162v-868h-168v700z" />
    <glyph glyph-name="ordmasculine" unicode="&#xba;" horiz-adv-x="780" 
d="M208 757q-78 47 -121 132t-43 195t42.5 194.5t121 131t182.5 46.5t182.5 -46.5t121 -131t42.5 -194.5t-43 -195t-121 -132t-182 -47t-182 47zM516 911.5q46 67.5 46 172.5t-46 172.5t-126 67.5t-126 -67.5t-46 -172.5t46 -172.5t126 -67.5t126 67.5z" />
    <glyph glyph-name="guillemotright" unicode="&#xbb;" horiz-adv-x="1114" 
d="M380 590l-270 434h192l286 -424v-20l-286 -424h-192zM780 590l-270 434h192l286 -424v-20l-286 -424h-192z" />
    <glyph glyph-name="onequarter" unicode="&#xbc;" horiz-adv-x="1732" 
d="M1236 1448h182l-994 -1448h-182zM248 1282h-8l-188 -122v158l198 130h160v-770h-162v604zM1006 264l366 506h206v-504h110v-132h-110v-134h-156v134h-416v130zM1424 266v326h-6l-242 -322v-4h248z" />
    <glyph glyph-name="onehalf" unicode="&#xbd;" horiz-adv-x="1812" 
d="M1236 1448h182l-994 -1448h-182zM248 1282h-8l-188 -122v158l198 130h160v-770h-162v604zM1148 120l306 250q67 56 95.5 92.5t28.5 77.5q0 50 -40.5 80t-101.5 30q-62 0 -102 -32.5t-40 -85.5h-156q0 74 38 130.5t106 87t156 30.5q89 0 156.5 -31t104.5 -85.5t37 -121.5
q0 -53 -21.5 -98t-66.5 -90t-122 -104l-140 -110v-6h370v-134h-608v120z" />
    <glyph glyph-name="threequarters" unicode="&#xbe;" horiz-adv-x="1876" 
d="M1382 1448h182l-994 -1448h-182zM1150 264l366 506h206v-504h110v-132h-110v-134h-156v134h-416v130zM1568 266v326h-6l-242 -322v-4h248zM212.5 696.5q-72.5 30.5 -114 84.5t-42.5 121h168q0 -43 43.5 -71.5t108.5 -28.5q44 0 79 14t55 37.5t20 52.5q0 47 -46 75.5
t-124 28.5h-72v120h72q67 0 109.5 27.5t42.5 72.5q0 43 -37.5 71.5t-96.5 28.5q-60 0 -102.5 -28.5t-43.5 -71.5h-158q1 66 41 118t109 81t154 29q87 0 154 -28t104.5 -77t37.5 -111q0 -65 -46 -108t-122 -54v-6q95 -12 146.5 -60t51.5 -120q0 -65 -42 -117t-116 -81.5
t-168 -29.5q-93 0 -165.5 30.5z" />
    <glyph glyph-name="questiondown" unicode="&#xbf;" horiz-adv-x="1022" 
d="M636.5 445.5q-24.5 -78.5 -68.5 -126t-118 -93.5q-148 -92 -148 -230q0 -61 28.5 -107.5t78 -71.5t109.5 -25q56 0 105 23.5t80.5 71.5t36.5 119h216q-4 -123 -62.5 -212.5t-156.5 -135.5t-219 -46q-128 0 -226.5 48.5t-153 135.5t-54.5 200q0 116 52 200.5t152 145.5
q62 37 97.5 77t53 95t19.5 136v12h204v-12q-1 -126 -25.5 -204.5zM623.5 1075q33.5 -19 52.5 -52t18 -71q1 -38 -18 -71t-52.5 -52t-71.5 -19q-37 0 -70 19t-52.5 52t-19.5 71t19.5 71t52.5 52t70 19q38 0 71.5 -19z" />
    <glyph glyph-name="Agrave" unicode="&#xc0;" horiz-adv-x="1370" 
d="M38 0l520 1448h254l522 -1448h-234l-132 382h-564l-132 -382h-234zM904 566l-214 618h-10l-213 -618h437zM382 1920h226l164 -326h-170z" />
    <glyph glyph-name="Aacute" unicode="&#xc1;" horiz-adv-x="1370" 
d="M38 0l520 1448h254l522 -1448h-234l-132 382h-564l-132 -382h-234zM904 566l-214 618h-10l-213 -618h437zM764 1920h224l-220 -326h-168z" />
    <glyph glyph-name="Acircumflex" unicode="&#xc2;" horiz-adv-x="1370" 
d="M38 0l520 1448h254l522 -1448h-234l-132 382h-564l-132 -382h-234zM904 566l-214 618h-10l-213 -618h437zM686 1768l-146 -188h-192v10l248 300h178l250 -300v-10h-194z" />
    <glyph glyph-name="Atilde" unicode="&#xc3;" horiz-adv-x="1370" 
d="M38 0l520 1448h254l522 -1448h-234l-132 382h-564l-132 -382h-234zM904 566l-214 618h-10l-213 -618h437zM359.5 1731q29.5 59 80 91t112.5 32q42 0 73.5 -13.5t70.5 -38.5q37 -23 61 -33.5t53 -10.5q40 0 66 30.5t26 77.5l140 -8q0 -77 -29 -134.5t-79 -88.5t-112 -31
q-48 0 -80.5 13.5t-69.5 38.5q-31 21 -54.5 31.5t-55.5 10.5q-39 0 -63.5 -30.5t-24.5 -75.5l-144 4q0 76 29.5 135z" />
    <glyph glyph-name="Adieresis" unicode="&#xc4;" horiz-adv-x="1370" 
d="M38 0l520 1448h254l522 -1448h-234l-132 382h-564l-132 -382h-234zM904 566l-214 618h-10l-213 -618h437zM416 1635q-29 17 -46.5 46t-17.5 61q0 34 17 62.5t46 45t63 16.5q54 0 89 -35.5t35 -88.5q0 -33 -16 -61.5t-44.5 -45.5t-63.5 -17q-33 0 -62 17zM832 1635
q-29 17 -46.5 46t-17.5 61q0 34 17 62.5t46 45t63 16.5q53 0 89.5 -36t36.5 -88q0 -33 -17 -61.5t-46 -45.5t-63 -17q-33 0 -62 17z" />
    <glyph glyph-name="Aring" unicode="&#xc5;" horiz-adv-x="1370" 
d="M38 0l520 1448h254l522 -1448h-234l-132 382h-564l-132 -382h-234zM904 566l-214 618h-10l-213 -618h437zM580 1570q-48 28 -76 76t-28 104t28 104t76 76t104 28q57 0 106 -28t77.5 -76t28.5 -104t-28.5 -104t-77.5 -76t-106 -28q-56 0 -104 28zM755.5 1679
q28.5 29 28.5 71q0 41 -28.5 69.5t-71.5 28.5q-42 0 -70 -28.5t-28 -69.5q0 -42 28 -71t70 -29q43 0 71.5 29z" />
    <glyph glyph-name="AE" unicode="&#xc6;" horiz-adv-x="1974" 
d="M710 1448h1144v-190h-688v-438h640v-188h-640v-442h696v-190h-918v382h-492l-172 -382h-242zM944 566v676h-104l-305 -676h409z" />
    <glyph glyph-name="Ccedilla" unicode="&#xc7;" horiz-adv-x="1440" 
d="M1057 1132.5q-53 65.5 -131.5 99.5t-171.5 34q-126 0 -225 -63.5t-155 -185.5t-56 -293t56.5 -293.5t155 -185.5t224.5 -63q92 0 170 33.5t131.5 98t72.5 154.5l222 -2q-21 -133 -94.5 -238.5t-188 -169.5t-256.5 -76l-7 -42q67 -10 110.5 -52.5t43.5 -117.5
q0 -64 -37.5 -112.5t-110.5 -75t-176 -26.5l-4 118q77 0 121.5 22.5t44.5 67.5t-34 65.5t-116 28.5l27 126q-169 19 -298.5 113.5t-202 255.5t-72.5 371q0 227 84 395.5t232 258.5t336 90q153 0 280 -58.5t210 -169.5t108 -264h-222q-18 91 -71 156.5z" />
    <glyph glyph-name="Egrave" unicode="&#xc8;" horiz-adv-x="1178" 
d="M148 1448h908v-190h-688v-438h640v-188h-640v-442h696v-190h-916v1448zM298 1920h226l164 -326h-170z" />
    <glyph glyph-name="Eacute" unicode="&#xc9;" horiz-adv-x="1178" 
d="M148 1448h908v-190h-688v-438h640v-188h-640v-442h696v-190h-916v1448zM680 1920h224l-220 -326h-168z" />
    <glyph glyph-name="Ecircumflex" unicode="&#xca;" horiz-adv-x="1178" 
d="M148 1448h908v-190h-688v-438h640v-188h-640v-442h696v-190h-916v1448zM602 1768l-146 -188h-192v10l248 300h178l250 -300v-10h-194z" />
    <glyph glyph-name="Edieresis" unicode="&#xcb;" horiz-adv-x="1178" 
d="M148 1448h908v-190h-688v-438h640v-188h-640v-442h696v-190h-916v1448zM332 1635q-29 17 -46.5 46t-17.5 61q0 34 17 62.5t46 45t63 16.5q54 0 89 -35.5t35 -88.5q0 -33 -16 -61.5t-44.5 -45.5t-63.5 -17q-33 0 -62 17zM748 1635q-29 17 -46.5 46t-17.5 61q0 34 17 62.5
t46 45t63 16.5q53 0 89.5 -36t36.5 -88q0 -33 -17 -61.5t-46 -45.5t-63 -17q-33 0 -62 17z" />
    <glyph glyph-name="Igrave" unicode="&#xcc;" horiz-adv-x="514" 
d="M368 0h-220v1448h220v-1448zM-44 1920h226l164 -326h-170z" />
    <glyph glyph-name="Iacute" unicode="&#xcd;" horiz-adv-x="514" 
d="M368 0h-220v1448h220v-1448zM336 1920h224l-220 -326h-168z" />
    <glyph glyph-name="Icircumflex" unicode="&#xce;" horiz-adv-x="514" 
d="M368 0h-220v1448h220v-1448zM260 1768l-146 -188h-192v10l248 300h178l250 -300v-10h-194z" />
    <glyph glyph-name="Idieresis" unicode="&#xcf;" horiz-adv-x="514" 
d="M368 0h-220v1448h220v-1448zM-12 1635q-29 17 -46.5 46t-17.5 61q0 34 17 62.5t46 45t63 16.5q54 0 89 -35.5t35 -88.5q0 -33 -16 -61.5t-44.5 -45.5t-63.5 -17q-33 0 -62 17zM404 1635q-29 17 -46.5 46t-17.5 61q0 34 17 62.5t46 45t63 16.5q53 0 89.5 -36t36.5 -88
q0 -33 -17 -61.5t-46 -45.5t-63 -17q-33 0 -62 17z" />
    <glyph glyph-name="Eth" unicode="&#xd0;" horiz-adv-x="1414" 
d="M148 0v680h-216v146h216v622h484q212 0 365.5 -86.5t235 -249t81.5 -386.5q0 -225 -82.5 -388.5t-239 -250.5t-374.5 -87h-470zM606 192q243 0 366.5 137.5t123.5 396.5q0 257 -121.5 393.5t-356.5 136.5h-250v-430h214v-146h-214v-488h238z" />
    <glyph glyph-name="Ntilde" unicode="&#xd1;" horiz-adv-x="1464" 
d="M1316 0h-202l-734 1058h-12v-1058h-220v1448h204l734 -1060h14v1060h216v-1448zM405.5 1719q29.5 59 80 91t112.5 32q42 0 73.5 -13.5t70.5 -38.5q37 -23 61 -33.5t53 -10.5q40 0 66 30.5t26 77.5l140 -8q0 -77 -29 -134.5t-79 -88.5t-112 -31q-48 0 -80.5 13.5
t-69.5 38.5q-31 21 -54.5 31.5t-55.5 10.5q-39 0 -63.5 -30.5t-24.5 -75.5l-144 4q0 76 29.5 135z" />
    <glyph glyph-name="Ograve" unicode="&#xd2;" horiz-adv-x="1506" 
d="M1322 329.5q-84 -168.5 -232.5 -259t-335.5 -90.5q-189 0 -337.5 90.5t-232.5 259t-84 394.5q0 227 84 395.5t232.5 258.5t337.5 90q187 0 335.5 -90t232.5 -258.5t84 -395.5q0 -226 -84 -394.5zM1132 1018q-56 122 -154.5 185t-223.5 63q-126 0 -225 -63t-155 -185
t-56 -294t56 -294t155 -185t225 -63q125 0 223.5 63t154.5 185.5t56 293.5q0 172 -56 294zM450 1920h226l164 -326h-170z" />
    <glyph glyph-name="Oacute" unicode="&#xd3;" horiz-adv-x="1506" 
d="M1322 329.5q-84 -168.5 -232.5 -259t-335.5 -90.5q-189 0 -337.5 90.5t-232.5 259t-84 394.5q0 227 84 395.5t232.5 258.5t337.5 90q187 0 335.5 -90t232.5 -258.5t84 -395.5q0 -226 -84 -394.5zM1132 1018q-56 122 -154.5 185t-223.5 63q-126 0 -225 -63t-155 -185
t-56 -294t56 -294t155 -185t225 -63q125 0 223.5 63t154.5 185.5t56 293.5q0 172 -56 294zM830 1920h224l-220 -326h-168z" />
    <glyph glyph-name="Ocircumflex" unicode="&#xd4;" horiz-adv-x="1506" 
d="M1322 329.5q-84 -168.5 -232.5 -259t-335.5 -90.5q-189 0 -337.5 90.5t-232.5 259t-84 394.5q0 227 84 395.5t232.5 258.5t337.5 90q187 0 335.5 -90t232.5 -258.5t84 -395.5q0 -226 -84 -394.5zM1132 1018q-56 122 -154.5 185t-223.5 63q-126 0 -225 -63t-155 -185
t-56 -294t56 -294t155 -185t225 -63q125 0 223.5 63t154.5 185.5t56 293.5q0 172 -56 294zM754 1768l-146 -188h-192v10l248 300h178l250 -300v-10h-194z" />
    <glyph glyph-name="Otilde" unicode="&#xd5;" horiz-adv-x="1506" 
d="M1322 329.5q-84 -168.5 -232.5 -259t-335.5 -90.5q-189 0 -337.5 90.5t-232.5 259t-84 394.5q0 227 84 395.5t232.5 258.5t337.5 90q187 0 335.5 -90t232.5 -258.5t84 -395.5q0 -226 -84 -394.5zM1132 1018q-56 122 -154.5 185t-223.5 63q-126 0 -225 -63t-155 -185
t-56 -294t56 -294t155 -185t225 -63q125 0 223.5 63t154.5 185.5t56 293.5q0 172 -56 294zM427.5 1731q29.5 59 80 91t112.5 32q42 0 73.5 -13.5t70.5 -38.5q37 -23 61 -33.5t53 -10.5q40 0 66 30.5t26 77.5l140 -8q0 -77 -29 -134.5t-79 -88.5t-112 -31q-48 0 -80.5 13.5
t-69.5 38.5q-31 21 -54.5 31.5t-55.5 10.5q-39 0 -63.5 -30.5t-24.5 -75.5l-144 4q0 76 29.5 135z" />
    <glyph glyph-name="Odieresis" unicode="&#xd6;" horiz-adv-x="1506" 
d="M1322 329.5q-84 -168.5 -232.5 -259t-335.5 -90.5q-189 0 -337.5 90.5t-232.5 259t-84 394.5q0 227 84 395.5t232.5 258.5t337.5 90q187 0 335.5 -90t232.5 -258.5t84 -395.5q0 -226 -84 -394.5zM1132 1018q-56 122 -154.5 185t-223.5 63q-126 0 -225 -63t-155 -185
t-56 -294t56 -294t155 -185t225 -63q125 0 223.5 63t154.5 185.5t56 293.5q0 172 -56 294zM484 1635q-29 17 -46.5 46t-17.5 61q0 34 17 62.5t46 45t63 16.5q54 0 89 -35.5t35 -88.5q0 -33 -16 -61.5t-44.5 -45.5t-63.5 -17q-33 0 -62 17zM900 1635q-29 17 -46.5 46
t-17.5 61q0 34 17 62.5t46 45t63 16.5q53 0 89.5 -36t36.5 -88q0 -33 -17 -61.5t-46 -45.5t-63 -17q-33 0 -62 17z" />
    <glyph glyph-name="multiply" unicode="&#xd7;" horiz-adv-x="1302" 
d="M178 230l340 342l-340 338l134 134l340 -338l340 338l134 -134l-340 -338l340 -342l-134 -134l-340 340l-340 -340z" />
    <glyph glyph-name="Oslash" unicode="&#xd8;" horiz-adv-x="1506" 
d="M182 18l107 157q-91 98 -140 237.5t-49 311.5q0 227 84 395.5t232.5 258.5t337.5 90q97 0 186 -25.5t165 -73.5l95 139l118 -80l-104 -152q92 -98 142 -238t50 -314q0 -226 -84 -394.5t-232.5 -259t-335.5 -90.5q-202 0 -356 102l-98 -144zM1090 1094l-574 -840
q101 -72 238 -72q125 0 223.5 63t154.5 185.5t56 293.5q0 228 -98 370zM414 358l573 839q-101 69 -233 69q-126 0 -225 -63t-155 -185t-56 -294q0 -226 96 -366z" />
    <glyph glyph-name="Ugrave" unicode="&#xd9;" horiz-adv-x="1446" 
d="M1298 1448v-952q0 -151 -71.5 -269t-202 -184.5t-300.5 -66.5q-172 0 -303 66t-202 184.5t-71 269.5v952h220v-934q0 -98 43.5 -174.5t124 -120t188.5 -43.5q107 0 187 43.5t123.5 120t43.5 174.5v934h220zM420 1920h226l164 -326h-170z" />
    <glyph glyph-name="Uacute" unicode="&#xda;" horiz-adv-x="1446" 
d="M1298 1448v-952q0 -151 -71.5 -269t-202 -184.5t-300.5 -66.5q-172 0 -303 66t-202 184.5t-71 269.5v952h220v-934q0 -98 43.5 -174.5t124 -120t188.5 -43.5q107 0 187 43.5t123.5 120t43.5 174.5v934h220zM802 1920h224l-220 -326h-168z" />
    <glyph glyph-name="Ucircumflex" unicode="&#xdb;" horiz-adv-x="1446" 
d="M1298 1448v-952q0 -151 -71.5 -269t-202 -184.5t-300.5 -66.5q-172 0 -303 66t-202 184.5t-71 269.5v952h220v-934q0 -98 43.5 -174.5t124 -120t188.5 -43.5q107 0 187 43.5t123.5 120t43.5 174.5v934h220zM724 1768l-146 -188h-192v10l248 300h178l250 -300v-10h-194z
" />
    <glyph glyph-name="Udieresis" unicode="&#xdc;" horiz-adv-x="1446" 
d="M1298 1448v-952q0 -151 -71.5 -269t-202 -184.5t-300.5 -66.5q-172 0 -303 66t-202 184.5t-71 269.5v952h220v-934q0 -98 43.5 -174.5t124 -120t188.5 -43.5q107 0 187 43.5t123.5 120t43.5 174.5v934h220zM454 1635q-29 17 -46.5 46t-17.5 61q0 34 17 62.5t46 45
t63 16.5q54 0 89 -35.5t35 -88.5q0 -33 -16 -61.5t-44.5 -45.5t-63.5 -17q-33 0 -62 17zM870 1635q-29 17 -46.5 46t-17.5 61q0 34 17 62.5t46 45t63 16.5q53 0 89.5 -36t36.5 -88q0 -33 -17 -61.5t-46 -45.5t-63 -17q-33 0 -62 17z" />
    <glyph glyph-name="Yacute" unicode="&#xdd;" horiz-adv-x="1340" 
d="M286 1448l376 -656h16l378 656h250l-526 -880v-568h-220v568l-524 880h250zM748 1920h224l-220 -326h-168z" />
    <glyph glyph-name="Thorn" unicode="&#xde;" horiz-adv-x="1260" 
d="M360 1448v-288h256q157 0 270 -55.5t171.5 -152.5t58.5 -218q0 -120 -58.5 -216.5t-171.5 -152t-270 -55.5h-256v-310h-222v1448h222zM616 494q141 0 215.5 63t74.5 175t-74.5 178t-215.5 66h-256v-482h256z" />
    <glyph glyph-name="germandbls" unicode="&#xdf;" horiz-adv-x="1224" 
d="M203.5 1283q55.5 89 156.5 137t234 48q128 0 231.5 -45t163 -131t59.5 -204t-59.5 -201t-162.5 -117v-14q92 -9 162.5 -55.5t110 -124.5t39.5 -178q-1 -118 -56 -208t-153.5 -140t-228.5 -50h-168v188h154q71 0 124.5 28t82.5 78t29 116q0 68 -32.5 120.5t-92 82
t-139.5 29.5h-122v186h86q62 0 110 31.5t74 84t26 112.5q0 63 -28.5 113.5t-81.5 79.5t-124 29q-69 0 -123 -27.5t-84.5 -77.5t-30.5 -115v-1058h-212v1074q0 120 55.5 209z" />
    <glyph glyph-name="agrave" unicode="&#xe0;" horiz-adv-x="1112" 
d="M194 547q114 72 292 85q68 5 148.5 9.5t136.5 6.5l-1 86q0 93 -56 143.5t-164 50.5q-91 0 -149 -37.5t-75 -100.5h-212q10 90 67 160.5t154.5 110t222.5 39.5q103 0 198.5 -32t161.5 -116t66 -230v-722h-208v148h-8q-37 -72 -117.5 -122t-204.5 -50q-104 0 -187 39
t-131 113.5t-48 177.5q0 169 114 241zM344.5 187q56.5 -41 149.5 -41q84 0 147 33.5t97 90t34 122.5l-1 99l-255 -17q-109 -8 -168.5 -49.5t-59.5 -120.5q0 -76 56.5 -117zM270 1558h226l164 -326h-170z" />
    <glyph glyph-name="aacute" unicode="&#xe1;" horiz-adv-x="1112" 
d="M194 547q114 72 292 85q68 5 148.5 9.5t136.5 6.5l-1 86q0 93 -56 143.5t-164 50.5q-91 0 -149 -37.5t-75 -100.5h-212q10 90 67 160.5t154.5 110t222.5 39.5q103 0 198.5 -32t161.5 -116t66 -230v-722h-208v148h-8q-37 -72 -117.5 -122t-204.5 -50q-104 0 -187 39
t-131 113.5t-48 177.5q0 169 114 241zM344.5 187q56.5 -41 149.5 -41q84 0 147 33.5t97 90t34 122.5l-1 99l-255 -17q-109 -8 -168.5 -49.5t-59.5 -120.5q0 -76 56.5 -117zM652 1558h224l-220 -326h-168z" />
    <glyph glyph-name="acircumflex" unicode="&#xe2;" horiz-adv-x="1112" 
d="M194 547q114 72 292 85q68 5 148.5 9.5t136.5 6.5l-1 86q0 93 -56 143.5t-164 50.5q-91 0 -149 -37.5t-75 -100.5h-212q10 90 67 160.5t154.5 110t222.5 39.5q103 0 198.5 -32t161.5 -116t66 -230v-722h-208v148h-8q-37 -72 -117.5 -122t-204.5 -50q-104 0 -187 39
t-131 113.5t-48 177.5q0 169 114 241zM344.5 187q56.5 -41 149.5 -41q84 0 147 33.5t97 90t34 122.5l-1 99l-255 -17q-109 -8 -168.5 -49.5t-59.5 -120.5q0 -76 56.5 -117zM574 1406l-146 -188h-192v10l248 300h178l250 -300v-10h-194z" />
    <glyph glyph-name="atilde" unicode="&#xe3;" horiz-adv-x="1112" 
d="M194 547q114 72 292 85q68 5 148.5 9.5t136.5 6.5l-1 86q0 93 -56 143.5t-164 50.5q-91 0 -149 -37.5t-75 -100.5h-212q10 90 67 160.5t154.5 110t222.5 39.5q103 0 198.5 -32t161.5 -116t66 -230v-722h-208v148h-8q-37 -72 -117.5 -122t-204.5 -50q-104 0 -187 39
t-131 113.5t-48 177.5q0 169 114 241zM344.5 187q56.5 -41 149.5 -41q84 0 147 33.5t97 90t34 122.5l-1 99l-255 -17q-109 -8 -168.5 -49.5t-59.5 -120.5q0 -76 56.5 -117zM245.5 1357q29.5 59 80 91t112.5 32q42 0 73.5 -13.5t70.5 -38.5q37 -23 61 -33.5t53 -10.5
q40 0 66 30.5t26 77.5l140 -8q0 -77 -29 -134.5t-79 -88.5t-112 -31q-48 0 -80.5 13.5t-69.5 38.5q-31 21 -54.5 31.5t-55.5 10.5q-39 0 -63.5 -30.5t-24.5 -75.5l-144 4q0 76 29.5 135z" />
    <glyph glyph-name="adieresis" unicode="&#xe4;" horiz-adv-x="1112" 
d="M194 547q114 72 292 85q68 5 148.5 9.5t136.5 6.5l-1 86q0 93 -56 143.5t-164 50.5q-91 0 -149 -37.5t-75 -100.5h-212q10 90 67 160.5t154.5 110t222.5 39.5q103 0 198.5 -32t161.5 -116t66 -230v-722h-208v148h-8q-37 -72 -117.5 -122t-204.5 -50q-104 0 -187 39
t-131 113.5t-48 177.5q0 169 114 241zM344.5 187q56.5 -41 149.5 -41q84 0 147 33.5t97 90t34 122.5l-1 99l-255 -17q-109 -8 -168.5 -49.5t-59.5 -120.5q0 -76 56.5 -117zM304 1273q-29 17 -46.5 46t-17.5 61q0 34 17 62.5t46 45t63 16.5q54 0 89 -35.5t35 -88.5
q0 -33 -16 -61.5t-44.5 -45.5t-63.5 -17q-33 0 -62 17zM720 1273q-29 17 -46.5 46t-17.5 61q0 34 17 62.5t46 45t63 16.5q53 0 89.5 -36t36.5 -88q0 -33 -17 -61.5t-46 -45.5t-63 -17q-33 0 -62 17z" />
    <glyph glyph-name="aring" unicode="&#xe5;" horiz-adv-x="1112" 
d="M194 547q114 72 292 85q68 5 148.5 9.5t136.5 6.5l-1 86q0 93 -56 143.5t-164 50.5q-91 0 -149 -37.5t-75 -100.5h-212q10 90 67 160.5t154.5 110t222.5 39.5q103 0 198.5 -32t161.5 -116t66 -230v-722h-208v148h-8q-37 -72 -117.5 -122t-204.5 -50q-104 0 -187 39
t-131 113.5t-48 177.5q0 169 114 241zM344.5 187q56.5 -41 149.5 -41q84 0 147 33.5t97 90t34 122.5l-1 99l-255 -17q-109 -8 -168.5 -49.5t-59.5 -120.5q0 -76 56.5 -117zM446.5 1237.5q-57.5 31.5 -91 86t-33.5 120.5q0 65 33.5 121t91.5 89.5t127 33.5t126 -33.5
t90.5 -89.5t33.5 -121q0 -66 -33 -120.5t-90.5 -86t-126.5 -31.5q-70 0 -127.5 31.5zM639 1337.5q29 17.5 45 46t16 60.5q0 33 -16 62.5t-45 47.5t-65 18t-65 -18t-45 -47.5t-16 -62.5q0 -32 16 -60.5t45 -46t65 -17.5t65 17.5z" />
    <glyph glyph-name="ae" unicode="&#xe6;" horiz-adv-x="1810" 
d="M1022.5 34.5q-106.5 56.5 -158.5 155.5h-8q-24 -61 -84 -109.5t-145.5 -76.5t-180.5 -28q-104 0 -187 39.5t-131 114.5t-48 178q0 168 113 235.5t293 78.5q68 5 148.5 9.5t136.5 6.5l-1 96q0 93 -56 143.5t-164 50.5q-91 0 -149 -37.5t-75 -100.5h-212q10 90 67 160.5
t154.5 110t222.5 39.5q106 0 199.5 -35t144.5 -127q60 80 147.5 121t198.5 41q131 0 240 -57t175.5 -179.5t66.5 -309.5v-76h-772q3 -101 42 -174t107 -111.5t157 -38.5q93 0 157.5 39t92.5 115l202 -36q-24 -88 -86 -154.5t-155 -103t-205 -36.5q-141 0 -247.5 56.5z
M344.5 188q56.5 -42 149.5 -42q84 0 147 33.5t97 90t34 122.5l-1 89l-255 -17q-111 -8 -169.5 -45t-58.5 -113t56.5 -118zM1520 638q0 82 -34 147.5t-95 102t-141 36.5q-83 0 -147.5 -38.5t-101.5 -104t-42 -143.5h561z" />
    <glyph glyph-name="ccedilla" unicode="&#xe7;" horiz-adv-x="1108" 
d="M144.5 830.5q62.5 127.5 176.5 198.5t265 71q123 0 221 -45.5t158 -128.5t71 -192h-208q-18 81 -80 134.5t-158 53.5q-88 0 -154.5 -46t-103 -131.5t-36.5 -200.5q0 -118 36.5 -204.5t102.5 -133t155 -46.5q91 0 155 48.5t83 135.5h208q-11 -97 -61.5 -176t-134.5 -128
t-194 -59l-6 -33q67 -10 110.5 -52.5t43.5 -117.5q0 -64 -37.5 -112.5t-110.5 -75t-176 -26.5l-4 118q77 0 121.5 22.5t44.5 67.5t-34 65.5t-116 28.5l25 118q-131 18 -227 93t-147 194t-51 267q0 165 62.5 292.5z" />
    <glyph glyph-name="egrave" unicode="&#xe8;" horiz-adv-x="1148" 
d="M323.5 47q-116.5 69 -179 195t-62.5 294q0 166 62.5 294t176.5 199t263 71q131 0 240 -57t175.5 -179.5t66.5 -309.5v-76h-772q3 -101 41.5 -174.5t106.5 -111.5t158 -38q87 0 147 32.5t89 85.5h216q-24 -88 -86 -154.5t-156.5 -103t-211.5 -36.5q-158 0 -274.5 69z
M856 638q0 83 -33.5 148t-94.5 101.5t-142 36.5q-83 0 -147.5 -38.5t-101.5 -104t-42 -143.5h561zM274 1558h226l164 -326h-170z" />
    <glyph glyph-name="eacute" unicode="&#xe9;" horiz-adv-x="1148" 
d="M323.5 47q-116.5 69 -179 195t-62.5 294q0 166 62.5 294t176.5 199t263 71q131 0 240 -57t175.5 -179.5t66.5 -309.5v-76h-772q3 -101 41.5 -174.5t106.5 -111.5t158 -38q87 0 147 32.5t89 85.5h216q-24 -88 -86 -154.5t-156.5 -103t-211.5 -36.5q-158 0 -274.5 69z
M856 638q0 83 -33.5 148t-94.5 101.5t-142 36.5q-83 0 -147.5 -38.5t-101.5 -104t-42 -143.5h561zM654 1558h224l-220 -326h-168z" />
    <glyph glyph-name="ecircumflex" unicode="&#xea;" horiz-adv-x="1148" 
d="M323.5 47q-116.5 69 -179 195t-62.5 294q0 166 62.5 294t176.5 199t263 71q131 0 240 -57t175.5 -179.5t66.5 -309.5v-76h-772q3 -101 41.5 -174.5t106.5 -111.5t158 -38q87 0 147 32.5t89 85.5h216q-24 -88 -86 -154.5t-156.5 -103t-211.5 -36.5q-158 0 -274.5 69z
M856 638q0 83 -33.5 148t-94.5 101.5t-142 36.5q-83 0 -147.5 -38.5t-101.5 -104t-42 -143.5h561zM578 1406l-146 -188h-192v10l248 300h178l250 -300v-10h-194z" />
    <glyph glyph-name="edieresis" unicode="&#xeb;" horiz-adv-x="1148" 
d="M323.5 47q-116.5 69 -179 195t-62.5 294q0 166 62.5 294t176.5 199t263 71q131 0 240 -57t175.5 -179.5t66.5 -309.5v-76h-772q3 -101 41.5 -174.5t106.5 -111.5t158 -38q87 0 147 32.5t89 85.5h216q-24 -88 -86 -154.5t-156.5 -103t-211.5 -36.5q-158 0 -274.5 69z
M856 638q0 83 -33.5 148t-94.5 101.5t-142 36.5q-83 0 -147.5 -38.5t-101.5 -104t-42 -143.5h561zM306 1273q-29 17 -46.5 46t-17.5 61q0 34 17 62.5t46 45t63 16.5q54 0 89 -35.5t35 -88.5q0 -33 -16 -61.5t-44.5 -45.5t-63.5 -17q-33 0 -62 17zM722 1273q-29 17 -46.5 46
t-17.5 61q0 34 17 62.5t46 45t63 16.5q53 0 89.5 -36t36.5 -88q0 -33 -17 -61.5t-46 -45.5t-63 -17q-33 0 -62 17z" />
    <glyph glyph-name="igrave" unicode="&#xec;" horiz-adv-x="474" 
d="M130 1086h214v-1086h-214v1086zM-64 1558h226l164 -326h-170z" />
    <glyph glyph-name="iacute" unicode="&#xed;" horiz-adv-x="474" 
d="M130 1086h214v-1086h-214v1086zM316 1558h224l-220 -326h-168z" />
    <glyph glyph-name="icircumflex" unicode="&#xee;" horiz-adv-x="474" 
d="M130 1086h214v-1086h-214v1086zM240 1406l-146 -188h-192v10l248 300h178l250 -300v-10h-194z" />
    <glyph glyph-name="idieresis" unicode="&#xef;" horiz-adv-x="474" 
d="M130 1086h214v-1086h-214v1086zM-32 1273q-29 17 -46.5 46t-17.5 61q0 34 17 62.5t46 45t63 16.5q54 0 89 -35.5t35 -88.5q0 -33 -16 -61.5t-44.5 -45.5t-63.5 -17q-33 0 -62 17zM384 1273q-29 17 -46.5 46t-17.5 61q0 34 17 62.5t46 45t63 16.5q53 0 89.5 -36t36.5 -88
q0 -33 -17 -61.5t-46 -45.5t-63 -17q-33 0 -62 17z" />
    <glyph glyph-name="eth" unicode="&#xf0;" horiz-adv-x="1144" 
d="M737 1281q151 -145 239 -332.5t88 -408.5q0 -173 -60.5 -300t-172 -194.5t-259.5 -67.5t-259 66t-171 184.5t-60 269.5q0 148 57 265.5t156.5 184t222.5 66.5q104 0 180 -48t122 -118h14q-35 91 -98 182.5t-154 174.5l-268 -133l-38 116l202 100q-85 62 -192 114l58 134
q155 -63 293 -169l249 123l38 -116zM730 198q65 44 98.5 121.5t33.5 176.5q0 94 -31 176.5t-96 134t-161 51.5q-92 0 -156 -47t-96 -127.5t-32 -179.5q0 -97 31 -176t95 -126.5t158 -47.5q91 0 156 44z" />
    <glyph glyph-name="ntilde" unicode="&#xf1;" horiz-adv-x="1168" 
d="M344 0h-214v1086h206v-178h12q40 90 121 141t199 51q113 0 196 -46.5t128.5 -138.5t45.5 -225v-690h-212v664q0 118 -61 185t-169 67q-73 0 -130.5 -32t-89.5 -93.5t-32 -146.5v-644zM257.5 1357q29.5 59 80 91t112.5 32q42 0 73.5 -13.5t70.5 -38.5q37 -23 61 -33.5
t53 -10.5q40 0 66 30.5t26 77.5l140 -8q0 -77 -29 -134.5t-79 -88.5t-112 -31q-48 0 -80.5 13.5t-69.5 38.5q-31 21 -54.5 31.5t-55.5 10.5q-39 0 -63.5 -30.5t-24.5 -75.5l-144 4q0 76 29.5 135z" />
    <glyph glyph-name="ograve" unicode="&#xf2;" horiz-adv-x="1176" 
d="M323 48q-115 70 -178 196.5t-63 293.5q0 168 63 295t178 197t267 70q151 0 266 -70t177.5 -197.5t62.5 -294.5t-62.5 -293.5t-177.5 -196.5t-266 -70q-152 0 -267 70zM750 207q65 51 97.5 137.5t32.5 193.5t-32.5 194.5t-98 139.5t-159.5 52q-96 0 -162.5 -52t-99 -139.5
t-32.5 -194.5t32.5 -193.5t99 -137.5t162.5 -51q95 0 160 51zM286 1558h226l164 -326h-170z" />
    <glyph glyph-name="oacute" unicode="&#xf3;" horiz-adv-x="1176" 
d="M323 48q-115 70 -178 196.5t-63 293.5q0 168 63 295t178 197t267 70q151 0 266 -70t177.5 -197.5t62.5 -294.5t-62.5 -293.5t-177.5 -196.5t-266 -70q-152 0 -267 70zM750 207q65 51 97.5 137.5t32.5 193.5t-32.5 194.5t-98 139.5t-159.5 52q-96 0 -162.5 -52t-99 -139.5
t-32.5 -194.5t32.5 -193.5t99 -137.5t162.5 -51q95 0 160 51zM666 1558h224l-220 -326h-168z" />
    <glyph glyph-name="ocircumflex" unicode="&#xf4;" horiz-adv-x="1176" 
d="M323 48q-115 70 -178 196.5t-63 293.5q0 168 63 295t178 197t267 70q151 0 266 -70t177.5 -197.5t62.5 -294.5t-62.5 -293.5t-177.5 -196.5t-266 -70q-152 0 -267 70zM750 207q65 51 97.5 137.5t32.5 193.5t-32.5 194.5t-98 139.5t-159.5 52q-96 0 -162.5 -52t-99 -139.5
t-32.5 -194.5t32.5 -193.5t99 -137.5t162.5 -51q95 0 160 51zM590 1406l-146 -188h-192v10l248 300h178l250 -300v-10h-194z" />
    <glyph glyph-name="otilde" unicode="&#xf5;" horiz-adv-x="1176" 
d="M323 48q-115 70 -178 196.5t-63 293.5q0 168 63 295t178 197t267 70q151 0 266 -70t177.5 -197.5t62.5 -294.5t-62.5 -293.5t-177.5 -196.5t-266 -70q-152 0 -267 70zM750 207q65 51 97.5 137.5t32.5 193.5t-32.5 194.5t-98 139.5t-159.5 52q-96 0 -162.5 -52t-99 -139.5
t-32.5 -194.5t32.5 -193.5t99 -137.5t162.5 -51q95 0 160 51zM261.5 1357q29.5 59 80 91t112.5 32q42 0 73.5 -13.5t70.5 -38.5q37 -23 61 -33.5t53 -10.5q40 0 66 30.5t26 77.5l140 -8q0 -77 -29 -134.5t-79 -88.5t-112 -31q-48 0 -80.5 13.5t-69.5 38.5q-31 21 -54.5 31.5
t-55.5 10.5q-39 0 -63.5 -30.5t-24.5 -75.5l-144 4q0 76 29.5 135z" />
    <glyph glyph-name="odieresis" unicode="&#xf6;" horiz-adv-x="1176" 
d="M323 48q-115 70 -178 196.5t-63 293.5q0 168 63 295t178 197t267 70q151 0 266 -70t177.5 -197.5t62.5 -294.5t-62.5 -293.5t-177.5 -196.5t-266 -70q-152 0 -267 70zM750 207q65 51 97.5 137.5t32.5 193.5t-32.5 194.5t-98 139.5t-159.5 52q-96 0 -162.5 -52t-99 -139.5
t-32.5 -194.5t32.5 -193.5t99 -137.5t162.5 -51q95 0 160 51zM320 1273q-29 17 -46.5 46t-17.5 61q0 34 17 62.5t46 45t63 16.5q54 0 89 -35.5t35 -88.5q0 -33 -16 -61.5t-44.5 -45.5t-63.5 -17q-33 0 -62 17zM736 1273q-29 17 -46.5 46t-17.5 61q0 34 17 62.5t46 45
t63 16.5q53 0 89.5 -36t36.5 -88q0 -33 -17 -61.5t-46 -45.5t-63 -17q-33 0 -62 17z" />
    <glyph glyph-name="divide" unicode="&#xf7;" horiz-adv-x="1302" 
d="M1120 476h-936v188h936v-188zM579.5 73q-33.5 19 -52.5 51.5t-19 71.5q0 37 19.5 69.5t52.5 51.5t72 19q37 0 69.5 -19t51.5 -51.5t19 -69.5q0 -39 -19 -71.5t-51 -51.5t-70 -19q-39 0 -72.5 19zM580 825q-33 19 -52.5 51.5t-19.5 71.5q0 37 19.5 69t53 50.5t71.5 18.5
q37 0 69.5 -18.5t51.5 -50.5t19 -69q0 -39 -19 -71.5t-51 -51.5t-70 -19q-39 0 -72 19z" />
    <glyph glyph-name="oslash" unicode="&#xf8;" horiz-adv-x="1176" 
d="M146 18l76 112q-68 74 -104 178.5t-36 229.5q0 168 63 295t178 197t267 70q141 0 251 -61l69 101l120 -80l-76 -111q69 -74 105.5 -179t36.5 -232q0 -167 -62.5 -293.5t-177.5 -196.5t-266 -70q-144 0 -256 63l-70 -103zM750 207q65 51 97.5 137.5t32.5 193.5
q0 134 -48 231l-391 -572q65 -41 149 -41q95 0 160 51zM344 309l391 574q-63 41 -145 41q-96 0 -162.5 -52t-99 -139.5t-32.5 -194.5q0 -133 48 -229z" />
    <glyph glyph-name="ugrave" unicode="&#xf9;" horiz-adv-x="1162" 
d="M820 1086h212v-1086h-208v188h-12q-39 -91 -123 -146.5t-201 -55.5q-106 0 -187 47t-126 139t-45 224v690h214v-664q0 -73 28 -128t77.5 -84.5t114.5 -29.5q62 0 121 30.5t97 92t38 149.5v634zM280 1558h226l164 -326h-170z" />
    <glyph glyph-name="uacute" unicode="&#xfa;" horiz-adv-x="1162" 
d="M820 1086h212v-1086h-208v188h-12q-39 -91 -123 -146.5t-201 -55.5q-106 0 -187 47t-126 139t-45 224v690h214v-664q0 -73 28 -128t77.5 -84.5t114.5 -29.5q62 0 121 30.5t97 92t38 149.5v634zM660 1558h224l-220 -326h-168z" />
    <glyph glyph-name="ucircumflex" unicode="&#xfb;" horiz-adv-x="1162" 
d="M820 1086h212v-1086h-208v188h-12q-39 -91 -123 -146.5t-201 -55.5q-106 0 -187 47t-126 139t-45 224v690h214v-664q0 -73 28 -128t77.5 -84.5t114.5 -29.5q62 0 121 30.5t97 92t38 149.5v634zM584 1406l-146 -188h-192v10l248 300h178l250 -300v-10h-194z" />
    <glyph glyph-name="udieresis" unicode="&#xfc;" horiz-adv-x="1162" 
d="M820 1086h212v-1086h-208v188h-12q-39 -91 -123 -146.5t-201 -55.5q-106 0 -187 47t-126 139t-45 224v690h214v-664q0 -73 28 -128t77.5 -84.5t114.5 -29.5q62 0 121 30.5t97 92t38 149.5v634zM314 1273q-29 17 -46.5 46t-17.5 61q0 34 17 62.5t46 45t63 16.5
q54 0 89 -35.5t35 -88.5q0 -33 -16 -61.5t-44.5 -45.5t-63.5 -17q-33 0 -62 17zM730 1273q-29 17 -46.5 46t-17.5 61q0 34 17 62.5t46 45t63 16.5q53 0 89.5 -36t36.5 -88q0 -33 -17 -61.5t-46 -45.5t-63 -17q-33 0 -62 17z" />
    <glyph glyph-name="yacute" unicode="&#xfd;" horiz-adv-x="1106" 
d="M148 -402v178q48 -4 96 -4q41 0 68 8t53.5 39t50.5 95l26 72l-398 1100h228l274 -842h12l274 842h230l-448 -1230q-47 -131 -133.5 -197.5t-218.5 -66.5q-72 0 -114 6zM630 1558h224l-220 -326h-168z" />
    <glyph glyph-name="thorn" unicode="&#xfe;" horiz-adv-x="1192" 
d="M344 1448v-518h14q40 71 106.5 120.5t191.5 49.5q131 0 234 -67t161.5 -193.5t58.5 -299.5q0 -172 -58.5 -299.5t-161.5 -195t-234 -67.5q-204 0 -298 172h-14v-558h-214v1856h214zM869.5 738.5q-32.5 84.5 -98 132t-159.5 47.5q-138 0 -209 -101.5t-71 -272.5
q0 -113 31.5 -199.5t94.5 -135.5t154 -49q93 0 158.5 49.5t98.5 136t33 198.5q0 110 -32.5 194.5z" />
    <glyph glyph-name="ydieresis" unicode="&#xff;" horiz-adv-x="1106" 
d="M148 -402v178q48 -4 96 -4q41 0 68 8t53.5 39t50.5 95l26 72l-398 1100h228l274 -842h12l274 842h230l-448 -1230q-47 -131 -133.5 -197.5t-218.5 -66.5q-72 0 -114 6zM284 1273q-29 17 -46.5 46t-17.5 61q0 34 17 62.5t46 45t63 16.5q54 0 89 -35.5t35 -88.5
q0 -33 -16 -61.5t-44.5 -45.5t-63.5 -17q-33 0 -62 17zM700 1273q-29 17 -46.5 46t-17.5 61q0 34 17 62.5t46 45t63 16.5q53 0 89.5 -36t36.5 -88q0 -33 -17 -61.5t-46 -45.5t-63 -17q-33 0 -62 17z" />
    <glyph glyph-name="Amacron" unicode="&#x100;" horiz-adv-x="1370" 
d="M38 0l520 1448h254l522 -1448h-234l-132 382h-564l-132 -382h-234zM904 566l-214 618h-10l-213 -618h437zM1020 1660h-670v150h670v-150z" />
    <glyph glyph-name="amacron" unicode="&#x101;" horiz-adv-x="1112" 
d="M194 547q114 72 292 85q68 5 148.5 9.5t136.5 6.5l-1 86q0 93 -56 143.5t-164 50.5q-91 0 -149 -37.5t-75 -100.5h-212q10 90 67 160.5t154.5 110t222.5 39.5q103 0 198.5 -32t161.5 -116t66 -230v-722h-208v148h-8q-37 -72 -117.5 -122t-204.5 -50q-104 0 -187 39
t-131 113.5t-48 177.5q0 169 114 241zM344.5 187q56.5 -41 149.5 -41q84 0 147 33.5t97 90t34 122.5l-1 99l-255 -17q-109 -8 -168.5 -49.5t-59.5 -120.5q0 -76 56.5 -117zM908 1298h-670v150h670v-150z" />
    <glyph glyph-name="Abreve" unicode="&#x102;" horiz-adv-x="1370" 
d="M38 0l520 1448h254l522 -1448h-234l-132 382h-564l-132 -382h-234zM904 566l-214 618h-10l-213 -618h437zM960.5 1676.5q-38.5 -60.5 -109.5 -94.5t-165 -34t-165 34t-109 94.5t-38 139.5h174q0 -58 33.5 -96t104.5 -38q69 0 103.5 38.5t34.5 95.5h176
q-1 -79 -39.5 -139.5z" />
    <glyph glyph-name="abreve" unicode="&#x103;" horiz-adv-x="1112" 
d="M194 547q114 72 292 85q68 5 148.5 9.5t136.5 6.5l-1 86q0 93 -56 143.5t-164 50.5q-91 0 -149 -37.5t-75 -100.5h-212q10 90 67 160.5t154.5 110t222.5 39.5q103 0 198.5 -32t161.5 -116t66 -230v-722h-208v148h-8q-37 -72 -117.5 -122t-204.5 -50q-104 0 -187 39
t-131 113.5t-48 177.5q0 169 114 241zM344.5 187q56.5 -41 149.5 -41q84 0 147 33.5t97 90t34 122.5l-1 99l-255 -17q-109 -8 -168.5 -49.5t-59.5 -120.5q0 -76 56.5 -117zM848.5 1314.5q-38.5 -60.5 -109.5 -94.5t-165 -34t-165 34t-109 94.5t-38 139.5h174q0 -58 33.5 -96
t104.5 -38q69 0 103.5 38.5t34.5 95.5h176q-1 -79 -39.5 -139.5z" />
    <glyph glyph-name="Aogonek" unicode="&#x104;" horiz-adv-x="1370" 
d="M38 0l520 1448h254l522 -1448q-75 -47 -117.5 -93.5t-42.5 -100.5q0 -68 72 -68q48 0 88 22l20 -134q-70 -44 -156 -44q-96 0 -154 54t-58 152q0 58 28 113.5t85 101.5l-131 379h-564l-132 -382h-234zM904 566l-214 618h-10l-213 -618h437z" />
    <glyph glyph-name="aogonek" unicode="&#x105;" horiz-adv-x="1112" 
d="M696.5 -364.5q-58.5 53.5 -58.5 150.5q0 65 34 125.5t104 109.5v127h-8q-37 -72 -117.5 -122t-204.5 -50q-104 0 -187 39t-131 113.5t-48 177.5q0 169 114 241t292 85q68 5 148.5 9.5t136.5 6.5l-1 86q0 93 -56 143.5t-164 50.5q-91 0 -149 -37.5t-75 -100.5h-212
q10 90 67 160.5t154.5 110t222.5 39.5q103 0 198.5 -32t161.5 -116t66 -230v-721l2 -1q-75 -47 -117.5 -93.5t-42.5 -100.5q0 -68 72 -68q48 0 88 22l20 -134q-70 -44 -156 -44q-95 0 -153.5 53.5zM344.5 187q56.5 -41 149.5 -41q84 0 147 33.5t97 90t34 122.5l-1 99
l-255 -17q-109 -8 -168.5 -49.5t-59.5 -120.5q0 -76 56.5 -117z" />
    <glyph glyph-name="Cacute" unicode="&#x106;" horiz-adv-x="1440" 
d="M1057 1132.5q-53 65.5 -131.5 99.5t-171.5 34q-126 0 -225 -63.5t-155 -185.5t-56 -293t56.5 -293.5t155 -185.5t224.5 -63q92 0 170 33.5t131.5 98t72.5 154.5l222 -2q-23 -142 -104.5 -252.5t-209 -172t-284.5 -61.5q-189 0 -337 90t-231.5 258.5t-83.5 395.5t84 395.5
t232 258.5t336 90q153 0 280 -58.5t210 -169.5t108 -264h-222q-18 91 -71 156.5zM830 1920h224l-220 -326h-168z" />
    <glyph glyph-name="cacute" unicode="&#x107;" horiz-adv-x="1108" 
d="M320 49.5q-115 71.5 -176.5 198.5t-61.5 290q0 165 62.5 292.5t176.5 198.5t265 71q123 0 221 -45.5t158 -128.5t71 -192h-208q-18 81 -80 134.5t-158 53.5q-88 0 -154.5 -46t-103 -131.5t-36.5 -200.5q0 -118 36.5 -204.5t102.5 -133t155 -46.5q91 0 155 48.5t83 135.5
h208q-12 -106 -69.5 -189t-154.5 -130t-222 -47q-155 0 -270 71.5zM662 1558h224l-220 -326h-168z" />
    <glyph glyph-name="Ccircumflex" unicode="&#x108;" horiz-adv-x="1440" 
d="M1057 1132.5q-53 65.5 -131.5 99.5t-171.5 34q-126 0 -225 -63.5t-155 -185.5t-56 -293t56.5 -293.5t155 -185.5t224.5 -63q92 0 170 33.5t131.5 98t72.5 154.5l222 -2q-23 -142 -104.5 -252.5t-209 -172t-284.5 -61.5q-189 0 -337 90t-231.5 258.5t-83.5 395.5t84 395.5
t232 258.5t336 90q153 0 280 -58.5t210 -169.5t108 -264h-222q-18 91 -71 156.5zM754 1768l-146 -188h-192v10l248 300h178l250 -300v-10h-194z" />
    <glyph glyph-name="ccircumflex" unicode="&#x109;" horiz-adv-x="1108" 
d="M320 49.5q-115 71.5 -176.5 198.5t-61.5 290q0 165 62.5 292.5t176.5 198.5t265 71q123 0 221 -45.5t158 -128.5t71 -192h-208q-18 81 -80 134.5t-158 53.5q-88 0 -154.5 -46t-103 -131.5t-36.5 -200.5q0 -118 36.5 -204.5t102.5 -133t155 -46.5q91 0 155 48.5t83 135.5
h208q-12 -106 -69.5 -189t-154.5 -130t-222 -47q-155 0 -270 71.5zM586 1406l-146 -188h-192v10l248 300h178l250 -300v-10h-194z" />
    <glyph glyph-name="Cdotaccent" unicode="&#x10a;" horiz-adv-x="1440" 
d="M1057 1132.5q-53 65.5 -131.5 99.5t-171.5 34q-126 0 -225 -63.5t-155 -185.5t-56 -293t56.5 -293.5t155 -185.5t224.5 -63q92 0 170 33.5t131.5 98t72.5 154.5l222 -2q-23 -142 -104.5 -252.5t-209 -172t-284.5 -61.5q-189 0 -337 90t-231.5 258.5t-83.5 395.5t84 395.5
t232 258.5t336 90q153 0 280 -58.5t210 -169.5t108 -264h-222q-18 91 -71 156.5zM684.5 1633q-31.5 17 -50 46t-18.5 63t18.5 63t50 46t67.5 17t66.5 -17t49 -46t18.5 -63t-18.5 -63t-49 -46t-66.5 -17t-67.5 17z" />
    <glyph glyph-name="cdotaccent" unicode="&#x10b;" horiz-adv-x="1108" 
d="M320 49.5q-115 71.5 -176.5 198.5t-61.5 290q0 165 62.5 292.5t176.5 198.5t265 71q123 0 221 -45.5t158 -128.5t71 -192h-208q-18 81 -80 134.5t-158 53.5q-88 0 -154.5 -46t-103 -131.5t-36.5 -200.5q0 -118 36.5 -204.5t102.5 -133t155 -46.5q91 0 155 48.5t83 135.5
h208q-12 -106 -69.5 -189t-154.5 -130t-222 -47q-155 0 -270 71.5zM518.5 1271q-31.5 17 -50 46t-18.5 63t18.5 63t50 46t67.5 17t66.5 -17t49 -46t18.5 -63t-18.5 -63t-49 -46t-66.5 -17t-67.5 17z" />
    <glyph glyph-name="Ccaron" unicode="&#x10c;" horiz-adv-x="1440" 
d="M1057 1132.5q-53 65.5 -131.5 99.5t-171.5 34q-126 0 -225 -63.5t-155 -185.5t-56 -293t56.5 -293.5t155 -185.5t224.5 -63q92 0 170 33.5t131.5 98t72.5 154.5l222 -2q-23 -142 -104.5 -252.5t-209 -172t-284.5 -61.5q-189 0 -337 90t-231.5 258.5t-83.5 395.5t84 395.5
t232 258.5t336 90q153 0 280 -58.5t210 -169.5t108 -264h-222q-18 91 -71 156.5zM752 1700l146 188h192v-10l-248 -300h-178l-250 300v10h194z" />
    <glyph glyph-name="ccaron" unicode="&#x10d;" horiz-adv-x="1108" 
d="M320 49.5q-115 71.5 -176.5 198.5t-61.5 290q0 165 62.5 292.5t176.5 198.5t265 71q123 0 221 -45.5t158 -128.5t71 -192h-208q-18 81 -80 134.5t-158 53.5q-88 0 -154.5 -46t-103 -131.5t-36.5 -200.5q0 -118 36.5 -204.5t102.5 -133t155 -46.5q91 0 155 48.5t83 135.5
h208q-12 -106 -69.5 -189t-154.5 -130t-222 -47q-155 0 -270 71.5zM584 1338l146 188h192v-10l-248 -300h-178l-250 300v10h194z" />
    <glyph glyph-name="Dcaron" unicode="&#x10e;" horiz-adv-x="1414" 
d="M148 0v1448h484q212 0 365.5 -86.5t235 -249t81.5 -386.5q0 -225 -82.5 -388.5t-239 -250.5t-374.5 -87h-470zM606 192q243 0 366.5 137.5t123.5 396.5q0 257 -121.5 393.5t-356.5 136.5h-250v-1064h238zM584 1700l146 188h192v-10l-248 -300h-178l-250 300v10h194z" />
    <glyph glyph-name="dcaron" unicode="&#x10f;" horiz-adv-x="1364" 
d="M302 46q-103 68 -161.5 195.5t-58.5 298.5q0 173 58.5 299.5t162 193.5t235.5 67q93 0 155.5 -30.5t97 -70.5t61.5 -89h10v538h214v-1448h-208v170h-16q-44 -80 -115 -136t-201 -56q-131 0 -234 68zM737 208q64 48 97.5 135t33.5 201t-33 198t-97 130t-154 46
q-92 0 -156 -48t-96 -132.5t-32 -193.5q0 -111 32.5 -198t97 -136.5t154.5 -49.5q89 0 153 48zM1210 1518h190l-50 -368h-140v368z" />
    <glyph glyph-name="Dcroat" unicode="&#x110;" horiz-adv-x="1414" 
d="M148 0v680h-216v146h216v622h484q212 0 365.5 -86.5t235 -249t81.5 -386.5q0 -225 -82.5 -388.5t-239 -250.5t-374.5 -87h-470zM606 192q243 0 366.5 137.5t123.5 396.5q0 257 -121.5 393.5t-356.5 136.5h-250v-430h214v-146h-214v-488h238z" />
    <glyph glyph-name="dcroat" unicode="&#x111;" horiz-adv-x="1224" 
d="M302 46q-103 68 -161.5 195.5t-58.5 298.5q0 173 58.5 299.5t162 193.5t235.5 67q93 0 155.5 -30.5t97 -70.5t61.5 -89h10v264h-292v146h292v128h214v-128h144v-146h-144v-1174h-208v170h-16q-44 -80 -115 -136t-201 -56q-131 0 -234 68zM737 208q64 48 97.5 135
t33.5 201t-33 198t-97 130t-154 46q-92 0 -156 -48t-96 -132.5t-32 -193.5q0 -111 32.5 -198t97 -136.5t154.5 -49.5q89 0 153 48z" />
    <glyph glyph-name="Emacron" unicode="&#x112;" horiz-adv-x="1178" 
d="M148 1448h908v-190h-688v-438h640v-188h-640v-442h696v-190h-916v1448zM936 1660h-670v150h670v-150z" />
    <glyph glyph-name="emacron" unicode="&#x113;" horiz-adv-x="1148" 
d="M323.5 47q-116.5 69 -179 195t-62.5 294q0 166 62.5 294t176.5 199t263 71q131 0 240 -57t175.5 -179.5t66.5 -309.5v-76h-772q3 -101 41.5 -174.5t106.5 -111.5t158 -38q87 0 147 32.5t89 85.5h216q-24 -88 -86 -154.5t-156.5 -103t-211.5 -36.5q-158 0 -274.5 69z
M856 638q0 83 -33.5 148t-94.5 101.5t-142 36.5q-83 0 -147.5 -38.5t-101.5 -104t-42 -143.5h561zM910 1298h-670v150h670v-150z" />
    <glyph glyph-name="Ebreve" unicode="&#x114;" horiz-adv-x="1178" 
d="M148 1448h908v-190h-688v-438h640v-188h-640v-442h696v-190h-916v1448zM876.5 1676.5q-38.5 -60.5 -109.5 -94.5t-165 -34t-165 34t-109 94.5t-38 139.5h174q0 -58 33.5 -96t104.5 -38q69 0 103.5 38.5t34.5 95.5h176q-1 -79 -39.5 -139.5z" />
    <glyph glyph-name="ebreve" unicode="&#x115;" horiz-adv-x="1148" 
d="M323.5 47q-116.5 69 -179 195t-62.5 294q0 166 62.5 294t176.5 199t263 71q131 0 240 -57t175.5 -179.5t66.5 -309.5v-76h-772q3 -101 41.5 -174.5t106.5 -111.5t158 -38q87 0 147 32.5t89 85.5h216q-24 -88 -86 -154.5t-156.5 -103t-211.5 -36.5q-158 0 -274.5 69z
M856 638q0 83 -33.5 148t-94.5 101.5t-142 36.5q-83 0 -147.5 -38.5t-101.5 -104t-42 -143.5h561zM850.5 1314.5q-38.5 -60.5 -109.5 -94.5t-165 -34t-165 34t-109 94.5t-38 139.5h174q0 -58 33.5 -96t104.5 -38q69 0 103.5 38.5t34.5 95.5h176q-1 -79 -39.5 -139.5z" />
    <glyph glyph-name="Edotaccent" unicode="&#x116;" horiz-adv-x="1178" 
d="M148 1448h908v-190h-688v-438h640v-188h-640v-442h696v-190h-916v1448zM534.5 1633q-31.5 17 -50 46t-18.5 63t18.5 63t50 46t67.5 17t66.5 -17t49 -46t18.5 -63t-18.5 -63t-49 -46t-66.5 -17t-67.5 17z" />
    <glyph glyph-name="edotaccent" unicode="&#x117;" horiz-adv-x="1148" 
d="M323.5 47q-116.5 69 -179 195t-62.5 294q0 166 62.5 294t176.5 199t263 71q131 0 240 -57t175.5 -179.5t66.5 -309.5v-76h-772q3 -101 41.5 -174.5t106.5 -111.5t158 -38q87 0 147 32.5t89 85.5h216q-24 -88 -86 -154.5t-156.5 -103t-211.5 -36.5q-158 0 -274.5 69z
M856 638q0 83 -33.5 148t-94.5 101.5t-142 36.5q-83 0 -147.5 -38.5t-101.5 -104t-42 -143.5h561zM508.5 1271q-31.5 17 -50 46t-18.5 63t18.5 63t50 46t67.5 17t66.5 -17t49 -46t18.5 -63t-18.5 -63t-49 -46t-66.5 -17t-67.5 17z" />
    <glyph glyph-name="Eogonek" unicode="&#x118;" horiz-adv-x="1178" 
d="M148 1448h908v-190h-688v-438h640v-188h-640v-442h696v-189l2 -1q-75 -47 -117.5 -93.5t-42.5 -100.5q0 -68 72 -68q48 0 88 22l20 -134q-70 -44 -156 -44q-96 0 -154 54t-58 152q0 57 27.5 112t82.5 100h-680v1448z" />
    <glyph glyph-name="eogonek" unicode="&#x119;" horiz-adv-x="1148" 
d="M484 -354q-58 54 -58 152q0 49 20.5 97t60.5 89q-132 19 -227.5 91.5t-146.5 190.5t-51 270q0 166 62.5 294t176.5 199t263 71q131 0 240 -57t175.5 -179.5t66.5 -309.5v-76h-772q3 -101 41.5 -174.5t106.5 -111.5t158 -38q87 0 147 32.5t89 85.5h216
q-28 -102 -105.5 -173.5t-193.5 -101.5q-65 -44 -102 -87.5t-37 -93.5q0 -68 72 -68q48 0 88 22l20 -134q-70 -44 -156 -44q-96 0 -154 54zM856 638q0 83 -33.5 148t-94.5 101.5t-142 36.5q-83 0 -147.5 -38.5t-101.5 -104t-42 -143.5h561z" />
    <glyph glyph-name="Ecaron" unicode="&#x11a;" horiz-adv-x="1178" 
d="M148 1448h908v-190h-688v-438h640v-188h-640v-442h696v-190h-916v1448zM600 1700l146 188h192v-10l-248 -300h-178l-250 300v10h194z" />
    <glyph glyph-name="ecaron" unicode="&#x11b;" horiz-adv-x="1148" 
d="M323.5 47q-116.5 69 -179 195t-62.5 294q0 166 62.5 294t176.5 199t263 71q131 0 240 -57t175.5 -179.5t66.5 -309.5v-76h-772q3 -101 41.5 -174.5t106.5 -111.5t158 -38q87 0 147 32.5t89 85.5h216q-24 -88 -86 -154.5t-156.5 -103t-211.5 -36.5q-158 0 -274.5 69z
M856 638q0 83 -33.5 148t-94.5 101.5t-142 36.5q-83 0 -147.5 -38.5t-101.5 -104t-42 -143.5h561zM576 1338l146 188h192v-10l-248 -300h-178l-250 300v10h194z" />
    <glyph glyph-name="Gcircumflex" unicode="&#x11c;" horiz-adv-x="1468" 
d="M988.5 1193.5q-96.5 72.5 -238.5 72.5q-123 0 -221.5 -63.5t-154.5 -186t-56 -292.5q0 -171 56.5 -293t156.5 -185.5t229 -63.5q115 0 202 46t135.5 131.5t50.5 200.5h-356v182h570v-164q0 -180 -77 -315.5t-214.5 -209t-312.5 -73.5q-195 0 -344 90.5t-231.5 259
t-82.5 394.5t83 394.5t230.5 259t334.5 90.5q155 0 283.5 -60.5t212 -169t108.5 -248.5h-226q-41 131 -137.5 203.5zM748 1768l-146 -188h-192v10l248 300h178l250 -300v-10h-194z" />
    <glyph glyph-name="gcircumflex" unicode="&#x11d;" horiz-adv-x="1206" 
d="M346.5 -391q-103.5 39 -164 112t-70.5 173h218q15 -75 82 -113.5t176 -38.5q132 0 205 59t73 183v214h-14q-41 -75 -112.5 -128.5t-203.5 -53.5q-129 0 -232.5 63t-162.5 185t-59 290q0 169 58.5 292.5t162 188.5t235.5 65q93 0 155.5 -30.5t96.5 -70t64 -89.5h14v176
h208v-1110q0 -135 -63 -226t-173 -135.5t-254 -44.5q-136 0 -239.5 39zM794 286.5q74 94.5 74 263.5q0 111 -33 194t-97 128.5t-154 45.5q-92 0 -156 -47.5t-96 -131t-32 -189.5q0 -107 32.5 -187.5t96.5 -125.5t155 -45q136 0 210 94.5zM600 1406l-146 -188h-192v10
l248 300h178l250 -300v-10h-194z" />
    <glyph glyph-name="Gbreve" unicode="&#x11e;" horiz-adv-x="1468" 
d="M988.5 1193.5q-96.5 72.5 -238.5 72.5q-123 0 -221.5 -63.5t-154.5 -186t-56 -292.5q0 -171 56.5 -293t156.5 -185.5t229 -63.5q115 0 202 46t135.5 131.5t50.5 200.5h-356v182h570v-164q0 -180 -77 -315.5t-214.5 -209t-312.5 -73.5q-195 0 -344 90.5t-231.5 259
t-82.5 394.5t83 394.5t230.5 259t334.5 90.5q155 0 283.5 -60.5t212 -169t108.5 -248.5h-226q-41 131 -137.5 203.5zM1022.5 1676.5q-38.5 -60.5 -109.5 -94.5t-165 -34t-165 34t-109 94.5t-38 139.5h174q0 -58 33.5 -96t104.5 -38q69 0 103.5 38.5t34.5 95.5h176
q-1 -79 -39.5 -139.5z" />
    <glyph glyph-name="gbreve" unicode="&#x11f;" horiz-adv-x="1206" 
d="M346.5 -391q-103.5 39 -164 112t-70.5 173h218q15 -75 82 -113.5t176 -38.5q132 0 205 59t73 183v214h-14q-41 -75 -112.5 -128.5t-203.5 -53.5q-129 0 -232.5 63t-162.5 185t-59 290q0 169 58.5 292.5t162 188.5t235.5 65q93 0 155.5 -30.5t96.5 -70t64 -89.5h14v176
h208v-1110q0 -135 -63 -226t-173 -135.5t-254 -44.5q-136 0 -239.5 39zM794 286.5q74 94.5 74 263.5q0 111 -33 194t-97 128.5t-154 45.5q-92 0 -156 -47.5t-96 -131t-32 -189.5q0 -107 32.5 -187.5t96.5 -125.5t155 -45q136 0 210 94.5zM874.5 1314.5
q-38.5 -60.5 -109.5 -94.5t-165 -34t-165 34t-109 94.5t-38 139.5h174q0 -58 33.5 -96t104.5 -38q69 0 103.5 38.5t34.5 95.5h176q-1 -79 -39.5 -139.5z" />
    <glyph glyph-name="Gdotaccent" unicode="&#x120;" horiz-adv-x="1468" 
d="M988.5 1193.5q-96.5 72.5 -238.5 72.5q-123 0 -221.5 -63.5t-154.5 -186t-56 -292.5q0 -171 56.5 -293t156.5 -185.5t229 -63.5q115 0 202 46t135.5 131.5t50.5 200.5h-356v182h570v-164q0 -180 -77 -315.5t-214.5 -209t-312.5 -73.5q-195 0 -344 90.5t-231.5 259
t-82.5 394.5t83 394.5t230.5 259t334.5 90.5q155 0 283.5 -60.5t212 -169t108.5 -248.5h-226q-41 131 -137.5 203.5zM680.5 1633q-31.5 17 -50 46t-18.5 63t18.5 63t50 46t67.5 17t66.5 -17t49 -46t18.5 -63t-18.5 -63t-49 -46t-66.5 -17t-67.5 17z" />
    <glyph glyph-name="gdotaccent" unicode="&#x121;" horiz-adv-x="1206" 
d="M346.5 -391q-103.5 39 -164 112t-70.5 173h218q15 -75 82 -113.5t176 -38.5q132 0 205 59t73 183v214h-14q-41 -75 -112.5 -128.5t-203.5 -53.5q-129 0 -232.5 63t-162.5 185t-59 290q0 169 58.5 292.5t162 188.5t235.5 65q93 0 155.5 -30.5t96.5 -70t64 -89.5h14v176
h208v-1110q0 -135 -63 -226t-173 -135.5t-254 -44.5q-136 0 -239.5 39zM794 286.5q74 94.5 74 263.5q0 111 -33 194t-97 128.5t-154 45.5q-92 0 -156 -47.5t-96 -131t-32 -189.5q0 -107 32.5 -187.5t96.5 -125.5t155 -45q136 0 210 94.5zM532.5 1271q-31.5 17 -50 46
t-18.5 63t18.5 63t50 46t67.5 17t66.5 -17t49 -46t18.5 -63t-18.5 -63t-49 -46t-66.5 -17t-67.5 17z" />
    <glyph glyph-name="uni0122" unicode="&#x122;" horiz-adv-x="1468" 
d="M988.5 1193.5q-96.5 72.5 -238.5 72.5q-123 0 -221.5 -63.5t-154.5 -186t-56 -292.5q0 -171 56.5 -293t156.5 -185.5t229 -63.5q115 0 202 46t135.5 131.5t50.5 200.5h-356v182h570v-164q0 -180 -77 -315.5t-214.5 -209t-312.5 -73.5q-195 0 -344 90.5t-231.5 259
t-82.5 394.5t83 394.5t230.5 259t334.5 90.5q155 0 283.5 -60.5t212 -169t108.5 -248.5h-226q-41 131 -137.5 203.5zM640 -112h208l-132 -362h-160z" />
    <glyph glyph-name="uni0123" unicode="&#x123;" horiz-adv-x="1206" 
d="M346.5 -391q-103.5 39 -164 112t-70.5 173h218q15 -75 82 -113.5t176 -38.5q132 0 205 59t73 183v214h-14q-41 -75 -112.5 -128.5t-203.5 -53.5q-129 0 -232.5 63t-162.5 185t-59 290q0 169 58.5 292.5t162 188.5t235.5 65q93 0 155.5 -30.5t96.5 -70t64 -89.5h14v176
h208v-1110q0 -135 -63 -226t-173 -135.5t-254 -44.5q-136 0 -239.5 39zM794 286.5q74 94.5 74 263.5q0 111 -33 194t-97 128.5t-154 45.5q-92 0 -156 -47.5t-96 -131t-32 -189.5q0 -107 32.5 -187.5t96.5 -125.5t155 -45q136 0 210 94.5zM513 1481.5q21 60.5 54.5 109.5
t68.5 77l124 -84q-31 -54 -46.5 -110.5t-15.5 -123.5v-118h-206v128q0 61 21 121.5z" />
    <glyph glyph-name="Hcircumflex" unicode="&#x124;" horiz-adv-x="1456" 
d="M148 1448h220v-628h720v628h220v-1448h-220v632h-720v-632h-220v1448zM734 1770l-146 -188h-192v10l248 300h178l250 -300v-10h-194z" />
    <glyph glyph-name="hcircumflex" unicode="&#x125;" horiz-adv-x="1176" 
d="M344 0h-214v1448h210v-540h14q85 192 322 192q113 0 196.5 -46.5t129.5 -138.5t46 -225v-690h-214v664q0 120 -61 186t-169 66q-76 0 -134.5 -32t-92 -93.5t-33.5 -146.5v-644zM238 1768l-146 -188h-192v10l248 300h178l250 -300v-10h-194z" />
    <glyph glyph-name="Hbar" unicode="&#x126;" horiz-adv-x="1548" 
d="M1472 1006h-116v-1006h-220v632h-720v-632h-220v1006h-120v156h120v286h220v-286h720v286h220v-286h116v-156zM1136 820v186h-720v-186h720z" />
    <glyph glyph-name="hbar" unicode="&#x127;" horiz-adv-x="1176" 
d="M344 0h-214v1190h-218v146h218v112h210v-112h222v-146h-222v-282h14q85 192 322 192q113 0 196.5 -46.5t129.5 -138.5t46 -225v-690h-214v664q0 120 -61 186t-169 66q-76 0 -134.5 -32t-92 -93.5t-33.5 -146.5v-644z" />
    <glyph glyph-name="Itilde" unicode="&#x128;" horiz-adv-x="858" 
d="M540 0h-220v1448h220v-1448zM103.5 1719q29.5 59 80 91t112.5 32q42 0 73.5 -13.5t70.5 -38.5q37 -23 61 -33.5t53 -10.5q40 0 66 30.5t26 77.5l140 -8q0 -77 -29 -134.5t-79 -88.5t-112 -31q-48 0 -80.5 13.5t-69.5 38.5q-31 21 -54.5 31.5t-55.5 10.5
q-39 0 -63.5 -30.5t-24.5 -75.5l-144 4q0 76 29.5 135z" />
    <glyph glyph-name="itilde" unicode="&#x129;" horiz-adv-x="538" 
d="M164 1086h214v-1086h-214v1086zM-54.5 1357q29.5 59 80 91t112.5 32q42 0 73.5 -13.5t70.5 -38.5q37 -23 61 -33.5t53 -10.5q40 0 66 30.5t26 77.5l140 -8q0 -77 -29 -134.5t-79 -88.5t-112 -31q-48 0 -80.5 13.5t-69.5 38.5q-31 21 -54.5 31.5t-55.5 10.5
q-39 0 -63.5 -30.5t-24.5 -75.5l-144 4q0 76 29.5 135z" />
    <glyph glyph-name="Imacron" unicode="&#x12a;" horiz-adv-x="514" 
d="M368 0h-220v1448h220v-1448zM594 1660h-670v150h670v-150z" />
    <glyph glyph-name="imacron" unicode="&#x12b;" horiz-adv-x="474" 
d="M130 1086h214v-1086h-214v1086zM574 1298h-670v150h670v-150z" />
    <glyph glyph-name="Ibreve" unicode="&#x12c;" horiz-adv-x="514" 
d="M368 0h-220v1448h220v-1448zM534.5 1676.5q-38.5 -60.5 -109.5 -94.5t-165 -34t-165 34t-109 94.5t-38 139.5h174q0 -58 33.5 -96t104.5 -38q69 0 103.5 38.5t34.5 95.5h176q-1 -79 -39.5 -139.5z" />
    <glyph glyph-name="ibreve" unicode="&#x12d;" horiz-adv-x="474" 
d="M130 1086h214v-1086h-214v1086zM512.5 1314.5q-38.5 -60.5 -109.5 -94.5t-165 -34t-165 34t-109 94.5t-38 139.5h174q0 -58 33.5 -96t104.5 -38q69 0 103.5 38.5t34.5 95.5h176q-1 -79 -39.5 -139.5z" />
    <glyph glyph-name="Iogonek" unicode="&#x12e;" horiz-adv-x="514" 
d="M368 0q-75 -47 -117.5 -93.5t-42.5 -100.5q0 -68 72 -68q48 0 88 22l20 -134q-70 -44 -156 -44q-96 0 -154 54t-58 152q0 61 31.5 119.5t96.5 106.5v1434h220v-1448z" />
    <glyph glyph-name="iogonek" unicode="&#x12f;" horiz-adv-x="474" 
d="M48 -364q-58 54 -58 152q0 63 33 123t101 108v1067h214v-1086q-75 -47 -117.5 -93.5t-42.5 -100.5q0 -68 72 -68q48 0 88 22l20 -134q-70 -44 -156 -44q-96 0 -154 54zM162.5 1271q-31.5 17 -50 46t-18.5 63t18.5 63t50 46t67.5 17t66.5 -17t49 -46t18.5 -63t-18.5 -63
t-49 -46t-66.5 -17t-67.5 17z" />
    <glyph glyph-name="Idotaccent" unicode="&#x130;" horiz-adv-x="514" 
d="M368 0h-220v1448h220v-1448zM190.5 1633q-31.5 17 -50 46t-18.5 63t18.5 63t50 46t67.5 17t66.5 -17t49 -46t18.5 -63t-18.5 -63t-49 -46t-66.5 -17t-67.5 17z" />
    <glyph glyph-name="IJ" unicode="&#x132;" horiz-adv-x="1592" 
d="M368 0h-220v1448h220v-1448zM1444 1448v-1026q0 -138 -54.5 -237.5t-154.5 -152t-233 -52.5q-124 0 -221.5 45t-153 132t-55.5 207h218q1 -90 61.5 -143t156.5 -53q104 0 160 65t56 189v1026h220z" />
    <glyph glyph-name="ij" unicode="&#x133;" horiz-adv-x="948" 
d="M130 1086h214v-1086h-214v1086zM170.5 1271q-31.5 17 -50 46t-18.5 63t18.5 63t50 46t67.5 17t66.5 -17t49 -46t18.5 -63t-18.5 -63t-49 -46t-66.5 -17t-67.5 17zM818 1086v-1156q0 -165 -89 -251.5t-257 -86.5q-28 0 -44 2v182h34q73 0 107.5 39.5t34.5 116.5v1154h214z
M642.5 1271q-31.5 17 -50 46t-18.5 63t18.5 63t50 46t67.5 17t66.5 -17t49 -46t18.5 -63t-18.5 -63t-49 -46t-66.5 -17t-67.5 17z" />
    <glyph glyph-name="Jcircumflex" unicode="&#x134;" horiz-adv-x="1076" 
d="M930 1448v-1026q0 -138 -54.5 -237.5t-154.5 -152t-233 -52.5q-124 0 -221.5 45t-153 132t-55.5 207h218q1 -90 61.5 -143t156.5 -53q104 0 160 65t56 189v1026h220zM820 1768l-146 -188h-192v10l248 300h178l250 -300v-10h-194z" />
    <glyph glyph-name="jcircumflex" unicode="&#x135;" horiz-adv-x="474" 
d="M344 1086v-1156q0 -165 -89 -251.5t-257 -86.5q-28 0 -44 2v182h34q73 0 107.5 39.5t34.5 116.5v1154h214zM238 1406l-146 -188h-192v10l248 300h178l250 -300v-10h-194z" />
    <glyph glyph-name="uni0136" unicode="&#x136;" horiz-adv-x="1302" 
d="M148 1448h220v-690h18l606 690h276l-584 -652l586 -796h-266l-466 646l-170 -196v-450h-220v1448zM546 -114h208l-132 -362h-160z" />
    <glyph glyph-name="uni0137" unicode="&#x137;" horiz-adv-x="1086" 
d="M130 1448h214v-820h18l430 458h256l-439 -466l469 -620h-262l-369 488l-103 -102v-386h-214v1448zM456 -114h208l-132 -362h-160z" />
    <glyph glyph-name="kgreenlandic" unicode="&#x138;" horiz-adv-x="1260" 
d="M380 652h98l352 434h286l-445 -545l441 -541h-294l-348 442h-90v-442h-232v1086h232v-434z" />
    <glyph glyph-name="Lacute" unicode="&#x139;" horiz-adv-x="1100" 
d="M148 1448h220v-1258h654v-190h-874v1448zM334 1920h224l-220 -326h-168z" />
    <glyph glyph-name="lacute" unicode="&#x13a;" horiz-adv-x="474" 
d="M344 0h-214v1448h214v-1448zM314 1920h224l-220 -326h-168z" />
    <glyph glyph-name="uni013B" unicode="&#x13b;" horiz-adv-x="1100" 
d="M148 1448h220v-1258h654v-190h-874v1448zM482 -114h208l-132 -362h-160z" />
    <glyph glyph-name="uni013C" unicode="&#x13c;" horiz-adv-x="474" 
d="M344 0h-214v1448h214v-1448zM134 -114h208l-132 -362h-160z" />
    <glyph glyph-name="Lcaron" unicode="&#x13d;" horiz-adv-x="1100" 
d="M148 1448h220v-1258h654v-190h-874v1448zM604 1518h190l-50 -368h-140v368z" />
    <glyph glyph-name="lcaron" unicode="&#x13e;" horiz-adv-x="630" 
d="M344 0h-214v1448h214v-1448zM476 1518h190l-50 -368h-140v368z" />
    <glyph glyph-name="Ldot" unicode="&#x13f;" horiz-adv-x="1108" 
d="M150 1448h220v-1258h654v-190h-874v1448zM624.5 737q-31.5 17 -50 46t-18.5 63t18.5 63t50 46t67.5 17t66.5 -17t49 -46t18.5 -63t-18.5 -63t-49 -46t-66.5 -17t-67.5 17z" />
    <glyph glyph-name="ldot" unicode="&#x140;" horiz-adv-x="670" 
d="M346 0h-214v1448h214v-1448zM502.5 695q-31.5 17 -50 46t-18.5 63t18.5 63t50 46t67.5 17t66.5 -17t49 -46t18.5 -63t-18.5 -63t-49 -46t-66.5 -17t-67.5 17z" />
    <glyph glyph-name="Lslash" unicode="&#x141;" horiz-adv-x="1114" 
d="M628 774l-238 -71v-513h654v-190h-874v637l-144 -43v140l144 44v670h220v-604l238 72v-142z" />
    <glyph glyph-name="lslash" unicode="&#x142;" horiz-adv-x="472" 
d="M490 780l-146 -52v-728h-214v652l-150 -54v138l150 54v658h214v-582l146 52v-138z" />
    <glyph glyph-name="Nacute" unicode="&#x143;" horiz-adv-x="1464" 
d="M1316 0h-202l-734 1058h-12v-1058h-220v1448h204l734 -1060h14v1060h216v-1448zM810 1920h224l-220 -326h-168z" />
    <glyph glyph-name="nacute" unicode="&#x144;" horiz-adv-x="1168" 
d="M344 0h-214v1086h206v-178h12q40 90 121 141t199 51q113 0 196 -46.5t128.5 -138.5t45.5 -225v-690h-212v664q0 118 -61 185t-169 67q-73 0 -130.5 -32t-89.5 -93.5t-32 -146.5v-644zM662 1558h224l-220 -326h-168z" />
    <glyph glyph-name="uni0145" unicode="&#x145;" horiz-adv-x="1464" 
d="M1316 0h-202l-734 1058h-12v-1058h-220v1448h204l734 -1060h14v1060h216v-1448zM630 -114h208l-132 -362h-160z" />
    <glyph glyph-name="uni0146" unicode="&#x146;" horiz-adv-x="1168" 
d="M344 0h-214v1086h206v-178h12q40 90 121 141t199 51q113 0 196 -46.5t128.5 -138.5t45.5 -225v-690h-212v664q0 118 -61 185t-169 67q-73 0 -130.5 -32t-89.5 -93.5t-32 -146.5v-644zM480 -114h208l-132 -362h-160z" />
    <glyph glyph-name="Ncaron" unicode="&#x147;" horiz-adv-x="1464" 
d="M1316 0h-202l-734 1058h-12v-1058h-220v1448h204l734 -1060h14v1060h216v-1448zM732 1700l146 188h192v-10l-248 -300h-178l-250 300v10h194z" />
    <glyph glyph-name="ncaron" unicode="&#x148;" horiz-adv-x="1168" 
d="M344 0h-214v1086h206v-178h12q40 90 121 141t199 51q113 0 196 -46.5t128.5 -138.5t45.5 -225v-690h-212v664q0 118 -61 185t-169 67q-73 0 -130.5 -32t-89.5 -93.5t-32 -146.5v-644zM584 1338l146 188h192v-10l-248 -300h-178l-250 300v10h194z" />
    <glyph glyph-name="Eng" unicode="&#x14a;" horiz-adv-x="1464" 
d="M380 1058h-12v-1058h-220v1448h204l734 -1060h14v1060h216v-1544q0 -106 -43 -177.5t-119 -107t-174 -35.5q-68 0 -102 12v174q40 -8 72 -8q164 0 164 142v96z" />
    <glyph glyph-name="eng" unicode="&#x14b;" horiz-adv-x="1168" 
d="M826 4v660q0 118 -61 185t-169 67q-73 0 -130.5 -32t-89.5 -93.5t-32 -146.5v-644h-214v1086h206v-178h12q40 90 121 141t199 51q113 0 196 -46.5t128.5 -138.5t45.5 -225v-782q0 -100 -41 -171.5t-113.5 -108t-165.5 -36.5q-74 0 -114 10l6 178q36 -8 66 -8
q71 0 109.5 31.5t38.5 104.5v96h2z" />
    <glyph glyph-name="Omacron" unicode="&#x14c;" horiz-adv-x="1506" 
d="M1322 329.5q-84 -168.5 -232.5 -259t-335.5 -90.5q-189 0 -337.5 90.5t-232.5 259t-84 394.5q0 227 84 395.5t232.5 258.5t337.5 90q187 0 335.5 -90t232.5 -258.5t84 -395.5q0 -226 -84 -394.5zM1132 1018q-56 122 -154.5 185t-223.5 63q-126 0 -225 -63t-155 -185
t-56 -294t56 -294t155 -185t225 -63q125 0 223.5 63t154.5 185.5t56 293.5q0 172 -56 294zM1088 1660h-670v150h670v-150z" />
    <glyph glyph-name="omacron" unicode="&#x14d;" horiz-adv-x="1176" 
d="M323 48q-115 70 -178 196.5t-63 293.5q0 168 63 295t178 197t267 70q151 0 266 -70t177.5 -197.5t62.5 -294.5t-62.5 -293.5t-177.5 -196.5t-266 -70q-152 0 -267 70zM750 207q65 51 97.5 137.5t32.5 193.5t-32.5 194.5t-98 139.5t-159.5 52q-96 0 -162.5 -52t-99 -139.5
t-32.5 -194.5t32.5 -193.5t99 -137.5t162.5 -51q95 0 160 51zM924 1298h-670v150h670v-150z" />
    <glyph glyph-name="Obreve" unicode="&#x14e;" horiz-adv-x="1506" 
d="M1322 329.5q-84 -168.5 -232.5 -259t-335.5 -90.5q-189 0 -337.5 90.5t-232.5 259t-84 394.5q0 227 84 395.5t232.5 258.5t337.5 90q187 0 335.5 -90t232.5 -258.5t84 -395.5q0 -226 -84 -394.5zM1132 1018q-56 122 -154.5 185t-223.5 63q-126 0 -225 -63t-155 -185
t-56 -294t56 -294t155 -185t225 -63q125 0 223.5 63t154.5 185.5t56 293.5q0 172 -56 294zM1028.5 1676.5q-38.5 -60.5 -109.5 -94.5t-165 -34t-165 34t-109 94.5t-38 139.5h174q0 -58 33.5 -96t104.5 -38q69 0 103.5 38.5t34.5 95.5h176q-1 -79 -39.5 -139.5z" />
    <glyph glyph-name="obreve" unicode="&#x14f;" horiz-adv-x="1176" 
d="M323 48q-115 70 -178 196.5t-63 293.5q0 168 63 295t178 197t267 70q151 0 266 -70t177.5 -197.5t62.5 -294.5t-62.5 -293.5t-177.5 -196.5t-266 -70q-152 0 -267 70zM750 207q65 51 97.5 137.5t32.5 193.5t-32.5 194.5t-98 139.5t-159.5 52q-96 0 -162.5 -52t-99 -139.5
t-32.5 -194.5t32.5 -193.5t99 -137.5t162.5 -51q95 0 160 51zM864.5 1314.5q-38.5 -60.5 -109.5 -94.5t-165 -34t-165 34t-109 94.5t-38 139.5h174q0 -58 33.5 -96t104.5 -38q69 0 103.5 38.5t34.5 95.5h176q-1 -79 -39.5 -139.5z" />
    <glyph glyph-name="Ohungarumlaut" unicode="&#x150;" horiz-adv-x="1506" 
d="M1322 329.5q-84 -168.5 -232.5 -259t-335.5 -90.5q-189 0 -337.5 90.5t-232.5 259t-84 394.5q0 227 84 395.5t232.5 258.5t337.5 90q187 0 335.5 -90t232.5 -258.5t84 -395.5q0 -226 -84 -394.5zM1132 1018q-56 122 -154.5 185t-223.5 63q-126 0 -225 -63t-155 -185
t-56 -294t56 -294t155 -185t225 -63q125 0 223.5 63t154.5 185.5t56 293.5q0 172 -56 294zM1018 1868h210l-260 -298h-170zM652 1868h208l-218 -298h-160z" />
    <glyph glyph-name="ohungarumlaut" unicode="&#x151;" horiz-adv-x="1176" 
d="M323 48q-115 70 -178 196.5t-63 293.5q0 168 63 295t178 197t267 70q151 0 266 -70t177.5 -197.5t62.5 -294.5t-62.5 -293.5t-177.5 -196.5t-266 -70q-152 0 -267 70zM750 207q65 51 97.5 137.5t32.5 193.5t-32.5 194.5t-98 139.5t-159.5 52q-96 0 -162.5 -52t-99 -139.5
t-32.5 -194.5t32.5 -193.5t99 -137.5t162.5 -51q95 0 160 51zM854 1506h210l-260 -298h-170zM488 1506h208l-218 -298h-160z" />
    <glyph glyph-name="OE" unicode="&#x152;" horiz-adv-x="1920" 
d="M410.5 88.5q-146.5 88.5 -228.5 252.5t-82 383q0 220 81.5 384t228 252t336.5 88h1052v-190h-688v-438h640v-188h-640v-442h696v-190h-1060q-189 0 -335.5 88.5zM371.5 438.5q53.5 -120.5 150.5 -184.5t224 -64h144v1068h-144q-127 0 -224 -63.5t-150.5 -184
t-53.5 -286.5q0 -165 53.5 -285.5z" />
    <glyph glyph-name="oe" unicode="&#x153;" horiz-adv-x="1940" 
d="M325 48q-115 70 -178 196.5t-63 293.5q0 168 63 295t178 197t267 70q129 0 232 -51t170 -146q67 94 168.5 145.5t227.5 51.5q131 0 240 -57t175.5 -179.5t66.5 -309.5v-76h-772q3 -101 41.5 -174.5t106.5 -111.5t158 -38q87 0 147 32.5t89 85.5h216q-24 -88 -86 -154.5
t-156.5 -103t-211.5 -36.5q-135 0 -239.5 50t-172.5 144q-67 -93 -169.5 -143.5t-230.5 -50.5q-152 0 -267 70zM752 207q65 51 97.5 137.5t32.5 193.5t-32.5 194.5t-98 139.5t-159.5 52q-96 0 -162.5 -52t-99 -139.5t-32.5 -194.5t32.5 -193.5t99 -137.5t162.5 -51
q95 0 160 51zM1662 638q0 83 -33.5 148t-94.5 101.5t-142 36.5q-83 0 -147.5 -38.5t-101.5 -104t-42 -143.5h561z" />
    <glyph glyph-name="Racute" unicode="&#x154;" horiz-adv-x="1262" 
d="M148 1448h516q164 0 276.5 -57t169 -159.5t56.5 -237.5q0 -148 -67 -254t-197 -155l320 -585h-250l-294 546h-14h-296v-546h-220v1448zM642 736q156 0 229 65.5t73 192.5q0 128 -73.5 197t-228.5 69h-274v-524h274zM700 1920h224l-220 -326h-168z" />
    <glyph glyph-name="racute" unicode="&#x155;" horiz-adv-x="744" 
d="M130 1086h206v-172h12q30 87 105 137.5t171 50.5q46 0 90 -4v-204q-18 4 -50.5 8t-61.5 4q-73 0 -132 -31.5t-92.5 -87t-33.5 -125.5v-662h-214v1086zM490 1558h224l-220 -326h-168z" />
    <glyph glyph-name="uni0156" unicode="&#x156;" horiz-adv-x="1262" 
d="M148 1448h516q164 0 276.5 -57t169 -159.5t56.5 -237.5q0 -148 -67 -254t-197 -155l320 -585h-250l-294 546h-14h-296v-546h-220v1448zM642 736q156 0 229 65.5t73 192.5q0 128 -73.5 197t-228.5 69h-274v-524h274zM544 -114h208l-132 -362h-160z" />
    <glyph glyph-name="uni0157" unicode="&#x157;" horiz-adv-x="744" 
d="M130 1086h206v-172h12q30 87 105 137.5t171 50.5q46 0 90 -4v-204q-18 4 -50.5 8t-61.5 4q-73 0 -132 -31.5t-92.5 -87t-33.5 -125.5v-662h-214v1086zM132 -114h208l-132 -362h-160z" />
    <glyph glyph-name="Rcaron" unicode="&#x158;" horiz-adv-x="1262" 
d="M148 1448h516q164 0 276.5 -57t169 -159.5t56.5 -237.5q0 -148 -67 -254t-197 -155l320 -585h-250l-294 546h-14h-296v-546h-220v1448zM642 736q156 0 229 65.5t73 192.5q0 128 -73.5 197t-228.5 69h-274v-524h274zM622 1700l146 188h192v-10l-248 -300h-178l-250 300v10
h194z" />
    <glyph glyph-name="rcaron" unicode="&#x159;" horiz-adv-x="744" 
d="M130 1086h206v-172h12q30 87 105 137.5t171 50.5q46 0 90 -4v-204q-18 4 -50.5 8t-61.5 4q-73 0 -132 -31.5t-92.5 -87t-33.5 -125.5v-662h-214v1086zM410 1338l146 188h192v-10l-248 -300h-178l-250 300v10h194z" />
    <glyph glyph-name="Sacute" unicode="&#x15a;" horiz-adv-x="1258" 
d="M845 1221.5q-81 56.5 -207 56.5q-87 0 -153 -27.5t-101.5 -76t-35.5 -110.5q0 -92 75 -141t189 -77l140 -38q175 -41 296 -136t122 -272q-1 -123 -65 -219t-185 -150.5t-288 -54.5q-161 0 -280.5 51.5t-187 147.5t-74.5 227h220q10 -114 99 -174t223 -60q91 0 163.5 29.5
t114 83t42.5 123.5q-1 87 -71 135.5t-203 82.5l-172 46q-378 104 -378 384q0 122 67.5 217t185.5 147t263 52t259 -51.5t179 -143t68 -207.5h-214q-10 99 -91 155.5zM708 1920h224l-220 -326h-168z" />
    <glyph glyph-name="sacute" unicode="&#x15b;" horiz-adv-x="1044" 
d="M672.5 894.5q-52.5 37.5 -138.5 37.5q-60 0 -108 -19.5t-74.5 -52.5t-25.5 -74q-2 -49 39.5 -83t130.5 -55l172 -40q150 -33 223 -105.5t75 -188.5q-1 -98 -54.5 -174.5t-153.5 -119t-236 -42.5q-194 0 -308 83t-134 235h218q27 -146 222 -146q104 0 165.5 39.5
t62.5 108.5q-2 53 -42.5 88t-125.5 54l-170 36q-147 33 -222.5 109t-75.5 189q0 96 52.5 170t147.5 115t220 41q119 0 208.5 -38.5t142 -108.5t63.5 -163h-206q-15 67 -67.5 104.5zM614 1558h224l-220 -326h-168z" />
    <glyph glyph-name="Scircumflex" unicode="&#x15c;" horiz-adv-x="1258" 
d="M845 1221.5q-81 56.5 -207 56.5q-87 0 -153 -27.5t-101.5 -76t-35.5 -110.5q0 -92 75 -141t189 -77l140 -38q175 -41 296 -136t122 -272q-1 -123 -65 -219t-185 -150.5t-288 -54.5q-161 0 -280.5 51.5t-187 147.5t-74.5 227h220q10 -114 99 -174t223 -60q91 0 163.5 29.5
t114 83t42.5 123.5q-1 87 -71 135.5t-203 82.5l-172 46q-378 104 -378 384q0 122 67.5 217t185.5 147t263 52t259 -51.5t179 -143t68 -207.5h-214q-10 99 -91 155.5zM630 1768l-146 -188h-192v10l248 300h178l250 -300v-10h-194z" />
    <glyph glyph-name="scircumflex" unicode="&#x15d;" horiz-adv-x="1044" 
d="M672.5 894.5q-52.5 37.5 -138.5 37.5q-60 0 -108 -19.5t-74.5 -52.5t-25.5 -74q-2 -49 39.5 -83t130.5 -55l172 -40q150 -33 223 -105.5t75 -188.5q-1 -98 -54.5 -174.5t-153.5 -119t-236 -42.5q-194 0 -308 83t-134 235h218q27 -146 222 -146q104 0 165.5 39.5
t62.5 108.5q-2 53 -42.5 88t-125.5 54l-170 36q-147 33 -222.5 109t-75.5 189q0 96 52.5 170t147.5 115t220 41q119 0 208.5 -38.5t142 -108.5t63.5 -163h-206q-15 67 -67.5 104.5zM538 1406l-146 -188h-192v10l248 300h178l250 -300v-10h-194z" />
    <glyph glyph-name="Scedilla" unicode="&#x15e;" horiz-adv-x="1258" 
d="M845 1221.5q-81 56.5 -207 56.5q-87 0 -153 -27.5t-101.5 -76t-35.5 -110.5q0 -92 75 -141t189 -77l140 -38q175 -41 296 -136t122 -272q-1 -115 -57.5 -207t-163.5 -148.5t-256 -66.5l-5 -30q67 -10 110.5 -52.5t43.5 -117.5q0 -64 -37.5 -112.5t-110.5 -75t-176 -26.5
l-4 118q77 0 121.5 22.5t44.5 67.5t-34 65.5t-116 28.5l24 113q-138 12 -240.5 66.5t-160 145.5t-63.5 211h220q10 -114 99 -174t223 -60q91 0 163.5 29.5t114 83t42.5 123.5q-1 87 -71 135.5t-203 82.5l-172 46q-378 104 -378 384q0 122 67.5 217t185.5 147t263 52
t259 -51.5t179 -143t68 -207.5h-214q-10 99 -91 155.5z" />
    <glyph glyph-name="scedilla" unicode="&#x15f;" horiz-adv-x="1044" 
d="M672.5 894.5q-52.5 37.5 -138.5 37.5q-60 0 -108 -19.5t-74.5 -52.5t-25.5 -74q-2 -49 39.5 -83t130.5 -55l172 -40q150 -33 223 -105.5t75 -188.5q-1 -90 -45.5 -161.5t-128.5 -116t-200 -55.5l-6 -33q67 -10 110.5 -52.5t43.5 -117.5q0 -64 -37.5 -112.5t-110.5 -75
t-176 -26.5l-4 118q77 0 121.5 22.5t44.5 67.5t-34 65.5t-116 28.5l25 115q-163 14 -259 95.5t-114 219.5h218q27 -146 222 -146q104 0 165.5 39.5t62.5 108.5q-2 53 -42.5 88t-125.5 54l-170 36q-147 33 -222.5 109t-75.5 189q0 96 52.5 170t147.5 115t220 41
q119 0 208.5 -38.5t142 -108.5t63.5 -163h-206q-15 67 -67.5 104.5z" />
    <glyph glyph-name="Scaron" unicode="&#x160;" horiz-adv-x="1258" 
d="M845 1221.5q-81 56.5 -207 56.5q-87 0 -153 -27.5t-101.5 -76t-35.5 -110.5q0 -92 75 -141t189 -77l140 -38q175 -41 296 -136t122 -272q-1 -123 -65 -219t-185 -150.5t-288 -54.5q-161 0 -280.5 51.5t-187 147.5t-74.5 227h220q10 -114 99 -174t223 -60q91 0 163.5 29.5
t114 83t42.5 123.5q-1 87 -71 135.5t-203 82.5l-172 46q-378 104 -378 384q0 122 67.5 217t185.5 147t263 52t259 -51.5t179 -143t68 -207.5h-214q-10 99 -91 155.5zM628 1700l146 188h192v-10l-248 -300h-178l-250 300v10h194z" />
    <glyph glyph-name="scaron" unicode="&#x161;" horiz-adv-x="1044" 
d="M672.5 894.5q-52.5 37.5 -138.5 37.5q-60 0 -108 -19.5t-74.5 -52.5t-25.5 -74q-2 -49 39.5 -83t130.5 -55l172 -40q150 -33 223 -105.5t75 -188.5q-1 -98 -54.5 -174.5t-153.5 -119t-236 -42.5q-194 0 -308 83t-134 235h218q27 -146 222 -146q104 0 165.5 39.5
t62.5 108.5q-2 53 -42.5 88t-125.5 54l-170 36q-147 33 -222.5 109t-75.5 189q0 96 52.5 170t147.5 115t220 41q119 0 208.5 -38.5t142 -108.5t63.5 -163h-206q-15 67 -67.5 104.5zM536 1338l146 188h192v-10l-248 -300h-178l-250 300v10h194z" />
    <glyph glyph-name="uni0162" unicode="&#x162;" horiz-adv-x="1274" 
d="M76 1448h1122v-190h-450v-1258h-31l-9 -52q67 -10 110.5 -52.5t43.5 -117.5q0 -64 -37.5 -112.5t-110.5 -75t-176 -26.5l-4 118q77 0 121.5 22.5t44.5 67.5t-34 65.5t-116 28.5l29 134h-51v1258h-452v190z" />
    <glyph glyph-name="Tcaron" unicode="&#x164;" horiz-adv-x="1274" 
d="M76 1448h1122v-190h-450v-1258h-220v1258h-452v190zM636 1700l146 188h192v-10l-248 -300h-178l-250 300v10h194z" />
    <glyph glyph-name="tcaron" unicode="&#x165;" horiz-adv-x="742" 
d="M638 916h-222v-596q0 -83 34.5 -113.5t95.5 -32.5q28 0 88 4q6 2 20 2v-186q-60 -8 -134 -8q-87 0 -159 32t-115 97.5t-42 160.5v640h-160v170h160v260h212v-260h222v-170zM538 1588h190l-50 -368h-140v368z" />
    <glyph glyph-name="Tbar" unicode="&#x166;" horiz-adv-x="1274" 
d="M76 1448h1122v-190h-450v-456h214v-146h-214v-656h-220v656h-216v146h216v456h-452v190z" />
    <glyph glyph-name="tbar" unicode="&#x167;" horiz-adv-x="716" 
d="M44 712h160v204h-160v170h160v260h212v-260h222v-170h-222v-204h222v-134h-222v-258q0 -83 34.5 -113.5t95.5 -32.5q28 0 88 4q6 2 20 2v-186q-60 -8 -134 -8q-87 0 -159 32t-115 97.5t-42 160.5v302h-160v134z" />
    <glyph glyph-name="Utilde" unicode="&#x168;" horiz-adv-x="1446" 
d="M1298 1448v-952q0 -151 -71.5 -269t-202 -184.5t-300.5 -66.5q-172 0 -303 66t-202 184.5t-71 269.5v952h220v-934q0 -98 43.5 -174.5t124 -120t188.5 -43.5q107 0 187 43.5t123.5 120t43.5 174.5v934h220zM395.5 1719q29.5 59 80 91t112.5 32q42 0 73.5 -13.5
t70.5 -38.5q37 -23 61 -33.5t53 -10.5q40 0 66 30.5t26 77.5l140 -8q0 -77 -29 -134.5t-79 -88.5t-112 -31q-48 0 -80.5 13.5t-69.5 38.5q-31 21 -54.5 31.5t-55.5 10.5q-39 0 -63.5 -30.5t-24.5 -75.5l-144 4q0 76 29.5 135z" />
    <glyph glyph-name="utilde" unicode="&#x169;" horiz-adv-x="1162" 
d="M820 1086h212v-1086h-208v188h-12q-39 -91 -123 -146.5t-201 -55.5q-106 0 -187 47t-126 139t-45 224v690h214v-664q0 -73 28 -128t77.5 -84.5t114.5 -29.5q62 0 121 30.5t97 92t38 149.5v634zM255.5 1357q29.5 59 80 91t112.5 32q42 0 73.5 -13.5t70.5 -38.5
q37 -23 61 -33.5t53 -10.5q40 0 66 30.5t26 77.5l140 -8q0 -77 -29 -134.5t-79 -88.5t-112 -31q-48 0 -80.5 13.5t-69.5 38.5q-31 21 -54.5 31.5t-55.5 10.5q-39 0 -63.5 -30.5t-24.5 -75.5l-144 4q0 76 29.5 135z" />
    <glyph glyph-name="Umacron" unicode="&#x16a;" horiz-adv-x="1446" 
d="M1298 1448v-952q0 -151 -71.5 -269t-202 -184.5t-300.5 -66.5q-172 0 -303 66t-202 184.5t-71 269.5v952h220v-934q0 -98 43.5 -174.5t124 -120t188.5 -43.5q107 0 187 43.5t123.5 120t43.5 174.5v934h220zM1058 1660h-670v150h670v-150z" />
    <glyph glyph-name="umacron" unicode="&#x16b;" horiz-adv-x="1162" 
d="M820 1086h212v-1086h-208v188h-12q-39 -91 -123 -146.5t-201 -55.5q-106 0 -187 47t-126 139t-45 224v690h214v-664q0 -73 28 -128t77.5 -84.5t114.5 -29.5q62 0 121 30.5t97 92t38 149.5v634zM918 1298h-670v150h670v-150z" />
    <glyph glyph-name="Ubreve" unicode="&#x16c;" horiz-adv-x="1446" 
d="M1298 1448v-952q0 -151 -71.5 -269t-202 -184.5t-300.5 -66.5q-172 0 -303 66t-202 184.5t-71 269.5v952h220v-934q0 -98 43.5 -174.5t124 -120t188.5 -43.5q107 0 187 43.5t123.5 120t43.5 174.5v934h220zM998.5 1676.5q-38.5 -60.5 -109.5 -94.5t-165 -34t-165 34
t-109 94.5t-38 139.5h174q0 -58 33.5 -96t104.5 -38q69 0 103.5 38.5t34.5 95.5h176q-1 -79 -39.5 -139.5z" />
    <glyph glyph-name="ubreve" unicode="&#x16d;" horiz-adv-x="1162" 
d="M820 1086h212v-1086h-208v188h-12q-39 -91 -123 -146.5t-201 -55.5q-106 0 -187 47t-126 139t-45 224v690h214v-664q0 -73 28 -128t77.5 -84.5t114.5 -29.5q62 0 121 30.5t97 92t38 149.5v634zM858.5 1314.5q-38.5 -60.5 -109.5 -94.5t-165 -34t-165 34t-109 94.5
t-38 139.5h174q0 -58 33.5 -96t104.5 -38q69 0 103.5 38.5t34.5 95.5h176q-1 -79 -39.5 -139.5z" />
    <glyph glyph-name="Uring" unicode="&#x16e;" horiz-adv-x="1446" 
d="M1298 1448v-952q0 -151 -71.5 -269t-202 -184.5t-300.5 -66.5q-172 0 -303 66t-202 184.5t-71 269.5v952h220v-934q0 -98 43.5 -174.5t124 -120t188.5 -43.5q107 0 187 43.5t123.5 120t43.5 174.5v934h220zM618 1570q-48 28 -76 76t-28 104t28 104t76 76t104 28
q57 0 106 -28t77.5 -76t28.5 -104t-28.5 -104t-77.5 -76t-106 -28q-56 0 -104 28zM793.5 1679q28.5 29 28.5 71q0 41 -28.5 69.5t-71.5 28.5q-42 0 -70 -28.5t-28 -69.5q0 -42 28 -71t70 -29q43 0 71.5 29z" />
    <glyph glyph-name="uring" unicode="&#x16f;" horiz-adv-x="1162" 
d="M820 1086h212v-1086h-208v188h-12q-39 -91 -123 -146.5t-201 -55.5q-106 0 -187 47t-126 139t-45 224v690h214v-664q0 -73 28 -128t77.5 -84.5t114.5 -29.5q62 0 121 30.5t97 92t38 149.5v634zM454.5 1237.5q-57.5 31.5 -91 86t-33.5 120.5q0 65 33.5 121t91.5 89.5
t127 33.5t126 -33.5t90.5 -89.5t33.5 -121q0 -66 -33 -120.5t-90.5 -86t-126.5 -31.5q-70 0 -127.5 31.5zM647 1337.5q29 17.5 45 46t16 60.5q0 33 -16 62.5t-45 47.5t-65 18t-65 -18t-45 -47.5t-16 -62.5q0 -32 16 -60.5t45 -46t65 -17.5t65 17.5z" />
    <glyph glyph-name="Uhungarumlaut" unicode="&#x170;" horiz-adv-x="1446" 
d="M1298 1448v-952q0 -151 -71.5 -269t-202 -184.5t-300.5 -66.5q-172 0 -303 66t-202 184.5t-71 269.5v952h220v-934q0 -98 43.5 -174.5t124 -120t188.5 -43.5q107 0 187 43.5t123.5 120t43.5 174.5v934h220zM988 1868h210l-260 -298h-170zM622 1868h208l-218 -298h-160z
" />
    <glyph glyph-name="uhungarumlaut" unicode="&#x171;" horiz-adv-x="1162" 
d="M820 1086h212v-1086h-208v188h-12q-39 -91 -123 -146.5t-201 -55.5q-106 0 -187 47t-126 139t-45 224v690h214v-664q0 -73 28 -128t77.5 -84.5t114.5 -29.5q62 0 121 30.5t97 92t38 149.5v634zM848 1506h210l-260 -298h-170zM482 1506h208l-218 -298h-160z" />
    <glyph glyph-name="Uogonek" unicode="&#x172;" horiz-adv-x="1446" 
d="M1298 1448v-952q0 -131 -54 -238t-154.5 -177t-234.5 -94q-64 -42 -100.5 -86t-36.5 -93q0 -68 72 -68q48 0 88 22l20 -134q-70 -44 -156 -44q-96 0 -154 54t-58 152q0 52 21.5 101t66.5 92q-143 19 -249 89t-163.5 179.5t-57.5 244.5v952h220v-934q0 -98 43.5 -174.5
t124 -120t188.5 -43.5q107 0 187 43.5t123.5 120t43.5 174.5v934h220z" />
    <glyph glyph-name="uogonek" unicode="&#x173;" horiz-adv-x="1162" 
d="M820 1086h212v-1086q-75 -47 -117.5 -93.5t-42.5 -100.5q0 -68 72 -68q48 0 88 22l20 -134q-70 -44 -156 -44q-95 0 -153.5 54.5t-58.5 151.5q0 66 34.5 126t105.5 109v165h-12q-39 -91 -123 -146.5t-201 -55.5q-106 0 -187 47t-126 139t-45 224v690h214v-664
q0 -73 28 -128t77.5 -84.5t114.5 -29.5q62 0 121 30.5t97 92t38 149.5v634z" />
    <glyph glyph-name="Wcircumflex" unicode="&#x174;" horiz-adv-x="1932" 
d="M32 1448h232l282 -1120h12l294 1120h228l294 -1120h12l282 1120h232l-402 -1448h-222l-304 1082h-12l-304 -1082h-222zM968 1768l-146 -188h-192v10l248 300h178l250 -300v-10h-194z" />
    <glyph glyph-name="wcircumflex" unicode="&#x175;" horiz-adv-x="1620" 
d="M46 1086h220l212 -796h12l212 796h220l210 -792h12l210 792h220l-318 -1086h-218l-220 782h-16l-218 -782h-220zM812 1406l-146 -188h-192v10l248 300h178l250 -300v-10h-194z" />
    <glyph glyph-name="Ycircumflex" unicode="&#x176;" horiz-adv-x="1340" 
d="M286 1448l376 -656h16l378 656h250l-526 -880v-568h-220v568l-524 880h250zM672 1768l-146 -188h-192v10l248 300h178l250 -300v-10h-194z" />
    <glyph glyph-name="ycircumflex" unicode="&#x177;" horiz-adv-x="1106" 
d="M148 -402v178q48 -4 96 -4q41 0 68 8t53.5 39t50.5 95l26 72l-398 1100h228l274 -842h12l274 842h230l-448 -1230q-47 -131 -133.5 -197.5t-218.5 -66.5q-72 0 -114 6zM554 1406l-146 -188h-192v10l248 300h178l250 -300v-10h-194z" />
    <glyph glyph-name="Ydieresis" unicode="&#x178;" horiz-adv-x="1340" 
d="M286 1448l376 -656h16l378 656h250l-526 -880v-568h-220v568l-524 880h250zM400 1635q-29 17 -46.5 46t-17.5 61q0 34 17 62.5t46 45t63 16.5q54 0 89 -35.5t35 -88.5q0 -33 -16 -61.5t-44.5 -45.5t-63.5 -17q-33 0 -62 17zM816 1635q-29 17 -46.5 46t-17.5 61
q0 34 17 62.5t46 45t63 16.5q53 0 89.5 -36t36.5 -88q0 -33 -17 -61.5t-46 -45.5t-63 -17q-33 0 -62 17z" />
    <glyph glyph-name="Zacute" unicode="&#x179;" horiz-adv-x="1248" 
d="M110 146l760 1112h-768v190h1038v-146l-760 -1112h766v-190h-1036v146zM702 1920h224l-220 -326h-168z" />
    <glyph glyph-name="zacute" unicode="&#x17a;" horiz-adv-x="1074" 
d="M106 146l588 746v10h-568v184h834v-154l-564 -738v-10h584v-184h-874v146zM614 1558h224l-220 -326h-168z" />
    <glyph glyph-name="Zdotaccent" unicode="&#x17b;" horiz-adv-x="1248" 
d="M110 146l760 1112h-768v190h1038v-146l-760 -1112h766v-190h-1036v146zM556.5 1633q-31.5 17 -50 46t-18.5 63t18.5 63t50 46t67.5 17t66.5 -17t49 -46t18.5 -63t-18.5 -63t-49 -46t-66.5 -17t-67.5 17z" />
    <glyph glyph-name="zdotaccent" unicode="&#x17c;" horiz-adv-x="1074" 
d="M106 146l588 746v10h-568v184h834v-154l-564 -738v-10h584v-184h-874v146zM468.5 1271q-31.5 17 -50 46t-18.5 63t18.5 63t50 46t67.5 17t66.5 -17t49 -46t18.5 -63t-18.5 -63t-49 -46t-66.5 -17t-67.5 17z" />
    <glyph glyph-name="Zcaron" unicode="&#x17d;" horiz-adv-x="1248" 
d="M110 146l760 1112h-768v190h1038v-146l-760 -1112h766v-190h-1036v146zM624 1700l146 188h192v-10l-248 -300h-178l-250 300v10h194z" />
    <glyph glyph-name="zcaron" unicode="&#x17e;" horiz-adv-x="1074" 
d="M106 146l588 746v10h-568v184h834v-154l-564 -738v-10h584v-184h-874v146zM536 1338l146 188h192v-10l-248 -300h-178l-250 300v10h194z" />
    <glyph glyph-name="florin" unicode="&#x192;" horiz-adv-x="800" 
d="M686 884h-204v-940q0 -170 -86 -261t-244 -91q-60 0 -122 14l14 182q13 -5 45 -8.5t51 -3.5q60 0 93 45t33 123v940h-172v168h172v100q0 116 41.5 197.5t117 123t175.5 41.5q41 0 88.5 -7t81.5 -17l-38 -180q-44 12 -88 12q-79 0 -120.5 -43.5t-41.5 -126.5v-100h204
v-168z" />
    <glyph glyph-name="Aringacute" unicode="&#x1fa;" horiz-adv-x="1370" 
d="M38 0l520 1448h254l522 -1448h-234l-132 382h-564l-132 -382h-234zM904 566l-214 618h-10l-213 -618h437zM746 2186h204l-188 -184h-158zM578 1573q-48 27 -76 72.5t-28 98.5q0 54 28 99.5t76 72t104 26.5q57 0 106 -26.5t77.5 -72t28.5 -99.5q0 -53 -28.5 -98.5
t-77.5 -72.5t-106 -27q-56 0 -104 27zM753.5 1677q28.5 27 28.5 67q0 39 -28.5 66.5t-71.5 27.5q-42 0 -70 -27.5t-28 -66.5q0 -40 28 -67t70 -27q43 0 71.5 27z" />
    <glyph glyph-name="aringacute" unicode="&#x1fb;" horiz-adv-x="1112" 
d="M194 547q114 72 292 85q68 5 148.5 9.5t136.5 6.5l-1 86q0 93 -56 143.5t-164 50.5q-91 0 -149 -37.5t-75 -100.5h-212q10 90 67 160.5t154.5 110t222.5 39.5q103 0 198.5 -32t161.5 -116t66 -230v-722h-208v148h-8q-37 -72 -117.5 -122t-204.5 -50q-104 0 -187 39
t-131 113.5t-48 177.5q0 169 114 241zM344.5 187q56.5 -41 149.5 -41q84 0 147 33.5t97 90t34 122.5l-1 99l-255 -17q-109 -8 -168.5 -49.5t-59.5 -120.5q0 -76 56.5 -117zM634 1824h204l-188 -184h-158zM466 1211q-48 27 -76 72.5t-28 98.5q0 54 28 99.5t76 72t104 26.5
q57 0 106 -26.5t77.5 -72t28.5 -99.5q0 -53 -28.5 -98.5t-77.5 -72.5t-106 -27q-56 0 -104 27zM641.5 1315q28.5 27 28.5 67q0 39 -28.5 66.5t-71.5 27.5q-42 0 -70 -27.5t-28 -66.5q0 -40 28 -67t70 -27q43 0 71.5 27z" />
    <glyph glyph-name="AEacute" unicode="&#x1fc;" horiz-adv-x="1974" 
d="M710 1448h1144v-190h-688v-438h640v-188h-640v-442h696v-190h-918v382h-492l-172 -382h-242zM944 566v676h-104l-305 -676h409zM1358 1920h224l-220 -326h-168z" />
    <glyph glyph-name="aeacute" unicode="&#x1fd;" horiz-adv-x="1810" 
d="M1022.5 34.5q-106.5 56.5 -158.5 155.5h-8q-24 -61 -84 -109.5t-145.5 -76.5t-180.5 -28q-104 0 -187 39.5t-131 114.5t-48 178q0 168 113 235.5t293 78.5q68 5 148.5 9.5t136.5 6.5l-1 96q0 93 -56 143.5t-164 50.5q-91 0 -149 -37.5t-75 -100.5h-212q10 90 67 160.5
t154.5 110t222.5 39.5q106 0 199.5 -35t144.5 -127q60 80 147.5 121t198.5 41q131 0 240 -57t175.5 -179.5t66.5 -309.5v-76h-772q3 -101 42 -174t107 -111.5t157 -38.5q93 0 157.5 39t92.5 115l202 -36q-24 -88 -86 -154.5t-155 -103t-205 -36.5q-141 0 -247.5 56.5z
M344.5 188q56.5 -42 149.5 -42q84 0 147 33.5t97 90t34 122.5l-1 89l-255 -17q-111 -8 -169.5 -45t-58.5 -113t56.5 -118zM1520 638q0 82 -34 147.5t-95 102t-141 36.5q-83 0 -147.5 -38.5t-101.5 -104t-42 -143.5h561zM970 1558h224l-220 -326h-168z" />
    <glyph glyph-name="Oslashacute" unicode="&#x1fe;" horiz-adv-x="1506" 
d="M182 18l107 157q-91 98 -140 237.5t-49 311.5q0 227 84 395.5t232.5 258.5t337.5 90q97 0 186 -25.5t165 -73.5l95 139l118 -80l-104 -152q92 -98 142 -238t50 -314q0 -226 -84 -394.5t-232.5 -259t-335.5 -90.5q-202 0 -356 102l-98 -144zM1090 1094l-574 -840
q101 -72 238 -72q125 0 223.5 63t154.5 185.5t56 293.5q0 228 -98 370zM414 358l573 839q-101 69 -233 69q-126 0 -225 -63t-155 -185t-56 -294q0 -226 96 -366zM830 1920h224l-220 -326h-168z" />
    <glyph glyph-name="oslashacute" unicode="&#x1ff;" horiz-adv-x="1176" 
d="M146 18l76 112q-68 74 -104 178.5t-36 229.5q0 168 63 295t178 197t267 70q141 0 251 -61l69 101l120 -80l-76 -111q69 -74 105.5 -179t36.5 -232q0 -167 -62.5 -293.5t-177.5 -196.5t-266 -70q-144 0 -256 63l-70 -103zM750 207q65 51 97.5 137.5t32.5 193.5
q0 134 -48 231l-391 -572q65 -41 149 -41q95 0 160 51zM344 309l391 574q-63 41 -145 41q-96 0 -162.5 -52t-99 -139.5t-32.5 -194.5q0 -133 48 -229zM666 1558h224l-220 -326h-168z" />
    <glyph glyph-name="uni0218" unicode="&#x218;" horiz-adv-x="1258" 
d="M845 1221.5q-81 56.5 -207 56.5q-87 0 -153 -27.5t-101.5 -76t-35.5 -110.5q0 -92 75 -141t189 -77l140 -38q175 -41 296 -136t122 -272q-1 -123 -65 -219t-185 -150.5t-288 -54.5q-161 0 -280.5 51.5t-187 147.5t-74.5 227h220q10 -114 99 -174t223 -60q91 0 163.5 29.5
t114 83t42.5 123.5q-1 87 -71 135.5t-203 82.5l-172 46q-378 104 -378 384q0 122 67.5 217t185.5 147t263 52t259 -51.5t179 -143t68 -207.5h-214q-10 99 -91 155.5zM530 -134h208l-132 -362h-160z" />
    <glyph glyph-name="uni0219" unicode="&#x219;" horiz-adv-x="1044" 
d="M672.5 894.5q-52.5 37.5 -138.5 37.5q-60 0 -108 -19.5t-74.5 -52.5t-25.5 -74q-2 -49 39.5 -83t130.5 -55l172 -40q150 -33 223 -105.5t75 -188.5q-1 -98 -54.5 -174.5t-153.5 -119t-236 -42.5q-194 0 -308 83t-134 235h218q27 -146 222 -146q104 0 165.5 39.5
t62.5 108.5q-2 53 -42.5 88t-125.5 54l-170 36q-147 33 -222.5 109t-75.5 189q0 96 52.5 170t147.5 115t220 41q119 0 208.5 -38.5t142 -108.5t63.5 -163h-206q-15 67 -67.5 104.5zM428 -114h208l-132 -362h-160z" />
    <glyph glyph-name="uni021A" unicode="&#x21a;" horiz-adv-x="1274" 
d="M76 1448h1122v-190h-450v-1258h-220v1258h-452v190zM534 -114h208l-132 -362h-160z" />
    <glyph glyph-name="uni021B" unicode="&#x21b;" horiz-adv-x="716" 
d="M638 916h-222v-596q0 -83 34.5 -113.5t95.5 -32.5q28 0 88 4q6 2 20 2v-186q-60 -8 -134 -8q-87 0 -159 32t-115 97.5t-42 160.5v640h-160v170h160v260h212v-260h222v-170zM300 -114h208l-132 -362h-160z" />
    <glyph glyph-name="uni02B0" unicode="&#x2b0;" horiz-adv-x="790" 
d="M246 724h-172v964h168v-366h8q25 63 80 98.5t136 35.5q74 0 130.5 -32t88 -92.5t31.5 -143.5v-464h-172v434q0 72 -39 113t-105 41q-68 0 -111 -43.5t-43 -118.5v-426z" />
    <glyph glyph-name="uni02B2" unicode="&#x2b2;" horiz-adv-x="326" 
d="M248 1448v-768q0 -114 -67.5 -170t-190.5 -54h-32v134h24q94 0 94 94v764h172zM94 1568q-28 28 -28 68q0 39 28 66.5t66 27.5q41 0 69.5 -27.5t28.5 -66.5t-29 -67.5t-69 -28.5q-38 0 -66 28z" />
    <glyph glyph-name="uni02B3" unicode="&#x2b3;" horiz-adv-x="526" 
d="M74 1448h168v-122h6q21 61 71 96.5t115 35.5q36 0 60 -6v-156q-10 3 -32.5 6.5t-41.5 3.5q-76 0 -125 -44.5t-49 -121.5v-416h-172v724z" />
    <glyph glyph-name="uni02B7" unicode="&#x2b7;" horiz-adv-x="1086" 
d="M20 1448h174l128 -514h6l130 514h170l134 -514h6l124 514h174l-200 -724h-184l-134 490h-10l-134 -490h-182z" />
    <glyph glyph-name="uni02B8" unicode="&#x2b8;" horiz-adv-x="742" 
d="M96 444v142q14 -2 42 -2q47 0 77 16.5t43 57.5l18 48l-258 742h182l166 -552h6l166 552h186l-290 -818q-31 -86 -94 -137t-162 -51q-56 0 -82 2z" />
    <glyph glyph-name="circumflex" unicode="&#x2c6;" horiz-adv-x="954" 
d="M478 1406l-146 -188h-192v10l248 300h178l250 -300v-10h-194z" />
    <glyph glyph-name="caron" unicode="&#x2c7;" horiz-adv-x="954" 
d="M476 1338l146 188h192v-10l-248 -300h-178l-250 300v10h194z" />
    <glyph glyph-name="breve" unicode="&#x2d8;" horiz-adv-x="894" 
d="M722.5 1314.5q-38.5 -60.5 -109.5 -94.5t-165 -34t-165 34t-109 94.5t-38 139.5h174q0 -58 33.5 -96t104.5 -38q69 0 103.5 38.5t34.5 95.5h176q-1 -79 -39.5 -139.5z" />
    <glyph glyph-name="dotaccent" unicode="&#x2d9;" horiz-adv-x="486" 
d="M176.5 1271q-31.5 17 -50 46t-18.5 63t18.5 63t50 46t67.5 17t66.5 -17t49 -46t18.5 -63t-18.5 -63t-49 -46t-66.5 -17t-67.5 17z" />
    <glyph glyph-name="ring" unicode="&#x2da;" horiz-adv-x="640" 
d="M192.5 1237.5q-57.5 31.5 -91 86t-33.5 120.5q0 65 33.5 121t91.5 89.5t127 33.5t126 -33.5t90.5 -89.5t33.5 -121q0 -66 -33 -120.5t-90.5 -86t-126.5 -31.5q-70 0 -127.5 31.5zM385 1337.5q29 17.5 45 46t16 60.5q0 33 -16 62.5t-45 47.5t-65 18t-65 -18t-45 -47.5
t-16 -62.5q0 -32 16 -60.5t45 -46t65 -17.5t65 17.5z" />
    <glyph glyph-name="ogonek" unicode="&#x2db;" horiz-adv-x="526" 
d="M138 -364q-58 54 -58 152q0 81 54.5 154.5t165.5 125.5l128 -68q-75 -47 -117.5 -93.5t-42.5 -100.5q0 -68 72 -68q48 0 88 22l20 -134q-70 -44 -156 -44q-96 0 -154 54z" />
    <glyph glyph-name="tilde" unicode="&#x2dc;" horiz-adv-x="972" 
d="M159.5 1357q29.5 59 80 91t112.5 32q42 0 73.5 -13.5t70.5 -38.5q37 -23 61 -33.5t53 -10.5q40 0 66 30.5t26 77.5l140 -8q0 -77 -29 -134.5t-79 -88.5t-112 -31q-48 0 -80.5 13.5t-69.5 38.5q-31 21 -54.5 31.5t-55.5 10.5q-39 0 -63.5 -30.5t-24.5 -75.5l-144 4
q0 76 29.5 135z" />
    <glyph glyph-name="hungarumlaut" unicode="&#x2dd;" horiz-adv-x="774" 
d="M604 1494h210l-260 -298h-170zM238 1494h208l-218 -298h-160z" />
    <glyph glyph-name="uni02E1" unicode="&#x2e1;" horiz-adv-x="322" 
d="M246 724h-172v964h172v-964z" />
    <glyph glyph-name="uni02E2" unicode="&#x2e2;" horiz-adv-x="706" 
d="M450.5 1306.5q-35.5 25.5 -94.5 25.5q-51 0 -87.5 -23.5t-36.5 -60.5q0 -32 24.5 -52t79.5 -32l126 -28q202 -43 202 -194q0 -69 -40 -121.5t-110.5 -81.5t-159.5 -29q-133 0 -214 59t-96 167h166q10 -48 47 -73t97 -25q57 0 95.5 24.5t38.5 61.5q0 65 -100 84l-124 24
q-200 44 -200 206q0 67 36 116.5t101.5 75.5t152.5 26q128 0 207 -58t91 -158h-158q-8 41 -43.5 66.5z" />
    <glyph glyph-name="uni02E3" unicode="&#x2e3;" horiz-adv-x="722" 
d="M362 1182l144 266h182l-214 -362l220 -362h-178l-154 264l-154 -264h-180l218 362l-210 362h178z" />
    <glyph glyph-name="gravecomb" unicode="&#x300;" horiz-adv-x="0" 
d="M-442 1200h-194l-262 294h264z" />
    <glyph glyph-name="acutecomb" unicode="&#x301;" horiz-adv-x="0" 
d="M-230 1558h224l-220 -326h-168z" />
    <glyph glyph-name="tildecomb" unicode="&#x303;" horiz-adv-x="0" 
d="M-864.5 1357q29.5 59 80 91t112.5 32q42 0 73.5 -13.5t70.5 -38.5q37 -23 61 -33.5t53 -10.5q40 0 66 30.5t26 77.5l140 -8q0 -77 -29 -134.5t-79 -88.5t-112 -31q-48 0 -80.5 13.5t-69.5 38.5q-31 21 -54.5 31.5t-55.5 10.5q-39 0 -63.5 -30.5t-24.5 -75.5l-144 4
q0 76 29.5 135z" />
    <glyph glyph-name="Alpha" unicode="&#x391;" horiz-adv-x="1370" 
d="M38 0l520 1448h254l522 -1448h-234l-132 382h-564l-132 -382h-234zM904 566l-214 618h-10l-213 -618h437z" />
    <glyph glyph-name="Beta" unicode="&#x392;" horiz-adv-x="1280" 
d="M148 1448h530q149 0 252 -49.5t154.5 -135.5t51.5 -195q0 -127 -67 -202.5t-177 -103.5v-14q75 -4 144 -48t112.5 -123.5t43.5 -186.5q0 -114 -53 -202t-163 -138t-274 -50h-554v1448zM902.5 246q71.5 58 71.5 154q0 69 -35 126t-99.5 90.5t-149.5 33.5h-322v-462h314
q149 0 220.5 58zM792.5 850.5q59.5 28.5 93.5 80.5t34 119q0 94 -65 152t-191 58h-296v-438h292q73 0 132.5 28.5z" />
    <glyph glyph-name="Gamma" unicode="&#x393;" horiz-adv-x="1126" 
d="M1050 1258h-682v-1258h-220v1448h902v-190z" />
    <glyph glyph-name="uni0394" unicode="&#x394;" horiz-adv-x="1370" 
d="M558 1448h254l522 -1448h-1296zM1034 190l-344 994h-10l-344 -994h698z" />
    <glyph glyph-name="Epsilon" unicode="&#x395;" horiz-adv-x="1178" 
d="M148 1448h908v-190h-688v-438h640v-188h-640v-442h696v-190h-916v1448z" />
    <glyph glyph-name="Zeta" unicode="&#x396;" horiz-adv-x="1248" 
d="M110 146l760 1112h-768v190h1038v-146l-760 -1112h766v-190h-1036v146z" />
    <glyph glyph-name="Eta" unicode="&#x397;" horiz-adv-x="1456" 
d="M148 1448h220v-628h720v628h220v-1448h-220v632h-720v-632h-220v1448z" />
    <glyph glyph-name="Theta" unicode="&#x398;" horiz-adv-x="1506" 
d="M1038 638h-572v172h572v-172zM1322 329.5q-84 -168.5 -232.5 -259t-335.5 -90.5q-189 0 -337.5 90.5t-232.5 259t-84 394.5q0 227 84 395.5t232.5 258.5t337.5 90q187 0 335.5 -90t232.5 -258.5t84 -395.5q0 -226 -84 -394.5zM1132 1018q-56 122 -154.5 185t-223.5 63
q-126 0 -225 -63t-155 -185t-56 -294t56 -294t155 -185t225 -63q125 0 223.5 63t154.5 185.5t56 293.5q0 172 -56 294z" />
    <glyph glyph-name="IotaGreek" unicode="&#x399;" horiz-adv-x="514" 
d="M368 0h-220v1448h220v-1448z" />
    <glyph glyph-name="Kappa" unicode="&#x39a;" horiz-adv-x="1302" 
d="M148 1448h220v-690h18l606 690h276l-584 -652l586 -796h-266l-466 646l-170 -196v-450h-220v1448z" />
    <glyph glyph-name="Lambda" unicode="&#x39b;" horiz-adv-x="1370" 
d="M38 0l520 1448h254l522 -1448h-234l-410 1184h-10l-408 -1184h-234z" />
    <glyph glyph-name="Mu" unicode="&#x39c;" horiz-adv-x="1766" 
d="M416 1448l458 -1122h18l458 1122h268v-1448h-210v1046h-14l-424 -1044h-174l-426 1046h-12v-1048h-210v1448h268z" />
    <glyph glyph-name="Nu" unicode="&#x39d;" horiz-adv-x="1464" 
d="M1316 0h-202l-734 1058h-12v-1058h-220v1448h204l734 -1060h14v1060h216v-1448z" />
    <glyph glyph-name="Xi" unicode="&#x39e;" horiz-adv-x="1124" 
d="M92 188h940v-188h-940v188zM188 828h746v-184h-746v184zM102 1448h908v-188h-908v188z" />
    <glyph glyph-name="Omicron" unicode="&#x39f;" horiz-adv-x="1506" 
d="M1322 329.5q-84 -168.5 -232.5 -259t-335.5 -90.5q-189 0 -337.5 90.5t-232.5 259t-84 394.5q0 227 84 395.5t232.5 258.5t337.5 90q187 0 335.5 -90t232.5 -258.5t84 -395.5q0 -226 -84 -394.5zM1132 1018q-56 122 -154.5 185t-223.5 63q-126 0 -225 -63t-155 -185
t-56 -294t56 -294t155 -185t225 -63q125 0 223.5 63t154.5 185.5t56 293.5q0 172 -56 294z" />
    <glyph glyph-name="Pi" unicode="&#x3a0;" horiz-adv-x="1442" 
d="M1280 0h-220v1260h-680v-1260h-218v1448h1118v-1448z" />
    <glyph glyph-name="Rho" unicode="&#x3a1;" horiz-adv-x="1250" 
d="M148 1448h516q163 0 276 -60.5t169.5 -166.5t56.5 -243q0 -136 -56.5 -242t-169.5 -167t-276 -61h-296v-508h-220v1448zM642 696q153 0 227.5 76.5t74.5 205.5q0 130 -74 206t-228 76h-274v-564h274z" />
    <glyph glyph-name="Sigma" unicode="&#x3a3;" horiz-adv-x="1258" 
d="M1134 0h-1010v148l452 562l-452 566v150h972v-196h-658l392 -510v-18l-391 -506h695v-196z" />
    <glyph glyph-name="Tau" unicode="&#x3a4;" horiz-adv-x="1274" 
d="M76 1448h1122v-190h-450v-1258h-220v1258h-452v190z" />
    <glyph glyph-name="Upsilon" unicode="&#x3a5;" horiz-adv-x="1340" 
d="M286 1448l376 -656h16l378 656h250l-526 -880v-568h-220v568l-524 880h250z" />
    <glyph glyph-name="Phi" unicode="&#x3a6;" horiz-adv-x="1534" 
d="M878 1262q161 -4 289 -73t200.5 -190t72.5 -277q0 -155 -71.5 -275t-199.5 -188.5t-291 -72.5v-186h-214v186q-165 4 -294.5 71.5t-202.5 187.5t-73 275q0 157 73.5 279t203.5 191t293 72v186h214v-186zM350.5 545q44.5 -75 125.5 -116.5t188 -44.5v680q-105 -3 -186 -45
t-126.5 -119t-45.5 -180q0 -100 44.5 -175zM1063.5 430q79.5 42 123 117t43.5 175q0 103 -44 179t-124 117.5t-184 45.5v-680q106 4 185.5 46z" />
    <glyph glyph-name="Chi" unicode="&#x3a7;" horiz-adv-x="1304" 
d="M646 884h12l346 564h254l-452 -724l456 -724h-258l-346 558h-12l-348 -558h-256l462 724l-460 724h258z" />
    <glyph glyph-name="Psi" unicode="&#x3a8;" horiz-adv-x="1562" 
d="M1414 1448v-520q0 -165 -65.5 -286.5t-182.5 -191.5t-272 -84v-366h-220v365q-156 14 -275 83.5t-185 191.5t-66 288v520h216v-520q0 -162 82.5 -258t227.5 -117v895h220v-895q141 19 221.5 113.5t80.5 261.5v520h218z" />
    <glyph glyph-name="uni03A9" unicode="&#x3a9;" horiz-adv-x="1506" 
d="M98 190h290v10q-138 90 -214 234.5t-76 337.5q0 202 84 360t233 247t339 89q189 0 338 -89t232.5 -247.5t83.5 -359.5q0 -193 -76.5 -337.5t-215.5 -234.5v-10h292v-190h-536v238q89 37 161.5 114.5t114.5 184t42 227.5q0 140 -56 254.5t-155.5 181t-224.5 66.5
q-126 0 -226 -66t-156 -181t-56 -255q0 -121 42 -227.5t114 -184t160 -114.5v-238h-534v190z" />
    <glyph glyph-name="alpha" unicode="&#x3b1;" horiz-adv-x="1260" 
d="M303 49.5q-105 71.5 -163 200.5t-58 294q0 161 60.5 288t166.5 197.5t239 70.5q137 0 229.5 -74.5t144.5 -207.5h3l57 268h182l-123 -543l137 -543h-182l-63 264h-3q-55 -132 -150.5 -209t-235.5 -77q-136 0 -241 71.5zM326.5 346.5q32.5 -87.5 91.5 -137t136 -49.5
q88 0 152 61.5t102 147t58 171.5l1 3l-1 3q-29 146 -100 259t-202 113q-80 0 -141.5 -47.5t-95 -133t-33.5 -195.5q0 -108 32.5 -195.5z" />
    <glyph glyph-name="beta" unicode="&#x3b2;" horiz-adv-x="1168" 
d="M807 1415.5q100 -52.5 155.5 -140.5t55.5 -191q0 -84 -36.5 -164t-105.5 -137q100 -55 152 -154t52 -213q0 -122 -58 -221.5t-159.5 -156t-226.5 -56.5q-84 0 -156 28.5t-128 97.5l-12 -6v-510h-210v1466q0 119 58.5 212.5t161 145.5t230.5 52q127 0 227 -52.5z
M371.5 292q31.5 -55 91 -87.5t139.5 -32.5q81 0 142 34t94.5 92t33.5 126q0 67 -31.5 124t-88 90.5t-126.5 33.5h-124v178h74q74 0 127.5 31t80.5 80.5t26 104.5q1 60 -29 108t-83 75t-118 27q-66 0 -121 -28t-87 -79t-32 -117v-638q0 -67 31.5 -122z" />
    <glyph glyph-name="gamma" unicode="&#x3b3;" horiz-adv-x="1050" 
d="M270 1086l260 -800l252 800h224l-376 -1068v-426h-208v426l-378 1068h226z" />
    <glyph glyph-name="delta" unicode="&#x3b4;" horiz-adv-x="1124" 
d="M242.5 1380q46.5 64 133.5 99t206 35q71 0 132.5 -11.5t129.5 -36.5v-186q-52 20 -120 36t-132 16q-81 0 -124.5 -28t-43.5 -74q0 -91 194 -160q221 -77 326.5 -213.5t105.5 -336.5v-20q0 -149 -59 -267.5t-169 -185.5t-258 -67q-150 0 -260.5 66.5t-169 183.5t-58.5 266
v18q0 108 42 202t114.5 158t159.5 86v4q-93 41 -144.5 109.5t-51.5 156.5q0 86 46.5 150zM335 331.5q29 -77.5 87 -122.5t142 -45t141.5 45t86 122t28.5 175v20q0 75 -32.5 148.5t-91 126t-132.5 67.5q-84 0 -142 -45.5t-87 -123t-29 -173.5v-20q0 -97 29 -174.5z" />
    <glyph glyph-name="epsilon" unicode="&#x3b5;" horiz-adv-x="1078" 
d="M134.5 446q52.5 68 170.5 99q-109 30 -157 94.5t-48 142.5q0 99 56 171t156 109.5t230 37.5q125 0 221.5 -38t154.5 -109t68 -169h-214q-14 66 -76 104t-160 38q-68 0 -119 -19.5t-78 -53.5t-27 -77q0 -64 56 -100t162 -36h138v-164h-138q-67 0 -120.5 -21t-83.5 -59
t-30 -86q0 -44 30.5 -79t87 -55t130.5 -20q111 0 170.5 39t77.5 121h214q-9 -103 -70.5 -179t-163 -116.5t-228.5 -40.5q-132 0 -237 39t-165 110.5t-60 164.5q0 84 52.5 152z" />
    <glyph glyph-name="zeta" unicode="&#x3b6;" horiz-adv-x="1036" 
d="M942 1310l-342 -440q-30 -39 -40 -50q-77 -99 -115 -157t-60.5 -124t-22.5 -149q0 -69 43 -120.5t119 -73.5l112 -34q128 -38 199 -99.5t71 -134.5t-52.5 -153t-145.5 -151l-118 98q43 45 66.5 90t23.5 78q0 29 -35.5 54t-98.5 44l-82 24q-150 40 -233 135.5t-83 224.5
q0 117 31 212t87.5 179.5t155.5 202.5l245 294h-589v188h864v-138z" />
    <glyph glyph-name="eta" unicode="&#x3b7;" horiz-adv-x="1168" 
d="M344 0h-214v1086h206v-178h12q40 91 121 141.5t199 50.5q113 0 196 -46.5t128.5 -138.5t45.5 -225v-1098h-212v1072q0 118 -61 185t-169 67q-73 0 -130.5 -32t-89.5 -93.5t-32 -146.5v-644z" />
    <glyph glyph-name="theta" unicode="&#x3b8;" horiz-adv-x="1126" 
d="M971.5 262q-56.5 -143 -160 -212.5t-245.5 -69.5q-143 0 -248.5 70t-163.5 212.5t-58 355.5v198q0 212 57.5 353t162 209t246.5 68q144 0 248 -68t161 -209t57 -353v-198q0 -213 -56.5 -356zM784.5 1077.5q-31.5 92.5 -88.5 139.5t-134 47t-134 -47.5t-88.5 -140
t-31.5 -224.5v-50h508v50q0 133 -31.5 225.5zM340 356q32 -95 90.5 -144.5t135.5 -49.5q76 0 132 48.5t87 143.5t31 230v36h-508v-36q0 -133 32 -228z" />
    <glyph glyph-name="iota" unicode="&#x3b9;" horiz-adv-x="542" 
d="M344 1086l-2 -792q0 -66 32 -91t88 -25q23 0 46 3.5t38 8.5v-182q-79 -22 -154 -22q-121 0 -190.5 71t-69.5 225v804h212z" />
    <glyph glyph-name="kappa" unicode="&#x3ba;" horiz-adv-x="1260" 
d="M380 652h98l352 434h286l-445 -545l441 -541h-294l-348 442h-90v-442h-232v1086h232v-434z" />
    <glyph glyph-name="lambda" unicode="&#x3bb;" horiz-adv-x="1156" 
d="M859 33q-65 49 -99 147l-207 590h-13l-266 -770h-224l391 1053l-31 83q-32 79 -66.5 112.5t-89.5 33.5q-28 0 -88 -14l-52 178q22 10 58.5 16t77.5 6q247 0 340 -254l356 -956q13 -33 22.5 -51t26 -29.5t41.5 -11.5l38 2l32 -172q-42 -12 -92 -12q-90 0 -155 49z" />
    <glyph glyph-name="uni03BC" unicode="&#x3bc;" horiz-adv-x="1248" 
d="M130 1086h214v-634q0 -80 34.5 -142t98 -96t147.5 -34q83 0 146.5 34t98.5 96t35 142v634h214v-1086h-210v160h-10q-38 -80 -111 -123t-163 -43q-91 0 -163.5 42.5t-112.5 123.5h-8v-564h-210v1490z" />
    <glyph glyph-name="nu" unicode="&#x3bd;" horiz-adv-x="1168" 
d="M50 1086h224l298 -868h12q107 172 165 310t82 266.5t29 291.5h210q-3 -280 -105.5 -557.5t-300.5 -528.5h-210z" />
    <glyph glyph-name="xi" unicode="&#x3be;" horiz-adv-x="1074" 
d="M770 1273.5q-52 8.5 -106 8.5q-122 0 -188 -46.5t-66 -131.5q0 -90 72 -137t206 -47h142v-188h-138q-172 0 -262 -71.5t-90 -212.5q0 -105 63 -173.5t187 -98.5l112 -26q141 -31 202.5 -81.5t61.5 -132.5q-1 -77 -54 -163.5t-140 -156.5l-126 94q54 58 75 98t21 70
q0 40 -30.5 63.5t-103.5 40.5l-98 28q-208 48 -305 147.5t-97 266.5q0 154 76 256t222 149q-109 40 -167.5 114.5t-58.5 176.5q0 104 59.5 183t167 122t249.5 43q74 0 144 -11.5t124 -32.5l-36 -180q-66 21 -118 29.5z" />
    <glyph glyph-name="omicron" unicode="&#x3bf;" horiz-adv-x="1176" 
d="M323 48q-115 70 -178 196.5t-63 293.5q0 168 63 295t178 197t267 70q151 0 266 -70t177.5 -197.5t62.5 -294.5t-62.5 -293.5t-177.5 -196.5t-266 -70q-152 0 -267 70zM750 207q65 51 97.5 137.5t32.5 193.5t-32.5 194.5t-98 139.5t-159.5 52q-96 0 -162.5 -52t-99 -139.5
t-32.5 -194.5t32.5 -193.5t99 -137.5t162.5 -51q95 0 160 51z" />
    <glyph glyph-name="pi" unicode="&#x3c0;" horiz-adv-x="1306" 
d="M1192 908h-164v-614q1 -66 33.5 -91t86.5 -25q46 0 86 12v-180q-39 -11 -75.5 -17.5t-82.5 -6.5q-121 0 -188.5 70.5t-67.5 225.5v626h-368v-908h-210v908h-166v178h1116v-178z" />
    <glyph glyph-name="rho" unicode="&#x3c1;" horiz-adv-x="1128" 
d="M180 858q58 121 161 181.5t239 60.5q151 0 256 -74t157.5 -205.5t52.5 -304.5v-20q0 -152 -53.5 -269t-152.5 -182t-232 -65q-92 0 -160 33t-118 97l2 -514h-210v966q0 175 58 296zM328 471q3 -75 28.5 -145t81.5 -117t144 -47q85 0 140.5 45.5t81.5 120.5t26 168v20
q0 178 -63 287t-191 109q-85 0 -141 -50.5t-82 -131.5t-25 -174v-85z" />
    <glyph glyph-name="sigma" unicode="&#x3c3;" horiz-adv-x="1258" 
d="M164 802q58 117 168 183.5t260 66.5h560v-184h-262q85 -62 133.5 -159t48.5 -213v-20q0 -134 -57 -247.5t-165.5 -181t-255.5 -67.5q-150 0 -260.5 69.5t-169 191t-58.5 273.5v24q0 147 58 264zM401 261.5q63 -97.5 193 -97.5q125 0 185.5 98t60.5 252v24
q0 145 -61 237.5t-187 92.5q-128 0 -191 -93t-63 -237v-24q0 -155 63 -252.5z" />
    <glyph glyph-name="tau" unicode="&#x3c4;" horiz-adv-x="972" 
d="M946 904h-366v-618q0 -74 28.5 -97t75.5 -23q25 0 46.5 7t45.5 19l40 -164q-45 -28 -87.5 -38t-98.5 -10q-128 0 -193 75.5t-65 236.5v612h-344v182h918v-182z" />
    <glyph glyph-name="upsilon" unicode="&#x3c5;" horiz-adv-x="1144" 
d="M340 1086v-672q0 -131 53.5 -191.5t134.5 -60.5q82 0 145.5 52.5t99 142t35.5 195.5q-3 118 -36 261.5t-82 272.5h212q47 -92 79.5 -242.5t32.5 -291.5q0 -160 -50.5 -289t-158 -206t-269.5 -77q-189 0 -297.5 108.5t-108.5 327.5v670h210z" />
    <glyph glyph-name="phi" unicode="&#x3c6;" horiz-adv-x="1508" 
d="M713 1038q71 62 203 62q138 0 250.5 -71t177 -196t64.5 -281q1 -147 -55.5 -269t-182 -202.5t-322.5 -96.5v-392h-206v393q-192 19 -313.5 102t-176 209t-54.5 282q0 170 62.5 305t175.5 217l136 -136q-80 -73 -120.5 -167.5t-41.5 -218.5q0 -157 80.5 -267.5
t251.5 -138.5v680q0 124 71 186zM1046 242q79 55 116.5 135t37.5 175q-3 103 -37.5 187.5t-96 133.5t-144.5 49q-35 0 -54.5 -23t-19.5 -57v-672q119 17 198 72z" />
    <glyph glyph-name="chi" unicode="&#x3c7;" horiz-adv-x="1182" 
d="M508 346l-242 456q-30 59 -46 79.5t-37 26.5t-71 6h-50v182h50q91 0 146 -17t96 -61t86 -130l178 -344l294 542h218l-402 -744l240 -466q25 -49 42 -69.5t40.5 -26.5t71.5 -6h50v-182h-50q-91 0 -147 16t-97 58t-84 124l-178 354l-290 -552h-222z" />
    <glyph glyph-name="psi" unicode="&#x3c8;" horiz-adv-x="1502" 
d="M340 1086v-510q0 -186 89.5 -285t240.5 -121v916h208v-912q113 20 188.5 77t111.5 138.5t36 174.5q-3 122 -35 261t-83 261h208q50 -94 84 -234t34 -288q0 -150 -54 -273t-175.5 -205t-314.5 -101v-449h-208v448q-257 23 -398.5 170.5t-141.5 423.5v508h210z" />
    <glyph glyph-name="omega" unicode="&#x3c9;" horiz-adv-x="1672" 
d="M362 798q-36 -125 -36 -260q0 -116 24.5 -200.5t70 -129t109.5 -44.5q87 0 137.5 78.5t50.5 223.5v346h236v-346q0 -144 50 -223t136 -79q64 0 109.5 44.5t70 129t24.5 200.5q0 138 -34.5 262.5t-127.5 285.5h222q156 -246 156 -546q0 -178 -48.5 -304t-139 -191
t-216.5 -65q-116 0 -197 57t-123 166q-42 -109 -123.5 -166t-198.5 -57q-125 0 -215.5 65t-138.5 191t-48 304q0 305 156 546h222q-92 -163 -128 -288z" />
    <glyph glyph-name="uni0401" unicode="&#x401;" horiz-adv-x="1178" 
d="M148 1448h908v-190h-688v-438h640v-188h-640v-442h696v-190h-916v1448zM332 1635q-29 17 -46.5 46t-17.5 61q0 34 17 62.5t46 45t63 16.5q54 0 89 -35.5t35 -88.5q0 -33 -16 -61.5t-44.5 -45.5t-63.5 -17q-33 0 -62 17zM748 1635q-29 17 -46.5 46t-17.5 61q0 34 17 62.5
t46 45t63 16.5q53 0 89.5 -36t36.5 -88q0 -33 -17 -61.5t-46 -45.5t-63 -17q-33 0 -62 17z" />
    <glyph glyph-name="uni0410" unicode="&#x410;" horiz-adv-x="1370" 
d="M38 0l520 1448h254l522 -1448h-234l-132 382h-564l-132 -382h-234zM904 566l-214 618h-10l-213 -618h437z" />
    <glyph glyph-name="uni0411" unicode="&#x411;" horiz-adv-x="1284" 
d="M148 1448h902v-190h-682v-392h322q159 0 273.5 -52t174.5 -148t60 -226t-60.5 -229.5t-175 -155t-272.5 -55.5h-542v1448zM845 221q65 35 99 94t34 127q0 66 -34 120t-99 86t-155 32h-322v-494h322q90 0 155 35z" />
    <glyph glyph-name="uni0412" unicode="&#x412;" horiz-adv-x="1280" 
d="M148 1448h530q149 0 252 -49.5t154.5 -135.5t51.5 -195q0 -127 -67 -202.5t-177 -103.5v-14q75 -4 144 -48t112.5 -123.5t43.5 -186.5q0 -114 -53 -202t-163 -138t-274 -50h-554v1448zM902.5 246q71.5 58 71.5 154q0 69 -35 126t-99.5 90.5t-149.5 33.5h-322v-462h314
q149 0 220.5 58zM792.5 850.5q59.5 28.5 93.5 80.5t34 119q0 94 -65 152t-191 58h-296v-438h292q73 0 132.5 28.5z" />
    <glyph glyph-name="uni0413" unicode="&#x413;" horiz-adv-x="1126" 
d="M1050 1258h-682v-1258h-220v1448h902v-190z" />
    <glyph glyph-name="uni0414" unicode="&#x414;" horiz-adv-x="1492" 
d="M38 186h94q83 69 136 219.5t68 430.5l34 612h896v-1262h164v-534h-212v348h-970v-350h-210v536zM1054 186v1072h-484l-22 -422q-26 -441 -156 -650h662z" />
    <glyph glyph-name="uni0415" unicode="&#x415;" horiz-adv-x="1178" 
d="M148 1448h908v-190h-688v-438h640v-188h-640v-442h696v-190h-916v1448z" />
    <glyph glyph-name="uni0416" unicode="&#x416;" horiz-adv-x="1958" 
d="M1088 822h172l356 626h268l-428 -692l460 -756h-258l-362 616h-208v-616h-218v616h-204l-368 -616h-256l464 758l-430 690h268l358 -626h168v626h218v-626z" />
    <glyph glyph-name="uni0417" unicode="&#x417;" horiz-adv-x="1278" 
d="M376.5 30q-117.5 50 -185 140.5t-71.5 207.5h224q4 -63 43.5 -110t105.5 -72.5t147 -25.5q86 0 155 30t108 83.5t39 122.5q0 71 -39 127t-112.5 87.5t-174.5 31.5h-124v180h124q81 0 145 29t99.5 81t35.5 120q0 66 -31 116t-88 78t-133 28q-74 0 -137 -26t-101.5 -74
t-41.5 -112h-212q3 115 69.5 205.5t178.5 140.5t246 50q138 0 243.5 -53t162.5 -143.5t56 -197.5q1 -122 -68.5 -207.5t-187.5 -114.5v-10q147 -21 229.5 -113t82.5 -231q0 -119 -68 -214.5t-187 -149.5t-267 -54t-265.5 50z" />
    <glyph glyph-name="uni0418" unicode="&#x418;" horiz-adv-x="1464" 
d="M366 1448v-1060h12l736 1060h202v-1448h-220v1058h-12l-734 -1058h-202v1448h218z" />
    <glyph glyph-name="uni0419" unicode="&#x419;" horiz-adv-x="1464" 
d="M366 1448v-1060h12l736 1060h202v-1448h-220v1058h-12l-734 -1058h-202v1448h218zM1008.5 1676.5q-38.5 -60.5 -109.5 -94.5t-165 -34t-165 34t-109 94.5t-38 139.5h174q0 -58 33.5 -96t104.5 -38q69 0 103.5 38.5t34.5 95.5h176q-1 -79 -39.5 -139.5z" />
    <glyph glyph-name="uni041A" unicode="&#x41a;" horiz-adv-x="1306" 
d="M486 648h-118v-648h-220v1448h220v-612h116l500 612h270l-578 -704l600 -744h-268z" />
    <glyph glyph-name="uni041B" unicode="&#x41b;" horiz-adv-x="1408" 
d="M38 190l42 2q86 2 135 58.5t73 179t32 338.5l24 680h918v-1448h-218v1260h-492l-24 -550q-11 -250 -49.5 -402t-128 -230t-250.5 -78h-62v190z" />
    <glyph glyph-name="uni041C" unicode="&#x41c;" horiz-adv-x="1766" 
d="M416 1448l458 -1122h18l458 1122h268v-1448h-210v1046h-14l-424 -1044h-174l-426 1046h-12v-1048h-210v1448h268z" />
    <glyph glyph-name="uni041D" unicode="&#x41d;" horiz-adv-x="1456" 
d="M148 1448h220v-628h720v628h220v-1448h-220v632h-720v-632h-220v1448z" />
    <glyph glyph-name="uni041E" unicode="&#x41e;" horiz-adv-x="1506" 
d="M1322 329.5q-84 -168.5 -232.5 -259t-335.5 -90.5q-189 0 -337.5 90.5t-232.5 259t-84 394.5q0 227 84 395.5t232.5 258.5t337.5 90q187 0 335.5 -90t232.5 -258.5t84 -395.5q0 -226 -84 -394.5zM1132 1018q-56 122 -154.5 185t-223.5 63q-126 0 -225 -63t-155 -185
t-56 -294t56 -294t155 -185t225 -63q125 0 223.5 63t154.5 185.5t56 293.5q0 172 -56 294z" />
    <glyph glyph-name="uni041F" unicode="&#x41f;" horiz-adv-x="1442" 
d="M1280 0h-220v1260h-680v-1260h-218v1448h1118v-1448z" />
    <glyph glyph-name="uni0420" unicode="&#x420;" horiz-adv-x="1250" 
d="M148 1448h516q163 0 276 -60.5t169.5 -166.5t56.5 -243q0 -136 -56.5 -242t-169.5 -167t-276 -61h-296v-508h-220v1448zM642 696q153 0 227.5 76.5t74.5 205.5q0 130 -74 206t-228 76h-274v-564h274z" />
    <glyph glyph-name="uni0421" unicode="&#x421;" horiz-adv-x="1440" 
d="M1057 1132.5q-53 65.5 -131.5 99.5t-171.5 34q-126 0 -225 -63.5t-155 -185.5t-56 -293t56.5 -293.5t155 -185.5t224.5 -63q92 0 170 33.5t131.5 98t72.5 154.5l222 -2q-23 -142 -104.5 -252.5t-209 -172t-284.5 -61.5q-189 0 -337 90t-231.5 258.5t-83.5 395.5t84 395.5
t232 258.5t336 90q153 0 280 -58.5t210 -169.5t108 -264h-222q-18 91 -71 156.5z" />
    <glyph glyph-name="uni0422" unicode="&#x422;" horiz-adv-x="1274" 
d="M76 1448h1122v-190h-450v-1258h-220v1258h-452v190z" />
    <glyph glyph-name="uni0423" unicode="&#x423;" horiz-adv-x="1250" 
d="M250 174h86q76 0 119 36t69 100l20 52l-508 1086h232l380 -834l338 834h228l-500 -1196q-39 -87 -79.5 -143.5t-110 -92.5t-176.5 -36h-98v194z" />
    <glyph glyph-name="uni0424" unicode="&#x424;" horiz-adv-x="1602" 
d="M1225.5 1209q129.5 -73 203 -205t73.5 -302q0 -168 -73.5 -298.5t-203 -203t-293.5 -72.5h-22v-188h-216v188h-24q-165 0 -294.5 72t-202.5 202t-73 298q0 171 73 303.5t202.5 205.5t294.5 73h24v192h216v-192h22q164 0 293.5 -73zM478 1045.5q-80 -46.5 -122 -134.5
t-42 -211q0 -118 42.5 -204t122.5 -132t191 -46h24v774h-24q-112 0 -192 -46.5zM932 318q112 0 192 46t122 132.5t42 205.5q0 121 -42 208.5t-122 134.5t-192 47h-22v-774h22z" />
    <glyph glyph-name="uni0425" unicode="&#x425;" horiz-adv-x="1304" 
d="M646 884h12l346 564h254l-452 -724l456 -724h-258l-346 558h-12l-348 -558h-256l462 724l-460 724h258z" />
    <glyph glyph-name="uni0426" unicode="&#x426;" horiz-adv-x="1498" 
d="M1414 -342h-218v342h-1048v1448h210v-1258h696v1258h214v-1254h166z" />
    <glyph glyph-name="uni0427" unicode="&#x427;" horiz-adv-x="1416" 
d="M392 1448v-478q0 -143 74 -202.5t222 -59.5q89 0 184.5 12.5t177.5 33.5v694h220v-1448h-220v566q-169 -46 -362 -46q-512 0 -512 450v478h216z" />
    <glyph glyph-name="uni0428" unicode="&#x428;" horiz-adv-x="1900" 
d="M366 1448v-1258h476v1258h218v-1258h474v1258h220v-1448h-1606v1448h218z" />
    <glyph glyph-name="uni0429" unicode="&#x429;" horiz-adv-x="1982" 
d="M1898 -342h-208v342h-1542v1448h218v-1258h476v1258h218v-1258h474v1258h220v-1264h164z" />
    <glyph glyph-name="uni042A" unicode="&#x42a;" horiz-adv-x="1600" 
d="M76 1448h614v-582h322q159 0 273.5 -52t174.5 -148t60 -226t-60.5 -229.5t-175 -155t-272.5 -55.5h-542v1264h-394v184zM1012 186q90 0 155 35t99 94t34 127q0 66 -34 120t-99 86t-155 32h-322v-494h322z" />
    <glyph glyph-name="uni042B" unicode="&#x42b;" horiz-adv-x="1700" 
d="M963.5 814q114.5 -52 174.5 -148t60 -226t-60.5 -229.5t-175 -155t-272.5 -55.5h-542v1448h220v-582h322q159 0 273.5 -52zM690 186q90 0 155 35t99 94t34 127q0 66 -34 120t-99 86t-155 32h-322v-494h322zM1554 0h-220v1448h220v-1448z" />
    <glyph glyph-name="uni042C" unicode="&#x42c;" horiz-adv-x="1280" 
d="M963.5 814q114.5 -52 174.5 -148t60 -226t-60.5 -229.5t-175 -155t-272.5 -55.5h-542v1448h220v-582h322q159 0 273.5 -52zM690 186q90 0 155 35t99 94t34 127q0 66 -34 120t-99 86t-155 32h-322v-494h322z" />
    <glyph glyph-name="uni042D" unicode="&#x42d;" horiz-adv-x="1330" 
d="M421.5 239.5q78.5 -73.5 236.5 -73.5q111 0 188 57.5t116.5 158.5t44.5 232h-531v186h532q-1 146 -43.5 253.5t-123.5 166t-195 58.5q-153 0 -228 -75t-94 -223h-224q14 144 79.5 253.5t183 172t283.5 62.5q177 0 309 -82.5t203.5 -234t71.5 -353.5v-150q0 -202 -70 -353
t-199.5 -233t-302.5 -82q-170 0 -290.5 61.5t-187 169.5t-80.5 249h224q19 -147 97.5 -220.5z" />
    <glyph glyph-name="uni042E" unicode="&#x42e;" horiz-adv-x="2020" 
d="M368 798h248q14 206 100.5 357.5t229.5 232t322 80.5q187 0 335.5 -90t232.5 -258.5t84 -395.5q0 -226 -84 -394.5t-232.5 -259t-335.5 -90.5q-173 0 -313 76.5t-228 219.5t-108 338h-251v-614h-220v1448h220v-650zM1646 1018q-56 122 -154.5 185t-223.5 63
q-126 0 -225 -63t-155 -185t-56 -294t56 -294t155 -185t225 -63q125 0 223.5 63t154.5 185.5t56 293.5q0 172 -56 294z" />
    <glyph glyph-name="uni042F" unicode="&#x42f;" horiz-adv-x="1322" 
d="M956 0v546h-298h-14l-292 -546h-250l318 585q-130 49 -197 155t-67 254q0 135 56.5 237.5t169 159.5t276.5 57h518v-1448h-220zM451.5 802q73.5 -66 228.5 -66h276v524h-274q-156 0 -230 -69.5t-74 -196.5q0 -126 73.5 -192z" />
    <glyph glyph-name="uni0430" unicode="&#x430;" horiz-adv-x="1112" 
d="M194 547q114 72 292 85q68 5 148.5 9.5t136.5 6.5l-1 86q0 93 -56 143.5t-164 50.5q-91 0 -149 -37.5t-75 -100.5h-212q10 90 67 160.5t154.5 110t222.5 39.5q103 0 198.5 -32t161.5 -116t66 -230v-722h-208v148h-8q-37 -72 -117.5 -122t-204.5 -50q-104 0 -187 39
t-131 113.5t-48 177.5q0 169 114 241zM344.5 187q56.5 -41 149.5 -41q84 0 147 33.5t97 90t34 122.5l-1 99l-255 -17q-109 -8 -168.5 -49.5t-59.5 -120.5q0 -76 56.5 -117z" />
    <glyph glyph-name="uni0431" unicode="&#x431;" horiz-adv-x="1166" 
d="M957 1297q-56 -19 -120.5 -25t-182.5 -10q-12 -2 -34 -2q-174 -4 -260 -105.5t-104 -312.5h14q51 100 145 151t215 51q132 0 235 -60.5t161 -177.5t58 -280q0 -167 -61.5 -291t-174.5 -190.5t-264 -66.5q-153 0 -266 69.5t-174.5 206.5t-61.5 334v106q0 745 532 754h74
h56q90 0 140 7.5t84 34.5l88 -134q-43 -40 -99 -59zM735.5 201q64.5 45 99.5 128t35 195q0 108 -35 185.5t-99.5 118t-153.5 40.5q-132 0 -207.5 -90.5t-78.5 -253.5q0 -111 35 -194.5t100 -128.5t153 -45q87 0 151.5 45z" />
    <glyph glyph-name="uni0432" unicode="&#x432;" horiz-adv-x="1108" 
d="M130 1086h452q121 0 211 -35.5t138.5 -101t48.5 -153.5q0 -92 -59 -149t-163 -77q75 -9 136.5 -44.5t97.5 -95.5t36 -138q0 -86 -45 -152t-130.5 -103t-202.5 -37h-520v1086zM771.5 215.5q44.5 37.5 44.5 100.5q0 75 -44 118.5t-122 43.5h-318v-300h318q77 0 121.5 37.5z
M723.5 671q50.5 37 50.5 103q0 61 -51.5 96.5t-140.5 35.5h-250v-272h252q89 0 139.5 37z" />
    <glyph glyph-name="uni0433" unicode="&#x433;" horiz-adv-x="894" 
d="M826 902h-486v-902h-210v1086h696v-184z" />
    <glyph glyph-name="uni0434" unicode="&#x434;" horiz-adv-x="1250" 
d="M24 184h88q44 39 72 103t44.5 157.5t29.5 237.5l34 404h738v-902h168v-498h-208v314h-754v-314h-212v498zM824 184v720h-342l-24 -222q-17 -192 -42.5 -310t-75.5 -188h484z" />
    <glyph glyph-name="uni0435" unicode="&#x435;" horiz-adv-x="1148" 
d="M323.5 47q-116.5 69 -179 195t-62.5 294q0 166 62.5 294t176.5 199t263 71q131 0 240 -57t175.5 -179.5t66.5 -309.5v-76h-772q3 -101 41.5 -174.5t106.5 -111.5t158 -38q87 0 147 32.5t89 85.5h216q-24 -88 -86 -154.5t-156.5 -103t-211.5 -36.5q-158 0 -274.5 69z
M856 638q0 83 -33.5 148t-94.5 101.5t-142 36.5q-83 0 -147.5 -38.5t-101.5 -104t-42 -143.5h561z" />
    <glyph glyph-name="uni0436" unicode="&#x436;" horiz-adv-x="1658" 
d="M480 556l-414 530h248l334 -450h76v450h212v-450h74l334 450h250l-414 -530l418 -556h-254l-336 452h-72v-452h-212v452h-70l-340 -452h-252z" />
    <glyph glyph-name="uni0437" unicode="&#x437;" horiz-adv-x="982" 
d="M342 186q55 -36 146 -36q97 0 158.5 40.5t61.5 119.5q0 74 -54 119t-142 45h-176v168h176q86 0 131 39t45 103q0 67 -47.5 107.5t-130.5 40.5q-56 0 -102 -18t-72.5 -49.5t-27.5 -70.5h-216q2 90 55 159.5t145 108t208 38.5q119 0 208.5 -38.5t137.5 -107.5t48 -158
q0 -86 -51.5 -144.5t-140.5 -83.5v-12q62 -4 111.5 -38t77 -90.5t27.5 -125.5q0 -98 -55 -171.5t-152 -113t-221 -39.5q-120 0 -215 38t-150.5 108.5t-58.5 163.5h218q3 -66 58 -102z" />
    <glyph glyph-name="uni0438" unicode="&#x438;" horiz-adv-x="1176" 
d="M816 1086h230v-1086h-210v788l-474 -788h-232v1086h210v-788z" />
    <glyph glyph-name="uni0439" unicode="&#x439;" horiz-adv-x="1176" 
d="M816 1086h230v-1086h-210v788l-474 -788h-232v1086h210v-788zM862.5 1314.5q-38.5 -60.5 -109.5 -94.5t-165 -34t-165 34t-109 94.5t-38 139.5h174q0 -58 33.5 -96t104.5 -38q69 0 103.5 38.5t34.5 95.5h176q-1 -79 -39.5 -139.5z" />
    <glyph glyph-name="uni043A" unicode="&#x43a;" horiz-adv-x="1080" 
d="M130 1086h214v-456h116l342 456h264l-420 -550l426 -536h-266l-340 434h-122v-434h-214v1086z" />
    <glyph glyph-name="uni043B" unicode="&#x43b;" horiz-adv-x="1160" 
d="M44 184h38q62 0 96 36.5t51.5 126t24.5 259.5l20 480h758v-1086h-208v902h-354l-16 -368q-9 -186 -45 -302t-107.5 -174t-189.5 -58h-68v184z" />
    <glyph glyph-name="uni043C" unicode="&#x43c;" horiz-adv-x="1482" 
d="M1090 1086h266v-1086h-208v785l-328 -785h-158l-322 788v-788h-210v1086h268l344 -822z" />
    <glyph glyph-name="uni043D" unicode="&#x43d;" horiz-adv-x="1144" 
d="M340 634h468v452h208v-1086h-208v452h-468v-452h-210v1086h210v-452z" />
    <glyph glyph-name="uni043E" unicode="&#x43e;" horiz-adv-x="1176" 
d="M323 48q-115 70 -178 196.5t-63 293.5q0 168 63 295t178 197t267 70q151 0 266 -70t177.5 -197.5t62.5 -294.5t-62.5 -293.5t-177.5 -196.5t-266 -70q-152 0 -267 70zM750 207q65 51 97.5 137.5t32.5 193.5t-32.5 194.5t-98 139.5t-159.5 52q-96 0 -162.5 -52t-99 -139.5
t-32.5 -194.5t32.5 -193.5t99 -137.5t162.5 -51q95 0 160 51z" />
    <glyph glyph-name="uni043F" unicode="&#x43f;" horiz-adv-x="1148" 
d="M130 1086h888v-1086h-210v902h-470v-902h-208v1086z" />
    <glyph glyph-name="uni0440" unicode="&#x440;" horiz-adv-x="1206" 
d="M130 1086h208v-176h18q27 49 61 89t96.5 70.5t154.5 30.5q132 0 235.5 -67t162 -193.5t58.5 -299.5q0 -172 -58 -299t-161 -195t-235 -68q-130 0 -201 56.5t-113 135.5h-12v-578h-214v1494zM373 342.5q33 -86.5 96.5 -134.5t152.5 -48q91 0 155.5 49.5t97.5 136.5t33 198
q0 109 -32.5 193.5t-97 132.5t-156.5 48q-136 0 -209 -100.5t-73 -273.5q0 -115 33 -201.5z" />
    <glyph glyph-name="uni0441" unicode="&#x441;" horiz-adv-x="1108" 
d="M320 49.5q-115 71.5 -176.5 198.5t-61.5 290q0 165 62.5 292.5t176.5 198.5t265 71q123 0 221 -45.5t158 -128.5t71 -192h-208q-18 81 -80 134.5t-158 53.5q-88 0 -154.5 -46t-103 -131.5t-36.5 -200.5q0 -118 36.5 -204.5t102.5 -133t155 -46.5q91 0 155 48.5t83 135.5
h208q-12 -106 -69.5 -189t-154.5 -130t-222 -47q-155 0 -270 71.5z" />
    <glyph glyph-name="uni0442" unicode="&#x442;" horiz-adv-x="1056" 
d="M70 1086h918v-184h-354v-902h-210v902h-354v184z" />
    <glyph glyph-name="uni0443" unicode="&#x443;" horiz-adv-x="1106" 
d="M148 -402v178q48 -4 96 -4q41 0 68 8t53.5 39t50.5 95l26 72l-398 1100h228l274 -842h12l274 842h230l-448 -1230q-47 -131 -133.5 -197.5t-218.5 -66.5q-72 0 -114 6z" />
    <glyph glyph-name="uni0444" unicode="&#x444;" horiz-adv-x="1410" 
d="M598 -22q-153 0 -270 70t-181.5 197t-64.5 293q0 167 64.5 294.5t181.5 197.5t270 70v348h214v-348q153 0 270 -70t181.5 -197.5t64.5 -294.5q0 -166 -64.5 -293t-181.5 -197t-270 -70v-348h-214v348zM598 922q-97 0 -165 -51.5t-101.5 -139t-33.5 -193.5t33.5 -192
t101.5 -137t165 -51v764zM977 209q68 51 101.5 137t33.5 192t-33.5 193.5t-101.5 139t-165 51.5v-764q97 0 165 51z" />
    <glyph glyph-name="uni0445" unicode="&#x445;" horiz-adv-x="1076" 
d="M538 664l240 422h234l-338 -542l340 -544h-232l-244 406l-242 -406h-234l336 544l-334 542h236z" />
    <glyph glyph-name="uni0446" unicode="&#x446;" horiz-adv-x="1242" 
d="M1018 174h160v-524h-210v350h-838v1086h210v-902h470v902h208v-912z" />
    <glyph glyph-name="uni0447" unicode="&#x447;" horiz-adv-x="1132" 
d="M1004 0h-208v361q-110 -29 -226 -29q-206 0 -323 101t-117 299v356h208v-356q0 -111 60 -163.5t172 -52.5q114 0 226 30v540h208v-1086z" />
    <glyph glyph-name="uni0448" unicode="&#x448;" horiz-adv-x="1634" 
d="M340 1086v-902h374v902h208v-902h374v902h210v-1086h-1376v1086h210z" />
    <glyph glyph-name="uni0449" unicode="&#x449;" horiz-adv-x="1754" 
d="M1670 -312h-210v312h-1330v1086h210v-902h374v902h208v-902h374v902h210v-902h184z" />
    <glyph glyph-name="uni044A" unicode="&#x44a;" horiz-adv-x="1314" 
d="M550 714h266q130 0 224 -44.5t143 -124.5t49 -185q0 -104 -49 -185.5t-143 -128t-224 -46.5h-476v902h-294v184h504v-372zM816 184q59 0 106.5 21.5t74.5 60.5t27 88q0 50 -27 90.5t-74.5 63t-106.5 22.5h-266v-346h266z" />
    <glyph glyph-name="uni044B" unicode="&#x44b;" horiz-adv-x="1518" 
d="M830 669.5q94 -44.5 143 -124.5t49 -185q0 -104 -49 -185.5t-143 -128t-224 -46.5h-476v1086h210v-372h266q130 0 224 -44.5zM606 184q59 0 106.5 21.5t74.5 60.5t27 88q0 50 -27 90.5t-74.5 63t-106.5 22.5h-266v-346h266zM1174 1086h214v-1086h-214v1086z" />
    <glyph glyph-name="uni044C" unicode="&#x44c;" horiz-adv-x="1104" 
d="M830 669.5q94 -44.5 143 -124.5t49 -185q0 -104 -49 -185.5t-143 -128t-224 -46.5h-476v1086h210v-372h266q130 0 224 -44.5zM606 184q59 0 106.5 21.5t74.5 60.5t27 88q0 50 -27 90.5t-74.5 63t-106.5 22.5h-266v-346h266z" />
    <glyph glyph-name="uni044D" unicode="&#x44d;" horiz-adv-x="1064" 
d="M397.5 890.5q-51.5 -25.5 -83.5 -69.5t-32 -95h-200q0 100 58 186.5t155.5 138t208.5 51.5q149 0 257 -73t164.5 -197t56.5 -274v-34q0 -150 -56.5 -274t-164.5 -197t-257 -73q-121 0 -217.5 52t-150.5 144t-54 208h200q0 -57 30.5 -107t81.5 -80t110 -31q76 1 132.5 43
t89.5 109.5t42 145.5h-364v164h363q-10 79 -42.5 144t-88.5 104.5t-132 39.5q-55 0 -106.5 -25.5z" />
    <glyph glyph-name="uni044E" unicode="&#x44e;" horiz-adv-x="1606" 
d="M272 626h237q15 143 81 250t173.5 165.5t244.5 58.5q150 0 264 -70t176 -196.5t62 -293.5t-62 -294t-176 -197.5t-264 -70.5q-135 0 -241.5 57t-173 162t-83.5 245h-238v-442h-214v1086h214v-460zM1172 210.5q66 50.5 98 136t32 193.5q0 107 -32 192.5t-98 135.5t-164 50
t-164 -50t-98 -135.5t-32 -192.5q0 -108 32 -193.5t98 -136t164 -50.5t164 50.5z" />
    <glyph glyph-name="uni044F" unicode="&#x44f;" horiz-adv-x="1106" 
d="M776 424h-258l-236 -424h-218l253 455q-97 37 -150 113.5t-53 183.5q0 102 48.5 177t139.5 116t216 41h460v-1086h-202v424zM370 637.5q48 -41.5 134 -41.5h272v310h-258q-92 0 -144 -43t-52 -113q0 -71 48 -112.5z" />
    <glyph glyph-name="uni0451" unicode="&#x451;" horiz-adv-x="1148" 
d="M323.5 47q-116.5 69 -179 195t-62.5 294q0 166 62.5 294t176.5 199t263 71q131 0 240 -57t175.5 -179.5t66.5 -309.5v-76h-772q3 -101 41.5 -174.5t106.5 -111.5t158 -38q87 0 147 32.5t89 85.5h216q-24 -88 -86 -154.5t-156.5 -103t-211.5 -36.5q-158 0 -274.5 69z
M856 638q0 83 -33.5 148t-94.5 101.5t-142 36.5q-83 0 -147.5 -38.5t-101.5 -104t-42 -143.5h561zM306 1273q-29 17 -46.5 46t-17.5 61q0 34 17 62.5t46 45t63 16.5q54 0 89 -35.5t35 -88.5q0 -33 -16 -61.5t-44.5 -45.5t-63.5 -17q-33 0 -62 17zM722 1273q-29 17 -46.5 46
t-17.5 61q0 34 17 62.5t46 45t63 16.5q53 0 89.5 -36t36.5 -88q0 -33 -17 -61.5t-46 -45.5t-63 -17q-33 0 -62 17z" />
    <glyph glyph-name="uni1D43" unicode="&#x1d43;" horiz-adv-x="738" 
d="M116.5 1086q74.5 53 197.5 60q133 10 180 10v64q0 50 -33.5 79t-92.5 29q-56 0 -96 -26t-46 -64h-164q13 103 97.5 160.5t210.5 57.5q79 0 146.5 -25.5t108.5 -80t41 -136.5v-490h-164v104h-6q-28 -52 -82.5 -85t-133.5 -33q-68 0 -122 25t-85 73.5t-31 117.5
q0 107 74.5 160zM240 858.5q34 -26.5 86 -26.5q48 0 86.5 21t60 56.5t21.5 78.5v59l-152 -13q-67 -4 -101.5 -30.5t-34.5 -73.5q0 -45 34 -71.5z" />
    <glyph glyph-name="uni1D47" unicode="&#x1d47;" horiz-adv-x="812" 
d="M84 1688h172v-368h6q64 136 212 136q82 0 148.5 -43.5t105 -127.5t38.5 -201q0 -115 -37.5 -200t-104 -129.5t-150.5 -44.5q-80 0 -132.5 39.5t-79.5 96.5h-6v-122h-172v964zM298.5 916q44.5 -64 123.5 -64q80 0 124 65t44 169t-44 168t-124 64q-78 0 -123 -63.5
t-45 -168.5q0 -106 44.5 -170z" />
    <glyph glyph-name="uni1D48" unicode="&#x1d48;" horiz-adv-x="810" 
d="M558 724v122h-8q-27 -56 -77 -96t-133 -40q-84 0 -150.5 45t-105 129.5t-38.5 199.5q0 117 38.5 201.5t105.5 127.5t150 43q82 0 133 -39.5t77 -96.5h6v368h170v-964h-168zM515 1254q-45 64 -125 64t-124 -64.5t-44 -167.5q0 -105 45 -169.5t123 -64.5q79 0 124.5 64
t45.5 170q0 104 -45 168z" />
    <glyph glyph-name="uni1D49" unicode="&#x1d49;" horiz-adv-x="760" 
d="M208 756q-79 46 -121.5 130.5t-42.5 195.5t42.5 196t120 131.5t179.5 46.5q93 0 168.5 -41.5t119.5 -123t44 -197.5v-52h-502q0 -92 49 -146t131 -54q57 0 97.5 24.5t56.5 63.5h158q-23 -104 -105.5 -162t-208.5 -58q-107 0 -186 46zM554 1150q0 78 -46 127t-120 49
q-48 0 -87 -24t-61.5 -64t-23.5 -88h338z" />
    <glyph glyph-name="uni1D4D" unicode="&#x1d4d;" horiz-adv-x="806" 
d="M172 496q-84 54 -102 144h158q17 -33 58 -52.5t106 -19.5q76 0 121 37.5t45 112.5v140h-8q-23 -54 -76 -89t-134 -35q-84 0 -150.5 40t-105 119.5t-38.5 192.5q0 117 38.5 200.5t105.5 126.5t150 43q82 0 134.5 -40t75.5 -96h8v128h172v-734q0 -88 -43 -149t-120.5 -92
t-178.5 -31q-132 0 -216 54zM514.5 925q45.5 59 45.5 163q0 103 -45.5 166.5t-124.5 63.5q-80 0 -124 -64.5t-44 -165.5q0 -102 44 -162t124 -60q79 0 124.5 59z" />
    <glyph glyph-name="uni1D4F" unicode="&#x1d4f;" horiz-adv-x="728" 
d="M74 1688h172v-532h12l256 292h202l-278 -313l290 -411h-204l-216 309l-62 -68v-241h-172v964z" />
    <glyph glyph-name="uni1D50" unicode="&#x1d50;" horiz-adv-x="1168" 
d="M74 1448h164v-124h8q23 61 75.5 96.5t126.5 35.5q72 0 125 -36.5t69 -99.5h8q24 63 82 99.5t136 36.5q103 0 164.5 -65t61.5 -181v-486h-172v456q0 64 -34.5 98t-89.5 34q-61 0 -95.5 -38.5t-34.5 -99.5v-450h-168v460q0 58 -33 93t-89 35t-94 -40.5t-38 -105.5v-442
h-172v724z" />
    <glyph glyph-name="uni1D52" unicode="&#x1d52;" horiz-adv-x="780" 
d="M208 757q-78 47 -121 132t-43 195t42.5 194.5t121 131t182.5 46.5t182.5 -46.5t121 -131t42.5 -194.5t-43 -195t-121 -132t-182 -47t-182 47zM516 911.5q46 67.5 46 172.5t-46 172.5t-126 67.5t-126 -67.5t-46 -172.5t46 -172.5t126 -67.5t126 67.5z" />
    <glyph glyph-name="uni1D56" unicode="&#x1d56;" horiz-adv-x="802" 
d="M74 1448h172v-128h6q27 58 78 97t134 39q82 0 148.5 -43t105 -127t38.5 -202q0 -115 -37.5 -199.5t-104 -129.5t-150.5 -45q-83 0 -133.5 39t-78.5 97h-6v-394h-172v996zM288 916.5q46 -64.5 124 -64.5q80 0 124 65t44 169t-44 168t-124 64q-79 0 -124.5 -63.5
t-45.5 -168.5t46 -169.5z" />
    <glyph glyph-name="uni1D57" unicode="&#x1d57;" horiz-adv-x="484" 
d="M434 1316h-140v-376q0 -44 22 -63t58 -19q42 0 64 2v-138q-60 -6 -88 -6q-104 0 -165 49t-61 149v402h-102v132h102v172h170v-172h140v-132z" />
    <glyph glyph-name="uni1D58" unicode="&#x1d58;" horiz-adv-x="784" 
d="M538 1448h172v-724h-166v130h-6q-26 -63 -83.5 -100.5t-136.5 -37.5q-72 0 -127.5 32t-86 92.5t-30.5 143.5v464h172v-436q0 -67 39 -108.5t101 -41.5q39 0 74 19t56.5 55t21.5 86v426z" />
    <glyph glyph-name="uni1D5B" unicode="&#x1d5b;" horiz-adv-x="742" 
d="M470 724h-196l-256 724h182l166 -542h10l162 542h186z" />
    <glyph glyph-name="uni1D62" unicode="&#x1d62;" horiz-adv-x="324" 
d="M78 474h170v-724h-170v724zM95 594.5q-29 28.5 -29 67.5q0 38 29 66t69 28q39 0 67.5 -27.5t28.5 -66.5q0 -40 -28.5 -68t-67.5 -28q-40 0 -69 28.5z" />
    <glyph glyph-name="uni1D63" unicode="&#x1d63;" horiz-adv-x="526" 
d="M74 474h168v-122h6q21 61 71 96.5t115 35.5q36 0 60 -6v-156q-10 3 -32.5 6.5t-41.5 3.5q-76 0 -125 -44.5t-49 -121.5v-416h-172v724z" />
    <glyph glyph-name="uni1D64" unicode="&#x1d64;" horiz-adv-x="784" 
d="M538 474h172v-724h-166v130h-6q-26 -63 -83.5 -100.5t-136.5 -37.5q-72 0 -127.5 32t-86 92.5t-30.5 143.5v464h172v-436q0 -67 39 -108.5t101 -41.5q39 0 74 19t56.5 55t21.5 86v426z" />
    <glyph glyph-name="uni1D65" unicode="&#x1d65;" horiz-adv-x="742" 
d="M470 -250h-196l-256 724h182l166 -542h10l162 542h186z" />
    <glyph glyph-name="uni1D9C" unicode="&#x1d9c;" horiz-adv-x="744" 
d="M206 757.5q-78 47.5 -120 132t-42 194.5q0 109 42.5 193t120.5 131.5t181 47.5q89 0 158 -32.5t109.5 -92.5t46.5 -139h-164q-10 56 -48 93t-98 37q-51 0 -90.5 -29t-61.5 -82.5t-22 -124.5q0 -72 21.5 -126t61 -83t91.5 -29q55 0 95.5 34t50.5 96h164q-6 -80 -46 -140.5
t-108.5 -94t-159.5 -33.5q-104 0 -182 47.5z" />
    <glyph glyph-name="uni1DA0" unicode="&#x1da0;" horiz-adv-x="482" 
d="M448 1316h-146v-592h-174v592h-104v132h104v62q0 72 29.5 122t81 75t115.5 25q56 0 100 -8v-134l-64 2q-88 0 -88 -88v-56h146v-132z" />
    <glyph glyph-name="uni1DBB" unicode="&#x1dbb;" horiz-adv-x="718" 
d="M66 830l370 472v6h-354v140h560v-114l-348 -466v-6h362v-138h-590v106z" />
    <glyph glyph-name="Wgrave" unicode="&#x1e80;" horiz-adv-x="1932" 
d="M32 1448h232l282 -1120h12l294 1120h228l294 -1120h12l282 1120h232l-402 -1448h-222l-304 1082h-12l-304 -1082h-222zM664 1920h226l164 -326h-170z" />
    <glyph glyph-name="wgrave" unicode="&#x1e81;" horiz-adv-x="1620" 
d="M46 1086h220l212 -796h12l212 796h220l210 -792h12l210 792h220l-318 -1086h-218l-220 782h-16l-218 -782h-220zM508 1558h226l164 -326h-170z" />
    <glyph glyph-name="Wacute" unicode="&#x1e82;" horiz-adv-x="1932" 
d="M32 1448h232l282 -1120h12l294 1120h228l294 -1120h12l282 1120h232l-402 -1448h-222l-304 1082h-12l-304 -1082h-222zM1044 1920h224l-220 -326h-168z" />
    <glyph glyph-name="wacute" unicode="&#x1e83;" horiz-adv-x="1620" 
d="M46 1086h220l212 -796h12l212 796h220l210 -792h12l210 792h220l-318 -1086h-218l-220 782h-16l-218 -782h-220zM888 1558h224l-220 -326h-168z" />
    <glyph glyph-name="Wdieresis" unicode="&#x1e84;" horiz-adv-x="1932" 
d="M32 1448h232l282 -1120h12l294 1120h228l294 -1120h12l282 1120h232l-402 -1448h-222l-304 1082h-12l-304 -1082h-222zM696 1635q-29 17 -46.5 46t-17.5 61q0 34 17 62.5t46 45t63 16.5q54 0 89 -35.5t35 -88.5q0 -33 -16 -61.5t-44.5 -45.5t-63.5 -17q-33 0 -62 17z
M1112 1635q-29 17 -46.5 46t-17.5 61q0 34 17 62.5t46 45t63 16.5q53 0 89.5 -36t36.5 -88q0 -33 -17 -61.5t-46 -45.5t-63 -17q-33 0 -62 17z" />
    <glyph glyph-name="wdieresis" unicode="&#x1e85;" horiz-adv-x="1620" 
d="M46 1086h220l212 -796h12l212 796h220l210 -792h12l210 792h220l-318 -1086h-218l-220 782h-16l-218 -782h-220zM542 1273q-29 17 -46.5 46t-17.5 61q0 34 17 62.5t46 45t63 16.5q54 0 89 -35.5t35 -88.5q0 -33 -16 -61.5t-44.5 -45.5t-63.5 -17q-33 0 -62 17zM958 1273
q-29 17 -46.5 46t-17.5 61q0 34 17 62.5t46 45t63 16.5q53 0 89.5 -36t36.5 -88q0 -33 -17 -61.5t-46 -45.5t-63 -17q-33 0 -62 17z" />
    <glyph glyph-name="Ygrave" unicode="&#x1ef2;" horiz-adv-x="1340" 
d="M286 1448l376 -656h16l378 656h250l-526 -880v-568h-220v568l-524 880h250zM368 1920h226l164 -326h-170z" />
    <glyph glyph-name="ygrave" unicode="&#x1ef3;" horiz-adv-x="1106" 
d="M148 -402v178q48 -4 96 -4q41 0 68 8t53.5 39t50.5 95l26 72l-398 1100h228l274 -842h12l274 842h230l-448 -1230q-47 -131 -133.5 -197.5t-218.5 -66.5q-72 0 -114 6zM250 1558h226l164 -326h-170z" />
    <glyph glyph-name="uni2000" unicode="&#x2002;" horiz-adv-x="1024" 
 />
    <glyph glyph-name="uni2001" unicode="&#x2003;" horiz-adv-x="2048" 
 />
    <glyph glyph-name="uni2004" unicode="&#x2004;" horiz-adv-x="684" 
 />
    <glyph glyph-name="uni2005" unicode="&#x2005;" horiz-adv-x="512" 
 />
    <glyph glyph-name="uni2006" unicode="&#x2006;" horiz-adv-x="340" 
 />
    <glyph glyph-name="uni2007" unicode="&#x2007;" horiz-adv-x="1286" 
 />
    <glyph glyph-name="uni2009" unicode="&#x2009;" horiz-adv-x="248" 
 />
    <glyph glyph-name="uni200A" unicode="&#x200a;" horiz-adv-x="136" 
 />
    <glyph glyph-name="figuredash" unicode="&#x2012;" horiz-adv-x="1286" 
d="M1300 520h-1312v184h1312v-184z" />
    <glyph glyph-name="endash" unicode="&#x2013;" horiz-adv-x="970" 
d="M984 520h-996v184h996v-184z" />
    <glyph glyph-name="emdash" unicode="&#x2014;" horiz-adv-x="1966" 
d="M1978 520h-1990v184h1990v-184z" />
    <glyph glyph-name="uni2015" unicode="&#x2015;" horiz-adv-x="1966" 
d="M1978 520h-1990v184h1990v-184z" />
    <glyph glyph-name="quoteleft" unicode="&#x2018;" horiz-adv-x="482" 
d="M236 1448h170l-106 -552h-224z" />
    <glyph glyph-name="quoteright" unicode="&#x2019;" horiz-adv-x="482" 
d="M246 894h-170l106 552h224z" />
    <glyph glyph-name="quotesinglbase" unicode="&#x201a;" horiz-adv-x="482" 
d="M246 -374h-170l106 552h224z" />
    <glyph glyph-name="quotedblleft" unicode="&#x201c;" horiz-adv-x="932" 
d="M230 1450h170l-106 -552h-224zM632 1450h170l-106 -552h-224z" />
    <glyph glyph-name="quotedblright" unicode="&#x201d;" horiz-adv-x="932" 
d="M700 894h-170l106 552h224zM298 894h-170l106 552h224z" />
    <glyph glyph-name="quotedblbase" unicode="&#x201e;" horiz-adv-x="882" 
d="M648 -414h-170l106 552h224zM246 -414h-170l106 552h224z" />
    <glyph glyph-name="dagger" unicode="&#x2020;" horiz-adv-x="1206" 
d="M702 1086h386v-188h-386v-898h-216v898h-368v188h368v362h216v-362z" />
    <glyph glyph-name="daggerdbl" unicode="&#x2021;" horiz-adv-x="1072" 
d="M648 1052h374v-184h-374v-684h374v-184h-374v-404h-228v404h-370v184h370v684h-370v184h370v366h228v-366z" />
    <glyph glyph-name="bullet" unicode="&#x2022;" horiz-adv-x="1014" 
d="M387 380.5q-52 30.5 -82.5 83t-30.5 114.5q0 61 30.5 113t82.5 82.5t113 30.5q62 0 114.5 -30.5t83 -82.5t30.5 -113q0 -62 -30.5 -114.5t-83 -83t-114.5 -30.5q-61 0 -113 30.5z" />
    <glyph glyph-name="uni2023" unicode="&#x2023;" horiz-adv-x="1014" 
d="M290 894l524 -316l-524 -318v634z" />
    <glyph glyph-name="twodotenleader" unicode="&#x2025;" horiz-adv-x="1080" 
d="M198.5 5q-33.5 19 -52.5 52t-18 71q-1 38 18 71t52.5 52t71.5 19q37 0 70 -19t52.5 -52t19.5 -71t-19.5 -71t-52.5 -52t-70 -19q-38 0 -71.5 19zM738.5 5q-33.5 19 -52.5 52t-18 71q-1 38 18 71t52.5 52t71.5 19q37 0 70 -19t52.5 -52t19.5 -71t-19.5 -71t-52.5 -52
t-70 -19q-38 0 -71.5 19z" />
    <glyph glyph-name="ellipsis" unicode="&#x2026;" horiz-adv-x="1620" 
d="M198.5 5q-33.5 19 -52.5 52t-18 71q-1 38 18 71t52.5 52t71.5 19q37 0 70 -19t52.5 -52t19.5 -71t-19.5 -71t-52.5 -52t-70 -19q-38 0 -71.5 19zM738.5 5q-33.5 19 -52.5 52t-18 71q-1 38 18 71t52.5 52t71.5 19q37 0 70 -19t52.5 -52t19.5 -71t-19.5 -71t-52.5 -52
t-70 -19q-38 0 -71.5 19zM1278.5 5q-33.5 19 -52.5 52t-18 71q-1 38 18 71t52.5 52t71.5 19q37 0 70 -19t52.5 -52t19.5 -71t-19.5 -71t-52.5 -52t-70 -19q-38 0 -71.5 19z" />
    <glyph glyph-name="perthousand" unicode="&#x2030;" horiz-adv-x="2520" 
d="M294 804q-69 45 -104 126.5t-34 189.5q-1 106 35 187t105 126t164 45q97 0 165.5 -45t103.5 -125.5t35 -187.5q0 -108 -36 -190t-104.5 -126.5t-163.5 -43.5q-97 -1 -166 44zM563.5 959q34.5 59 34.5 161t-34 160t-104 58q-68 -1 -104 -59.5t-36 -158.5q0 -102 35.5 -161
t104.5 -59t103.5 59zM1208 15q-69 45 -104 126t-34 189q-1 107 35 188.5t105.5 126.5t163.5 45q97 0 165.5 -45t103.5 -126t35 -189q0 -107 -36 -188.5t-104.5 -126.5t-163.5 -45q-97 0 -166 45zM1477 170.5q35 58.5 35 159.5q0 103 -34 161.5t-104 58.5q-68 -1 -104 -60.5
t-36 -159.5t36.5 -159t103.5 -59q68 0 103 58.5zM1895.5 15q-68.5 45 -104 126t-35.5 189q0 106 36 187.5t105 127t163 45.5q98 0 166.5 -45t103 -126.5t34.5 -188.5q0 -108 -35.5 -189t-104 -126t-164.5 -45t-164.5 45zM2164.5 170q35.5 58 35.5 160q0 101 -34 159.5
t-102 58.5t-105 -58.5t-37 -159.5t35.5 -159.5t102.5 -58.5q69 0 104.5 58zM1314 1448h182l-994 -1448h-182z" />
    <glyph glyph-name="prime" unicode="&#x2032;" horiz-adv-x="452" 
d="M142 1448h218l-118 -534h-150z" />
    <glyph glyph-name="doubleprime" unicode="&#x2033;" horiz-adv-x="838" 
d="M142 1448h218l-118 -534h-150zM526 1448h218l-118 -534h-150z" />
    <glyph glyph-name="guilsinglleft" unicode="&#x2039;" horiz-adv-x="712" 
d="M400 156l-286 424v20l286 424h190l-268 -434l268 -434h-190z" />
    <glyph glyph-name="guilsinglright" unicode="&#x203a;" horiz-adv-x="714" 
d="M380 590l-270 434h192l286 -424v-20l-286 -424h-192z" />
    <glyph glyph-name="uni203B" unicode="&#x203b;" horiz-adv-x="1360" 
d="M232 354l312 314l-312 314l142 144l312 -314l312 314l142 -144l-312 -314l312 -314l-142 -144l-312 314l-312 -314zM147 758q35 34 95 34q61 0 96.5 -33.5t35.5 -86.5t-34.5 -85.5t-97.5 -32.5q-60 0 -95 33t-35 85t35 86zM586 312.5q34 33.5 94 33.5t96 -33.5t36 -84.5
t-36 -84.5t-96 -33.5t-94 33.5t-34 84.5t34 84.5zM586 1191q34 33 94 33t96 -33t36 -85q0 -51 -36 -84.5t-96 -33.5t-94 33.5t-34 84.5q0 52 34 85zM1022 758q36 34 98 34q59 0 94.5 -34t35.5 -86t-35.5 -85t-94.5 -33q-62 0 -98 33t-36 85t36 86z" />
    <glyph glyph-name="fraction" unicode="&#x2044;" horiz-adv-x="520" 
d="M666 1448h182l-994 -1448h-182z" />
    <glyph glyph-name="uni2070" unicode="&#x2070;" horiz-adv-x="868" 
d="M233.5 760q-84.5 54 -129 155.5t-44.5 240.5q0 140 44.5 241t129 154t200.5 53q115 0 199 -53t129.5 -154t45.5 -241t-45.5 -241.5t-129.5 -155t-199 -53.5q-116 0 -200.5 54zM577.5 930q52.5 78 52.5 226t-52.5 226t-143.5 78t-143.5 -78t-52.5 -226q0 -147 52 -225.5
t144 -78.5q91 0 143.5 78z" />
    <glyph glyph-name="uni2071" unicode="&#x2071;" horiz-adv-x="324" 
d="M78 1448h170v-724h-170v724zM95 1568.5q-29 28.5 -29 67.5q0 38 29 66t69 28q39 0 67.5 -27.5t28.5 -66.5q0 -40 -28.5 -68t-67.5 -28q-40 0 -69 28.5z" />
    <glyph glyph-name="uni2074" unicode="&#x2074;" horiz-adv-x="858" 
d="M56 1018l408 574h222v-572h120v-140h-120v-156h-168v156h-462v138zM518 1020v380h-6l-276 -374v-6h282z" />
    <glyph glyph-name="uni2075" unicode="&#x2075;" horiz-adv-x="814" 
d="M240.5 745q-75.5 33 -119 92t-45.5 133h170q5 -52 50.5 -87t113.5 -35q50 0 91 21t64 57.5t23 81.5q0 47 -23.5 84t-64.5 57.5t-92 20.5q-45 0 -86.5 -17t-65.5 -45l-160 28l50 456h562v-142h-418l-28 -228h6q26 33 76.5 53.5t109.5 20.5q86 0 155 -36.5t108 -101
t39 -146.5q0 -86 -44 -154.5t-122.5 -107t-179.5 -38.5q-94 0 -169.5 33z" />
    <glyph glyph-name="uni2076" unicode="&#x2076;" horiz-adv-x="836" 
d="M242.5 755q-83.5 43 -134 138t-50.5 243q0 144 45.5 250.5t131 164t201.5 57.5q91 0 162.5 -34.5t114 -93t51.5 -130.5h-174q-10 50 -51.5 77t-102.5 27q-100 0 -153 -76t-53 -212h6q33 59 98 92.5t144 33.5q83 0 150.5 -36t106.5 -99t39 -143q0 -87 -44 -156
t-122.5 -107.5t-179.5 -38.5q-102 0 -185.5 43zM516.5 869.5q40.5 21.5 64 58.5t23.5 80q0 44 -23 80t-63.5 56t-89.5 20q-52 0 -93 -20.5t-64 -57.5t-21 -84q1 -39 23.5 -74.5t63 -57.5t91.5 -22q48 0 88.5 21.5z" />
    <glyph glyph-name="uni2077" unicode="&#x2077;" horiz-adv-x="756" 
d="M520 1444v6h-476v142h656v-146l-408 -722h-184z" />
    <glyph glyph-name="uni2078" unicode="&#x2078;" horiz-adv-x="836" 
d="M231.5 744q-82.5 32 -129 88.5t-46.5 125.5q0 49 26 94.5t73.5 77.5t108.5 42v6q-77 15 -124.5 68.5t-47.5 125.5q0 65 42 118t116 83.5t166 30.5q93 0 167 -30.5t116.5 -83.5t42.5 -118q0 -72 -47.5 -125.5t-122.5 -68.5v-6q57 -8 105 -39t75.5 -77.5t27.5 -97.5
q0 -70 -47.5 -126t-130.5 -88t-186 -32q-102 0 -184.5 32zM508.5 857q41.5 17 65.5 47t24 66q0 38 -24 69.5t-65.5 49t-92.5 17.5q-50 0 -91 -17.5t-64 -49t-23 -69.5q0 -36 22.5 -65.5t63 -47t92.5 -17.5q51 0 92.5 17zM526.5 1266.5q43.5 34.5 43.5 87.5t-43.5 86.5
t-110.5 33.5q-65 0 -108.5 -34t-43.5 -86q0 -53 44 -87.5t108 -34.5q67 0 110.5 34.5z" />
    <glyph glyph-name="uni2079" unicode="&#x2079;" horiz-adv-x="836" 
d="M592 1564.5q83 -43.5 133.5 -138.5t50.5 -244q0 -143 -45 -249t-129 -163.5t-200 -57.5q-91 0 -162.5 33.5t-115 92.5t-52.5 132h172q12 -53 54 -80.5t104 -27.5q98 0 150 77.5t52 214.5h-6q-31 -58 -96.5 -92t-145.5 -34q-82 0 -149.5 36t-106 99.5t-38.5 144.5
q0 86 43.5 154.5t122.5 107t180 38.5t184 -43.5zM319.5 1449q-40.5 -21 -64 -57t-23.5 -80q0 -45 23 -80.5t63.5 -55.5t91.5 -20q48 0 88.5 20.5t64 54.5t23.5 73q0 47 -23.5 85t-63.5 59.5t-89 21.5q-50 0 -90.5 -21z" />
    <glyph glyph-name="uni207A" unicode="&#x207a;" horiz-adv-x="856" 
d="M356 1016h-248v146h248v234h148v-234h244v-146h-244v-234h-148v234z" />
    <glyph glyph-name="uni207B" unicode="&#x207b;" horiz-adv-x="856" 
d="M748 1016h-640v146h640v-146z" />
    <glyph glyph-name="uni207C" unicode="&#x207c;" horiz-adv-x="856" 
d="M126 1306h604v-144h-604v144zM126 1016h604v-146h-604v146z" />
    <glyph glyph-name="uni207D" unicode="&#x207d;" horiz-adv-x="496" 
d="M162.5 1436.5q44.5 147.5 135.5 277.5h166q-48 -67 -86 -166t-60 -212.5t-22 -219.5q0 -111 22.5 -225.5t61 -212t84.5 -160.5h-166q-180 255 -180 598q0 173 44.5 320.5z" />
    <glyph glyph-name="uni207E" unicode="&#x207e;" horiz-adv-x="496" 
d="M196 518h-164q73 101 120.5 267t47.5 331q0 164 -47.5 330t-120.5 268h164q182 -252 182 -598q0 -348 -182 -598z" />
    <glyph glyph-name="uni207F" unicode="&#x207f;" horiz-adv-x="788" 
d="M246 724h-172v724h164v-126h8q26 63 83 98.5t135 35.5q74 0 130 -32.5t87 -93t31 -142.5v-464h-170v434q0 71 -39.5 112.5t-104.5 41.5q-67 0 -109.5 -43.5t-42.5 -118.5v-426z" />
    <glyph glyph-name="uni2080" unicode="&#x2080;" horiz-adv-x="868" 
d="M233.5 -214q-84.5 54 -129 155.5t-44.5 240.5q0 140 44.5 241t129 154t200.5 53q115 0 199 -53t129.5 -154t45.5 -241t-45.5 -241.5t-129.5 -155t-199 -53.5q-116 0 -200.5 54zM577.5 -44q52.5 78 52.5 226t-52.5 226t-143.5 78t-143.5 -78t-52.5 -226q0 -147 52 -225.5
t144 -78.5q91 0 143.5 78z" />
    <glyph glyph-name="uni2081" unicode="&#x2081;" horiz-adv-x="604" 
d="M288 450h-6l-218 -144v164l230 148h162v-868h-168v700z" />
    <glyph glyph-name="uni2082" unicode="&#x2082;" horiz-adv-x="816" 
d="M84 -124l336 288q78 68 110 109.5t32 90.5q0 57 -45.5 92.5t-114.5 35.5q-72 0 -116 -37.5t-44 -100.5h-168q0 83 42 145.5t117 96.5t171 34t170 -34.5t115 -94t41 -133.5q0 -59 -24 -110t-73 -102.5t-133 -117.5l-164 -138v-6h414v-144h-666v126z" />
    <glyph glyph-name="uni2083" unicode="&#x2083;" horiz-adv-x="840" 
d="M238.5 -229q-79.5 33 -125 91.5t-47.5 133.5h178q1 -50 51 -81t123 -31q77 0 126.5 34t49.5 88q0 55 -53 88.5t-143 33.5h-78v130h78q76 0 124 32.5t48 85.5q0 51 -41.5 83.5t-108.5 32.5q-69 0 -117 -32.5t-49 -83.5h-168q1 74 45.5 131.5t121 90t169.5 32.5t166 -31.5
t113.5 -87.5t40.5 -125q0 -74 -51 -122.5t-131 -61.5v-6q102 -13 159 -67.5t57 -134.5q0 -73 -45.5 -131.5t-127.5 -91.5t-185 -33q-100 0 -179.5 33z" />
    <glyph glyph-name="uni2084" unicode="&#x2084;" horiz-adv-x="858" 
d="M56 44l408 574h222v-572h120v-140h-120v-156h-168v156h-462v138zM518 46v380h-6l-276 -374v-6h282z" />
    <glyph glyph-name="uni2085" unicode="&#x2085;" horiz-adv-x="814" 
d="M240.5 -229q-75.5 33 -119 92t-45.5 133h170q5 -52 50.5 -87t113.5 -35q50 0 91 21t64 57.5t23 81.5q0 47 -23.5 84t-64.5 57.5t-92 20.5q-45 0 -86.5 -17t-65.5 -45l-160 28l50 456h562v-142h-418l-28 -228h6q26 33 76.5 53.5t109.5 20.5q86 0 155 -36.5t108 -101
t39 -146.5q0 -86 -44 -154.5t-122.5 -107t-179.5 -38.5q-94 0 -169.5 33z" />
    <glyph glyph-name="uni2086" unicode="&#x2086;" horiz-adv-x="836" 
d="M242.5 -219q-83.5 43 -134 138t-50.5 243q0 144 45.5 250.5t131 164t201.5 57.5q91 0 162.5 -34.5t114 -93t51.5 -130.5h-174q-10 50 -51.5 77t-102.5 27q-100 0 -153 -76t-53 -212h6q33 59 98 92.5t144 33.5q83 0 150.5 -36t106.5 -99t39 -143q0 -87 -44 -156
t-122.5 -107.5t-179.5 -38.5q-102 0 -185.5 43zM516.5 -104.5q40.5 21.5 64 58.5t23.5 80q0 44 -23 80t-63.5 56t-89.5 20q-52 0 -93 -20.5t-64 -57.5t-21 -84q1 -39 23.5 -74.5t63 -57.5t91.5 -22q48 0 88.5 21.5z" />
    <glyph glyph-name="uni2087" unicode="&#x2087;" horiz-adv-x="756" 
d="M520 470v6h-476v142h656v-146l-408 -722h-184z" />
    <glyph glyph-name="uni2088" unicode="&#x2088;" horiz-adv-x="836" 
d="M231.5 -230q-82.5 32 -129 88.5t-46.5 125.5q0 49 26 94.5t73.5 77.5t108.5 42v6q-77 15 -124.5 68.5t-47.5 125.5q0 65 42 118t116 83.5t166 30.5q93 0 167 -30.5t116.5 -83.5t42.5 -118q0 -72 -47.5 -125.5t-122.5 -68.5v-6q57 -8 105 -39t75.5 -77.5t27.5 -97.5
q0 -70 -47.5 -126t-130.5 -88t-186 -32q-102 0 -184.5 32zM508.5 -117q41.5 17 65.5 47t24 66q0 38 -24 69.5t-65.5 49t-92.5 17.5q-50 0 -91 -17.5t-64 -49t-23 -69.5q0 -36 22.5 -65.5t63 -47t92.5 -17.5q51 0 92.5 17zM526.5 292.5q43.5 34.5 43.5 87.5t-43.5 86.5
t-110.5 33.5q-65 0 -108.5 -34t-43.5 -86q0 -53 44 -87.5t108 -34.5q67 0 110.5 34.5z" />
    <glyph glyph-name="uni2089" unicode="&#x2089;" horiz-adv-x="836" 
d="M592 590.5q83 -43.5 133.5 -138.5t50.5 -244q0 -143 -45 -249t-129 -163.5t-200 -57.5q-91 0 -162.5 33.5t-115 92.5t-52.5 132h172q12 -53 54 -80.5t104 -27.5q98 0 150 77.5t52 214.5h-6q-31 -58 -96.5 -92t-145.5 -34q-82 0 -149.5 36t-106 99.5t-38.5 144.5
q0 86 43.5 154.5t122.5 107t180 38.5t184 -43.5zM319.5 475q-40.5 -21 -64 -57t-23.5 -80q0 -45 23 -80.5t63.5 -55.5t91.5 -20q48 0 88.5 20.5t64 54.5t23.5 73q0 47 -23.5 85t-63.5 59.5t-89 21.5q-50 0 -90.5 -21z" />
    <glyph glyph-name="uni208A" unicode="&#x208a;" horiz-adv-x="856" 
d="M356 42h-248v146h248v234h148v-234h244v-146h-244v-234h-148v234z" />
    <glyph glyph-name="uni208B" unicode="&#x208b;" horiz-adv-x="856" 
d="M748 42h-640v146h640v-146z" />
    <glyph glyph-name="uni208C" unicode="&#x208c;" horiz-adv-x="856" 
d="M126 332h604v-144h-604v144zM126 42h604v-146h-604v146z" />
    <glyph glyph-name="uni2090" unicode="&#x2090;" horiz-adv-x="738" 
d="M116.5 112q74.5 53 197.5 60q133 10 180 10v64q0 50 -33.5 79t-92.5 29q-56 0 -96 -26t-46 -64h-164q13 103 97.5 160.5t210.5 57.5q79 0 146.5 -25.5t108.5 -80t41 -136.5v-490h-164v104h-6q-28 -52 -82.5 -85t-133.5 -33q-68 0 -122 25t-85 73.5t-31 117.5
q0 107 74.5 160zM240 -115.5q34 -26.5 86 -26.5q48 0 86.5 21t60 56.5t21.5 78.5v59l-152 -13q-67 -4 -101.5 -30.5t-34.5 -73.5q0 -45 34 -71.5z" />
    <glyph glyph-name="uni2091" unicode="&#x2091;" horiz-adv-x="760" 
d="M208 -218q-79 46 -121.5 130.5t-42.5 195.5t42.5 196t120 131.5t179.5 46.5q93 0 168.5 -41.5t119.5 -123t44 -197.5v-52h-502q0 -92 49 -146t131 -54q57 0 97.5 24.5t56.5 63.5h158q-23 -104 -105.5 -162t-208.5 -58q-107 0 -186 46zM554 176q0 78 -46 127t-120 49
q-48 0 -87 -24t-61.5 -64t-23.5 -88h338z" />
    <glyph glyph-name="uni2092" unicode="&#x2092;" horiz-adv-x="780" 
d="M208 -217q-78 47 -121 132t-43 195t42.5 194.5t121 131t182.5 46.5t182.5 -46.5t121 -131t42.5 -194.5t-43 -195t-121 -132t-182 -47t-182 47zM516 -62.5q46 67.5 46 172.5t-46 172.5t-126 67.5t-126 -67.5t-46 -172.5t46 -172.5t126 -67.5t126 67.5z" />
    <glyph glyph-name="uni2093" unicode="&#x2093;" horiz-adv-x="722" 
d="M362 208l144 266h182l-214 -362l220 -362h-178l-154 264l-154 -264h-180l218 362l-210 362h178z" />
    <glyph glyph-name="uni2095" unicode="&#x2095;" horiz-adv-x="790" 
d="M246 -250h-172v964h168v-366h8q25 63 80 98.5t136 35.5q74 0 130.5 -32t88 -92.5t31.5 -143.5v-464h-172v434q0 72 -39 113t-105 41q-68 0 -111 -43.5t-43 -118.5v-426z" />
    <glyph glyph-name="uni2096" unicode="&#x2096;" horiz-adv-x="728" 
d="M74 714h172v-532h12l256 292h202l-278 -313l290 -411h-204l-216 309l-62 -68v-241h-172v964z" />
    <glyph glyph-name="uni2097" unicode="&#x2097;" horiz-adv-x="322" 
d="M246 -250h-172v964h172v-964z" />
    <glyph glyph-name="uni2098" unicode="&#x2098;" horiz-adv-x="1168" 
d="M74 474h164v-124h8q23 61 75.5 96.5t126.5 35.5q72 0 125 -36.5t69 -99.5h8q24 63 82 99.5t136 36.5q103 0 164.5 -65t61.5 -181v-486h-172v456q0 64 -34.5 98t-89.5 34q-61 0 -95.5 -38.5t-34.5 -99.5v-450h-168v460q0 58 -33 93t-89 35t-94 -40.5t-38 -105.5v-442h-172
v724z" />
    <glyph glyph-name="uni2099" unicode="&#x2099;" horiz-adv-x="788" 
d="M246 -250h-172v724h164v-126h8q26 63 83 98.5t135 35.5q74 0 130 -32.5t87 -93t31 -142.5v-464h-170v434q0 71 -39.5 112.5t-104.5 41.5q-67 0 -109.5 -43.5t-42.5 -118.5v-426z" />
    <glyph glyph-name="uni209A" unicode="&#x209a;" horiz-adv-x="802" 
d="M74 474h172v-128h6q27 58 78 97t134 39q82 0 148.5 -43t105 -127t38.5 -202q0 -115 -37.5 -199.5t-104 -129.5t-150.5 -45q-83 0 -133.5 39t-78.5 97h-6v-394h-172v996zM288 -57.5q46 -64.5 124 -64.5q80 0 124 65t44 169t-44 168t-124 64q-79 0 -124.5 -63.5
t-45.5 -168.5t46 -169.5z" />
    <glyph glyph-name="uni209B" unicode="&#x209b;" horiz-adv-x="706" 
d="M450.5 332.5q-35.5 25.5 -94.5 25.5q-51 0 -87.5 -23.5t-36.5 -60.5q0 -32 24.5 -52t79.5 -32l126 -28q202 -43 202 -194q0 -69 -40 -121.5t-110.5 -81.5t-159.5 -29q-133 0 -214 59t-96 167h166q10 -48 47 -73t97 -25q57 0 95.5 24.5t38.5 61.5q0 65 -100 84l-124 24
q-200 44 -200 206q0 67 36 116.5t101.5 75.5t152.5 26q128 0 207 -58t91 -158h-158q-8 41 -43.5 66.5z" />
    <glyph glyph-name="uni209C" unicode="&#x209c;" horiz-adv-x="484" 
d="M434 342h-140v-376q0 -44 22 -63t58 -19q42 0 64 2v-138q-60 -6 -88 -6q-104 0 -165 49t-61 149v402h-102v132h102v172h170v-172h140v-132z" />
    <glyph glyph-name="uni20A9" unicode="&#x20a9;" horiz-adv-x="1868" 
d="M252 640h-212v170h168l-166 638h214l152 -638h256l160 638h220l160 -638h255l153 638h214l-167 -638h169v-170h-213l-167 -640h-220l-166 640h-256l-166 -640h-222zM526 318h14l81 322h-172zM1017 810l-77 298h-12l-77 -298h166zM1328 316h12l78 324h-171z" />
    <glyph glyph-name="Euro" unicode="&#x20ac;" horiz-adv-x="1314" 
d="M972 794h-534q-2 -46 -2 -70l2 -70h474l-70 -148h-382q39 -159 135.5 -241.5t230.5 -82.5q154 0 296 114l86 -178q-75 -68 -173.5 -103t-208.5 -35q-147 0 -268 62.5t-203.5 181t-115.5 282.5h-199l54 148h126l-2 70l2 70h-180l54 146h144q33 164 115.5 283t203.5 182
t269 63q111 0 209 -36.5t177 -105.5l-86 -182q-140 122 -300 122q-134 0 -230.5 -83t-135.5 -243h578z" />
    <glyph glyph-name="uni20B9" unicode="&#x20b9;" horiz-adv-x="1072" 
d="M976 926h-150q-23 -150 -133 -241.5t-315 -104.5l-8 -2l464 -566v-12h-260l-506 614l-2 138h250q117 0 189.5 45t93.5 129h-551l50 174h495q-25 76 -94.5 117t-182.5 41h-268l52 190h926l-50 -176l-223 1q55 -73 72 -173h201z" />
    <glyph glyph-name="uni20BA" unicode="&#x20ba;" horiz-adv-x="1190" 
d="M500 1225l274 111v-188l-274 -110v-141l274 111v-188l-274 -110v-536q170 2 268 114.5t98 359.5h222q0 -217 -73.5 -367t-206.5 -225.5t-312 -75.5q-141 0 -216 12v629l-192 -77v186l192 78v141l-192 -77v186l192 78v312h220v-223z" />
    <glyph glyph-name="uni2103" unicode="&#x2103;" horiz-adv-x="2298" 
d="M275 838.5q-76 44.5 -120.5 120.5t-44.5 167t44.5 167.5t121 121.5t166.5 45t166.5 -45t121 -121.5t44.5 -167.5t-44.5 -167t-120.5 -120.5t-167 -44.5t-167 44.5zM527 977.5q39 23.5 62 63t23 85.5t-23 85t-62 62t-85 23t-85.5 -23t-63 -62t-23.5 -85t23.5 -85.5t63 -63
t85.5 -23.5t85 23.5zM1915 1132.5q-53 65.5 -131.5 99.5t-171.5 34q-126 0 -225 -63.5t-155 -185.5t-56 -293t56.5 -293.5t155 -185.5t224.5 -63q92 0 170 33.5t131.5 98t72.5 154.5l222 -2q-23 -142 -104.5 -252.5t-209 -172t-284.5 -61.5q-189 0 -337 90t-231.5 258.5
t-83.5 395.5t84 395.5t232 258.5t336 90q153 0 280 -58.5t210 -169.5t108 -264h-222q-18 91 -71 156.5z" />
    <glyph glyph-name="uni2109" unicode="&#x2109;" horiz-adv-x="2028" 
d="M275 838.5q-76 44.5 -120.5 120.5t-44.5 167t44.5 167.5t121 121.5t166.5 45t166.5 -45t121 -121.5t44.5 -167.5t-44.5 -167t-120.5 -120.5t-167 -44.5t-167 44.5zM527 977.5q39 23.5 62 63t23 85.5t-23 85t-62 62t-85 23t-85.5 -23t-63 -62t-23.5 -85t23.5 -85.5t63 -63
t85.5 -23.5t85 23.5zM1032 1448h898v-190h-678v-438h614v-188h-614v-632h-220v1448z" />
    <glyph glyph-name="trademark" unicode="&#x2122;" horiz-adv-x="1210" 
d="M682 1265v-337h-104v520h128l150 -368l150 368h126v-520h-106v333l-142 -333h-58zM224 1358h-158v90h422v-90h-158v-430h-106v430z" />
    <glyph glyph-name="estimated" unicode="&#x212e;" horiz-adv-x="1260" 
d="M830.5 9q-92.5 -29 -186.5 -29q-140 0 -258 73.5t-187 199t-69 273.5q0 146 74 271.5t193 200t247 74.5q133 0 244.5 -68.5t176.5 -189t65 -268.5v-46h-756v-318q55 -51 125 -79.5t145 -28.5q195 0 362 118v-102q-83 -52 -175.5 -81zM503 950q-70 -32 -129 -88v-270h534
v280q-53 52 -121.5 81t-142.5 29q-71 0 -141 -32z" />
    <glyph glyph-name="uni2153" unicode="&#x2153;" horiz-adv-x="1794" 
d="M248 1328h-8l-188 -122v158l198 130h160v-770h-162v604zM1194 1448h182l-994 -1448h-182zM1250.5 18.5q-72.5 30.5 -114 84.5t-42.5 121h168q0 -43 43.5 -71.5t108.5 -28.5q44 0 79 14t55 37.5t20 52.5q0 47 -46 75.5t-124 28.5h-72v120h72q67 0 109.5 27.5t42.5 72.5
q0 43 -37.5 71.5t-96.5 28.5q-60 0 -102.5 -28.5t-43.5 -71.5h-158q1 66 41 118t109 81t154 29q87 0 154 -28t104.5 -77t37.5 -111q0 -65 -46 -108t-122 -54v-6q95 -12 146.5 -60t51.5 -120q0 -65 -42 -117t-116 -81.5t-168 -29.5q-93 0 -165.5 30.5z" />
    <glyph glyph-name="uni215A" unicode="&#x215a;" horiz-adv-x="1938" 
d="M1374 1448h182l-994 -1448h-182zM214.5 696q-68.5 30 -107.5 84t-41 122h160q3 -47 44.5 -77.5t99.5 -30.5q69 0 113.5 38.5t44.5 97.5q0 61 -45 99.5t-115 38.5q-40 0 -76.5 -15.5t-55.5 -42.5l-152 30l42 408h516v-134h-378l-24 -200h2q26 32 73 52t103 20
q75 0 136.5 -32t97.5 -89t36 -129q0 -77 -40.5 -138.5t-112.5 -96.5t-165 -35q-87 0 -155.5 30zM1401.5 27q-76.5 39 -123 124t-46.5 217q0 126 41.5 220t119.5 145t185 51q80 0 145 -30.5t105 -83.5t48 -118h-164q-10 42 -46.5 66t-87.5 24q-89 0 -135.5 -67t-46.5 -187h6
q25 53 85.5 84.5t132.5 31.5q75 0 136 -32.5t95.5 -89t34.5 -126.5q0 -76 -40 -137.5t-112 -96t-164 -34.5t-168.5 39zM1647 134q36 18 56.5 49.5t20.5 68.5t-20.5 68t-56 48.5t-77.5 17.5q-43 0 -80 -18t-58 -48.5t-20 -65.5q3 -59 47 -98.5t109 -39.5q43 0 79 18z" />
    <glyph glyph-name="oneeighth" unicode="&#x215b;" horiz-adv-x="1832" 
d="M1236 1448h182l-994 -1448h-182zM248 1282h-8l-188 -122v158l198 130h160v-770h-162v604zM1284.5 17q-75.5 29 -118 79.5t-42.5 111.5q0 45 24.5 85.5t67.5 67.5t96 35v6q-71 13 -114.5 62.5t-43.5 109.5q0 58 39 105t107.5 74t153.5 27q84 0 152 -27t107 -74t39 -105
q0 -60 -43.5 -109.5t-114.5 -62.5v-6q55 -9 98 -36.5t66.5 -67t23.5 -84.5q0 -61 -42.5 -111.5t-117.5 -79.5t-168 -29q-94 0 -169.5 29zM1534.5 123q35.5 15 55.5 40.5t20 56.5q0 32 -20.5 58t-56.5 41t-79 15q-44 0 -80 -15t-57 -41t-21 -58q0 -31 20 -56.5t56 -40.5
t82 -15q45 0 80.5 15zM1551 482q39 30 39 74t-39 74t-97 30q-59 0 -97.5 -30t-38.5 -74t38.5 -74t97.5 -30q58 0 97 30z" />
    <glyph glyph-name="threeeighths" unicode="&#x215c;" horiz-adv-x="1976" 
d="M1382 1448h182l-994 -1448h-182zM212.5 696.5q-72.5 30.5 -114 84.5t-42.5 121h168q0 -43 43.5 -71.5t108.5 -28.5q44 0 79 14t55 37.5t20 52.5q0 47 -46 75.5t-124 28.5h-72v120h72q67 0 109.5 27.5t42.5 72.5q0 43 -37.5 71.5t-96.5 28.5q-60 0 -102.5 -28.5
t-43.5 -71.5h-158q1 66 41 118t109 81t154 29q87 0 154 -28t104.5 -77t37.5 -111q0 -65 -46 -108t-122 -54v-6q95 -12 146.5 -60t51.5 -120q0 -65 -42 -117t-116 -81.5t-168 -29.5q-93 0 -165.5 30.5zM1428.5 17q-75.5 29 -118 79.5t-42.5 111.5q0 45 24.5 85.5t67.5 67.5
t96 35v6q-71 13 -114.5 62.5t-43.5 109.5q0 58 39 105t107.5 74t153.5 27q84 0 152 -27t107 -74t39 -105q0 -60 -43.5 -109.5t-114.5 -62.5v-6q55 -9 98 -36.5t66.5 -67t23.5 -84.5q0 -61 -42.5 -111.5t-117.5 -79.5t-168 -29q-94 0 -169.5 29zM1678.5 123
q35.5 15 55.5 40.5t20 56.5q0 32 -20.5 58t-56.5 41t-79 15q-44 0 -80 -15t-57 -41t-21 -58q0 -31 20 -56.5t56 -40.5t82 -15q45 0 80.5 15zM1695 482q39 30 39 74t-39 74t-97 30q-59 0 -97.5 -30t-38.5 -74t38.5 -74t97.5 -30q58 0 97 30z" />
    <glyph glyph-name="fiveeighths" unicode="&#x215d;" horiz-adv-x="1970" 
d="M1374 1448h182l-994 -1448h-182zM214.5 696q-68.5 30 -107.5 84t-41 122h160q3 -47 44.5 -77.5t99.5 -30.5q69 0 113.5 38.5t44.5 97.5q0 61 -45 99.5t-115 38.5q-40 0 -76.5 -15.5t-55.5 -42.5l-152 30l42 408h516v-134h-378l-24 -200h2q26 32 73 52t103 20
q75 0 136.5 -32t97.5 -89t36 -129q0 -77 -40.5 -138.5t-112.5 -96.5t-165 -35q-87 0 -155.5 30zM1422.5 17q-75.5 29 -118 79.5t-42.5 111.5q0 45 24.5 85.5t67.5 67.5t96 35v6q-71 13 -114.5 62.5t-43.5 109.5q0 58 39 105t107.5 74t153.5 27q84 0 152 -27t107 -74t39 -105
q0 -60 -43.5 -109.5t-114.5 -62.5v-6q55 -9 98 -36.5t66.5 -67t23.5 -84.5q0 -61 -42.5 -111.5t-117.5 -79.5t-168 -29q-94 0 -169.5 29zM1672.5 123q35.5 15 55.5 40.5t20 56.5q0 32 -20.5 58t-56.5 41t-79 15q-44 0 -80 -15t-57 -41t-21 -58q0 -31 20 -56.5t56 -40.5
t82 -15q45 0 80.5 15zM1689 482q39 30 39 74t-39 74t-97 30q-59 0 -97.5 -30t-38.5 -74t38.5 -74t97.5 -30q58 0 97 30z" />
    <glyph glyph-name="seveneighths" unicode="&#x215e;" horiz-adv-x="1760" 
d="M1164 1448h182l-994 -1448h-182zM460 1308v6h-424v134h598v-134l-366 -636h-172zM1212.5 17q-75.5 29 -118 79.5t-42.5 111.5q0 45 24.5 85.5t67.5 67.5t96 35v6q-71 13 -114.5 62.5t-43.5 109.5q0 58 39 105t107.5 74t153.5 27q84 0 152 -27t107 -74t39 -105
q0 -60 -43.5 -109.5t-114.5 -62.5v-6q55 -9 98 -36.5t66.5 -67t23.5 -84.5q0 -61 -42.5 -111.5t-117.5 -79.5t-168 -29q-94 0 -169.5 29zM1462.5 123q35.5 15 55.5 40.5t20 56.5q0 32 -20.5 58t-56.5 41t-79 15q-44 0 -80 -15t-57 -41t-21 -58q0 -31 20 -56.5t56 -40.5
t82 -15q45 0 80.5 15zM1479 482q39 30 39 74t-39 74t-97 30q-59 0 -97.5 -30t-38.5 -74t38.5 -74t97.5 -30q58 0 97 30z" />
    <glyph glyph-name="uni215F" unicode="&#x215f;" horiz-adv-x="1090" 
d="M1236 1448h182l-994 -1448h-182zM248 1282h-8l-188 -122v158l198 130h160v-770h-162v604z" />
    <glyph glyph-name="arrowleft" unicode="&#x2190;" horiz-adv-x="1876" 
d="M184 634l660 660l130 -126l-444 -442h1110v-184h-1110l444 -442l-130 -128z" />
    <glyph glyph-name="arrowup" unicode="&#x2191;" horiz-adv-x="1876" 
d="M846 1110l-422 -424l-130 128l644 642l644 -642l-128 -128l-424 424v-1110h-184v1110z" />
    <glyph glyph-name="arrowright" unicode="&#x2192;" horiz-adv-x="1876" 
d="M902 98l444 444h-1110v184h1110l-444 442l128 126l662 -660l-662 -662z" />
    <glyph glyph-name="arrowdown" unicode="&#x2193;" horiz-adv-x="1876" 
d="M1030 338l422 424l130 -128l-644 -642l-644 642l128 128l424 -424v1110h184v-1110z" />
    <glyph glyph-name="arrowboth" unicode="&#x2194;" horiz-adv-x="2646" 
d="M184 634l644 642l126 -126l-424 -424h1584l-424 424l128 126l644 -642l-644 -644l-128 128l424 424h-1584l424 -424l-126 -128z" />
    <glyph glyph-name="arrowupdn" unicode="&#x2195;" horiz-adv-x="1876" 
d="M296 202l128 128l422 -424v1412l-422 -424l-128 128l642 644l644 -644l-126 -128l-426 424v-1412l426 424l126 -128l-644 -644z" />
    <glyph glyph-name="uni2196" unicode="&#x2196;" horiz-adv-x="1876" 
d="M406 1448h908l2 -180h-600l784 -784l-132 -130l-782 784v-600h-180v910z" />
    <glyph glyph-name="uni2197" unicode="&#x2197;" horiz-adv-x="1876" 
d="M378 484l782 784h-600l2 180h910v-910h-184l2 600l-782 -784z" />
    <glyph glyph-name="uni2198" unicode="&#x2198;" horiz-adv-x="1876" 
d="M1470 0h-908l-2 180h600l-784 784l132 130l782 -784v600h180v-910z" />
    <glyph glyph-name="uni2199" unicode="&#x2199;" horiz-adv-x="1876" 
d="M1498 964l-782 -784h600l-2 -180h-910v910h184l-2 -600l782 784z" />
    <glyph glyph-name="partialdiff" unicode="&#x2202;" horiz-adv-x="1260" 
d="M766 966.5q75 -31.5 130 -90.5q-18 124 -68.5 215t-125 139t-160.5 48q-65 0 -127 -13t-133 -39l-26 176q77 33 143.5 49.5t164.5 16.5q181 0 304.5 -96.5t185.5 -273t62 -418.5v-58q1 -185 -57.5 -331t-169.5 -228.5t-261 -82.5q-148 0 -257 66.5t-167 184t-58 265.5v22
q0 140 55 249t159 170t246 61q85 0 160 -31.5zM439.5 730q-65.5 -84 -65.5 -218v-22q0 -93 28 -166.5t85 -116.5t141 -43q128 0 193 108.5t65 289.5v82q-10 36 -39.5 75t-83 67t-129.5 28q-129 0 -194.5 -84z" />
    <glyph glyph-name="product" unicode="&#x220f;" horiz-adv-x="1444" 
d="M1264 -220h-232v1486h-620v-1486h-232v1668h1084v-1668z" />
    <glyph glyph-name="summation" unicode="&#x2211;" horiz-adv-x="1308" 
d="M1218 -264h-1128v148l598 708l-598 706v150h1068v-184h-770l532 -642v-58l-532 -644h830v-184z" />
    <glyph glyph-name="minus" unicode="&#x2212;" horiz-adv-x="1302" 
d="M1120 474h-936v192h936v-192z" />
    <glyph glyph-name="radical" unicode="&#x221a;" horiz-adv-x="1256" 
d="M588 294l390 1154h210l-504 -1448h-184l-219 570h-201v184h346z" />
    <glyph glyph-name="infinity" unicode="&#x221e;" horiz-adv-x="1866" 
d="M858 862q31 -29 76 -82q20 26 35.5 44t38.5 38q166 162 366 162q112 0 206 -55t149 -149t55 -204q0 -111 -55 -204t-149 -147.5t-206 -54.5q-200 0 -364 156q-44 41 -76 86q-37 -47 -76 -86q-168 -156 -364 -156q-112 0 -206.5 54.5t-150 147.5t-55.5 204q0 110 55.5 204
t150 149t206.5 55q198 0 364 -162zM309 511q29 -48 78 -76.5t107 -28.5q63 0 118 27.5t108 76.5q55 55 90 106q-50 68 -90 104q-106 106 -226 106q-58 0 -107 -28.5t-78 -77t-29 -104.5q0 -57 29 -105zM1557 720.5q-29 48.5 -77.5 77t-105.5 28.5q-122 0 -228 -106
q-27 -25 -51.5 -55.5t-38.5 -48.5q35 -51 90 -106q53 -49 108 -76.5t120 -27.5q57 0 106 28.5t77.5 76.5t28.5 105q0 56 -29 104.5z" />
    <glyph glyph-name="integral" unicode="&#x222b;" horiz-adv-x="588" 
d="M293.5 -334.5q-84.5 -89.5 -245.5 -89.5q-70 0 -126 16l16 178q15 -4 45.5 -7t50.5 -3q71 0 103.5 37.5t32.5 118.5v1226q0 180 89.5 276t258.5 96q61 0 148 -20l-24 -172q-32 8 -120 8q-74 0 -109 -42.5t-35 -133.5v-1230q0 -169 -84.5 -258.5z" />
    <glyph glyph-name="approxequal" unicode="&#x2248;" horiz-adv-x="1302" 
d="M301.5 907.5q60.5 28.5 128.5 28.5q53 0 104.5 -15t121.5 -43q72 -28 120.5 -42t99.5 -14q141 0 234 120v-192q-103 -112 -238 -112q-53 0 -104.5 15t-121.5 43q-76 29 -123.5 42.5t-98.5 13.5q-136 0 -232 -120v192q49 55 109.5 83.5zM301.5 465.5q60.5 28.5 128.5 28.5
q53 0 104.5 -15t121.5 -43q72 -28 120.5 -42t99.5 -14q141 0 234 120v-192q-103 -112 -238 -112q-53 0 -104.5 15t-121.5 43q-76 29 -123.5 42.5t-98.5 13.5q-136 0 -232 -120v192q49 55 109.5 83.5z" />
    <glyph glyph-name="notequal" unicode="&#x2260;" horiz-adv-x="1302" 
d="M956 1096l-85 -214h235v-186h-308l-100 -250h408v-188h-482l-84 -212h-194l84 212h-232v188h306l100 250h-406v186h479l85 214h194z" />
    <glyph glyph-name="lessequal" unicode="&#x2264;" horiz-adv-x="1302" 
d="M182 64v186h940v-186h-940zM182 816l940 308v-194l-638 -190v-8l638 -192v-192l-940 308v160z" />
    <glyph glyph-name="greaterequal" unicode="&#x2265;" horiz-adv-x="1302" 
d="M182 250h940v-186h-940v186zM182 348v192l636 192v8l-636 190v194l940 -308v-160z" />
    <glyph glyph-name="uni2460" unicode="&#x2460;" horiz-adv-x="1800" 
d="M499.5 31.5q-183.5 107.5 -291.5 291.5t-108 401t108 401t291.5 291.5t400.5 107.5t401.5 -107.5t292.5 -291.5t108 -401t-108 -401t-292.5 -291.5t-401.5 -107.5t-400.5 107.5zM1210 189.5q142 83.5 225 225.5t83 309t-83 309t-225 225.5t-310 83.5q-167 0 -309 -83.5
t-225.5 -225.5t-83.5 -309t83.5 -309t225.5 -225.5t309 -83.5q168 0 310 83.5zM1030 374h-154v556h-4l-158 -100v134l174 110h142v-700z" />
    <glyph glyph-name="uni2461" unicode="&#x2461;" horiz-adv-x="1800" 
d="M499.5 31.5q-183.5 107.5 -291.5 291.5t-108 401t108 401t291.5 291.5t400.5 107.5t401.5 -107.5t292.5 -291.5t108 -401t-108 -401t-292.5 -291.5t-401.5 -107.5t-400.5 107.5zM1210 189.5q142 83.5 225 225.5t83 309t-83 309t-225 225.5t-310 83.5q-167 0 -309 -83.5
t-225.5 -225.5t-83.5 -309t83.5 -309t225.5 -225.5t309 -83.5q168 0 310 83.5zM650 490l254 230q52 49 74 80.5t22 69.5q0 44 -30 71t-76 27q-48 0 -77 -28.5t-29 -77.5h-146q0 69 32 120.5t89 79.5t131 28q75 0 132.5 -26.5t89.5 -74t32 -107.5q0 -42 -16.5 -80.5
t-56 -84.5t-113.5 -113l-96 -96v-4h292v-124h-508v110z" />
    <glyph glyph-name="uni2462" unicode="&#x2462;" horiz-adv-x="1800" 
d="M499.5 31.5q-183.5 107.5 -291.5 291.5t-108 401t108 401t291.5 291.5t400.5 107.5t401.5 -107.5t292.5 -291.5t108 -401t-108 -401t-292.5 -291.5t-401.5 -107.5t-400.5 107.5zM1210 189.5q142 83.5 225 225.5t83 309t-83 309t-225 225.5t-310 83.5q-167 0 -309 -83.5
t-225.5 -225.5t-83.5 -309t83.5 -309t225.5 -225.5t309 -83.5q168 0 310 83.5zM762 390.5q-61 26.5 -95.5 74.5t-34.5 109h154q0 -37 32.5 -60.5t81.5 -23.5q51 0 83.5 25.5t32.5 64.5q0 42 -35 68t-93 26h-66v112h66q50 0 81.5 25.5t30.5 64.5q1 39 -26 62.5t-72 23.5
q-46 0 -78 -24t-32 -62h-148q1 60 35 107.5t92.5 74t130.5 26.5t128 -26.5t87 -71.5t31 -100q0 -59 -36.5 -99t-97.5 -49v-6q77 -9 119.5 -52t42.5 -110q0 -59 -35.5 -106t-98.5 -73.5t-142 -26.5q-77 0 -138 26.5z" />
    <glyph glyph-name="uni2463" unicode="&#x2463;" horiz-adv-x="1800" 
d="M499.5 31.5q-183.5 107.5 -291.5 291.5t-108 401t108 401t291.5 291.5t400.5 107.5t401.5 -107.5t292.5 -291.5t108 -401t-108 -401t-292.5 -291.5t-401.5 -107.5t-400.5 107.5zM1210 189.5q142 83.5 225 225.5t83 309t-83 309t-225 225.5t-310 83.5q-167 0 -309 -83.5
t-225.5 -225.5t-83.5 -309t83.5 -309t225.5 -225.5t309 -83.5q168 0 310 83.5zM618 616l292 458h194v-456h86v-124h-86v-120h-148v120h-338v122zM960 618v290h-8l-182 -284v-6h190z" />
    <glyph glyph-name="uni2464" unicode="&#x2464;" horiz-adv-x="1800" 
d="M499.5 31.5q-183.5 107.5 -291.5 291.5t-108 401t108 401t291.5 291.5t400.5 107.5t401.5 -107.5t292.5 -291.5t108 -401t-108 -401t-292.5 -291.5t-401.5 -107.5t-400.5 107.5zM1210 189.5q142 83.5 225 225.5t83 309t-83 309t-225 225.5t-310 83.5q-167 0 -309 -83.5
t-225.5 -225.5t-83.5 -309t83.5 -309t225.5 -225.5t309 -83.5q168 0 310 83.5zM771 386.5q-59 26.5 -92.5 74.5t-34.5 109h150q1 -40 32.5 -65t77.5 -25q53 0 86.5 34t33.5 86q0 53 -34.5 86.5t-87.5 35.5q-77 0 -108 -58h-138l38 406h436v-126h-312l-16 -170h6
q19 26 56.5 43t83.5 17q63 0 114 -29.5t79.5 -82t28.5 -118.5q0 -70 -33.5 -125.5t-94 -87t-138.5 -31.5q-74 0 -133 26.5z" />
    <glyph glyph-name="uni2465" unicode="&#x2465;" horiz-adv-x="1800" 
d="M499.5 31.5q-183.5 107.5 -291.5 291.5t-108 401t108 401t291.5 291.5t400.5 107.5t401.5 -107.5t292.5 -291.5t108 -401t-108 -401t-292.5 -291.5t-401.5 -107.5t-400.5 107.5zM1210 189.5q142 83.5 225 225.5t83 309t-83 309t-225 225.5t-310 83.5q-167 0 -309 -83.5
t-225.5 -225.5t-83.5 -309t83.5 -309t225.5 -225.5t309 -83.5q168 0 310 83.5zM767.5 397.5q-64.5 33.5 -104 109t-39.5 195.5t35.5 206t101 131t155.5 45q69 0 124.5 -27t89 -74.5t40.5 -106.5h-150q-9 36 -37 56t-67 20q-69 0 -105.5 -57.5t-36.5 -158.5h6q23 47 71 72.5
t107 25.5q63 0 113 -29t78.5 -80.5t28.5 -116.5q0 -70 -33.5 -125.5t-94.5 -87t-140 -31.5q-78 0 -142.5 33.5zM995 518.5q34 34.5 33 85.5q2 51 -32 85.5t-86 34.5q-50 0 -85 -35t-37 -85q0 -50 35 -85t87 -35q51 0 85 34.5z" />
    <glyph glyph-name="uni2466" unicode="&#x2466;" horiz-adv-x="1800" 
d="M499.5 31.5q-183.5 107.5 -291.5 291.5t-108 401t108 401t291.5 291.5t400.5 107.5t401.5 -107.5t292.5 -291.5t108 -401t-108 -401t-292.5 -291.5t-401.5 -107.5t-400.5 107.5zM1210 189.5q142 83.5 225 225.5t83 309t-83 309t-225 225.5t-310 83.5q-167 0 -309 -83.5
t-225.5 -225.5t-83.5 -309t83.5 -309t225.5 -225.5t309 -83.5q168 0 310 83.5zM990 944v6h-340v124h498v-126l-292 -574h-158z" />
    <glyph glyph-name="uni2467" unicode="&#x2467;" horiz-adv-x="1800" 
d="M499.5 31.5q-183.5 107.5 -291.5 291.5t-108 401t108 401t291.5 291.5t400.5 107.5t401.5 -107.5t292.5 -291.5t108 -401t-108 -401t-292.5 -291.5t-401.5 -107.5t-400.5 107.5zM1210 189.5q142 83.5 225 225.5t83 309t-83 309t-225 225.5t-310 83.5q-167 0 -309 -83.5
t-225.5 -225.5t-83.5 -309t83.5 -309t225.5 -225.5t309 -83.5q168 0 310 83.5zM760.5 389.5q-63.5 25.5 -99 71t-35.5 101.5q0 43 20.5 80.5t55.5 61.5t78 30v6q-57 10 -92.5 53.5t-35.5 100.5q0 54 32.5 97.5t90 68t129.5 24.5q71 0 128 -24.5t89.5 -68t32.5 -97.5
q0 -57 -36 -100t-92 -54v-6q42 -6 77 -30.5t56 -61.5t21 -80q0 -56 -35.5 -101.5t-98.5 -71t-142 -25.5q-80 0 -143.5 25.5zM989 503q33 27 33 71q0 45 -33.5 73.5t-84.5 28.5q-52 0 -85.5 -28.5t-32.5 -73.5q-2 -44 31 -71t87 -27q52 0 85 27zM976.5 812q28.5 26 27.5 66
q1 40 -26.5 65t-73.5 27q-47 -2 -74.5 -27t-27.5 -65q0 -39 28.5 -65.5t73.5 -26.5q44 0 72.5 26z" />
    <glyph glyph-name="uni2468" unicode="&#x2468;" horiz-adv-x="1800" 
d="M499.5 31.5q-183.5 107.5 -291.5 291.5t-108 401t108 401t291.5 291.5t400.5 107.5t401.5 -107.5t292.5 -291.5t108 -401t-108 -401t-292.5 -291.5t-401.5 -107.5t-400.5 107.5zM1210 189.5q142 83.5 225 225.5t83 309t-83 309t-225 225.5t-310 83.5q-167 0 -309 -83.5
t-225.5 -225.5t-83.5 -309t83.5 -309t225.5 -225.5t309 -83.5q168 0 310 83.5zM1036 1049.5q64 -34.5 103 -112.5t39 -201q0 -115 -36 -199t-101.5 -128.5t-152.5 -44.5q-70 0 -126 27t-89 75t-39 108h150q7 -37 35 -57.5t69 -20.5q68 0 104 57.5t36 160.5h-6
q-24 -46 -71.5 -72t-106.5 -26q-63 0 -112.5 29.5t-77.5 81.5t-28 117q0 69 33.5 124t94 85.5t138.5 30.5q80 0 144 -34.5zM808 929q-34 -35 -34 -85t33.5 -84t84.5 -34t86.5 35t35.5 83q0 50 -34.5 85t-85.5 35q-52 0 -86 -35z" />
    <glyph glyph-name="uni2469" unicode="&#x2469;" horiz-adv-x="1800" 
d="M499.5 31.5q-183.5 107.5 -291.5 291.5t-108 401t108 401t291.5 291.5t400.5 107.5t401.5 -107.5t292.5 -291.5t108 -401t-108 -401t-292.5 -291.5t-401.5 -107.5t-400.5 107.5zM1210 189.5q142 83.5 225 225.5t83 309t-83 309t-225 225.5t-310 83.5q-167 0 -309 -83.5
t-225.5 -225.5t-83.5 -309t83.5 -309t225.5 -225.5t309 -83.5q168 0 310 83.5zM722 412h-152v484h-2l-142 -88v132l156 96h140v-624zM975.5 434.5q-59.5 38.5 -91.5 110.5t-32 171q0 157 69.5 243.5t194.5 86.5q81 0 140.5 -38t91.5 -111t32 -175q-2 -153 -71.5 -239.5
t-192.5 -86.5q-81 0 -140.5 38.5zM1195.5 571q28.5 51 28.5 151q0 99 -29 149.5t-79 50.5q-51 0 -80 -50t-30 -150q0 -99 29.5 -150.5t80.5 -51.5t79.5 51z" />
    <glyph glyph-name="uni246A" unicode="&#x246a;" horiz-adv-x="1800" 
d="M499.5 31.5q-183.5 107.5 -291.5 291.5t-108 401t108 401t291.5 291.5t400.5 107.5t401.5 -107.5t292.5 -291.5t108 -401t-108 -401t-292.5 -291.5t-401.5 -107.5t-400.5 107.5zM1210 189.5q142 83.5 225 225.5t83 309t-83 309t-225 225.5t-310 83.5q-167 0 -309 -83.5
t-225.5 -225.5t-83.5 -309t83.5 -309t225.5 -225.5t309 -83.5q168 0 310 83.5zM812 412h-152v484h-4l-140 -88v132l154 96h142v-624zM1236 412h-152v484h-2l-142 -88v132l156 96h140v-624z" />
    <glyph glyph-name="uni246B" unicode="&#x246b;" horiz-adv-x="1800" 
d="M499.5 31.5q-183.5 107.5 -291.5 291.5t-108 401t108 401t291.5 291.5t400.5 107.5t401.5 -107.5t292.5 -291.5t108 -401t-108 -401t-292.5 -291.5t-401.5 -107.5t-400.5 107.5zM1210 189.5q142 83.5 225 225.5t83 309t-83 309t-225 225.5t-310 83.5q-167 0 -309 -83.5
t-225.5 -225.5t-83.5 -309t83.5 -309t225.5 -225.5t309 -83.5q168 0 310 83.5zM884 528l228 198q44 41 63 67.5t19 58.5q0 37 -25 59.5t-63 22.5q-41 0 -64.5 -23t-23.5 -65h-142q-1 62 27.5 108.5t80.5 72t122 25.5t123.5 -23.5t83 -66t29.5 -98.5q0 -38 -15 -72.5
t-52.5 -76.5t-106.5 -101l-72 -68v-4h252v-124h-464v110zM598 896h-4l-140 -88v132l156 96h140v-624h-152v484z" />
    <glyph glyph-name="uni246C" unicode="&#x246c;" horiz-adv-x="1800" 
d="M499.5 31.5q-183.5 107.5 -291.5 291.5t-108 401t108 401t291.5 291.5t400.5 107.5t401.5 -107.5t292.5 -291.5t108 -401t-108 -401t-292.5 -291.5t-401.5 -107.5t-400.5 107.5zM1210 189.5q142 83.5 225 225.5t83 309t-83 309t-225 225.5t-310 83.5q-167 0 -309 -83.5
t-225.5 -225.5t-83.5 -309t83.5 -309t225.5 -225.5t309 -83.5q168 0 310 83.5zM736 412h-150v484h-4l-140 -88v132l154 96h140v-624zM983.5 426.5q-55.5 24.5 -87 68.5t-32.5 99h152q1 -30 28 -49t66 -19q42 0 68 20.5t26 53.5t-29 54.5t-77 21.5h-62v108h62q42 0 68 20.5
t26 53.5q0 30 -22 50t-58 20q-38 0 -64.5 -20.5t-27.5 -51.5h-144q1 55 32 98.5t84.5 67.5t119.5 24t117.5 -24t80 -65t28.5 -91q0 -52 -33.5 -87t-88.5 -43v-4q71 -7 108.5 -45.5t35.5 -98.5q1 -53 -30.5 -95.5t-89 -66.5t-130.5 -24q-71 0 -126.5 24.5z" />
    <glyph glyph-name="uni246D" unicode="&#x246d;" horiz-adv-x="1800" 
d="M499.5 31.5q-183.5 107.5 -291.5 291.5t-108 401t108 401t291.5 291.5t400.5 107.5t401.5 -107.5t292.5 -291.5t108 -401t-108 -401t-292.5 -291.5t-401.5 -107.5t-400.5 107.5zM1210 189.5q142 83.5 225 225.5t83 309t-83 309t-225 225.5t-310 83.5q-167 0 -309 -83.5
t-225.5 -225.5t-83.5 -309t83.5 -309t225.5 -225.5t309 -83.5q168 0 310 83.5zM728 412h-152v484h-4l-140 -88v132l154 96h142v-624zM854 634l256 402h192v-402h76v-120h-76v-102h-144v102h-304v120zM1162 634v242h-8l-150 -236v-6h158z" />
    <glyph glyph-name="uni246E" unicode="&#x246e;" horiz-adv-x="1800" 
d="M499.5 31.5q-183.5 107.5 -291.5 291.5t-108 401t108 401t291.5 291.5t400.5 107.5t401.5 -107.5t292.5 -291.5t108 -401t-108 -401t-292.5 -291.5t-401.5 -107.5t-400.5 107.5zM1210 189.5q142 83.5 225 225.5t83 309t-83 309t-225 225.5t-310 83.5q-167 0 -309 -83.5
t-225.5 -225.5t-83.5 -309t83.5 -309t225.5 -225.5t309 -83.5q168 0 310 83.5zM742 412h-152v484h-4l-140 -88v132l154 96h142v-624zM995.5 422.5q-54.5 24.5 -85.5 68.5t-32 99h148q1 -33 27.5 -54.5t64.5 -19.5q42 -2 69.5 26.5t26.5 71.5q1 45 -26.5 72.5t-71.5 27.5
q-66 0 -90 -48h-136l30 366h404v-122h-278l-16 -146h4q17 27 51.5 43.5t78.5 16.5q56 0 101.5 -26.5t70.5 -73.5t24 -106q1 -63 -29 -113.5t-85.5 -78.5t-127.5 -28q-68 0 -122.5 24.5z" />
    <glyph glyph-name="uni246F" unicode="&#x246f;" horiz-adv-x="1800" 
d="M499.5 31.5q-183.5 107.5 -291.5 291.5t-108 401t108 401t291.5 291.5t400.5 107.5t401.5 -107.5t292.5 -291.5t108 -401t-108 -401t-292.5 -291.5t-401.5 -107.5t-400.5 107.5zM1210 189.5q142 83.5 225 225.5t83 309t-83 309t-225 225.5t-310 83.5q-167 0 -309 -83.5
t-225.5 -225.5t-83.5 -309t83.5 -309t225.5 -225.5t309 -83.5q168 0 310 83.5zM734 412h-152v484h-2l-140 -88v132l154 96h140v-624zM934 477q-74 73 -74 229q0 105 32.5 181.5t92 117.5t139.5 41q64 0 115 -25t82 -68.5t37 -96.5h-148q-7 29 -29.5 44.5t-56.5 15.5
q-56 0 -86 -49t-30 -133h4q21 42 64 66t96 24q56 0 100 -26t68.5 -71.5t23.5 -102.5q1 -64 -29.5 -114.5t-86 -79t-126.5 -28.5q-114 2 -188 75zM1191.5 548q27.5 28 26.5 70q1 43 -26.5 71.5t-69.5 28.5t-71 -29t-29 -71q0 -41 28.5 -69.5t71.5 -28.5q42 0 69.5 28z" />
    <glyph glyph-name="uni2470" unicode="&#x2470;" horiz-adv-x="1800" 
d="M499.5 31.5q-183.5 107.5 -291.5 291.5t-108 401t108 401t291.5 291.5t400.5 107.5t401.5 -107.5t292.5 -291.5t108 -401t-108 -401t-292.5 -291.5t-401.5 -107.5t-400.5 107.5zM1210 189.5q142 83.5 225 225.5t83 309t-83 309t-225 225.5t-310 83.5q-167 0 -309 -83.5
t-225.5 -225.5t-83.5 -309t83.5 -309t225.5 -225.5t309 -83.5q168 0 310 83.5zM764 412h-152v484h-4l-140 -88v132l156 96h140v-624zM1182 910v4h-296v122h452v-124l-254 -500h-156z" />
    <glyph glyph-name="uni2471" unicode="&#x2471;" horiz-adv-x="1800" 
d="M499.5 31.5q-183.5 107.5 -291.5 291.5t-108 401t108 401t291.5 291.5t400.5 107.5t401.5 -107.5t292.5 -291.5t108 -401t-108 -401t-292.5 -291.5t-401.5 -107.5t-400.5 107.5zM1210 189.5q142 83.5 225 225.5t83 309t-83 309t-225 225.5t-310 83.5q-167 0 -309 -83.5
t-225.5 -225.5t-83.5 -309t83.5 -309t225.5 -225.5t309 -83.5q168 0 310 83.5zM734 412h-152v484h-2l-142 -88v132l154 96h142v-624zM983 425q-58 23 -90.5 64t-32.5 91q0 57 40 100t100 54v4q-51 9 -83.5 47.5t-32.5 90.5q0 48 30 87t82.5 61t117.5 22q66 0 118.5 -22
t82 -61t29.5 -87q0 -52 -33.5 -90.5t-84.5 -47.5v-4q60 -11 101 -54t41 -100q0 -50 -32.5 -91t-90.5 -64t-131 -23t-131 23zM1183 533.5q27 23.5 25 58.5q1 37 -25.5 60.5t-68.5 23.5t-69 -23.5t-27 -60.5q0 -35 27 -58.5t69 -23.5t69 23.5zM1173 805q23 21 23 55
q0 32 -23 53t-59 21t-60 -21t-24 -53q0 -33 24 -54.5t60 -21.5t59 21z" />
    <glyph glyph-name="uni2472" unicode="&#x2472;" horiz-adv-x="1800" 
d="M499.5 31.5q-183.5 107.5 -291.5 291.5t-108 401t108 401t291.5 291.5t400.5 107.5t401.5 -107.5t292.5 -291.5t108 -401t-108 -401t-292.5 -291.5t-401.5 -107.5t-400.5 107.5zM1210 189.5q142 83.5 225 225.5t83 309t-83 309t-225 225.5t-310 83.5q-167 0 -309 -83.5
t-225.5 -225.5t-83.5 -309t83.5 -309t225.5 -225.5t309 -83.5q168 0 310 83.5zM734 412h-152v484h-2l-140 -88v132l154 96h140v-624zM1295 969q73 -75 73 -237q0 -102 -33.5 -176.5t-93.5 -114t-139 -39.5q-64 0 -115 25t-82 69t-37 98h150q6 -30 28.5 -46t55.5 -16
q57 0 86.5 48.5t29.5 135.5h-4q-19 -43 -61.5 -66.5t-96.5 -23.5q-56 0 -100.5 25.5t-69 71.5t-24.5 103q0 64 30.5 114t86 78t127.5 28q116 -2 189 -77zM1036 899.5q-28 -28.5 -28 -69.5q0 -42 28 -70t70 -28t71 28.5t29 69.5q-2 41 -29.5 69.5t-70.5 28.5q-42 0 -70 -28.5
z" />
    <glyph glyph-name="uni2473" unicode="&#x2473;" horiz-adv-x="1800" 
d="M499.5 31.5q-183.5 107.5 -291.5 291.5t-108 401t108 401t291.5 291.5t400.5 107.5t401.5 -107.5t292.5 -291.5t108 -401t-108 -401t-292.5 -291.5t-401.5 -107.5t-400.5 107.5zM1210 189.5q142 83.5 225 225.5t83 309t-83 309t-225 225.5t-310 83.5q-167 0 -309 -83.5
t-225.5 -225.5t-83.5 -309t83.5 -309t225.5 -225.5t309 -83.5q168 0 310 83.5zM370 528l230 198q43 38 62.5 66t19.5 60q0 37 -25 59.5t-65 22.5q-39 0 -63 -23t-25 -65h-142q0 62 28.5 108.5t80.5 72t121 25.5q71 0 124.5 -23.5t82.5 -66t29 -98.5q0 -37 -15 -72t-52 -77
t-105 -101l-78 -68v-4h256v-124h-464v110zM1035 435q-59 39 -91 112.5t-32 174.5q0 154 70 239t194 85t194 -85t70 -239q0 -101 -32 -174.5t-91 -112.5t-141 -39t-141 39zM1255 569.5q29 49.5 29 144.5q0 104 -28.5 156t-79.5 52t-80 -50t-30 -150q0 -99 29.5 -150.5
t80.5 -51.5q50 0 79 49.5z" />
    <glyph glyph-name="uni24B6" unicode="&#x24b6;" horiz-adv-x="1800" 
d="M499.5 31.5q-183.5 107.5 -291.5 291.5t-108 401t108 401t291.5 291.5t400.5 107.5t401.5 -107.5t292.5 -291.5t108 -401t-108 -401t-292.5 -291.5t-401.5 -107.5t-400.5 107.5zM1210 189.5q142 83.5 225 225.5t83 309t-83 309t-225 225.5t-310 83.5q-167 0 -309 -83.5
t-225.5 -225.5t-83.5 -309t83.5 -309t225.5 -225.5t309 -83.5q168 0 310 83.5zM562 374l240 700h200l240 -700h-166l-49 156h-250l-51 -156h-164zM988 650l-82 260h-6l-84 -260h172z" />
    <glyph glyph-name="uni24B7" unicode="&#x24b7;" horiz-adv-x="1800" 
d="M499.5 31.5q-183.5 107.5 -291.5 291.5t-108 401t108 401t291.5 291.5t400.5 107.5t401.5 -107.5t292.5 -291.5t108 -401t-108 -401t-292.5 -291.5t-401.5 -107.5t-400.5 107.5zM1210 189.5q142 83.5 225 225.5t83 309t-83 309t-225 225.5t-310 83.5q-167 0 -309 -83.5
t-225.5 -225.5t-83.5 -309t83.5 -309t225.5 -225.5t309 -83.5q168 0 310 83.5zM642 1074h282q114 0 174 -48.5t60 -129.5q0 -61 -34 -99.5t-92 -52.5v-6q41 -2 76 -23t56.5 -59t21.5 -88q0 -57 -28 -100.5t-82.5 -68.5t-131.5 -25h-302v700zM999.5 521.5
q28.5 22.5 28.5 62.5q0 42 -30.5 69t-81.5 27h-122v-182h118q59 1 87.5 23.5zM975.5 805.5q28.5 23.5 28.5 64.5q0 37 -26.5 58.5t-73.5 21.5h-110v-168h108q45 0 73.5 23.5z" />
    <glyph glyph-name="uni24B8" unicode="&#x24b8;" horiz-adv-x="1800" 
d="M499.5 31.5q-183.5 107.5 -291.5 291.5t-108 401t108 401t291.5 291.5t400.5 107.5t401.5 -107.5t292.5 -291.5t108 -401t-108 -401t-292.5 -291.5t-401.5 -107.5t-400.5 107.5zM1210 189.5q142 83.5 225 225.5t83 309t-83 309t-225 225.5t-310 83.5q-167 0 -309 -83.5
t-225.5 -225.5t-83.5 -309t83.5 -309t225.5 -225.5t309 -83.5q168 0 310 83.5zM1017.5 916q-39.5 32 -101.5 32q-81 0 -127.5 -58.5t-46.5 -165.5q0 -108 47 -166t127 -58q59 0 98.5 30t49.5 84h154q-7 -67 -45.5 -124t-105 -91.5t-153.5 -34.5q-95 0 -169 43t-116.5 124.5
t-42.5 192.5q0 112 42.5 193.5t117 124t168.5 42.5q126 0 208.5 -68t95.5 -190h-154q-7 58 -46.5 90z" />
    </font>
</defs>
</svg>
