<?xml version="1.0" standalone="no"?>
<!DOCTYPE svg PUBLIC "-//W3C//DTD SVG 1.1//EN" "http://www.w3.org/Graphics/SVG/1.1/DTD/svg11.dtd" >
<svg xmlns="http://www.w3.org/2000/svg" xmlns:xlink="http://www.w3.org/1999/xlink" version="1.1">
<metadata>
Created by FontForge 20170731 at Sun Nov  5 19:20:41 2023
 By Aleksey,,,
Copyright (c) 2023 Kil Hyung-jin
</metadata>
<defs>
<font id="Pretendard-Regular" horiz-adv-x="1770" >
  <font-face 
    font-family="Pretendard"
    font-weight="400"
    font-stretch="normal"
    units-per-em="2048"
    panose-1="2 0 5 3 0 0 0 2 0 4"
    ascent="1638"
    descent="-410"
    x-height="1086"
    cap-height="1448"
    bbox="-868 -532 5128 2172"
    underline-thickness="139"
    underline-position="-465"
    unicode-range="U+0020-F0000"
  />
<missing-glyph horiz-adv-x="2048" 
d="M152 1900h1744v-182h-1744v182zM152 -268h1744v-184h-1744v184zM152 166h1744v-184h-1744v184zM152 598h1744v-184h-1744v184zM152 1034h1744v-184h-1744v184zM152 1466h1744v-184h-1744v184z" />
    <glyph glyph-name=".notdef" horiz-adv-x="2048" 
d="M152 1900h1744v-182h-1744v182zM152 -268h1744v-184h-1744v184zM152 166h1744v-184h-1744v184zM152 598h1744v-184h-1744v184zM152 1034h1744v-184h-1744v184zM152 1466h1744v-184h-1744v184z" />
    <glyph glyph-name=".null" horiz-adv-x="0" 
 />
    <glyph glyph-name="nonmarkingreturn" horiz-adv-x="682" 
 />
    <glyph glyph-name="space" unicode=" " horiz-adv-x="514" 
 />
    <glyph glyph-name="exclam" unicode="!" horiz-adv-x="526" 
d="M346 408h-168l-14 1040h196zM197.5 5.5q-29.5 17.5 -47 47.5t-16.5 65q-1 34 16.5 63.5t47 47t64.5 17.5q34 0 63.5 -17.5t47 -47t17.5 -63.5q0 -35 -17.5 -65t-47 -47.5t-63.5 -17.5q-35 0 -64.5 17.5z" />
    <glyph glyph-name="quotedbl" unicode="&#x22;" horiz-adv-x="776" 
d="M284 948h-158v500h158v-500zM646 948h-158v500h158v-500z" />
    <glyph glyph-name="numbersign" unicode="#" horiz-adv-x="1228" 
d="M742 400h-364l-66 -400h-146l66 400h-214l24 144h213l60 360h-211l22 144h212l66 400h146l-66 -400h364l66 400h146l-66 -400h216l-24 -144h-215l-60 -360h213l-24 -144h-212l-66 -400h-146zM765 544l60 360h-364l-60 -360h364z" />
    <glyph glyph-name="dollar" unicode="$" horiz-adv-x="1244" 
d="M562 -24q-137 9 -239 61.5t-160 139.5t-65 199h184q10 -103 87 -162.5t193 -72.5v528l-56 15q-178 52 -273 144t-95 234q0 109 55 195.5t151 140t218 66.5v166h116v-163q127 -8 227.5 -59.5t158.5 -136t62 -187.5h-176q-10 95 -83.5 153t-188.5 69v-496l58 -16
q168 -43 289 -132.5t121 -267.5q0 -112 -55 -203.5t-161 -148t-252 -66.5v-158h-116v158zM384 924q72 -53 178 -82v462q-76 -10 -132.5 -42.5t-87 -82t-30.5 -109.5q0 -93 72 -146zM829.5 184q66.5 34 103.5 89t37 125q0 66 -37.5 111t-98 73t-150.5 54l-6 2v-497
q85 9 151.5 43z" />
    <glyph glyph-name="percent" unicode="%" horiz-adv-x="1766" 
d="M284.5 819q-65.5 43 -99 121.5t-33.5 183.5q0 102 34.5 180.5t100 122t155.5 43.5q93 0 158 -43.5t98.5 -121.5t33.5 -181q0 -104 -34 -182.5t-99.5 -122t-156.5 -43.5q-92 0 -157.5 43zM550 959.5q36 59.5 36 164.5t-35 164t-109 58q-70 0 -107 -59.5t-37 -162.5
q0 -104 37 -164t107 -60q72 0 108 59.5zM1168 22q-66 43 -99.5 121.5t-32.5 182.5q-1 103 33.5 182t100.5 122.5t156 43.5q92 0 157 -43.5t98 -122t33 -182.5q0 -103 -34 -182t-99 -122t-155 -42q-92 -1 -158 42zM1432 163q36 59 36 163q0 105 -34 164.5t-104 59.5
q-72 0 -111 -59.5t-39 -164.5q0 -103 37 -162.5t109 -59.5q70 0 106 59zM1290 1448h162l-996 -1448h-162z" />
    <glyph glyph-name="ampersand" unicode="&#x26;" horiz-adv-x="1248" 
d="M304 32q-105 52 -161.5 143.5t-56.5 208.5q0 84 34.5 152.5t95.5 125.5t156 123q-85 102 -126.5 180.5t-41.5 166.5q0 97 43.5 172t123 116.5t185.5 41.5t186 -41t123 -110.5t43 -152.5q0 -98 -48.5 -174.5t-143.5 -147.5l-106 -80l312 -379q60 118 60 259h166
q0 -242 -117 -392l201 -244h-206l-102 122q-68 -68 -170 -105t-206 -37q-139 0 -244 52zM297.5 259q35.5 -58 100 -92.5t146.5 -34.5q74 0 146 29.5t131 83.5l-343 413l-50 -38q-60 -43 -97.5 -89t-53 -84t-15.5 -63q0 -67 35.5 -125zM409.5 1017.5q33.5 -57.5 96.5 -134.5
l96 71q68 46 101 91t33 113q0 37 -22.5 73t-62.5 59.5t-89 23.5q-53 0 -95.5 -26.5t-66.5 -69.5t-24 -88q0 -55 33.5 -112.5z" />
    <glyph glyph-name="quotesingle" unicode="'" horiz-adv-x="412" 
d="M284 948h-158v500h158v-500z" />
    <glyph glyph-name="parenleft" unicode="(" horiz-adv-x="698" 
d="M470 1510h152q-69 -100 -129 -259t-96.5 -343t-36.5 -356t36.5 -357t96.5 -344t129 -259h-152q-141 205 -214 443t-74 517q3 546 288 958z" />
    <glyph glyph-name="parenright" unicode=")" horiz-adv-x="698" 
d="M442 35q-73 -238 -214 -443h-152q69 100 129 259t96.5 344t36.5 357t-36.5 356t-96.5 343t-129 259h152q285 -412 288 -958q-1 -279 -74 -517z" />
    <glyph glyph-name="asterisk" unicode="*" horiz-adv-x="964" 
d="M414 634l12 310l-264 -166l-68 118l276 144l-276 146l68 118l264 -166l-12 310h136l-12 -310l264 166l68 -118l-274 -146l274 -144l-68 -118l-264 166l12 -310h-136z" />
    <glyph glyph-name="plus" unicode="+" horiz-adv-x="1284" 
d="M560 486h-386v162h386v386h162v-386h388v-162h-388v-388h-162v388z" />
    <glyph glyph-name="comma" unicode="," horiz-adv-x="528" 
d="M208 -410h-148l110 544h194z" />
    <glyph glyph-name="hyphen" unicode="-" horiz-adv-x="886" 
d="M760 540h-634v158h634v-158z" />
    <glyph glyph-name="period" unicode="." horiz-adv-x="520" 
d="M195.5 5.5q-29.5 17.5 -47 47.5t-16.5 65q-1 34 16.5 63.5t47 47t64.5 17.5q34 0 63.5 -17.5t47 -47t17.5 -63.5q0 -35 -17.5 -65t-47 -47.5t-63.5 -17.5q-35 0 -64.5 17.5z" />
    <glyph glyph-name="slash" unicode="/" horiz-adv-x="684" 
d="M186 -218h-156l466 1734h158z" />
    <glyph glyph-name="zero" unicode="0" horiz-adv-x="1220" 
d="M336.5 67q-113.5 87 -173 254t-59.5 403q0 233 60 400.5t174 255.5t272 88t272 -88t174 -255.5t60 -400.5q0 -236 -59.5 -403t-173.5 -254t-273 -87q-160 0 -273.5 87zM788 208q74 68 113 199t39 317t-39 318t-113 201t-178 69t-178.5 -69t-114 -201t-39.5 -318t39 -317
t113.5 -199t179.5 -68q104 0 178 68z" />
    <glyph glyph-name="one" unicode="1" horiz-adv-x="898" 
d="M648 0h-182v1260h-8l-352 -234v182l360 240h182v-1448z" />
    <glyph glyph-name="two" unicode="2" horiz-adv-x="1202" 
d="M134 132l494 520q98 103 149.5 166.5t78 123t26.5 124.5q0 72 -38 128t-103.5 87t-146.5 31q-85 0 -149 -34t-98.5 -96t-34.5 -142h-170q-1 126 58.5 223t164.5 151t235 54q129 0 231.5 -53t160.5 -145t58 -204q0 -83 -30 -158.5t-100.5 -167t-201.5 -226.5l-332 -342
v-12h690v-160h-940z" />
    <glyph glyph-name="three" unicode="3" horiz-adv-x="1264" 
d="M380.5 28q-112.5 48 -178 135t-70.5 201h182q5 -67 48.5 -118t114.5 -78.5t157 -27.5q94 0 169.5 32.5t118 90t42.5 131.5q0 80 -41.5 141t-120.5 95t-190 34h-118v158h118q87 0 155 31t105.5 87t37.5 130q0 71 -33.5 126t-94.5 85.5t-142 30.5q-78 0 -146 -28
t-111 -79.5t-47 -120.5h-174q5 112 70 199.5t173 136t237 48.5q134 0 234.5 -52.5t154.5 -141.5t53 -194q1 -122 -65 -209t-181 -119v-10q93 -15 161.5 -62.5t105 -121t35.5 -164.5q1 -117 -65 -211.5t-181.5 -148.5t-257.5 -54q-143 0 -255.5 48z" />
    <glyph glyph-name="four" unicode="4" horiz-adv-x="1278" 
d="M100 444l652 1004h222v-994h202v-158h-202v-296h-172v296h-702v148zM802 454v766h-18l-490 -754v-12h508z" />
    <glyph glyph-name="five" unicode="5" horiz-adv-x="1222" 
d="M373.5 29.5q-105.5 49.5 -168 137t-67.5 197.5h174q7 -64 48 -115.5t106 -81t142 -29.5q92 0 166 42t116 115t42 163q0 93 -43.5 167.5t-120 117t-172.5 43.5q-193 3 -270 -130h-174l102 792h784v-160h-634l-54 -424h14q49 38 119 61t145 23q136 0 245.5 -62.5
t172 -173.5t62.5 -250q0 -138 -65 -248t-179 -172t-256 -62q-129 0 -234.5 49.5z" />
    <glyph glyph-name="six" unicode="6" horiz-adv-x="1256" 
d="M384.5 43.5q-119.5 63.5 -196 217t-76.5 407.5q0 253 66.5 433t190 273.5t293.5 93.5q125 0 224.5 -48t163 -135t82.5 -201h-178q-27 101 -101.5 162.5t-190.5 61.5q-118 0 -203.5 -65.5t-131 -189.5t-45.5 -297h18q64 91 160 141.5t212 50.5q128 0 236.5 -62t172 -171.5
t63.5 -246.5q0 -135 -62.5 -246.5t-176.5 -176.5t-261 -65q-140 0 -259.5 63.5zM807 182q75 44 118.5 119.5t44.5 164.5q-1 89 -43 163t-116 117.5t-167 43.5t-170 -45t-122 -120.5t-46 -160.5q0 -85 43.5 -160t120 -120.5t170.5 -45.5q92 0 167 44z" />
    <glyph glyph-name="seven" unicode="7" horiz-adv-x="1130" 
d="M846 1278v10h-766v160h952v-168l-662 -1280h-188z" />
    <glyph glyph-name="eight" unicode="8" horiz-adv-x="1242" 
d="M352.5 31.5q-117.5 51.5 -182.5 143.5t-64 209q-1 92 37.5 171.5t106.5 131.5t150 65v8q-71 17 -125 63.5t-83.5 114.5t-29.5 146q0 109 59.5 197t164 137.5t234.5 49.5t234.5 -49.5t164.5 -137t61 -197.5q-1 -78 -31.5 -146t-84.5 -114.5t-124 -63.5v-8
q81 -13 148.5 -65t107 -131.5t40.5 -171.5q-1 -117 -67 -209t-183 -143.5t-266 -51.5q-150 0 -267.5 51.5zM798 170q76 32 117 90t41 134q0 79 -43.5 142.5t-120 99.5t-172.5 36t-173 -36t-120 -99.5t-41 -142.5q-2 -76 38.5 -134t116.5 -90t179 -32q102 0 178 32zM766 855
q65 31 101.5 87t36.5 128q0 71 -35.5 126t-100 85.5t-148.5 30.5q-85 0 -149.5 -30.5t-99.5 -85.5t-35 -126q0 -72 36.5 -128t101 -87t146.5 -31q81 0 146 31z" />
    <glyph glyph-name="nine" unicode="9" horiz-adv-x="1256" 
d="M872 1404.5q119 -63.5 195.5 -216.5t76.5 -406q0 -254 -66.5 -434.5t-190 -274t-293.5 -93.5q-125 0 -225 48.5t-163.5 135.5t-81.5 202h178q25 -102 100 -164t192 -62q118 0 203.5 65.5t131.5 190.5t47 300h-20q-64 -91 -160 -141.5t-210 -50.5q-129 0 -238 61.5
t-172.5 170.5t-63.5 246q0 134 62.5 245t176.5 176t263 65q139 0 258 -63.5zM450.5 1266.5q-75.5 -43.5 -119 -117.5t-43.5 -161q0 -91 41 -165.5t115 -117.5t168 -43q92 0 169 45.5t122 121t45 159.5q0 83 -43 157.5t-118.5 119.5t-168.5 45q-92 0 -167.5 -43.5z" />
    <glyph glyph-name="colon" unicode=":" horiz-adv-x="520" 
d="M195.5 5.5q-29.5 17.5 -47 47.5t-16.5 65q-1 34 16.5 63.5t47 47t64.5 17.5q34 0 63.5 -17.5t47 -47t17.5 -63.5q0 -35 -17.5 -65t-47 -47.5t-63.5 -17.5q-35 0 -64.5 17.5zM195.5 809.5q-29.5 17.5 -47 47.5t-16.5 65q-1 34 16.5 63.5t47 47t64.5 17.5q34 0 63.5 -17.5
t47 -47t17.5 -63.5q0 -35 -17.5 -65t-47 -47.5t-63.5 -17.5q-35 0 -64.5 17.5z" />
    <glyph glyph-name="semicolon" unicode=";" horiz-adv-x="520" 
d="M208 -410h-148l110 544h194zM195.5 811.5q-29.5 17.5 -47 47.5t-16.5 65q-1 34 16.5 63.5t47 47t64.5 17.5q34 0 63.5 -17.5t47 -47t17.5 -63.5q0 -35 -17.5 -65t-47 -47.5t-63.5 -17.5q-35 0 -64.5 17.5z" />
    <glyph glyph-name="less" unicode="&#x3c;" horiz-adv-x="1284" 
d="M186 626l914 464v-186l-692 -333v-12l692 -329v-186l-914 462v120z" />
    <glyph glyph-name="equal" unicode="=" horiz-adv-x="1284" 
d="M206 856h874v-158h-874v158zM206 434h874v-156h-874v156z" />
    <glyph glyph-name="greater" unicode="&#x3e;" horiz-adv-x="1284" 
d="M186 44v186l692 329v12l-692 333v186l914 -464v-120z" />
    <glyph glyph-name="question" unicode="?" horiz-adv-x="982" 
d="M382.5 627q25.5 80 71.5 129t124 96q66 40 106 101.5t40 140.5q0 66 -31.5 116.5t-86 78t-120.5 27.5q-60 0 -112.5 -24.5t-87 -77t-40.5 -130.5h-182q5 118 62 205t151 133t209 46q123 0 217 -49.5t145.5 -136.5t51.5 -196q0 -221 -198 -342q-64 -39 -100.5 -81
t-54 -100t-19.5 -145v-10h-172v10q1 129 26.5 209zM383.5 5.5q-29.5 17.5 -47 47.5t-16.5 65q-1 34 16.5 63.5t47 47t64.5 17.5q34 0 63.5 -17.5t47 -47t17.5 -63.5q0 -35 -17.5 -65t-47 -47.5t-63.5 -17.5q-35 0 -64.5 17.5z" />
    <glyph glyph-name="at" unicode="@" horiz-adv-x="1802" 
d="M675.5 241.5q-78.5 51.5 -123 147t-44.5 223.5q0 126 45 221.5t124 147t179 51.5q94 0 147 -42.5t81 -95.5h10v122h152v-584q3 -116 100 -116q61 0 108.5 45t73.5 126t26 185q0 185 -84 325.5t-232.5 217.5t-337.5 77q-193 -1 -341.5 -92t-229.5 -246.5t-81 -341.5
q0 -204 72.5 -358t215.5 -239t348 -85q110 0 190.5 9.5t171.5 34.5v-136q-171 -46 -354 -46q-242 0 -420 99t-273 284t-95 437q-1 233 101 419.5t283.5 292.5t411.5 106q234 0 415.5 -98t282 -269.5t100.5 -384.5q0 -152 -47.5 -264.5t-129.5 -172t-185 -59.5
q-62 0 -113 21.5t-81.5 59t-34.5 83.5h-13q-20 -37 -45.5 -69.5t-74.5 -59.5t-120 -27q-100 0 -178.5 51.5zM1039 411q55 75 57 203q-2 126 -56.5 199t-159.5 73q-68 0 -117 -35.5t-74 -97.5t-25 -139q0 -79 25.5 -142t74.5 -99.5t116 -36.5q104 0 159 75z" />
    <glyph glyph-name="A" unicode="A" horiz-adv-x="1322" 
d="M36 0l530 1448h190l530 -1448h-190l-145 408h-582l-145 -408h-188zM896 566l-230 648h-12l-230 -648h472z" />
    <glyph glyph-name="B" unicode="B" horiz-adv-x="1268" 
d="M160 1448h508q147 0 247 -50t149.5 -137t49.5 -197q0 -130 -65 -202.5t-171 -101.5v-14q70 -4 138 -48t112 -124.5t44 -189.5q0 -113 -51.5 -199t-160.5 -135.5t-274 -49.5h-526v1448zM921.5 222q76.5 62 76.5 164q0 74 -37.5 136.5t-107 99t-159.5 36.5h-354v-498h344
q161 0 237.5 62zM804 844.5q64 30.5 101 87t37 130.5q0 100 -69 163t-205 63h-328v-474h322q78 0 142 30.5z" />
    <glyph glyph-name="C" unicode="C" horiz-adv-x="1420" 
d="M1068.5 1158.5q-59.5 69.5 -144 105.5t-180.5 36q-133 0 -238.5 -67t-166.5 -197t-61 -312t61 -312t166.5 -197t238.5 -67q96 0 180 35.5t143.5 105t80.5 165.5h180q-26 -145 -108 -252.5t-205.5 -164.5t-270.5 -57q-186 0 -331 91t-227 259.5t-82 393.5t82 393.5
t227 259.5t331 91q146 0 269.5 -57t206 -164.5t108.5 -254.5h-180q-20 97 -79.5 166.5z" />
    <glyph glyph-name="D" unicode="D" horiz-adv-x="1404" 
d="M160 0v1448h468q209 0 360.5 -86.5t231.5 -249t80 -386.5q0 -226 -81 -389t-236 -250t-373 -87h-450zM598 160q262 0 394 148t132 418q0 267 -129 414.5t-379 147.5h-276v-1128h258z" />
    <glyph glyph-name="E" unicode="E" horiz-adv-x="1162" 
d="M160 1448h878v-160h-698v-484h652v-158h-652v-486h708v-160h-888v1448z" />
    <glyph glyph-name="F" unicode="F" horiz-adv-x="1140" 
d="M160 1448h872v-160h-692v-484h626v-158h-626v-646h-180v1448z" />
    <glyph glyph-name="G" unicode="G" horiz-adv-x="1452" 
d="M994.5 1219.5q-105.5 80.5 -256.5 80.5q-130 0 -234.5 -67t-165 -197t-60.5 -312t61 -312t168 -197t243 -67q122 0 215.5 51.5t146 147t54.5 221.5h-378v158h554v-156q0 -177 -76 -311t-210.5 -206.5t-305.5 -72.5q-192 0 -338.5 90.5t-227 259t-80.5 394.5
q0 225 80.5 393.5t224.5 259.5t329 91q151 0 277 -59.5t209 -166.5t110 -246h-186q-48 143 -153.5 223.5z" />
    <glyph glyph-name="H" unicode="H" horiz-adv-x="1446" 
d="M160 1448h180v-644h766v644h182v-1448h-182v646h-766v-646h-180v1448z" />
    <glyph glyph-name="I" unicode="I" horiz-adv-x="500" 
d="M340 0h-180v1448h180v-1448z" />
    <glyph glyph-name="J" unicode="J" horiz-adv-x="1056" 
d="M896 1448v-1034q0 -137 -51 -234.5t-145 -148.5t-220 -51q-120 0 -214 44t-147 126t-53 192h178q0 -60 30.5 -106t84 -71t121.5 -25q113 0 173.5 70t60.5 204v1034h182z" />
    <glyph glyph-name="K" unicode="K" horiz-adv-x="1272" 
d="M160 1448h180v-716h18l644 716h236l-606 -654l606 -794h-220l-498 670l-180 -204v-466h-180v1448z" />
    <glyph glyph-name="L" unicode="L" horiz-adv-x="1092" 
d="M160 1448h180v-1288h672v-160h-852v1448z" />
    <glyph glyph-name="M" unicode="M" horiz-adv-x="1746" 
d="M376 1448l488 -1192h18l488 1192h216v-1448h-170v1094h-14l-450 -1094h-160l-450 1094h-12v-1094h-170v1448h216z" />
    <glyph glyph-name="N" unicode="N" horiz-adv-x="1470" 
d="M1310 0h-172l-784 1128h-14v-1128h-180v1448h174l784 -1130h14v1130h178v-1448z" />
    <glyph glyph-name="O" unicode="O" horiz-adv-x="1488" 
d="M1302 330.5q-82 -168.5 -227.5 -259.5t-330.5 -91q-186 0 -331 91t-227 259.5t-82 393.5t82 393.5t227 259.5t331 91q185 0 330.5 -91t227.5 -259.5t82 -393.5t-82 -393.5zM1149 1036q-61 130 -166.5 197t-238.5 67t-238.5 -67t-166.5 -197t-61 -312t61 -312t166.5 -197
t238.5 -67t238.5 67t166.5 197t61 312t-61 312z" />
    <glyph glyph-name="P" unicode="P" horiz-adv-x="1238" 
d="M160 1448h492q164 0 275 -60t165 -163.5t54 -236.5q0 -132 -54 -236.5t-164.5 -165t-273.5 -60.5h-314v-526h-180v1448zM646 686q164 0 243 82.5t79 219.5q0 138 -79 219t-245 81h-304v-602h306z" />
    <glyph glyph-name="Q" unicode="Q" horiz-adv-x="1488" 
d="M880 454l153 -201q84 73 130.5 192.5t46.5 278.5q0 182 -61 312t-166.5 197t-238.5 67t-238.5 -67t-166.5 -197t-61 -312t61 -312t166.5 -197t238.5 -67q81 0 154 26l-214 280h196zM1319 369q-65 -156 -182 -253l189 -252h-196l-126 169q-120 -53 -260 -53
q-186 0 -331 91t-227 259.5t-82 393.5t82 393.5t227 259.5t331 91q185 0 330.5 -91t227.5 -259.5t82 -393.5q0 -199 -65 -355z" />
    <glyph glyph-name="R" unicode="R" horiz-adv-x="1246" 
d="M160 1448h492q165 0 276 -56.5t164.5 -157t53.5 -232.5q0 -147 -67.5 -253t-202.5 -153l326 -596h-210l-303 563l-35 -1h-314v-562h-180v1448zM646 726q167 0 244.5 71t77.5 205q0 136 -78 211t-246 75h-304v-562h306z" />
    <glyph glyph-name="S" unicode="S" horiz-adv-x="1244" 
d="M899.5 1204.5q-42.5 50.5 -112.5 77t-157 26.5q-94 0 -166.5 -30.5t-112 -84.5t-39.5 -123q0 -100 81.5 -153t198.5 -83l144 -40q168 -43 289 -132.5t121 -267.5q0 -119 -62.5 -214.5t-181 -150.5t-282.5 -55q-154 0 -269 50t-180 141t-73 211h184q8 -78 55 -131.5
t120.5 -80t162.5 -26.5q100 0 179.5 32t125 91.5t45.5 136.5q0 66 -37.5 111t-98 73t-150.5 54l-178 48q-178 52 -273 144t-95 234q0 119 65.5 211.5t179 143.5t253.5 51q138 0 248 -50t174 -137.5t68 -196.5h-176q-8 70 -50.5 120.5z" />
    <glyph glyph-name="T" unicode="T" horiz-adv-x="1252" 
d="M80 1448h1092v-160h-454v-1288h-182v1288h-456v160z" />
    <glyph glyph-name="U" unicode="U" horiz-adv-x="1448" 
d="M1288 1448v-958q0 -148 -70 -265.5t-198 -184t-296 -66.5t-296 66.5t-198 184t-70 265.5v958h180v-944q0 -105 46.5 -187t133.5 -128.5t204 -46.5q118 0 204.5 46.5t133 128.5t46.5 187v944h180z" />
    <glyph glyph-name="V" unicode="V" horiz-adv-x="1322" 
d="M652 234h16l428 1214h190l-530 -1448h-190l-530 1448h190z" />
    <glyph glyph-name="W" unicode="W" horiz-adv-x="1874" 
d="M32 1448h182l302 -1172h14l306 1172h202l308 -1172h12l302 1172h182l-396 -1448h-186l-316 1146h-12l-318 -1146h-186z" />
    <glyph glyph-name="X" unicode="X" horiz-adv-x="1254" 
d="M620 850h12l370 598h212l-454 -724l454 -724h-212l-370 586h-12l-370 -586h-212l466 724l-466 724h214z" />
    <glyph glyph-name="Y" unicode="Y" horiz-adv-x="1298" 
d="M242 1448l398 -672h18l398 672h208l-524 -854v-594h-182v594l-522 854h206z" />
    <glyph glyph-name="Z" unicode="Z" horiz-adv-x="1218" 
d="M112 130l778 1158h-786v160h1002v-130l-778 -1158h786v-160h-1002v130z" />
    <glyph glyph-name="bracketleft" unicode="[" horiz-adv-x="698" 
d="M220 1510h424v-142h-262v-1632h262v-144h-424v1918z" />
    <glyph glyph-name="backslash" unicode="\" horiz-adv-x="684" 
d="M30 1516h156l468 -1734h-158z" />
    <glyph glyph-name="bracketright" unicode="]" horiz-adv-x="698" 
d="M54 -408v144h262v1632h-262v142h424v-1918h-424z" />
    <glyph glyph-name="asciicircum" unicode="^" horiz-adv-x="906" 
d="M356 1404h192l294 -612h-170l-215 460h-8l-215 -460h-170z" />
    <glyph glyph-name="underscore" unicode="_" horiz-adv-x="870" 
d="M888 -158h-906v158h906v-158z" />
    <glyph glyph-name="grave" unicode="`" horiz-adv-x="960" 
d="M296 1562h200l170 -328h-150z" />
    <glyph glyph-name="a" unicode="a" horiz-adv-x="1096" 
d="M201.5 546q115.5 69 292.5 82q68 5 152.5 9.5t141.5 6.5v88q0 105 -62.5 161.5t-183.5 56.5q-99 0 -162 -40.5t-82 -105.5h-180q11 87 68 154t151.5 104.5t212.5 37.5q156 0 282 -79.5t126 -304.5v-716h-170v148h-8q-20 -42 -61.5 -81.5t-108 -66t-154.5 -26.5
q-104 0 -188 40t-133 115.5t-49 178.5q0 169 115.5 238zM320.5 172.5q62.5 -44.5 165.5 -44.5q93 0 161.5 37t104.5 98t36 131v109l-274 -19q-122 -8 -189 -53t-67 -131q0 -83 62.5 -127.5z" />
    <glyph glyph-name="b" unicode="b" horiz-adv-x="1210" 
d="M160 1448h172v-534h14q39 59 65.5 91.5t89.5 63.5t159 31q136 0 241 -68.5t164 -195.5t59 -296t-59 -296.5t-163.5 -196.5t-239.5 -69q-95 0 -158 31.5t-93.5 67.5t-64.5 89h-20v-166h-166v1448zM364 328q36 -93 105.5 -144.5t166.5 -51.5q100 0 171 53.5t107 147
t36 211.5q0 115 -35.5 206t-106 143.5t-172.5 52.5q-98 0 -167.5 -50t-105 -140.5t-35.5 -211.5q0 -123 36 -216z" />
    <glyph glyph-name="c" unicode="c" horiz-adv-x="1084" 
d="M318.5 49.5q-112.5 71.5 -172.5 198.5t-60 290q0 164 61.5 291.5t173 199t257.5 71.5q115 0 208 -42.5t151.5 -120t72.5 -179.5h-172q-12 52 -46 95t-87.5 69t-122.5 26q-96 0 -169.5 -50t-114 -141.5t-40.5 -212.5q0 -125 39.5 -218t113 -143.5t171.5 -50.5
q97 0 165.5 49.5t90.5 138.5h172q-14 -98 -70 -175.5t-148 -122t-210 -44.5q-151 0 -263.5 71.5z" />
    <glyph glyph-name="d" unicode="d" horiz-adv-x="1210" 
d="M308.5 47q-104.5 69 -163.5 196.5t-59 296.5t59 296t164 195.5t241 68.5q96 0 159 -31.5t93 -67t62 -87.5h12v534h174v-1448h-168v166h-18q-34 -53 -64.5 -89t-93.5 -67.5t-158 -31.5q-135 0 -239.5 69zM739 183.5q70 51.5 106.5 145t36.5 215.5q0 121 -35.5 211.5
t-105.5 140.5t-169 50q-101 0 -171 -52.5t-105.5 -143.5t-35.5 -206q0 -118 35.5 -211.5t106 -147t170.5 -53.5q97 0 167 51.5z" />
    <glyph glyph-name="e" unicode="e" horiz-adv-x="1132" 
d="M324 47q-115 69 -176.5 195t-61.5 292t61.5 294.5t173 200t257.5 71.5q123 0 229 -54.5t172.5 -176t66.5 -311.5v-72h-788q4 -113 47 -193t117.5 -121.5t171.5 -41.5q92 0 155.5 34.5t96.5 89.5h184q-26 -82 -86.5 -144.5t-150 -97t-199.5 -34.5q-155 0 -270 69zM872 632
q0 91 -36.5 162.5t-103.5 112.5t-154 41q-91 0 -161.5 -43t-111 -115.5t-46.5 -157.5h613z" />
    <glyph glyph-name="f" unicode="f" horiz-adv-x="690" 
d="M624 942h-240v-942h-174v942h-174v144h174v148q0 87 37.5 150.5t107.5 97.5t165 34q56 0 128 -12v-154q-48 8 -90 8q-90 0 -132 -39t-42 -123v-110h240v-144z" />
    <glyph glyph-name="g" unicode="g" horiz-adv-x="1186" 
d="M346.5 -393q-100.5 37 -159.5 108t-69 171h180q18 -82 90.5 -124t189.5 -42q144 0 222 64t78 196v220h-14q-29 -49 -61 -86t-95.5 -67.5t-159.5 -30.5q-133 0 -238 65t-164.5 187.5t-59.5 289.5q0 164 59 287t164 189t241 66q95 0 158.5 -31t91 -63.5t68.5 -91.5h14v172
h168v-1116q0 -135 -61.5 -224.5t-167.5 -132.5t-243 -43q-131 0 -231.5 37zM801 270.5q81 100.5 81 281.5q0 117 -36 206t-105.5 138.5t-168.5 49.5q-101 0 -171 -52t-105.5 -141.5t-35.5 -200.5q0 -114 35.5 -200t105.5 -134t171 -48q148 0 229 100.5z" />
    <glyph glyph-name="h" unicode="h" horiz-adv-x="1152" 
d="M310 0h-172v1448h172v-532h14q82 184 320 184q172 0 271 -103.5t99 -306.5v-690h-172v678q0 127 -66.5 197.5t-183.5 70.5q-82 0 -145.5 -34.5t-100 -101t-36.5 -158.5v-652z" />
    <glyph glyph-name="i" unicode="i" horiz-adv-x="446" 
d="M138 1086h172v-1086h-172v1086zM139 1299q-35 33 -35 81t35 81t85 33t86 -33t36 -81t-36 -81t-86 -33t-85 33z" />
    <glyph glyph-name="j" unicode="j" horiz-adv-x="446" 
d="M310 1086v-1164q0 -156 -80 -243t-236 -87h-36v160h34q74 0 110 43.5t36 126.5v1164h172zM137 1299q-35 33 -35 81t35 81t85 33t86 -33t36 -81t-36 -81t-86 -33t-85 33z" />
    <glyph glyph-name="k" unicode="k" horiz-adv-x="1058" 
d="M138 1448h172v-842h20l470 480h212l-458 -465l492 -621h-218l-403 512l-115 -107v-405h-172v1448z" />
    <glyph glyph-name="l" unicode="l" horiz-adv-x="446" 
d="M310 0h-172v1448h172v-1448z" />
    <glyph glyph-name="m" unicode="m" horiz-adv-x="1708" 
d="M138 1086h166v-170h14q35 88 110.5 136t181.5 48q104 0 177 -47.5t113 -136.5h12q43 86 127 135t199 49q99 0 173.5 -41t116.5 -124.5t42 -208.5v-726h-172v724q0 113 -62 167.5t-158 54.5q-74 0 -128 -31t-82 -85t-28 -124v-706h-174v742q0 60 -27 106.5t-75.5 72
t-109.5 25.5q-65 0 -121 -34.5t-89.5 -95.5t-33.5 -138v-678h-172v1086z" />
    <glyph glyph-name="n" unicode="n" horiz-adv-x="1140" 
d="M310 0h-172v1086h166v-170h14q41 87 119.5 135.5t198.5 48.5q112 0 194 -45.5t127 -137.5t45 -227v-690h-172v678q0 126 -65 197t-181 71q-80 0 -142 -34.5t-97 -101t-35 -158.5v-652z" />
    <glyph glyph-name="o" unicode="o" horiz-adv-x="1162" 
d="M322.5 47.5q-112.5 69.5 -174.5 196.5t-62 294t62 294.5t174.5 197.5t259.5 70q146 0 257.5 -70t173 -197.5t61.5 -294.5t-61.5 -294t-173 -196.5t-257.5 -69.5q-147 0 -259.5 69.5zM759 185.5q72 55.5 107.5 148t35.5 204.5t-35.5 205t-107.5 149t-177 56
q-107 0 -179.5 -56t-108.5 -149t-36 -205t36 -204.5t108.5 -148t179.5 -55.5q105 0 177 55.5z" />
    <glyph glyph-name="p" unicode="p" horiz-adv-x="1186" 
d="M138 1086h166v-172h20q32 52 62 87.5t93 67t159 31.5q136 0 240.5 -68.5t163 -195.5t58.5 -296t-58.5 -296.5t-163 -196.5t-238.5 -69q-95 0 -158.5 31.5t-95.5 69t-62 87.5h-14v-574h-172v1494zM342 328q36 -93 106 -144.5t168 -51.5q100 0 170.5 53.5t106 147
t35.5 211.5q0 115 -35.5 206t-105.5 143.5t-171 52.5q-100 0 -169.5 -50t-105 -140.5t-35.5 -211.5q0 -123 36 -216z" />
    <glyph glyph-name="q" unicode="q" horiz-adv-x="1186" 
d="M876 166h-12q-34 -53 -64.5 -89t-93.5 -67.5t-158 -31.5q-135 0 -239.5 69t-163.5 196.5t-59 296.5t59 296t164 195.5t241 68.5q96 0 159 -31.5t93 -67t62 -87.5h18v172h168v-1494h-174v574zM739 183.5q70 51.5 106.5 145t36.5 215.5q0 121 -35.5 211.5t-105.5 140.5
t-169 50q-101 0 -171 -52.5t-105.5 -143.5t-35.5 -206q0 -118 35.5 -211.5t106 -147t170.5 -53.5q97 0 167 51.5z" />
    <glyph glyph-name="r" unicode="r" horiz-adv-x="716" 
d="M138 1086h166v-166h12q30 83 107 133.5t173 50.5q50 0 90 -4v-174q-11 4 -42.5 8t-61.5 4q-77 0 -139 -33t-97.5 -91t-35.5 -130v-684h-172v1086z" />
    <glyph glyph-name="s" unicode="s" horiz-adv-x="1016" 
d="M668.5 914.5q-54.5 39.5 -146.5 39.5q-66 0 -118.5 -21.5t-82 -59t-29.5 -83.5q0 -54 45.5 -92t140.5 -60l162 -40q146 -35 218 -107.5t72 -186.5q0 -95 -50.5 -168.5t-146.5 -115.5t-229 -42q-183 0 -290 78.5t-128 227.5h180q15 -79 73 -117.5t161 -38.5q116 0 184 45
t68 121q0 58 -43 96.5t-135 59.5l-164 38q-142 33 -216 108t-74 184q0 92 50.5 165t142 114t209.5 41q110 0 194 -37t133.5 -104t60.5 -155h-168q-19 71 -73.5 110.5z" />
    <glyph glyph-name="t" unicode="t" horiz-adv-x="696" 
d="M612 942h-228v-630q0 -96 38 -129t104 -33q50 0 102 4v-160q-52 -8 -120 -8q-76 0 -144 31.5t-111 95.5t-43 155v674h-164v144h164v260h174v-260h228v-144z" />
    <glyph glyph-name="u" unicode="u" horiz-adv-x="1132" 
d="M824 1086h170v-1086h-170v184h-12q-42 -89 -123.5 -143.5t-198.5 -54.5q-105 0 -184 45.5t-123.5 137.5t-44.5 227v690h172v-678q0 -77 30 -135t83.5 -89.5t122.5 -31.5q65 0 129.5 33t106.5 99.5t42 161.5v640z" />
    <glyph glyph-name="v" unicode="v" horiz-adv-x="1084" 
d="M630 0h-178l-400 1086h188l296 -862h12l296 862h188z" />
    <glyph glyph-name="w" unicode="w" horiz-adv-x="1592" 
d="M52 1086h182l232 -828h10l230 828h184l226 -824h12l232 824h180l-330 -1086h-170l-236 828h-16l-234 -828h-172z" />
    <glyph glyph-name="x" unicode="x" horiz-adv-x="1050" 
d="M524 644l258 442h198l-350 -542l350 -544h-196l-260 420l-256 -420h-198l342 544l-342 542h198z" />
    <glyph glyph-name="y" unicode="y" horiz-adv-x="1084" 
d="M152 -404v154q36 -4 84 -4q43 0 72 9t58 44.5t56 110.5l32 82l-402 1094h188l296 -862h12l296 862h188l-460 -1242q-48 -127 -128 -189.5t-196 -62.5q-52 0 -96 4z" />
    <glyph glyph-name="z" unicode="z" horiz-adv-x="1050" 
d="M106 130l612 786v12h-592v158h814v-136l-594 -780v-12h614v-158h-854v130z" />
    <glyph glyph-name="braceleft" unicode="{" horiz-adv-x="698" 
d="M183 659.5q46 21.5 66.5 68t20.5 124.5v280q0 134 35.5 216.5t117.5 122t221 39.5v-142q-81 0 -128.5 -25t-67.5 -76.5t-20 -136.5v-334q0 -95 -43 -153t-157 -81v-22q114 -22 157 -80t43 -154v-332q0 -85 20 -136.5t67.5 -76.5t128.5 -25v-144q-140 0 -221.5 39.5
t-117 122.5t-35.5 218v278q0 79 -20.5 125.5t-66.5 68.5t-125 22v172q79 0 125 21.5z" />
    <glyph glyph-name="bar" unicode="|" horiz-adv-x="626" 
d="M388 -204h-148v1856h148v-1856z" />
    <glyph glyph-name="braceright" unicode="}" horiz-adv-x="698" 
d="M515 444q-46 -22 -66.5 -68.5t-20.5 -125.5v-278q0 -135 -35.5 -218t-117 -122.5t-221.5 -39.5v144q81 0 128.5 25t67.5 76.5t20 136.5v332q0 96 43 154t157 80v22q-114 23 -157 81t-43 153v334q0 85 -20 136.5t-67.5 76.5t-128.5 25v142q139 0 221 -39.5t117.5 -122
t35.5 -216.5v-280q0 -78 20.5 -124.5t66.5 -68t125 -21.5v-172q-79 0 -125 -22z" />
    <glyph glyph-name="asciitilde" unicode="~" horiz-adv-x="1284" 
d="M301 679q59 29 125 29q50 0 98 -14.5t124 -43.5q69 -29 117.5 -43.5t96.5 -14.5q67 0 125 32t103 94v-166q-99 -114 -232 -114q-50 0 -98 14.5t-124 43.5q-69 29 -117.5 43.5t-98.5 14.5q-66 0 -123.5 -32t-102.5 -94v166q48 56 107 85z" />
    <glyph glyph-name="exclamdown" unicode="&#xa1;" horiz-adv-x="526" 
d="M164 -368l14 1040h168l14 -1040h-196zM325.5 1074.5q29.5 -17.5 47 -47.5t17.5 -65q0 -34 -17.5 -63.5t-47 -47t-63.5 -17.5q-35 0 -64.5 17.5t-47 47t-16.5 63.5q-1 35 16.5 65t47 47.5t64.5 17.5q34 0 63.5 -17.5z" />
    <glyph glyph-name="cent" unicode="&#xa2;" horiz-adv-x="1084" 
d="M512 168q-131 16 -227.5 90.5t-147.5 195t-51 270.5q0 151 52.5 272t149 195.5t224.5 90.5v166h116v-164q102 -9 184 -53.5t133.5 -118.5t64.5 -168h-172q-17 71 -71.5 123t-138.5 64v-810q80 11 135.5 59t74.5 126h172q-13 -91 -63 -165t-131.5 -120.5t-187.5 -54.5
v-166h-116v168zM326 458q68 -107 186 -133v802q-77 -17 -134.5 -71t-88.5 -137.5t-31 -188.5q0 -165 68 -272z" />
    <glyph glyph-name="sterling" unicode="&#xa3;" horiz-adv-x="1230" 
d="M114 0v160h58q40 0 63.5 39t32 94t6.5 105l-5 164h-161v166h155l-9 284q-5 146 54.5 249t160 155t215.5 52q117 0 212 -50t149.5 -132.5t54.5 -177.5q0 -38 -8 -70l-170 44q2 10 2 30q0 61 -32.5 105.5t-85 67.5t-112.5 23q-71 0 -133 -32.5t-100 -99.5t-37 -164l10 -284
h340v-166h-334l6 -164v-36q0 -131 -53 -202h685v-160h-964z" />
    <glyph glyph-name="currency" unicode="&#xa4;" horiz-adv-x="1410" 
d="M506.5 14.5q-92.5 34.5 -167.5 97.5l-125 -126l-114 118l129 131q-50 76 -77.5 167t-27.5 190q0 103 29.5 196.5t84.5 170.5l-138 141l114 120l138 -141q73 58 162 89.5t186 31.5q99 0 189.5 -32t165.5 -91l139 143l116 -120l-142 -143q55 -77 84.5 -169.5t29.5 -195.5
q0 -99 -27.5 -189t-77.5 -166l133 -133l-116 -118l-126 129q-76 -65 -170.5 -100t-197.5 -35q-101 0 -193.5 34.5zM910 199q96 61 152 165.5t56 227.5t-56 227.5t-152 165.5t-210 61t-210.5 -61t-153 -165.5t-56.5 -227.5t56.5 -227.5t153 -165.5t210.5 -61t210 61z" />
    <glyph glyph-name="yen" unicode="&#xa5;" horiz-adv-x="1062" 
d="M527 760h8l315 688h200l-361 -726h249v-130h-314l-2 -4v-146h316v-130h-316v-312h-180v312h-318v130h318v142l-4 8h-314v130h249l-361 726h202z" />
    <glyph glyph-name="brokenbar" unicode="&#xa6;" horiz-adv-x="626" 
d="M386 548v-752h-146v752h146zM386 902h-146v750h146v-750z" />
    <glyph glyph-name="section" unicode="&#xa7;" horiz-adv-x="1070" 
d="M674.5 1257q-47.5 57 -142.5 57q-59 0 -100 -22t-61.5 -56.5t-20.5 -71.5q0 -57 45 -107t107 -87l274 -160q208 -118 206 -310q0 -52 -27 -104.5t-72 -92.5t-97 -57v-2q100 -88 100 -232q0 -100 -50 -169t-132.5 -103t-179.5 -34q-112 0 -199.5 44.5t-137 127
t-49.5 194.5h168q0 -101 60.5 -156.5t157.5 -55.5q83 0 139.5 39.5t56.5 112.5q0 49 -22 85t-52 58.5t-78 50.5l-274 158q-82 46 -145 121.5t-63 192.5q1 51 27 104t71 94.5t100 57.5v4q-100 100 -100 226q0 87 45 156.5t124 108.5t179 39q108 0 188.5 -46t124 -128
t43.5 -188h-166q0 94 -47.5 151zM787 600q-37 46 -95 80l-276 158q-17 10 -34 10q-30 0 -62 -23t-53 -62t-21 -85q0 -60 36 -103.5t98 -80.5l264 -150q13 -8 34 -8q32 0 66 21t57 58.5t23 82.5q0 56 -37 102z" />
    <glyph glyph-name="dieresis" unicode="&#xa8;" horiz-adv-x="1150" 
d="M314.5 1282q-26.5 16 -42.5 42.5t-16 55.5q0 48 34 81t80 33q51 0 83.5 -32t32.5 -82q0 -46 -33 -80t-83 -34q-29 0 -55.5 16zM723 1282q-27 16 -43 42.5t-16 55.5q0 49 34.5 81.5t81.5 32.5q48 0 81 -32.5t33 -81.5q0 -30 -15 -56t-41.5 -42t-57.5 -16q-30 0 -57 16z
" />
    <glyph glyph-name="copyright" unicode="&#xa9;" horiz-adv-x="1700" 
d="M494.5 934q56.5 96 153 152t210.5 56q99 0 184.5 -42.5t141.5 -117.5t70 -168h-174q-10 47 -42.5 84.5t-79.5 58.5t-100 21q-69 0 -127.5 -34t-92.5 -92.5t-34 -127.5t34 -127.5t92.5 -92.5t127.5 -34q79 0 136 45.5t72 118.5h172q-13 -93 -65.5 -168t-134.5 -117.5
t-180 -42.5q-114 0 -210.5 56t-153 152t-56.5 210t56.5 210zM476 78.5q-172 100.5 -272.5 272t-99.5 373.5q0 203 100.5 374.5t272 271.5t373.5 100q204 0 375 -100t271 -271t100 -375q1 -203 -99 -374t-271.5 -271.5t-375.5 -100.5q-202 0 -374 100.5zM1140.5 221.5
q133.5 77.5 211.5 210t78 288.5q0 159 -77.5 293t-211 212.5t-291.5 78.5q-157 0 -290.5 -79t-211.5 -213.5t-78 -291.5q0 -155 78.5 -287.5t212 -210.5t289.5 -78q157 0 290.5 77.5z" />
    <glyph glyph-name="ordfeminine" unicode="&#xaa;" horiz-adv-x="726" 
d="M117 1082q73 54 199 60q138 10 182 10v70q0 56 -37 88t-101 32q-58 0 -100 -27t-50 -69l-146 2q8 65 49 112t106.5 71.5t144.5 24.5q78 0 143 -25.5t104 -78.5t39 -132v-496h-146v110h-4q-27 -55 -84 -89.5t-138 -34.5q-66 0 -119 24.5t-84 73t-31 116.5q0 104 73 158z
M226.5 848.5q36.5 -30.5 91.5 -30.5q51 0 92 23.5t64.5 63.5t23.5 89v61l-158 -13q-150 -11 -150 -114q0 -49 36.5 -79.5z" />
    <glyph glyph-name="guillemotleft" unicode="&#xab;" horiz-adv-x="1052" 
d="M404 156l-286 424v20l286 424h150l-270 -434l270 -434h-150zM770 156l-286 424v20l286 424h150l-270 -434l270 -434h-150z" />
    <glyph glyph-name="logicalnot" unicode="&#xac;" horiz-adv-x="1046" 
d="M930 364h-196v252h-616v168h812v-420z" />
    <glyph glyph-name="registered" unicode="&#xae;" horiz-adv-x="1304" 
d="M454 1170h264q35 0 72 -19t62.5 -57.5t25.5 -91.5q0 -51 -23.5 -89.5t-61.5 -62.5l107 -202h-128l-90 176h-114v-176h-114v522zM369 412.5q-130 76.5 -206.5 206.5t-76.5 283t76.5 283t206.5 206.5t283 76.5t283 -76.5t206.5 -206.5t76.5 -283t-76.5 -283t-206.5 -206.5
t-283 -76.5t-283 76.5zM868 529.5q99 57.5 156.5 156.5t57.5 216t-57.5 216t-156.5 156.5t-216 57.5t-216 -57.5t-156.5 -156.5t-57.5 -216t57.5 -216t156.5 -156.5t216 -57.5t216 57.5zM674 910q17 0 35.5 10.5t30.5 31.5t12 50q0 43 -24 62.5t-50 19.5h-110v-174h106z" />
    <glyph glyph-name="macron" unicode="&#xaf;" horiz-adv-x="864" 
d="M764 1306h-664v142h664v-142z" />
    <glyph glyph-name="degree" unicode="&#xb0;" horiz-adv-x="876" 
d="M275 852q-75 44 -119 118t-44 162q0 89 44 164.5t118.5 119.5t163.5 44t163.5 -44t118.5 -119.5t44 -164.5q0 -88 -44 -162t-119 -118t-163 -44t-163 44zM529 974.5q42 24.5 66.5 66.5t24.5 91q0 50 -24.5 92.5t-66.5 67t-91 24.5q-50 0 -92.5 -24.5t-67 -67t-24.5 -92.5
q0 -49 24.5 -91t67 -66.5t92.5 -24.5q49 0 91 24.5z" />
    <glyph glyph-name="plusminus" unicode="&#xb1;" horiz-adv-x="1284" 
d="M186 230h914v-162h-914v162zM186 800h376v288h162v-288h376v-160h-376v-288h-162v288h-376v160z" />
    <glyph glyph-name="uni00B2" unicode="&#xb2;" horiz-adv-x="810" 
d="M84 836l332 294q82 72 116 117t34 97q0 62 -48 99t-122 37q-75 0 -121.5 -40t-46.5 -106h-150q0 80 41 141t114 95t165 34t164 -33.5t112 -92.5t40 -132q0 -57 -23 -106.5t-70 -100.5t-131 -123l-182 -158v-6h432v-128h-656v112z" />
    <glyph glyph-name="uni00B3" unicode="&#xb3;" horiz-adv-x="828" 
d="M237.5 744.5q-77.5 32.5 -122 91t-45.5 132.5h156q3 -56 55 -91t131 -35q54 0 97 17t67 47.5t24 69.5q0 60 -56.5 97t-151.5 37h-70v116h70q79 0 130.5 35t51.5 93q0 56 -44 91t-116 35q-73 0 -124 -35.5t-52 -92.5h-148q1 73 44 130.5t116.5 89.5t163.5 32q91 0 162 -31
t110.5 -85.5t39.5 -123.5q0 -74 -50.5 -124t-129.5 -64v-4q102 -15 158 -71t56 -137q0 -71 -44.5 -128.5t-124 -90.5t-179.5 -33q-97 0 -174.5 32.5z" />
    <glyph glyph-name="acute" unicode="&#xb4;" horiz-adv-x="960" 
d="M552 1562h198l-222 -328h-148z" />
    <glyph glyph-name="paragraph" unicode="&#xb6;" horiz-adv-x="1166" 
d="M828 1290h-176v-752h-82q-150 0 -258 58t-164 161t-56 235t56 235.5t164 162t258 58.5h436v-1448h-178v1290z" />
    <glyph glyph-name="periodcentered" unicode="&#xb7;" horiz-adv-x="520" 
d="M195.5 521.5q-29.5 17.5 -47 47.5t-16.5 65q-1 34 16.5 63.5t47 47t64.5 17.5q34 0 63.5 -17.5t47 -47t17.5 -63.5q0 -35 -17.5 -65t-47 -47.5t-63.5 -17.5q-35 0 -64.5 17.5z" />
    <glyph glyph-name="cedilla" unicode="&#xb8;" horiz-adv-x="504" 
d="M322 6l-10 -56q63 -10 105.5 -51t42.5 -117q0 -62 -34.5 -109t-102 -73t-163.5 -26l-6 112q71 0 112.5 22t41.5 68q0 32 -15.5 50t-47.5 27.5t-89 14.5l28 138h138z" />
    <glyph glyph-name="uni00B9" unicode="&#xb9;" horiz-adv-x="594" 
d="M292 1436h-6l-222 -148v152l230 152h148v-868h-150v712z" />
    <glyph glyph-name="ordmasculine" unicode="&#xba;" horiz-adv-x="768" 
d="M206 757q-77 47 -119.5 132t-42.5 195q0 109 42.5 193.5t119.5 131.5t178 47t178 -47t119.5 -131.5t42.5 -193.5q0 -110 -42.5 -195t-119.5 -132t-178 -47t-178 47zM482.5 863q41.5 33 63.5 91t22 130q0 73 -22 131.5t-63.5 91.5t-98.5 33t-98.5 -33t-63.5 -91.5
t-22 -131.5q0 -72 22 -130t63.5 -91t98.5 -33t98.5 33z" />
    <glyph glyph-name="guillemotright" unicode="&#xbb;" horiz-adv-x="1054" 
d="M386 590l-268 434h152l286 -424v-20l-286 -424h-152zM752 590l-268 434h152l286 -424v-20l-286 -424h-152z" />
    <glyph glyph-name="onequarter" unicode="&#xbc;" horiz-adv-x="1728" 
d="M1250 1448h162l-996 -1448h-162zM248 1292h-6l-190 -126v152l196 130h150v-770h-150v614zM1022 256l368 514h188v-512h106v-120h-106v-138h-144v138h-412v118zM1438 258v348h-6l-256 -344v-4h262z" />
    <glyph glyph-name="onehalf" unicode="&#xbd;" horiz-adv-x="1814" 
d="M1250 1448h162l-996 -1448h-162zM248 1292h-6l-190 -126v152l196 130h150v-770h-150v614zM1152 108l304 256q71 60 100.5 98.5t29.5 81.5q0 53 -43 86.5t-107 33.5q-65 0 -106.5 -35.5t-41.5 -90.5h-144q0 71 37 126t104 85.5t153 30.5q87 0 153 -30.5t101.5 -84
t35.5 -119.5q0 -52 -20.5 -95.5t-63.5 -89.5t-120 -109l-154 -126v-6h386v-120h-604v108z" />
    <glyph glyph-name="threequarters" unicode="&#xbe;" horiz-adv-x="1860" 
d="M1382 1448h162l-996 -1448h-162zM1154 256l368 514h188v-512h106v-120h-106v-138h-144v138h-412v118zM1570 258v348h-6l-256 -344v-4h262zM210.5 696.5q-71.5 30.5 -112 84.5t-40.5 121h152q0 -32 21.5 -57.5t58.5 -40t82 -14.5q46 0 83 15t58 41t21 58q0 51 -50.5 81.5
t-131.5 30.5h-62v108h62q71 0 117.5 30t46.5 78q0 47 -40.5 78.5t-103.5 31.5q-42 0 -76.5 -14.5t-55 -40.5t-20.5 -57h-146q2 65 41 117t106 81.5t151 29.5q85 0 151 -27.5t102.5 -76.5t36.5 -110q0 -65 -46.5 -109t-123.5 -55v-6q94 -12 146 -61t52 -121
q0 -64 -40.5 -115.5t-113 -81t-164.5 -29.5q-90 0 -161.5 30.5z" />
    <glyph glyph-name="questiondown" unicode="&#xbf;" horiz-adv-x="982" 
d="M599.5 457q-25.5 -80 -71.5 -129t-124 -96q-66 -40 -106 -101.5t-40 -140.5q0 -66 31.5 -116.5t86 -78t120.5 -27.5q60 0 112.5 24.5t87 77t40.5 130.5h182q-5 -118 -62 -205t-151 -133t-209 -46q-123 0 -217 49.5t-145.5 136.5t-51.5 196q0 221 198 342q64 39 100.5 81
t54 100t19.5 145v10h172v-10q-1 -129 -26.5 -209zM598.5 1078.5q29.5 -17.5 47 -47.5t16.5 -65q1 -34 -16.5 -63.5t-47 -47t-64.5 -17.5q-34 0 -63.5 17.5t-47 47t-17.5 63.5q0 35 17.5 65t47 47.5t63.5 17.5q35 0 64.5 -17.5z" />
    <glyph glyph-name="Agrave" unicode="&#xc0;" horiz-adv-x="1322" 
d="M36 0l530 1448h190l530 -1448h-190l-145 408h-582l-145 -408h-188zM896 566l-230 648h-12l-230 -648h472zM368 1924h200l170 -328h-150z" />
    <glyph glyph-name="Aacute" unicode="&#xc1;" horiz-adv-x="1322" 
d="M36 0l530 1448h190l530 -1448h-190l-145 408h-582l-145 -408h-188zM896 566l-230 648h-12l-230 -648h472zM756 1924h198l-222 -328h-148z" />
    <glyph glyph-name="Acircumflex" unicode="&#xc2;" horiz-adv-x="1322" 
d="M36 0l530 1448h190l530 -1448h-190l-145 408h-582l-145 -408h-188zM896 566l-230 648h-12l-230 -648h472zM658 1774l-146 -196h-164v12l232 294h156l232 -294v-12h-162z" />
    <glyph glyph-name="Atilde" unicode="&#xc3;" horiz-adv-x="1322" 
d="M36 0l530 1448h190l530 -1448h-190l-145 408h-582l-145 -408h-188zM896 566l-230 648h-12l-230 -648h472zM340.5 1726q28.5 57 78 88.5t109.5 31.5q37 0 65 -11t71 -35q35 -21 62.5 -32.5t59.5 -11.5q41 0 68.5 30.5t27.5 75.5l130 -10q0 -73 -28.5 -128t-78.5 -84.5
t-111 -29.5q-45 0 -76 12.5t-66 35.5q-30 21 -55 31.5t-59 10.5q-40 0 -66 -31t-26 -77l-134 6q0 71 28.5 128z" />
    <glyph glyph-name="Adieresis" unicode="&#xc4;" horiz-adv-x="1322" 
d="M36 0l530 1448h190l530 -1448h-190l-145 408h-582l-145 -408h-188zM896 566l-230 648h-12l-230 -648h472zM400.5 1644q-26.5 16 -42.5 42.5t-16 55.5q0 48 34 81t80 33q51 0 83.5 -32t32.5 -82q0 -46 -33 -80t-83 -34q-29 0 -55.5 16zM809 1644q-27 16 -43 42.5t-16 55.5
q0 49 34.5 81.5t81.5 32.5q48 0 81 -32.5t33 -81.5q0 -30 -15 -56t-41.5 -42t-57.5 -16q-30 0 -57 16z" />
    <glyph glyph-name="Aring" unicode="&#xc5;" horiz-adv-x="1322" 
d="M36 0l530 1448h190l530 -1448h-190l-145 408h-582l-145 -408h-188zM896 566l-230 648h-12l-230 -648h472zM556.5 1575.5q-47.5 27.5 -75 74.5t-27.5 102q0 56 27.5 103.5t75 75t103.5 27.5q55 0 102.5 -27.5t75.5 -75t28 -103.5q0 -55 -28 -102t-75.5 -74.5t-102.5 -27.5
q-56 0 -103.5 27.5zM733 1679.5q29 29.5 29 72.5t-29 72.5t-73 29.5q-43 0 -72.5 -30t-29.5 -72q0 -43 29.5 -72.5t72.5 -29.5q44 0 73 29.5z" />
    <glyph glyph-name="AE" unicode="&#xc6;" horiz-adv-x="1944" 
d="M734 1448h1084v-160h-696v-484h652v-158h-652v-486h708v-160h-890v408h-515l-191 -408h-198zM940 566v722h-104l-337 -722h441z" />
    <glyph glyph-name="Ccedilla" unicode="&#xc7;" horiz-adv-x="1420" 
d="M1068.5 1158.5q-59.5 69.5 -144 105.5t-180.5 36q-133 0 -238.5 -67t-166.5 -197t-61 -312t61 -312t166.5 -197t238.5 -67q96 0 180 35.5t143.5 105t80.5 165.5h180q-24 -136 -97 -238.5t-183.5 -162t-243.5 -70.5l-8 -45q63 -10 105.5 -51t42.5 -117q0 -62 -34.5 -109
t-102 -73t-163.5 -26l-6 112q71 0 112.5 22t41.5 68q0 32 -15.5 50t-47.5 27.5t-89 14.5l26 128q-166 19 -293 114.5t-198 256t-71 369.5q0 225 82 393.5t227 259.5t331 91q146 0 269.5 -57t206 -164.5t108.5 -254.5h-180q-20 97 -79.5 166.5z" />
    <glyph glyph-name="Egrave" unicode="&#xc8;" horiz-adv-x="1162" 
d="M160 1448h878v-160h-698v-484h652v-158h-652v-486h708v-160h-888v1448zM304 1924h200l170 -328h-150z" />
    <glyph glyph-name="Eacute" unicode="&#xc9;" horiz-adv-x="1162" 
d="M160 1448h878v-160h-698v-484h652v-158h-652v-486h708v-160h-888v1448zM692 1924h198l-222 -328h-148z" />
    <glyph glyph-name="Ecircumflex" unicode="&#xca;" horiz-adv-x="1162" 
d="M160 1448h878v-160h-698v-484h652v-158h-652v-486h708v-160h-888v1448zM594 1774l-146 -196h-164v12l232 294h156l232 -294v-12h-162z" />
    <glyph glyph-name="Edieresis" unicode="&#xcb;" horiz-adv-x="1162" 
d="M160 1448h878v-160h-698v-484h652v-158h-652v-486h708v-160h-888v1448zM336.5 1644q-26.5 16 -42.5 42.5t-16 55.5q0 48 34 81t80 33q51 0 83.5 -32t32.5 -82q0 -46 -33 -80t-83 -34q-29 0 -55.5 16zM745 1644q-27 16 -43 42.5t-16 55.5q0 49 34.5 81.5t81.5 32.5
q48 0 81 -32.5t33 -81.5q0 -30 -15 -56t-41.5 -42t-57.5 -16q-30 0 -57 16z" />
    <glyph glyph-name="Igrave" unicode="&#xcc;" horiz-adv-x="500" 
d="M340 0h-180v1448h180v-1448zM-42 1924h200l170 -328h-150z" />
    <glyph glyph-name="Iacute" unicode="&#xcd;" horiz-adv-x="500" 
d="M340 0h-180v1448h180v-1448zM346 1924h198l-222 -328h-148z" />
    <glyph glyph-name="Icircumflex" unicode="&#xce;" horiz-adv-x="500" 
d="M340 0h-180v1448h180v-1448zM248 1774l-146 -196h-164v12l232 294h156l232 -294v-12h-162z" />
    <glyph glyph-name="Idieresis" unicode="&#xcf;" horiz-adv-x="500" 
d="M340 0h-180v1448h180v-1448zM-9.5 1644q-26.5 16 -42.5 42.5t-16 55.5q0 48 34 81t80 33q51 0 83.5 -32t32.5 -82q0 -46 -33 -80t-83 -34q-29 0 -55.5 16zM399 1644q-27 16 -43 42.5t-16 55.5q0 49 34.5 81.5t81.5 32.5q48 0 81 -32.5t33 -81.5q0 -30 -15 -56t-41.5 -42
t-57.5 -16q-30 0 -57 16z" />
    <glyph glyph-name="Eth" unicode="&#xd0;" horiz-adv-x="1404" 
d="M160 0v682h-222v132h222v634h468q209 0 360.5 -86.5t231.5 -249t80 -386.5q0 -226 -81 -389t-236 -250t-373 -87h-450zM598 160q262 0 394 148t132 418q0 267 -129 414.5t-379 147.5h-276v-474h224v-132h-224v-522h258z" />
    <glyph glyph-name="Ntilde" unicode="&#xd1;" horiz-adv-x="1470" 
d="M1310 0h-172l-784 1128h-14v-1128h-180v1448h174l784 -1130h14v1130h178v-1448zM414.5 1712q28.5 57 78 88.5t109.5 31.5q37 0 65 -11t71 -35q35 -21 62.5 -32.5t59.5 -11.5q41 0 68.5 30.5t27.5 75.5l130 -10q0 -73 -28.5 -128t-78.5 -84.5t-111 -29.5q-45 0 -76 12.5
t-66 35.5q-30 21 -55 31.5t-59 10.5q-40 0 -66 -31t-26 -77l-134 6q0 71 28.5 128z" />
    <glyph glyph-name="Ograve" unicode="&#xd2;" horiz-adv-x="1488" 
d="M1302 330.5q-82 -168.5 -227.5 -259.5t-330.5 -91q-186 0 -331 91t-227 259.5t-82 393.5t82 393.5t227 259.5t331 91q185 0 330.5 -91t227.5 -259.5t82 -393.5t-82 -393.5zM1149 1036q-61 130 -166.5 197t-238.5 67t-238.5 -67t-166.5 -197t-61 -312t61 -312t166.5 -197
t238.5 -67t238.5 67t166.5 197t61 312t-61 312zM452 1924h200l170 -328h-150z" />
    <glyph glyph-name="Oacute" unicode="&#xd3;" horiz-adv-x="1488" 
d="M1302 330.5q-82 -168.5 -227.5 -259.5t-330.5 -91q-186 0 -331 91t-227 259.5t-82 393.5t82 393.5t227 259.5t331 91q185 0 330.5 -91t227.5 -259.5t82 -393.5t-82 -393.5zM1149 1036q-61 130 -166.5 197t-238.5 67t-238.5 -67t-166.5 -197t-61 -312t61 -312t166.5 -197
t238.5 -67t238.5 67t166.5 197t61 312t-61 312zM840 1924h198l-222 -328h-148z" />
    <glyph glyph-name="Ocircumflex" unicode="&#xd4;" horiz-adv-x="1488" 
d="M1302 330.5q-82 -168.5 -227.5 -259.5t-330.5 -91q-186 0 -331 91t-227 259.5t-82 393.5t82 393.5t227 259.5t331 91q185 0 330.5 -91t227.5 -259.5t82 -393.5t-82 -393.5zM1149 1036q-61 130 -166.5 197t-238.5 67t-238.5 -67t-166.5 -197t-61 -312t61 -312t166.5 -197
t238.5 -67t238.5 67t166.5 197t61 312t-61 312zM742 1774l-146 -196h-164v12l232 294h156l232 -294v-12h-162z" />
    <glyph glyph-name="Otilde" unicode="&#xd5;" horiz-adv-x="1488" 
d="M1302 330.5q-82 -168.5 -227.5 -259.5t-330.5 -91q-186 0 -331 91t-227 259.5t-82 393.5t82 393.5t227 259.5t331 91q185 0 330.5 -91t227.5 -259.5t82 -393.5t-82 -393.5zM1149 1036q-61 130 -166.5 197t-238.5 67t-238.5 -67t-166.5 -197t-61 -312t61 -312t166.5 -197
t238.5 -67t238.5 67t166.5 197t61 312t-61 312zM424.5 1726q28.5 57 78 88.5t109.5 31.5q37 0 65 -11t71 -35q35 -21 62.5 -32.5t59.5 -11.5q41 0 68.5 30.5t27.5 75.5l130 -10q0 -73 -28.5 -128t-78.5 -84.5t-111 -29.5q-45 0 -76 12.5t-66 35.5q-30 21 -55 31.5t-59 10.5
q-40 0 -66 -31t-26 -77l-134 6q0 71 28.5 128z" />
    <glyph glyph-name="Odieresis" unicode="&#xd6;" horiz-adv-x="1488" 
d="M1302 330.5q-82 -168.5 -227.5 -259.5t-330.5 -91q-186 0 -331 91t-227 259.5t-82 393.5t82 393.5t227 259.5t331 91q185 0 330.5 -91t227.5 -259.5t82 -393.5t-82 -393.5zM1149 1036q-61 130 -166.5 197t-238.5 67t-238.5 -67t-166.5 -197t-61 -312t61 -312t166.5 -197
t238.5 -67t238.5 67t166.5 197t61 312t-61 312zM484.5 1644q-26.5 16 -42.5 42.5t-16 55.5q0 48 34 81t80 33q51 0 83.5 -32t32.5 -82q0 -46 -33 -80t-83 -34q-29 0 -55.5 16zM893 1644q-27 16 -43 42.5t-16 55.5q0 49 34.5 81.5t81.5 32.5q48 0 81 -32.5t33 -81.5
q0 -30 -15 -56t-41.5 -42t-57.5 -16q-30 0 -57 16z" />
    <glyph glyph-name="multiply" unicode="&#xd7;" horiz-adv-x="1284" 
d="M188 222l346 346l-346 342l110 112l346 -344l344 344l110 -112l-344 -342l344 -346l-110 -110l-344 344l-346 -344z" />
    <glyph glyph-name="Oslash" unicode="&#xd8;" horiz-adv-x="1488" 
d="M182 14l108 160q-89 99 -137.5 238.5t-48.5 311.5q0 225 82 393.5t227 259.5t331 91q98 0 187 -27t164 -78l95 141l110 -72l-105 -156q90 -99 139.5 -239.5t49.5 -312.5q0 -225 -82 -393.5t-227.5 -259.5t-330.5 -91q-200 0 -354 106l-98 -146zM1180 952q-30 102 -85 176
l-608 -900q110 -80 257 -80q133 0 238.5 67t166.5 197t61 312q0 126 -30 228zM307.5 498q29.5 -101 83.5 -175l608 899q-112 78 -255 78q-133 0 -238.5 -67t-166.5 -197t-61 -312q0 -125 29.5 -226z" />
    <glyph glyph-name="Ugrave" unicode="&#xd9;" horiz-adv-x="1448" 
d="M1288 1448v-958q0 -148 -70 -265.5t-198 -184t-296 -66.5t-296 66.5t-198 184t-70 265.5v958h180v-944q0 -105 46.5 -187t133.5 -128.5t204 -46.5q118 0 204.5 46.5t133 128.5t46.5 187v944h180zM432 1924h200l170 -328h-150z" />
    <glyph glyph-name="Uacute" unicode="&#xda;" horiz-adv-x="1448" 
d="M1288 1448v-958q0 -148 -70 -265.5t-198 -184t-296 -66.5t-296 66.5t-198 184t-70 265.5v958h180v-944q0 -105 46.5 -187t133.5 -128.5t204 -46.5q118 0 204.5 46.5t133 128.5t46.5 187v944h180zM820 1924h198l-222 -328h-148z" />
    <glyph glyph-name="Ucircumflex" unicode="&#xdb;" horiz-adv-x="1448" 
d="M1288 1448v-958q0 -148 -70 -265.5t-198 -184t-296 -66.5t-296 66.5t-198 184t-70 265.5v958h180v-944q0 -105 46.5 -187t133.5 -128.5t204 -46.5q118 0 204.5 46.5t133 128.5t46.5 187v944h180zM722 1774l-146 -196h-164v12l232 294h156l232 -294v-12h-162z" />
    <glyph glyph-name="Udieresis" unicode="&#xdc;" horiz-adv-x="1448" 
d="M1288 1448v-958q0 -148 -70 -265.5t-198 -184t-296 -66.5t-296 66.5t-198 184t-70 265.5v958h180v-944q0 -105 46.5 -187t133.5 -128.5t204 -46.5q118 0 204.5 46.5t133 128.5t46.5 187v944h180zM464.5 1644q-26.5 16 -42.5 42.5t-16 55.5q0 48 34 81t80 33
q51 0 83.5 -32t32.5 -82q0 -46 -33 -80t-83 -34q-29 0 -55.5 16zM873 1644q-27 16 -43 42.5t-16 55.5q0 49 34.5 81.5t81.5 32.5q48 0 81 -32.5t33 -81.5q0 -30 -15 -56t-41.5 -42t-57.5 -16q-30 0 -57 16z" />
    <glyph glyph-name="Yacute" unicode="&#xdd;" horiz-adv-x="1298" 
d="M242 1448l398 -672h18l398 672h208l-524 -854v-594h-182v594l-522 854h206zM746 1924h198l-222 -328h-148z" />
    <glyph glyph-name="Thorn" unicode="&#xde;" horiz-adv-x="1230" 
d="M330 1448v-298h276q151 0 260 -55t165.5 -150t56.5 -213q0 -117 -57 -211.5t-166 -149.5t-259 -55h-276v-316h-182v1448h182zM606 476q150 0 230 66t80 188q0 123 -81 192.5t-229 69.5h-276v-516h276z" />
    <glyph glyph-name="germandbls" unicode="&#xdf;" horiz-adv-x="1190" 
d="M213 1285.5q53 88.5 148.5 135.5t220.5 47q121 0 218 -45.5t152.5 -130.5t55.5 -198q0 -120 -62.5 -205.5t-167.5 -122.5v-14q92 -9 163 -54.5t111 -122.5t40 -177q0 -114 -53 -205t-149 -142t-222 -51h-158v160h158q76 0 133 30t88 84.5t31 125.5q0 74 -34.5 131.5
t-98 90t-147.5 32.5h-126v162h90q68 0 120.5 35t81 93t28.5 124q0 67 -30.5 122t-87.5 86.5t-132 31.5q-72 0 -129.5 -29.5t-90 -82.5t-32.5 -122v-1074h-172v1078q0 119 53 207.5z" />
    <glyph glyph-name="agrave" unicode="&#xe0;" horiz-adv-x="1096" 
d="M201.5 546q115.5 69 292.5 82q68 5 152.5 9.5t141.5 6.5v88q0 105 -62.5 161.5t-183.5 56.5q-99 0 -162 -40.5t-82 -105.5h-180q11 87 68 154t151.5 104.5t212.5 37.5q156 0 282 -79.5t126 -304.5v-716h-170v148h-8q-20 -42 -61.5 -81.5t-108 -66t-154.5 -26.5
q-104 0 -188 40t-133 115.5t-49 178.5q0 169 115.5 238zM320.5 172.5q62.5 -44.5 165.5 -44.5q93 0 161.5 37t104.5 98t36 131v109l-274 -19q-122 -8 -189 -53t-67 -131q0 -83 62.5 -127.5zM276 1562h200l170 -328h-150z" />
    <glyph glyph-name="aacute" unicode="&#xe1;" horiz-adv-x="1096" 
d="M201.5 546q115.5 69 292.5 82q68 5 152.5 9.5t141.5 6.5v88q0 105 -62.5 161.5t-183.5 56.5q-99 0 -162 -40.5t-82 -105.5h-180q11 87 68 154t151.5 104.5t212.5 37.5q156 0 282 -79.5t126 -304.5v-716h-170v148h-8q-20 -42 -61.5 -81.5t-108 -66t-154.5 -26.5
q-104 0 -188 40t-133 115.5t-49 178.5q0 169 115.5 238zM320.5 172.5q62.5 -44.5 165.5 -44.5q93 0 161.5 37t104.5 98t36 131v109l-274 -19q-122 -8 -189 -53t-67 -131q0 -83 62.5 -127.5zM664 1562h198l-222 -328h-148z" />
    <glyph glyph-name="acircumflex" unicode="&#xe2;" horiz-adv-x="1096" 
d="M201.5 546q115.5 69 292.5 82q68 5 152.5 9.5t141.5 6.5v88q0 105 -62.5 161.5t-183.5 56.5q-99 0 -162 -40.5t-82 -105.5h-180q11 87 68 154t151.5 104.5t212.5 37.5q156 0 282 -79.5t126 -304.5v-716h-170v148h-8q-20 -42 -61.5 -81.5t-108 -66t-154.5 -26.5
q-104 0 -188 40t-133 115.5t-49 178.5q0 169 115.5 238zM320.5 172.5q62.5 -44.5 165.5 -44.5q93 0 161.5 37t104.5 98t36 131v109l-274 -19q-122 -8 -189 -53t-67 -131q0 -83 62.5 -127.5zM566 1412l-146 -196h-164v12l232 294h156l232 -294v-12h-162z" />
    <glyph glyph-name="atilde" unicode="&#xe3;" horiz-adv-x="1096" 
d="M201.5 546q115.5 69 292.5 82q68 5 152.5 9.5t141.5 6.5v88q0 105 -62.5 161.5t-183.5 56.5q-99 0 -162 -40.5t-82 -105.5h-180q11 87 68 154t151.5 104.5t212.5 37.5q156 0 282 -79.5t126 -304.5v-716h-170v148h-8q-20 -42 -61.5 -81.5t-108 -66t-154.5 -26.5
q-104 0 -188 40t-133 115.5t-49 178.5q0 169 115.5 238zM320.5 172.5q62.5 -44.5 165.5 -44.5q93 0 161.5 37t104.5 98t36 131v109l-274 -19q-122 -8 -189 -53t-67 -131q0 -83 62.5 -127.5zM246.5 1350q28.5 57 78 88.5t109.5 31.5q37 0 65 -11t71 -35q35 -21 62.5 -32.5
t59.5 -11.5q41 0 68.5 30.5t27.5 75.5l130 -10q0 -73 -28.5 -128t-78.5 -84.5t-111 -29.5q-45 0 -76 12.5t-66 35.5q-30 21 -55 31.5t-59 10.5q-40 0 -66 -31t-26 -77l-134 6q0 71 28.5 128z" />
    <glyph glyph-name="adieresis" unicode="&#xe4;" horiz-adv-x="1096" 
d="M201.5 546q115.5 69 292.5 82q68 5 152.5 9.5t141.5 6.5v88q0 105 -62.5 161.5t-183.5 56.5q-99 0 -162 -40.5t-82 -105.5h-180q11 87 68 154t151.5 104.5t212.5 37.5q156 0 282 -79.5t126 -304.5v-716h-170v148h-8q-20 -42 -61.5 -81.5t-108 -66t-154.5 -26.5
q-104 0 -188 40t-133 115.5t-49 178.5q0 169 115.5 238zM320.5 172.5q62.5 -44.5 165.5 -44.5q93 0 161.5 37t104.5 98t36 131v109l-274 -19q-122 -8 -189 -53t-67 -131q0 -83 62.5 -127.5zM308.5 1282q-26.5 16 -42.5 42.5t-16 55.5q0 48 34 81t80 33q51 0 83.5 -32
t32.5 -82q0 -46 -33 -80t-83 -34q-29 0 -55.5 16zM717 1282q-27 16 -43 42.5t-16 55.5q0 49 34.5 81.5t81.5 32.5q48 0 81 -32.5t33 -81.5q0 -30 -15 -56t-41.5 -42t-57.5 -16q-30 0 -57 16z" />
    <glyph glyph-name="aring" unicode="&#xe5;" horiz-adv-x="1096" 
d="M201.5 546q115.5 69 292.5 82q68 5 152.5 9.5t141.5 6.5v88q0 105 -62.5 161.5t-183.5 56.5q-99 0 -162 -40.5t-82 -105.5h-180q11 87 68 154t151.5 104.5t212.5 37.5q156 0 282 -79.5t126 -304.5v-716h-170v148h-8q-20 -42 -61.5 -81.5t-108 -66t-154.5 -26.5
q-104 0 -188 40t-133 115.5t-49 178.5q0 169 115.5 238zM320.5 172.5q62.5 -44.5 165.5 -44.5q93 0 161.5 37t104.5 98t36 131v109l-274 -19q-122 -8 -189 -53t-67 -131q0 -83 62.5 -127.5zM438.5 1239.5q-58.5 31.5 -92.5 86.5t-34 122q0 66 34 123t93 91t129 34t128.5 -34
t92 -91t33.5 -123q0 -67 -33.5 -122t-91.5 -86.5t-129 -31.5t-129.5 31.5zM637.5 1334.5q30.5 18.5 47.5 49t17 64.5q0 35 -17 67t-47.5 51.5t-69.5 19.5q-38 0 -68.5 -19.5t-48 -51.5t-17.5 -67q0 -34 17.5 -64.5t48 -49t68.5 -18.5q39 0 69.5 18.5z" />
    <glyph glyph-name="ae" unicode="&#xe6;" horiz-adv-x="1812" 
d="M1024 36q-108 58 -161 160h-5q-22 -61 -81 -111.5t-143 -80.5t-178 -30q-104 0 -188 40t-133 115.5t-49 178.5q0 117 59 182.5t146.5 91t202.5 34.5l294 15v101q0 105 -62.5 161.5t-183.5 56.5q-99 0 -162 -40.5t-82 -105.5h-180q11 87 68 154t151.5 104.5t212.5 37.5
q109 0 207.5 -36t151.5 -136q59 83 147 127.5t202 44.5q123 0 229 -54.5t172.5 -176t66.5 -311.5v-72h-786q4 -113 46.5 -193t116.5 -121.5t171 -41.5q99 0 169 42.5t101 125.5l166 -44q-25 -82 -86 -144.5t-150.5 -97t-197.5 -34.5q-144 0 -252 58zM320.5 173
q62.5 -45 165.5 -45q93 0 161.5 37t104.5 98t36 131v95l-274 -19q-125 -8 -190.5 -46.5t-65.5 -121.5q0 -84 62.5 -129zM1552 632q0 91 -36.5 162.5t-103.5 112.5t-154 41q-91 0 -161 -43t-110 -115.5t-46 -157.5h611z" />
    <glyph glyph-name="ccedilla" unicode="&#xe7;" horiz-adv-x="1084" 
d="M147.5 829.5q61.5 127.5 173 199t257.5 71.5q115 0 208 -42.5t151.5 -120t72.5 -179.5h-172q-12 52 -46 95t-87.5 69t-122.5 26q-96 0 -169.5 -50t-114 -141.5t-40.5 -212.5q0 -125 39.5 -218t113 -143.5t171.5 -50.5q97 0 165.5 49.5t90.5 138.5h172q-13 -90 -62 -163.5
t-129 -120t-184 -56.5l-5 -30q63 -10 105.5 -51t42.5 -117q0 -62 -34.5 -109t-102 -73t-163.5 -26l-6 112q71 0 112.5 22t41.5 68q0 32 -15.5 50t-47.5 27.5t-89 14.5l24 116q-127 19 -220 94t-142.5 194t-49.5 266q0 164 61.5 291.5z" />
    <glyph glyph-name="egrave" unicode="&#xe8;" horiz-adv-x="1132" 
d="M324 47q-115 69 -176.5 195t-61.5 292t61.5 294.5t173 200t257.5 71.5q123 0 229 -54.5t172.5 -176t66.5 -311.5v-72h-788q4 -113 47 -193t117.5 -121.5t171.5 -41.5q92 0 155.5 34.5t96.5 89.5h184q-26 -82 -86.5 -144.5t-150 -97t-199.5 -34.5q-155 0 -270 69zM872 632
q0 91 -36.5 162.5t-103.5 112.5t-154 41q-91 0 -161.5 -43t-111 -115.5t-46.5 -157.5h613zM276 1562h200l170 -328h-150z" />
    <glyph glyph-name="eacute" unicode="&#xe9;" horiz-adv-x="1132" 
d="M324 47q-115 69 -176.5 195t-61.5 292t61.5 294.5t173 200t257.5 71.5q123 0 229 -54.5t172.5 -176t66.5 -311.5v-72h-788q4 -113 47 -193t117.5 -121.5t171.5 -41.5q92 0 155.5 34.5t96.5 89.5h184q-26 -82 -86.5 -144.5t-150 -97t-199.5 -34.5q-155 0 -270 69zM872 632
q0 91 -36.5 162.5t-103.5 112.5t-154 41q-91 0 -161.5 -43t-111 -115.5t-46.5 -157.5h613zM664 1562h198l-222 -328h-148z" />
    <glyph glyph-name="ecircumflex" unicode="&#xea;" horiz-adv-x="1132" 
d="M324 47q-115 69 -176.5 195t-61.5 292t61.5 294.5t173 200t257.5 71.5q123 0 229 -54.5t172.5 -176t66.5 -311.5v-72h-788q4 -113 47 -193t117.5 -121.5t171.5 -41.5q92 0 155.5 34.5t96.5 89.5h184q-26 -82 -86.5 -144.5t-150 -97t-199.5 -34.5q-155 0 -270 69zM872 632
q0 91 -36.5 162.5t-103.5 112.5t-154 41q-91 0 -161.5 -43t-111 -115.5t-46.5 -157.5h613zM566 1412l-146 -196h-164v12l232 294h156l232 -294v-12h-162z" />
    <glyph glyph-name="edieresis" unicode="&#xeb;" horiz-adv-x="1132" 
d="M324 47q-115 69 -176.5 195t-61.5 292t61.5 294.5t173 200t257.5 71.5q123 0 229 -54.5t172.5 -176t66.5 -311.5v-72h-788q4 -113 47 -193t117.5 -121.5t171.5 -41.5q92 0 155.5 34.5t96.5 89.5h184q-26 -82 -86.5 -144.5t-150 -97t-199.5 -34.5q-155 0 -270 69zM872 632
q0 91 -36.5 162.5t-103.5 112.5t-154 41q-91 0 -161.5 -43t-111 -115.5t-46.5 -157.5h613zM308.5 1282q-26.5 16 -42.5 42.5t-16 55.5q0 48 34 81t80 33q51 0 83.5 -32t32.5 -82q0 -46 -33 -80t-83 -34q-29 0 -55.5 16zM717 1282q-27 16 -43 42.5t-16 55.5q0 49 34.5 81.5
t81.5 32.5q48 0 81 -32.5t33 -81.5q0 -30 -15 -56t-41.5 -42t-57.5 -16q-30 0 -57 16z" />
    <glyph glyph-name="igrave" unicode="&#xec;" horiz-adv-x="446" 
d="M138 1086h172v-1086h-172v1086zM-68 1562h200l170 -328h-150z" />
    <glyph glyph-name="iacute" unicode="&#xed;" horiz-adv-x="446" 
d="M138 1086h172v-1086h-172v1086zM320 1562h198l-222 -328h-148z" />
    <glyph glyph-name="icircumflex" unicode="&#xee;" horiz-adv-x="446" 
d="M138 1086h172v-1086h-172v1086zM222 1412l-146 -196h-164v12l232 294h156l232 -294v-12h-162z" />
    <glyph glyph-name="idieresis" unicode="&#xef;" horiz-adv-x="446" 
d="M138 1086h172v-1086h-172v1086zM-35.5 1282q-26.5 16 -42.5 42.5t-16 55.5q0 48 34 81t80 33q51 0 83.5 -32t32.5 -82q0 -46 -33 -80t-83 -34q-29 0 -55.5 16zM373 1282q-27 16 -43 42.5t-16 55.5q0 49 34.5 81.5t81.5 32.5q48 0 81 -32.5t33 -81.5q0 -30 -15 -56
t-41.5 -42t-57.5 -16q-30 0 -57 16z" />
    <glyph glyph-name="eth" unicode="&#xf0;" horiz-adv-x="1128" 
d="M726 1282q144 -149 229 -338t85 -410q0 -174 -58.5 -299t-166 -191t-251.5 -66q-143 0 -251.5 66.5t-167.5 184.5t-59 269q0 150 57.5 268.5t157 185t219.5 66.5q112 0 190.5 -53t123.5 -129h14q-77 215 -253 382l-255 -124l-46 106l204 99q-89 67 -192 119l72 120
q139 -70 258 -172l242 118l46 -106zM733.5 177q70.5 47 106.5 128t36 183q0 97 -33.5 186t-104 145.5t-174.5 56.5q-98 0 -167 -50.5t-104 -136t-35 -189.5q0 -101 33 -185t102 -134.5t171 -50.5q99 0 169.5 47z" />
    <glyph glyph-name="ntilde" unicode="&#xf1;" horiz-adv-x="1140" 
d="M310 0h-172v1086h166v-170h14q41 87 119.5 135.5t198.5 48.5q112 0 194 -45.5t127 -137.5t45 -227v-690h-172v678q0 126 -65 197t-181 71q-80 0 -142 -34.5t-97 -101t-35 -158.5v-652zM248.5 1350q28.5 57 78 88.5t109.5 31.5q37 0 65 -11t71 -35q35 -21 62.5 -32.5
t59.5 -11.5q41 0 68.5 30.5t27.5 75.5l130 -10q0 -73 -28.5 -128t-78.5 -84.5t-111 -29.5q-45 0 -76 12.5t-66 35.5q-30 21 -55 31.5t-59 10.5q-40 0 -66 -31t-26 -77l-134 6q0 71 28.5 128z" />
    <glyph glyph-name="ograve" unicode="&#xf2;" horiz-adv-x="1162" 
d="M322.5 47.5q-112.5 69.5 -174.5 196.5t-62 294t62 294.5t174.5 197.5t259.5 70q146 0 257.5 -70t173 -197.5t61.5 -294.5t-61.5 -294t-173 -196.5t-257.5 -69.5q-147 0 -259.5 69.5zM759 185.5q72 55.5 107.5 148t35.5 204.5t-35.5 205t-107.5 149t-177 56
q-107 0 -179.5 -56t-108.5 -149t-36 -205t36 -204.5t108.5 -148t179.5 -55.5q105 0 177 55.5zM290 1562h200l170 -328h-150z" />
    <glyph glyph-name="oacute" unicode="&#xf3;" horiz-adv-x="1162" 
d="M322.5 47.5q-112.5 69.5 -174.5 196.5t-62 294t62 294.5t174.5 197.5t259.5 70q146 0 257.5 -70t173 -197.5t61.5 -294.5t-61.5 -294t-173 -196.5t-257.5 -69.5q-147 0 -259.5 69.5zM759 185.5q72 55.5 107.5 148t35.5 204.5t-35.5 205t-107.5 149t-177 56
q-107 0 -179.5 -56t-108.5 -149t-36 -205t36 -204.5t108.5 -148t179.5 -55.5q105 0 177 55.5zM678 1562h198l-222 -328h-148z" />
    <glyph glyph-name="ocircumflex" unicode="&#xf4;" horiz-adv-x="1162" 
d="M322.5 47.5q-112.5 69.5 -174.5 196.5t-62 294t62 294.5t174.5 197.5t259.5 70q146 0 257.5 -70t173 -197.5t61.5 -294.5t-61.5 -294t-173 -196.5t-257.5 -69.5q-147 0 -259.5 69.5zM759 185.5q72 55.5 107.5 148t35.5 204.5t-35.5 205t-107.5 149t-177 56
q-107 0 -179.5 -56t-108.5 -149t-36 -205t36 -204.5t108.5 -148t179.5 -55.5q105 0 177 55.5zM580 1412l-146 -196h-164v12l232 294h156l232 -294v-12h-162z" />
    <glyph glyph-name="otilde" unicode="&#xf5;" horiz-adv-x="1162" 
d="M322.5 47.5q-112.5 69.5 -174.5 196.5t-62 294t62 294.5t174.5 197.5t259.5 70q146 0 257.5 -70t173 -197.5t61.5 -294.5t-61.5 -294t-173 -196.5t-257.5 -69.5q-147 0 -259.5 69.5zM759 185.5q72 55.5 107.5 148t35.5 204.5t-35.5 205t-107.5 149t-177 56
q-107 0 -179.5 -56t-108.5 -149t-36 -205t36 -204.5t108.5 -148t179.5 -55.5q105 0 177 55.5zM260.5 1350q28.5 57 78 88.5t109.5 31.5q37 0 65 -11t71 -35q35 -21 62.5 -32.5t59.5 -11.5q41 0 68.5 30.5t27.5 75.5l130 -10q0 -73 -28.5 -128t-78.5 -84.5t-111 -29.5
q-45 0 -76 12.5t-66 35.5q-30 21 -55 31.5t-59 10.5q-40 0 -66 -31t-26 -77l-134 6q0 71 28.5 128z" />
    <glyph glyph-name="odieresis" unicode="&#xf6;" horiz-adv-x="1162" 
d="M322.5 47.5q-112.5 69.5 -174.5 196.5t-62 294t62 294.5t174.5 197.5t259.5 70q146 0 257.5 -70t173 -197.5t61.5 -294.5t-61.5 -294t-173 -196.5t-257.5 -69.5q-147 0 -259.5 69.5zM759 185.5q72 55.5 107.5 148t35.5 204.5t-35.5 205t-107.5 149t-177 56
q-107 0 -179.5 -56t-108.5 -149t-36 -205t36 -204.5t108.5 -148t179.5 -55.5q105 0 177 55.5zM322.5 1282q-26.5 16 -42.5 42.5t-16 55.5q0 48 34 81t80 33q51 0 83.5 -32t32.5 -82q0 -46 -33 -80t-83 -34q-29 0 -55.5 16zM731 1282q-27 16 -43 42.5t-16 55.5
q0 49 34.5 81.5t81.5 32.5q48 0 81 -32.5t33 -81.5q0 -30 -15 -56t-41.5 -42t-57.5 -16q-30 0 -57 16z" />
    <glyph glyph-name="divide" unicode="&#xf7;" horiz-adv-x="1284" 
d="M1098 486h-910v162h910v-162zM579 87.5q-30 17.5 -47.5 47.5t-17.5 65q0 34 17.5 63t47.5 46t65 17q33 0 62 -17.5t46.5 -46.5t17.5 -62q0 -35 -17 -65t-46 -47.5t-63 -17.5q-35 0 -65 17.5zM552 843q-38 37 -38 91q0 34 17.5 63t47.5 46t65 17q34 0 63 -17t46 -46
t17 -63q0 -35 -17 -64.5t-46 -46.5t-63 -17q-54 0 -92 37z" />
    <glyph glyph-name="oslash" unicode="&#xf8;" horiz-adv-x="1162" 
d="M146 14l78 116q-67 74 -102.5 178t-35.5 230q0 167 62 294.5t174.5 197.5t259.5 70q141 0 252 -66l70 104l108 -74l-77 -114q67 -75 103 -180t36 -232q0 -167 -61.5 -294t-173 -196.5t-257.5 -69.5q-144 0 -257 68l-71 -106zM759 185.5q72 55.5 107.5 148t35.5 204.5
q0 76 -16.5 144t-48.5 122l-423 -627q72 -47 168 -47q105 0 177 55.5zM322 275l423 627q-71 46 -163 46q-107 0 -179.5 -56t-108.5 -149t-36 -205q0 -154 64 -263z" />
    <glyph glyph-name="ugrave" unicode="&#xf9;" horiz-adv-x="1132" 
d="M824 1086h170v-1086h-170v184h-12q-42 -89 -123.5 -143.5t-198.5 -54.5q-105 0 -184 45.5t-123.5 137.5t-44.5 227v690h172v-678q0 -77 30 -135t83.5 -89.5t122.5 -31.5q65 0 129.5 33t106.5 99.5t42 161.5v640zM276 1562h200l170 -328h-150z" />
    <glyph glyph-name="uacute" unicode="&#xfa;" horiz-adv-x="1132" 
d="M824 1086h170v-1086h-170v184h-12q-42 -89 -123.5 -143.5t-198.5 -54.5q-105 0 -184 45.5t-123.5 137.5t-44.5 227v690h172v-678q0 -77 30 -135t83.5 -89.5t122.5 -31.5q65 0 129.5 33t106.5 99.5t42 161.5v640zM664 1562h198l-222 -328h-148z" />
    <glyph glyph-name="ucircumflex" unicode="&#xfb;" horiz-adv-x="1132" 
d="M824 1086h170v-1086h-170v184h-12q-42 -89 -123.5 -143.5t-198.5 -54.5q-105 0 -184 45.5t-123.5 137.5t-44.5 227v690h172v-678q0 -77 30 -135t83.5 -89.5t122.5 -31.5q65 0 129.5 33t106.5 99.5t42 161.5v640zM566 1412l-146 -196h-164v12l232 294h156l232 -294v-12
h-162z" />
    <glyph glyph-name="udieresis" unicode="&#xfc;" horiz-adv-x="1132" 
d="M824 1086h170v-1086h-170v184h-12q-42 -89 -123.5 -143.5t-198.5 -54.5q-105 0 -184 45.5t-123.5 137.5t-44.5 227v690h172v-678q0 -77 30 -135t83.5 -89.5t122.5 -31.5q65 0 129.5 33t106.5 99.5t42 161.5v640zM308.5 1282q-26.5 16 -42.5 42.5t-16 55.5q0 48 34 81
t80 33q51 0 83.5 -32t32.5 -82q0 -46 -33 -80t-83 -34q-29 0 -55.5 16zM717 1282q-27 16 -43 42.5t-16 55.5q0 49 34.5 81.5t81.5 32.5q48 0 81 -32.5t33 -81.5q0 -30 -15 -56t-41.5 -42t-57.5 -16q-30 0 -57 16z" />
    <glyph glyph-name="yacute" unicode="&#xfd;" horiz-adv-x="1084" 
d="M152 -404v154q36 -4 84 -4q43 0 72 9t58 44.5t56 110.5l32 82l-402 1094h188l296 -862h12l296 862h188l-460 -1242q-48 -127 -128 -189.5t-196 -62.5q-52 0 -96 4zM638 1562h198l-222 -328h-148z" />
    <glyph glyph-name="thorn" unicode="&#xfe;" horiz-adv-x="1186" 
d="M310 1448v-532h14q32 51 62 86.5t92.5 66.5t157.5 31q136 0 241 -68.5t163 -195t58 -296.5t-58 -297.5t-161.5 -196t-238.5 -68.5q-95 0 -158.5 31t-96.5 69.5t-61 87.5h-14v-574h-172v1856h172zM892 750q-35 91 -105.5 143.5t-172.5 52.5q-99 0 -168 -50t-104.5 -140.5
t-35.5 -211.5q0 -123 35.5 -216t105 -144.5t167.5 -51.5q100 0 171 53.5t106.5 147t34.5 211.5q1 115 -34 206z" />
    <glyph glyph-name="ydieresis" unicode="&#xff;" horiz-adv-x="1084" 
d="M152 -404v154q36 -4 84 -4q43 0 72 9t58 44.5t56 110.5l32 82l-402 1094h188l296 -862h12l296 862h188l-460 -1242q-48 -127 -128 -189.5t-196 -62.5q-52 0 -96 4zM282.5 1282q-26.5 16 -42.5 42.5t-16 55.5q0 48 34 81t80 33q51 0 83.5 -32t32.5 -82q0 -46 -33 -80
t-83 -34q-29 0 -55.5 16zM691 1282q-27 16 -43 42.5t-16 55.5q0 49 34.5 81.5t81.5 32.5q48 0 81 -32.5t33 -81.5q0 -30 -15 -56t-41.5 -42t-57.5 -16q-30 0 -57 16z" />
    <glyph glyph-name="Amacron" unicode="&#x100;" horiz-adv-x="1322" 
d="M36 0l530 1448h190l530 -1448h-190l-145 408h-582l-145 -408h-188zM896 566l-230 648h-12l-230 -648h472zM992 1668h-664v142h664v-142z" />
    <glyph glyph-name="amacron" unicode="&#x101;" horiz-adv-x="1096" 
d="M201.5 546q115.5 69 292.5 82q68 5 152.5 9.5t141.5 6.5v88q0 105 -62.5 161.5t-183.5 56.5q-99 0 -162 -40.5t-82 -105.5h-180q11 87 68 154t151.5 104.5t212.5 37.5q156 0 282 -79.5t126 -304.5v-716h-170v148h-8q-20 -42 -61.5 -81.5t-108 -66t-154.5 -26.5
q-104 0 -188 40t-133 115.5t-49 178.5q0 169 115.5 238zM320.5 172.5q62.5 -44.5 165.5 -44.5q93 0 161.5 37t104.5 98t36 131v109l-274 -19q-122 -8 -189 -53t-67 -131q0 -83 62.5 -127.5zM900 1306h-664v142h664v-142z" />
    <glyph glyph-name="Abreve" unicode="&#x102;" horiz-adv-x="1322" 
d="M36 0l530 1448h190l530 -1448h-190l-145 408h-582l-145 -408h-188zM896 566l-230 648h-12l-230 -648h472zM921.5 1675q-36.5 -59 -104 -92t-157.5 -33q-89 0 -155.5 33t-102.5 92t-36 135h158q0 -59 33.5 -97.5t102.5 -38.5q70 0 104 38.5t34 97.5h160q0 -76 -36.5 -135z
" />
    <glyph glyph-name="abreve" unicode="&#x103;" horiz-adv-x="1096" 
d="M201.5 546q115.5 69 292.5 82q68 5 152.5 9.5t141.5 6.5v88q0 105 -62.5 161.5t-183.5 56.5q-99 0 -162 -40.5t-82 -105.5h-180q11 87 68 154t151.5 104.5t212.5 37.5q156 0 282 -79.5t126 -304.5v-716h-170v148h-8q-20 -42 -61.5 -81.5t-108 -66t-154.5 -26.5
q-104 0 -188 40t-133 115.5t-49 178.5q0 169 115.5 238zM320.5 172.5q62.5 -44.5 165.5 -44.5q93 0 161.5 37t104.5 98t36 131v109l-274 -19q-122 -8 -189 -53t-67 -131q0 -83 62.5 -127.5zM829.5 1313q-36.5 -59 -104 -92t-157.5 -33q-89 0 -155.5 33t-102.5 92t-36 135
h158q0 -59 33.5 -97.5t102.5 -38.5q70 0 104 38.5t34 97.5h160q0 -76 -36.5 -135z" />
    <glyph glyph-name="Aogonek" unicode="&#x104;" horiz-adv-x="1322" 
d="M36 0l530 1448h190l530 -1448q-76 -54 -119 -104.5t-43 -107.5q0 -34 16.5 -51t57.5 -17q46 0 94 24l12 -124q-26 -18 -64.5 -30t-85.5 -12q-90 0 -146.5 48.5t-57.5 137.5q0 64 35.5 124t110.5 112l-145 408h-582l-145 -408h-188zM896 566l-230 648h-12l-230 -648h472z
" />
    <glyph glyph-name="aogonek" unicode="&#x105;" horiz-adv-x="1096" 
d="M681.5 -373.5q-56.5 48.5 -57.5 137.5q0 67 40 130.5t124 117.5v136h-8q-20 -42 -61.5 -81.5t-108 -66t-154.5 -26.5q-104 0 -188 40t-133 115.5t-49 178.5q0 169 115.5 238t292.5 82q68 5 152.5 9.5t141.5 6.5v88q0 105 -62.5 161.5t-183.5 56.5q-99 0 -162 -40.5
t-82 -105.5h-180q11 87 68 154t151.5 104.5t212.5 37.5q156 0 282 -79.5t126 -304.5v-715l2 -1q-76 -54 -119 -104.5t-43 -107.5q0 -34 16.5 -51t57.5 -17q46 0 94 24l12 -124q-26 -18 -64.5 -30t-85.5 -12q-90 0 -146.5 48.5zM320.5 172.5q62.5 -44.5 165.5 -44.5
q93 0 161.5 37t104.5 98t36 131v109l-274 -19q-122 -8 -189 -53t-67 -131q0 -83 62.5 -127.5z" />
    <glyph glyph-name="Cacute" unicode="&#x106;" horiz-adv-x="1420" 
d="M1068.5 1158.5q-59.5 69.5 -144 105.5t-180.5 36q-133 0 -238.5 -67t-166.5 -197t-61 -312t61 -312t166.5 -197t238.5 -67q96 0 180 35.5t143.5 105t80.5 165.5h180q-26 -145 -108 -252.5t-205.5 -164.5t-270.5 -57q-186 0 -331 91t-227 259.5t-82 393.5t82 393.5
t227 259.5t331 91q146 0 269.5 -57t206 -164.5t108.5 -254.5h-180q-20 97 -79.5 166.5zM840 1924h198l-222 -328h-148z" />
    <glyph glyph-name="cacute" unicode="&#x107;" horiz-adv-x="1084" 
d="M318.5 49.5q-112.5 71.5 -172.5 198.5t-60 290q0 164 61.5 291.5t173 199t257.5 71.5q115 0 208 -42.5t151.5 -120t72.5 -179.5h-172q-12 52 -46 95t-87.5 69t-122.5 26q-96 0 -169.5 -50t-114 -141.5t-40.5 -212.5q0 -125 39.5 -218t113 -143.5t171.5 -50.5
q97 0 165.5 49.5t90.5 138.5h172q-14 -98 -70 -175.5t-148 -122t-210 -44.5q-151 0 -263.5 71.5zM672 1562h198l-222 -328h-148z" />
    <glyph glyph-name="Ccircumflex" unicode="&#x108;" horiz-adv-x="1420" 
d="M1068.5 1158.5q-59.5 69.5 -144 105.5t-180.5 36q-133 0 -238.5 -67t-166.5 -197t-61 -312t61 -312t166.5 -197t238.5 -67q96 0 180 35.5t143.5 105t80.5 165.5h180q-26 -145 -108 -252.5t-205.5 -164.5t-270.5 -57q-186 0 -331 91t-227 259.5t-82 393.5t82 393.5
t227 259.5t331 91q146 0 269.5 -57t206 -164.5t108.5 -254.5h-180q-20 97 -79.5 166.5zM742 1774l-146 -196h-164v12l232 294h156l232 -294v-12h-162z" />
    <glyph glyph-name="ccircumflex" unicode="&#x109;" horiz-adv-x="1084" 
d="M318.5 49.5q-112.5 71.5 -172.5 198.5t-60 290q0 164 61.5 291.5t173 199t257.5 71.5q115 0 208 -42.5t151.5 -120t72.5 -179.5h-172q-12 52 -46 95t-87.5 69t-122.5 26q-96 0 -169.5 -50t-114 -141.5t-40.5 -212.5q0 -125 39.5 -218t113 -143.5t171.5 -50.5
q97 0 165.5 49.5t90.5 138.5h172q-14 -98 -70 -175.5t-148 -122t-210 -44.5q-151 0 -263.5 71.5zM574 1412l-146 -196h-164v12l232 294h156l232 -294v-12h-162z" />
    <glyph glyph-name="Cdotaccent" unicode="&#x10a;" horiz-adv-x="1420" 
d="M1068.5 1158.5q-59.5 69.5 -144 105.5t-180.5 36q-133 0 -238.5 -67t-166.5 -197t-61 -312t61 -312t166.5 -197t238.5 -67q96 0 180 35.5t143.5 105t80.5 165.5h180q-26 -145 -108 -252.5t-205.5 -164.5t-270.5 -57q-186 0 -331 91t-227 259.5t-82 393.5t82 393.5
t227 259.5t331 91q146 0 269.5 -57t206 -164.5t108.5 -254.5h-180q-20 97 -79.5 166.5zM659 1661q-35 33 -35 81t35 81t85 33t86 -33t36 -81t-36 -81t-86 -33t-85 33z" />
    <glyph glyph-name="cdotaccent" unicode="&#x10b;" horiz-adv-x="1084" 
d="M318.5 49.5q-112.5 71.5 -172.5 198.5t-60 290q0 164 61.5 291.5t173 199t257.5 71.5q115 0 208 -42.5t151.5 -120t72.5 -179.5h-172q-12 52 -46 95t-87.5 69t-122.5 26q-96 0 -169.5 -50t-114 -141.5t-40.5 -212.5q0 -125 39.5 -218t113 -143.5t171.5 -50.5
q97 0 165.5 49.5t90.5 138.5h172q-14 -98 -70 -175.5t-148 -122t-210 -44.5q-151 0 -263.5 71.5zM491 1299q-35 33 -35 81t35 81t85 33t86 -33t36 -81t-36 -81t-86 -33t-85 33z" />
    <glyph glyph-name="Ccaron" unicode="&#x10c;" horiz-adv-x="1420" 
d="M1068.5 1158.5q-59.5 69.5 -144 105.5t-180.5 36q-133 0 -238.5 -67t-166.5 -197t-61 -312t61 -312t166.5 -197t238.5 -67q96 0 180 35.5t143.5 105t80.5 165.5h180q-26 -145 -108 -252.5t-205.5 -164.5t-270.5 -57q-186 0 -331 91t-227 259.5t-82 393.5t82 393.5
t227 259.5t331 91q146 0 269.5 -57t206 -164.5t108.5 -254.5h-180q-20 97 -79.5 166.5zM744 1688l146 196h164v-12l-232 -294h-156l-232 294v12h162z" />
    <glyph glyph-name="ccaron" unicode="&#x10d;" horiz-adv-x="1084" 
d="M318.5 49.5q-112.5 71.5 -172.5 198.5t-60 290q0 164 61.5 291.5t173 199t257.5 71.5q115 0 208 -42.5t151.5 -120t72.5 -179.5h-172q-12 52 -46 95t-87.5 69t-122.5 26q-96 0 -169.5 -50t-114 -141.5t-40.5 -212.5q0 -125 39.5 -218t113 -143.5t171.5 -50.5
q97 0 165.5 49.5t90.5 138.5h172q-14 -98 -70 -175.5t-148 -122t-210 -44.5q-151 0 -263.5 71.5zM576 1326l146 196h164v-12l-232 -294h-156l-232 294v12h162z" />
    <glyph glyph-name="Dcaron" unicode="&#x10e;" horiz-adv-x="1404" 
d="M160 0v1448h468q209 0 360.5 -86.5t231.5 -249t80 -386.5q0 -226 -81 -389t-236 -250t-373 -87h-450zM598 160q262 0 394 148t132 418q0 267 -129 414.5t-379 147.5h-276v-1128h258zM586 1688l146 196h164v-12l-232 -294h-156l-232 294v12h162z" />
    <glyph glyph-name="dcaron" unicode="&#x10f;" horiz-adv-x="1322" 
d="M308.5 47q-104.5 69 -163.5 196.5t-59 296.5t59 296t164 195.5t241 68.5q96 0 159 -31.5t93 -67t62 -87.5h12v534h174v-1448h-168v166h-18q-34 -53 -64.5 -89t-93.5 -67.5t-158 -31.5q-135 0 -239.5 69zM739 183.5q70 51.5 106.5 145t36.5 215.5q0 121 -35.5 211.5
t-105.5 140.5t-169 50q-101 0 -171 -52.5t-105.5 -143.5t-35.5 -206q0 -118 35.5 -211.5t106 -147t170.5 -53.5q97 0 167 51.5zM1188 1516h174l-50 -366h-124v366z" />
    <glyph glyph-name="Dcroat" unicode="&#x110;" horiz-adv-x="1404" 
d="M160 0v682h-222v132h222v634h468q209 0 360.5 -86.5t231.5 -249t80 -386.5q0 -226 -81 -389t-236 -250t-373 -87h-450zM598 160q262 0 394 148t132 418q0 267 -129 414.5t-379 147.5h-276v-474h224v-132h-224v-522h258z" />
    <glyph glyph-name="dcroat" unicode="&#x111;" horiz-adv-x="1210" 
d="M308.5 47q-104.5 69 -163.5 196.5t-59 296.5t59 296t164 195.5t241 68.5q96 0 159 -31.5t93 -67t62 -87.5h12v266h-296v132h296v136h174v-136h156v-132h-156v-1180h-168v166h-18q-34 -53 -64.5 -89t-93.5 -67.5t-158 -31.5q-135 0 -239.5 69zM739 183.5
q70 51.5 106.5 145t36.5 215.5q0 121 -35.5 211.5t-105.5 140.5t-169 50q-101 0 -171 -52.5t-105.5 -143.5t-35.5 -206q0 -118 35.5 -211.5t106 -147t170.5 -53.5q97 0 167 51.5z" />
    <glyph glyph-name="Emacron" unicode="&#x112;" horiz-adv-x="1162" 
d="M160 1448h878v-160h-698v-484h652v-158h-652v-486h708v-160h-888v1448zM928 1668h-664v142h664v-142z" />
    <glyph glyph-name="emacron" unicode="&#x113;" horiz-adv-x="1132" 
d="M324 47q-115 69 -176.5 195t-61.5 292t61.5 294.5t173 200t257.5 71.5q123 0 229 -54.5t172.5 -176t66.5 -311.5v-72h-788q4 -113 47 -193t117.5 -121.5t171.5 -41.5q92 0 155.5 34.5t96.5 89.5h184q-26 -82 -86.5 -144.5t-150 -97t-199.5 -34.5q-155 0 -270 69zM872 632
q0 91 -36.5 162.5t-103.5 112.5t-154 41q-91 0 -161.5 -43t-111 -115.5t-46.5 -157.5h613zM900 1306h-664v142h664v-142z" />
    <glyph glyph-name="Ebreve" unicode="&#x114;" horiz-adv-x="1162" 
d="M160 1448h878v-160h-698v-484h652v-158h-652v-486h708v-160h-888v1448zM857.5 1675q-36.5 -59 -104 -92t-157.5 -33q-89 0 -155.5 33t-102.5 92t-36 135h158q0 -59 33.5 -97.5t102.5 -38.5q70 0 104 38.5t34 97.5h160q0 -76 -36.5 -135z" />
    <glyph glyph-name="ebreve" unicode="&#x115;" horiz-adv-x="1132" 
d="M324 47q-115 69 -176.5 195t-61.5 292t61.5 294.5t173 200t257.5 71.5q123 0 229 -54.5t172.5 -176t66.5 -311.5v-72h-788q4 -113 47 -193t117.5 -121.5t171.5 -41.5q92 0 155.5 34.5t96.5 89.5h184q-26 -82 -86.5 -144.5t-150 -97t-199.5 -34.5q-155 0 -270 69zM872 632
q0 91 -36.5 162.5t-103.5 112.5t-154 41q-91 0 -161.5 -43t-111 -115.5t-46.5 -157.5h613zM829.5 1313q-36.5 -59 -104 -92t-157.5 -33q-89 0 -155.5 33t-102.5 92t-36 135h158q0 -59 33.5 -97.5t102.5 -38.5q70 0 104 38.5t34 97.5h160q0 -76 -36.5 -135z" />
    <glyph glyph-name="Edotaccent" unicode="&#x116;" horiz-adv-x="1162" 
d="M160 1448h878v-160h-698v-484h652v-158h-652v-486h708v-160h-888v1448zM511 1661q-35 33 -35 81t35 81t85 33t86 -33t36 -81t-36 -81t-86 -33t-85 33z" />
    <glyph glyph-name="edotaccent" unicode="&#x117;" horiz-adv-x="1132" 
d="M324 47q-115 69 -176.5 195t-61.5 292t61.5 294.5t173 200t257.5 71.5q123 0 229 -54.5t172.5 -176t66.5 -311.5v-72h-788q4 -113 47 -193t117.5 -121.5t171.5 -41.5q92 0 155.5 34.5t96.5 89.5h184q-26 -82 -86.5 -144.5t-150 -97t-199.5 -34.5q-155 0 -270 69zM872 632
q0 91 -36.5 162.5t-103.5 112.5t-154 41q-91 0 -161.5 -43t-111 -115.5t-46.5 -157.5h613zM483 1299q-35 33 -35 81t35 81t85 33t86 -33t36 -81t-36 -81t-86 -33t-85 33z" />
    <glyph glyph-name="Eogonek" unicode="&#x118;" horiz-adv-x="1162" 
d="M160 1448h878v-160h-698v-484h652v-158h-652v-486h708v-160q-76 -54 -119 -104.5t-43 -107.5q0 -34 16.5 -51t57.5 -17q46 0 94 24l12 -124q-26 -18 -64.5 -30t-85.5 -12q-90 0 -146.5 48.5t-57.5 137.5q0 64 35.5 124t111.5 112h-699v1448z" />
    <glyph glyph-name="eogonek" unicode="&#x119;" horiz-adv-x="1132" 
d="M457.5 -371.5q-56.5 48.5 -57.5 137.5q0 57 29.5 112.5t90.5 103.5q-134 16 -232 88.5t-150 191.5t-52 272q0 166 61.5 294.5t173 200t257.5 71.5q123 0 229 -54.5t172.5 -176t66.5 -311.5v-72h-788q4 -113 47 -193t117.5 -121.5t171.5 -41.5q92 0 155.5 34.5t96.5 89.5
h184q-32 -99 -112.5 -168.5t-196.5 -94.5q-68 -50 -107.5 -98.5t-39.5 -102.5q0 -34 16.5 -51t57.5 -17q46 0 94 24l12 -124q-26 -18 -64.5 -30t-85.5 -12q-90 0 -146.5 48.5zM872 632q0 91 -36.5 162.5t-103.5 112.5t-154 41q-91 0 -161.5 -43t-111 -115.5t-46.5 -157.5
h613z" />
    <glyph glyph-name="Ecaron" unicode="&#x11a;" horiz-adv-x="1162" 
d="M160 1448h878v-160h-698v-484h652v-158h-652v-486h708v-160h-888v1448zM596 1688l146 196h164v-12l-232 -294h-156l-232 294v12h162z" />
    <glyph glyph-name="ecaron" unicode="&#x11b;" horiz-adv-x="1132" 
d="M324 47q-115 69 -176.5 195t-61.5 292t61.5 294.5t173 200t257.5 71.5q123 0 229 -54.5t172.5 -176t66.5 -311.5v-72h-788q4 -113 47 -193t117.5 -121.5t171.5 -41.5q92 0 155.5 34.5t96.5 89.5h184q-26 -82 -86.5 -144.5t-150 -97t-199.5 -34.5q-155 0 -270 69zM872 632
q0 91 -36.5 162.5t-103.5 112.5t-154 41q-91 0 -161.5 -43t-111 -115.5t-46.5 -157.5h613zM568 1326l146 196h164v-12l-232 -294h-156l-232 294v12h162z" />
    <glyph glyph-name="Gcircumflex" unicode="&#x11c;" horiz-adv-x="1452" 
d="M994.5 1219.5q-105.5 80.5 -256.5 80.5q-130 0 -234.5 -67t-165 -197t-60.5 -312t61 -312t168 -197t243 -67q122 0 215.5 51.5t146 147t54.5 221.5h-378v158h554v-156q0 -177 -76 -311t-210.5 -206.5t-305.5 -72.5q-192 0 -338.5 90.5t-227 259t-80.5 394.5
q0 225 80.5 393.5t224.5 259.5t329 91q151 0 277 -59.5t209 -166.5t110 -246h-186q-48 143 -153.5 223.5zM736 1774l-146 -196h-164v12l232 294h156l232 -294v-12h-162z" />
    <glyph glyph-name="gcircumflex" unicode="&#x11d;" horiz-adv-x="1186" 
d="M346.5 -393q-100.5 37 -159.5 108t-69 171h180q18 -82 90.5 -124t189.5 -42q144 0 222 64t78 196v220h-14q-29 -49 -61 -86t-95.5 -67.5t-159.5 -30.5q-133 0 -238 65t-164.5 187.5t-59.5 289.5q0 164 59 287t164 189t241 66q95 0 158.5 -31t91 -63.5t68.5 -91.5h14v172
h168v-1116q0 -135 -61.5 -224.5t-167.5 -132.5t-243 -43q-131 0 -231.5 37zM801 270.5q81 100.5 81 281.5q0 117 -36 206t-105.5 138.5t-168.5 49.5q-101 0 -171 -52t-105.5 -141.5t-35.5 -200.5q0 -114 35.5 -200t105.5 -134t171 -48q148 0 229 100.5zM592 1412l-146 -196
h-164v12l232 294h156l232 -294v-12h-162z" />
    <glyph glyph-name="Gbreve" unicode="&#x11e;" horiz-adv-x="1452" 
d="M994.5 1219.5q-105.5 80.5 -256.5 80.5q-130 0 -234.5 -67t-165 -197t-60.5 -312t61 -312t168 -197t243 -67q122 0 215.5 51.5t146 147t54.5 221.5h-378v158h554v-156q0 -177 -76 -311t-210.5 -206.5t-305.5 -72.5q-192 0 -338.5 90.5t-227 259t-80.5 394.5
q0 225 80.5 393.5t224.5 259.5t329 91q151 0 277 -59.5t209 -166.5t110 -246h-186q-48 143 -153.5 223.5zM999.5 1675q-36.5 -59 -104 -92t-157.5 -33q-89 0 -155.5 33t-102.5 92t-36 135h158q0 -59 33.5 -97.5t102.5 -38.5q70 0 104 38.5t34 97.5h160q0 -76 -36.5 -135z
" />
    <glyph glyph-name="gbreve" unicode="&#x11f;" horiz-adv-x="1186" 
d="M346.5 -393q-100.5 37 -159.5 108t-69 171h180q18 -82 90.5 -124t189.5 -42q144 0 222 64t78 196v220h-14q-29 -49 -61 -86t-95.5 -67.5t-159.5 -30.5q-133 0 -238 65t-164.5 187.5t-59.5 289.5q0 164 59 287t164 189t241 66q95 0 158.5 -31t91 -63.5t68.5 -91.5h14v172
h168v-1116q0 -135 -61.5 -224.5t-167.5 -132.5t-243 -43q-131 0 -231.5 37zM801 270.5q81 100.5 81 281.5q0 117 -36 206t-105.5 138.5t-168.5 49.5q-101 0 -171 -52t-105.5 -141.5t-35.5 -200.5q0 -114 35.5 -200t105.5 -134t171 -48q148 0 229 100.5zM855.5 1313
q-36.5 -59 -104 -92t-157.5 -33q-89 0 -155.5 33t-102.5 92t-36 135h158q0 -59 33.5 -97.5t102.5 -38.5q70 0 104 38.5t34 97.5h160q0 -76 -36.5 -135z" />
    <glyph glyph-name="Gdotaccent" unicode="&#x120;" horiz-adv-x="1452" 
d="M994.5 1219.5q-105.5 80.5 -256.5 80.5q-130 0 -234.5 -67t-165 -197t-60.5 -312t61 -312t168 -197t243 -67q122 0 215.5 51.5t146 147t54.5 221.5h-378v158h554v-156q0 -177 -76 -311t-210.5 -206.5t-305.5 -72.5q-192 0 -338.5 90.5t-227 259t-80.5 394.5
q0 225 80.5 393.5t224.5 259.5t329 91q151 0 277 -59.5t209 -166.5t110 -246h-186q-48 143 -153.5 223.5zM653 1661q-35 33 -35 81t35 81t85 33t86 -33t36 -81t-36 -81t-86 -33t-85 33z" />
    <glyph glyph-name="gdotaccent" unicode="&#x121;" horiz-adv-x="1186" 
d="M346.5 -393q-100.5 37 -159.5 108t-69 171h180q18 -82 90.5 -124t189.5 -42q144 0 222 64t78 196v220h-14q-29 -49 -61 -86t-95.5 -67.5t-159.5 -30.5q-133 0 -238 65t-164.5 187.5t-59.5 289.5q0 164 59 287t164 189t241 66q95 0 158.5 -31t91 -63.5t68.5 -91.5h14v172
h168v-1116q0 -135 -61.5 -224.5t-167.5 -132.5t-243 -43q-131 0 -231.5 37zM801 270.5q81 100.5 81 281.5q0 117 -36 206t-105.5 138.5t-168.5 49.5q-101 0 -171 -52t-105.5 -141.5t-35.5 -200.5q0 -114 35.5 -200t105.5 -134t171 -48q148 0 229 100.5zM509 1299
q-35 33 -35 81t35 81t85 33t86 -33t36 -81t-36 -81t-86 -33t-85 33z" />
    <glyph glyph-name="uni0122" unicode="&#x122;" horiz-adv-x="1452" 
d="M994.5 1219.5q-105.5 80.5 -256.5 80.5q-130 0 -234.5 -67t-165 -197t-60.5 -312t61 -312t168 -197t243 -67q122 0 215.5 51.5t146 147t54.5 221.5h-378v158h554v-156q0 -177 -76 -311t-210.5 -206.5t-305.5 -72.5q-192 0 -338.5 90.5t-227 259t-80.5 394.5
q0 225 80.5 393.5t224.5 259.5t329 91q151 0 277 -59.5t209 -166.5t110 -246h-186q-48 143 -153.5 223.5zM650 -114h174l-122 -366h-134z" />
    <glyph glyph-name="uni0123" unicode="&#x123;" horiz-adv-x="1186" 
d="M346.5 -393q-100.5 37 -159.5 108t-69 171h180q18 -82 90.5 -124t189.5 -42q144 0 222 64t78 196v220h-14q-29 -49 -61 -86t-95.5 -67.5t-159.5 -30.5q-133 0 -238 65t-164.5 187.5t-59.5 289.5q0 164 59 287t164 189t241 66q95 0 158.5 -31t91 -63.5t68.5 -91.5h14v172
h168v-1116q0 -135 -61.5 -224.5t-167.5 -132.5t-243 -43q-131 0 -231.5 37zM801 270.5q81 100.5 81 281.5q0 117 -36 206t-105.5 138.5t-168.5 49.5q-101 0 -171 -52t-105.5 -141.5t-35.5 -200.5q0 -114 35.5 -200t105.5 -134t171 -48q148 0 229 100.5zM514 1472
q22 60 55.5 109.5t66.5 78.5l112 -88q-33 -58 -46.5 -109.5t-13.5 -114.5v-116h-196v124q0 56 22 116z" />
    <glyph glyph-name="Hcircumflex" unicode="&#x124;" horiz-adv-x="1446" 
d="M160 1448h180v-644h766v644h182v-1448h-182v646h-766v-646h-180v1448zM728 1776l-146 -196h-164v12l232 294h156l232 -294v-12h-162z" />
    <glyph glyph-name="hcircumflex" unicode="&#x125;" horiz-adv-x="1152" 
d="M310 0h-172v1448h172v-532h14q82 184 320 184q172 0 271 -103.5t99 -306.5v-690h-172v678q0 127 -66.5 197.5t-183.5 70.5q-82 0 -145.5 -34.5t-100 -101t-36.5 -158.5v-652zM222 1774l-146 -196h-164v12l232 294h156l232 -294v-12h-162z" />
    <glyph glyph-name="Hbar" unicode="&#x126;" horiz-adv-x="1522" 
d="M1442 998h-114v-998h-182v646h-766v-646h-180v998h-120v148h120v302h180v-302h766v302h182v-302h114v-148zM1146 804v194h-766v-194h766z" />
    <glyph glyph-name="hbar" unicode="&#x127;" horiz-adv-x="1152" 
d="M310 0h-172v1202h-226v132h226v114h172v-114h228v-132h-228v-286h14q82 184 320 184q172 0 271 -103.5t99 -306.5v-690h-172v678q0 127 -66.5 197.5t-183.5 70.5q-82 0 -145.5 -34.5t-100 -101t-36.5 -158.5v-652z" />
    <glyph glyph-name="Itilde" unicode="&#x128;" horiz-adv-x="854" 
d="M518 0h-180v1448h180v-1448zM106.5 1712q28.5 57 78 88.5t109.5 31.5q37 0 65 -11t71 -35q35 -21 62.5 -32.5t59.5 -11.5q41 0 68.5 30.5t27.5 75.5l130 -10q0 -73 -28.5 -128t-78.5 -84.5t-111 -29.5q-45 0 -76 12.5t-66 35.5q-30 21 -55 31.5t-59 10.5q-40 0 -66 -31
t-26 -77l-134 6q0 71 28.5 128z" />
    <glyph glyph-name="itilde" unicode="&#x129;" horiz-adv-x="526" 
d="M180 1086h172v-1086h-172v1086zM-53.5 1350q28.5 57 78 88.5t109.5 31.5q37 0 65 -11t71 -35q35 -21 62.5 -32.5t59.5 -11.5q41 0 68.5 30.5t27.5 75.5l130 -10q0 -73 -28.5 -128t-78.5 -84.5t-111 -29.5q-45 0 -76 12.5t-66 35.5q-30 21 -55 31.5t-59 10.5
q-40 0 -66 -31t-26 -77l-134 6q0 71 28.5 128z" />
    <glyph glyph-name="Imacron" unicode="&#x12a;" horiz-adv-x="500" 
d="M340 0h-180v1448h180v-1448zM582 1668h-664v142h664v-142z" />
    <glyph glyph-name="imacron" unicode="&#x12b;" horiz-adv-x="446" 
d="M138 1086h172v-1086h-172v1086zM556 1306h-664v142h664v-142z" />
    <glyph glyph-name="Ibreve" unicode="&#x12c;" horiz-adv-x="500" 
d="M340 0h-180v1448h180v-1448zM511.5 1675q-36.5 -59 -104 -92t-157.5 -33q-89 0 -155.5 33t-102.5 92t-36 135h158q0 -59 33.5 -97.5t102.5 -38.5q70 0 104 38.5t34 97.5h160q0 -76 -36.5 -135z" />
    <glyph glyph-name="ibreve" unicode="&#x12d;" horiz-adv-x="446" 
d="M138 1086h172v-1086h-172v1086zM485.5 1313q-36.5 -59 -104 -92t-157.5 -33q-89 0 -155.5 33t-102.5 92t-36 135h158q0 -59 33.5 -97.5t102.5 -38.5q70 0 104 38.5t34 97.5h160q0 -76 -36.5 -135z" />
    <glyph glyph-name="Iogonek" unicode="&#x12e;" horiz-adv-x="500" 
d="M340 0q-76 -54 -119 -104.5t-43 -107.5q0 -34 16.5 -51t57.5 -17q46 0 94 24l12 -124q-26 -18 -64.5 -30t-85.5 -12q-90 0 -146.5 48.5t-57.5 137.5q0 65 38 127t118 115v1442h180v-1448z" />
    <glyph glyph-name="iogonek" unicode="&#x12f;" horiz-adv-x="442" 
d="M29.5 -373.5q-56.5 48.5 -57.5 137.5q0 67 40 130.5t124 117.5v1074h172v-1086q-76 -54 -119 -104.5t-43 -107.5q0 -34 16.5 -51t57.5 -17q46 0 94 24l12 -124q-26 -18 -64.5 -30t-85.5 -12q-90 0 -146.5 48.5zM135 1299q-35 33 -35 81t35 81t85 33t86 -33t36 -81
t-36 -81t-86 -33t-85 33z" />
    <glyph glyph-name="Idotaccent" unicode="&#x130;" horiz-adv-x="500" 
d="M340 0h-180v1448h180v-1448zM165 1661q-35 33 -35 81t35 81t85 33t86 -33t36 -81t-36 -81t-86 -33t-85 33z" />
    <glyph glyph-name="IJ" unicode="&#x132;" horiz-adv-x="1556" 
d="M340 0h-180v1448h180v-1448zM1396 1448v-1034q0 -137 -51 -234.5t-145 -148.5t-220 -51q-120 0 -214 44t-147 126t-53 192h178q0 -60 30.5 -106t84 -71t121.5 -25q113 0 173.5 70t60.5 204v1034h182z" />
    <glyph glyph-name="ij" unicode="&#x133;" horiz-adv-x="892" 
d="M138 1086h172v-1086h-172v1086zM139 1299q-35 33 -35 81t35 81t85 33t86 -33t36 -81t-36 -81t-86 -33t-85 33zM756 1086v-1164q0 -156 -80 -243t-236 -87h-36v160h34q74 0 110 43.5t36 126.5v1164h172zM583 1299q-35 33 -35 81t35 81t85 33t86 -33t36 -81t-36 -81
t-86 -33t-85 33z" />
    <glyph glyph-name="Jcircumflex" unicode="&#x134;" horiz-adv-x="1056" 
d="M896 1448v-1034q0 -137 -51 -234.5t-145 -148.5t-220 -51q-120 0 -214 44t-147 126t-53 192h178q0 -60 30.5 -106t84 -71t121.5 -25q113 0 173.5 70t60.5 204v1034h182zM802 1774l-146 -196h-164v12l232 294h156l232 -294v-12h-162z" />
    <glyph glyph-name="jcircumflex" unicode="&#x135;" horiz-adv-x="446" 
d="M310 1086v-1164q0 -156 -80 -243t-236 -87h-36v160h34q74 0 110 43.5t36 126.5v1164h172zM220 1412l-146 -196h-164v12l232 294h156l232 -294v-12h-162z" />
    <glyph glyph-name="uni0136" unicode="&#x136;" horiz-adv-x="1272" 
d="M160 1448h180v-716h18l644 716h236l-606 -654l606 -794h-220l-498 670l-180 -204v-466h-180v1448zM552 -114h174l-122 -366h-134z" />
    <glyph glyph-name="uni0137" unicode="&#x137;" horiz-adv-x="1058" 
d="M138 1448h172v-842h20l470 480h212l-458 -465l492 -621h-218l-403 512l-115 -107v-405h-172v1448zM462 -114h174l-122 -366h-134z" />
    <glyph glyph-name="kgreenlandic" unicode="&#x138;" horiz-adv-x="1230" 
d="M354 636h98l382 450h242l-465 -543l465 -543h-252l-391 462h-79v-462h-200v1086h200v-450z" />
    <glyph glyph-name="Lacute" unicode="&#x139;" horiz-adv-x="1092" 
d="M160 1448h180v-1288h672v-160h-852v1448zM344 1924h198l-222 -328h-148z" />
    <glyph glyph-name="lacute" unicode="&#x13a;" horiz-adv-x="446" 
d="M310 0h-172v1448h172v-1448zM318 1924h198l-222 -328h-148z" />
    <glyph glyph-name="uni013B" unicode="&#x13b;" horiz-adv-x="1092" 
d="M160 1448h180v-1288h672v-160h-852v1448zM500 -114h174l-122 -366h-134z" />
    <glyph glyph-name="uni013C" unicode="&#x13c;" horiz-adv-x="446" 
d="M310 0h-172v1448h172v-1448zM138 -114h174l-122 -366h-134z" />
    <glyph glyph-name="Lcaron" unicode="&#x13d;" horiz-adv-x="1092" 
d="M160 1448h180v-1288h672v-160h-852v1448zM584 1516h174l-50 -366h-124v366z" />
    <glyph glyph-name="lcaron" unicode="&#x13e;" horiz-adv-x="582" 
d="M310 0h-172v1448h172v-1448zM448 1516h174l-50 -366h-124v366z" />
    <glyph glyph-name="Ldot" unicode="&#x13f;" horiz-adv-x="1092" 
d="M160 1448h180v-1288h672v-160h-852v1448zM589 749q-35 33 -35 81t35 81t85 33t86 -33t36 -81t-36 -81t-86 -33t-85 33z" />
    <glyph glyph-name="ldot" unicode="&#x140;" horiz-adv-x="606" 
d="M310 0h-172v1448h172v-1448zM435 727q-35 33 -35 81t35 81t85 33t86 -33t36 -81t-36 -81t-86 -33t-85 33z" />
    <glyph glyph-name="Lslash" unicode="&#x141;" horiz-adv-x="1094" 
d="M604 778l-262 -82v-536h672v-160h-852v639l-136 -43v130l136 42v680h180v-624l262 82v-128z" />
    <glyph glyph-name="lslash" unicode="&#x142;" horiz-adv-x="444" 
d="M462 780l-152 -57v-723h-172v659l-156 -59v126l156 59v663h172v-599l152 57v-126z" />
    <glyph glyph-name="Nacute" unicode="&#x143;" horiz-adv-x="1470" 
d="M1310 0h-172l-784 1128h-14v-1128h-180v1448h174l784 -1130h14v1130h178v-1448zM832 1924h198l-222 -328h-148z" />
    <glyph glyph-name="nacute" unicode="&#x144;" horiz-adv-x="1140" 
d="M310 0h-172v1086h166v-170h14q41 87 119.5 135.5t198.5 48.5q112 0 194 -45.5t127 -137.5t45 -227v-690h-172v678q0 126 -65 197t-181 71q-80 0 -142 -34.5t-97 -101t-35 -158.5v-652zM666 1562h198l-222 -328h-148z" />
    <glyph glyph-name="uni0145" unicode="&#x145;" horiz-adv-x="1470" 
d="M1310 0h-172l-784 1128h-14v-1128h-180v1448h174l784 -1130h14v1130h178v-1448zM650 -114h174l-122 -366h-134z" />
    <glyph glyph-name="uni0146" unicode="&#x146;" horiz-adv-x="1140" 
d="M310 0h-172v1086h166v-170h14q41 87 119.5 135.5t198.5 48.5q112 0 194 -45.5t127 -137.5t45 -227v-690h-172v678q0 126 -65 197t-181 71q-80 0 -142 -34.5t-97 -101t-35 -158.5v-652zM484 -114h174l-122 -366h-134z" />
    <glyph glyph-name="Ncaron" unicode="&#x147;" horiz-adv-x="1470" 
d="M1310 0h-172l-784 1128h-14v-1128h-180v1448h174l784 -1130h14v1130h178v-1448zM736 1688l146 196h164v-12l-232 -294h-156l-232 294v12h162z" />
    <glyph glyph-name="ncaron" unicode="&#x148;" horiz-adv-x="1140" 
d="M310 0h-172v1086h166v-170h14q41 87 119.5 135.5t198.5 48.5q112 0 194 -45.5t127 -137.5t45 -227v-690h-172v678q0 126 -65 197t-181 71q-80 0 -142 -34.5t-97 -101t-35 -158.5v-652zM570 1326l146 196h164v-12l-232 -294h-156l-232 294v12h162z" />
    <glyph glyph-name="Eng" unicode="&#x14a;" horiz-adv-x="1470" 
d="M1138 0l-784 1128h-14v-1128h-180v1448h174l784 -1130h14v1130h178v-1448h-2v-114q0 -92 -39 -158.5t-105.5 -101t-147.5 -34.5q-36 0 -58.5 1.5t-39.5 8.5v146q13 -2 28.5 -4t27.5 -2q162 0 162 146v112h2z" />
    <glyph glyph-name="eng" unicode="&#x14b;" horiz-adv-x="1140" 
d="M830 0v678q0 126 -65 197t-181 71q-80 0 -142 -34.5t-97 -101t-35 -158.5v-652h-172v1086h166v-170h14q41 87 119.5 135.5t198.5 48.5q112 0 194 -45.5t127 -137.5t45 -227v-804q0 -92 -37.5 -158t-103 -101t-147.5 -35q-35 0 -58 1.5t-40 8.5v144q32 -4 56 -4
q73 0 114.5 33t41.5 111v114h2z" />
    <glyph glyph-name="Omacron" unicode="&#x14c;" horiz-adv-x="1488" 
d="M1302 330.5q-82 -168.5 -227.5 -259.5t-330.5 -91q-186 0 -331 91t-227 259.5t-82 393.5t82 393.5t227 259.5t331 91q185 0 330.5 -91t227.5 -259.5t82 -393.5t-82 -393.5zM1149 1036q-61 130 -166.5 197t-238.5 67t-238.5 -67t-166.5 -197t-61 -312t61 -312t166.5 -197
t238.5 -67t238.5 67t166.5 197t61 312t-61 312zM1076 1668h-664v142h664v-142z" />
    <glyph glyph-name="omacron" unicode="&#x14d;" horiz-adv-x="1162" 
d="M322.5 47.5q-112.5 69.5 -174.5 196.5t-62 294t62 294.5t174.5 197.5t259.5 70q146 0 257.5 -70t173 -197.5t61.5 -294.5t-61.5 -294t-173 -196.5t-257.5 -69.5q-147 0 -259.5 69.5zM759 185.5q72 55.5 107.5 148t35.5 204.5t-35.5 205t-107.5 149t-177 56
q-107 0 -179.5 -56t-108.5 -149t-36 -205t36 -204.5t108.5 -148t179.5 -55.5q105 0 177 55.5zM914 1306h-664v142h664v-142z" />
    <glyph glyph-name="Obreve" unicode="&#x14e;" horiz-adv-x="1488" 
d="M1302 330.5q-82 -168.5 -227.5 -259.5t-330.5 -91q-186 0 -331 91t-227 259.5t-82 393.5t82 393.5t227 259.5t331 91q185 0 330.5 -91t227.5 -259.5t82 -393.5t-82 -393.5zM1149 1036q-61 130 -166.5 197t-238.5 67t-238.5 -67t-166.5 -197t-61 -312t61 -312t166.5 -197
t238.5 -67t238.5 67t166.5 197t61 312t-61 312zM1005.5 1675q-36.5 -59 -104 -92t-157.5 -33q-89 0 -155.5 33t-102.5 92t-36 135h158q0 -59 33.5 -97.5t102.5 -38.5q70 0 104 38.5t34 97.5h160q0 -76 -36.5 -135z" />
    <glyph glyph-name="obreve" unicode="&#x14f;" horiz-adv-x="1162" 
d="M322.5 47.5q-112.5 69.5 -174.5 196.5t-62 294t62 294.5t174.5 197.5t259.5 70q146 0 257.5 -70t173 -197.5t61.5 -294.5t-61.5 -294t-173 -196.5t-257.5 -69.5q-147 0 -259.5 69.5zM759 185.5q72 55.5 107.5 148t35.5 204.5t-35.5 205t-107.5 149t-177 56
q-107 0 -179.5 -56t-108.5 -149t-36 -205t36 -204.5t108.5 -148t179.5 -55.5q105 0 177 55.5zM843.5 1313q-36.5 -59 -104 -92t-157.5 -33q-89 0 -155.5 33t-102.5 92t-36 135h158q0 -59 33.5 -97.5t102.5 -38.5q70 0 104 38.5t34 97.5h160q0 -76 -36.5 -135z" />
    <glyph glyph-name="Ohungarumlaut" unicode="&#x150;" horiz-adv-x="1488" 
d="M1302 330.5q-82 -168.5 -227.5 -259.5t-330.5 -91q-186 0 -331 91t-227 259.5t-82 393.5t82 393.5t227 259.5t331 91q185 0 330.5 -91t227.5 -259.5t82 -393.5t-82 -393.5zM1149 1036q-61 130 -166.5 197t-238.5 67t-238.5 -67t-166.5 -197t-61 -312t61 -312t166.5 -197
t238.5 -67t238.5 67t166.5 197t61 312t-61 312zM1004 1868h190l-258 -300h-150zM652 1868h186l-210 -300h-136z" />
    <glyph glyph-name="ohungarumlaut" unicode="&#x151;" horiz-adv-x="1162" 
d="M322.5 47.5q-112.5 69.5 -174.5 196.5t-62 294t62 294.5t174.5 197.5t259.5 70q146 0 257.5 -70t173 -197.5t61.5 -294.5t-61.5 -294t-173 -196.5t-257.5 -69.5q-147 0 -259.5 69.5zM759 185.5q72 55.5 107.5 148t35.5 204.5t-35.5 205t-107.5 149t-177 56
q-107 0 -179.5 -56t-108.5 -149t-36 -205t36 -204.5t108.5 -148t179.5 -55.5q105 0 177 55.5zM842 1506h190l-258 -300h-150zM490 1506h186l-210 -300h-136z" />
    <glyph glyph-name="OE" unicode="&#x152;" horiz-adv-x="1874" 
d="M408 90.5q-145 90.5 -224.5 254.5t-79.5 379q0 217 79.5 381t224.5 253.5t334 89.5h1008v-160h-698v-484h652v-158h-652v-486h708v-160h-1018q-189 0 -334 90.5zM336.5 428q58.5 -128 163.5 -198t242 -70h130v1128h-130q-137 0 -242 -69.5t-163.5 -197.5t-58.5 -297
q0 -168 58.5 -296z" />
    <glyph glyph-name="oe" unicode="&#x153;" horiz-adv-x="1944" 
d="M322.5 47.5q-112.5 69.5 -174.5 196.5t-62 294t62 294.5t174.5 197.5t259.5 70q133 0 238 -58.5t169 -165.5q65 107 169 165.5t236 58.5q123 0 229 -54.5t172.5 -176t66.5 -311.5v-72h-788q4 -113 47 -193t117.5 -121.5t171.5 -41.5q92 0 155.5 34.5t96.5 89.5h184
q-26 -82 -86.5 -144.5t-150 -97t-199.5 -34.5q-141 0 -249 57.5t-173 162.5q-64 -105 -169 -162.5t-237 -57.5q-147 0 -259.5 69.5zM759 185.5q72 55.5 107.5 148t35.5 204.5t-35.5 205t-107.5 149t-177 56q-107 0 -179.5 -56t-108.5 -149t-36 -205t36 -204.5t108.5 -148
t179.5 -55.5q105 0 177 55.5zM1688 632q0 91 -36.5 162.5t-103.5 112.5t-154 41q-91 0 -161.5 -43t-111 -115.5t-46.5 -157.5h613z" />
    <glyph glyph-name="Racute" unicode="&#x154;" horiz-adv-x="1246" 
d="M160 1448h492q165 0 276 -56.5t164.5 -157t53.5 -232.5q0 -147 -67.5 -253t-202.5 -153l326 -596h-210l-303 563l-35 -1h-314v-562h-180v1448zM646 726q167 0 244.5 71t77.5 205q0 136 -78 211t-246 75h-304v-562h306zM712 1924h198l-222 -328h-148z" />
    <glyph glyph-name="racute" unicode="&#x155;" horiz-adv-x="716" 
d="M138 1086h166v-166h12q30 83 107 133.5t173 50.5q50 0 90 -4v-174q-11 4 -42.5 8t-61.5 4q-77 0 -139 -33t-97.5 -91t-35.5 -130v-684h-172v1086zM494 1562h198l-222 -328h-148z" />
    <glyph glyph-name="uni0156" unicode="&#x156;" horiz-adv-x="1246" 
d="M160 1448h492q165 0 276 -56.5t164.5 -157t53.5 -232.5q0 -147 -67.5 -253t-202.5 -153l326 -596h-210l-303 563l-35 -1h-314v-562h-180v1448zM646 726q167 0 244.5 71t77.5 205q0 136 -78 211t-246 75h-304v-562h306zM554 -114h174l-122 -366h-134z" />
    <glyph glyph-name="uni0157" unicode="&#x157;" horiz-adv-x="716" 
d="M138 1086h166v-166h12q30 83 107 133.5t173 50.5q50 0 90 -4v-174q-11 4 -42.5 8t-61.5 4q-77 0 -139 -33t-97.5 -91t-35.5 -130v-684h-172v1086zM136 -114h174l-122 -366h-134z" />
    <glyph glyph-name="Rcaron" unicode="&#x158;" horiz-adv-x="1246" 
d="M160 1448h492q165 0 276 -56.5t164.5 -157t53.5 -232.5q0 -147 -67.5 -253t-202.5 -153l326 -596h-210l-303 563l-35 -1h-314v-562h-180v1448zM646 726q167 0 244.5 71t77.5 205q0 136 -78 211t-246 75h-304v-562h306zM616 1688l146 196h164v-12l-232 -294h-156l-232 294
v12h162z" />
    <glyph glyph-name="rcaron" unicode="&#x159;" horiz-adv-x="716" 
d="M138 1086h166v-166h12q30 83 107 133.5t173 50.5q50 0 90 -4v-174q-11 4 -42.5 8t-61.5 4q-77 0 -139 -33t-97.5 -91t-35.5 -130v-684h-172v1086zM398 1326l146 196h164v-12l-232 -294h-156l-232 294v12h162z" />
    <glyph glyph-name="Sacute" unicode="&#x15a;" horiz-adv-x="1244" 
d="M899.5 1204.5q-42.5 50.5 -112.5 77t-157 26.5q-94 0 -166.5 -30.5t-112 -84.5t-39.5 -123q0 -100 81.5 -153t198.5 -83l144 -40q168 -43 289 -132.5t121 -267.5q0 -119 -62.5 -214.5t-181 -150.5t-282.5 -55q-154 0 -269 50t-180 141t-73 211h184q8 -78 55 -131.5
t120.5 -80t162.5 -26.5q100 0 179.5 32t125 91.5t45.5 136.5q0 66 -37.5 111t-98 73t-150.5 54l-178 48q-178 52 -273 144t-95 234q0 119 65.5 211.5t179 143.5t253.5 51q138 0 248 -50t174 -137.5t68 -196.5h-176q-8 70 -50.5 120.5zM716 1924h198l-222 -328h-148z" />
    <glyph glyph-name="sacute" unicode="&#x15b;" horiz-adv-x="1016" 
d="M668.5 914.5q-54.5 39.5 -146.5 39.5q-66 0 -118.5 -21.5t-82 -59t-29.5 -83.5q0 -54 45.5 -92t140.5 -60l162 -40q146 -35 218 -107.5t72 -186.5q0 -95 -50.5 -168.5t-146.5 -115.5t-229 -42q-183 0 -290 78.5t-128 227.5h180q15 -79 73 -117.5t161 -38.5q116 0 184 45
t68 121q0 58 -43 96.5t-135 59.5l-164 38q-142 33 -216 108t-74 184q0 92 50.5 165t142 114t209.5 41q110 0 194 -37t133.5 -104t60.5 -155h-168q-19 71 -73.5 110.5zM620 1562h198l-222 -328h-148z" />
    <glyph glyph-name="Scircumflex" unicode="&#x15c;" horiz-adv-x="1244" 
d="M899.5 1204.5q-42.5 50.5 -112.5 77t-157 26.5q-94 0 -166.5 -30.5t-112 -84.5t-39.5 -123q0 -100 81.5 -153t198.5 -83l144 -40q168 -43 289 -132.5t121 -267.5q0 -119 -62.5 -214.5t-181 -150.5t-282.5 -55q-154 0 -269 50t-180 141t-73 211h184q8 -78 55 -131.5
t120.5 -80t162.5 -26.5q100 0 179.5 32t125 91.5t45.5 136.5q0 66 -37.5 111t-98 73t-150.5 54l-178 48q-178 52 -273 144t-95 234q0 119 65.5 211.5t179 143.5t253.5 51q138 0 248 -50t174 -137.5t68 -196.5h-176q-8 70 -50.5 120.5zM618 1774l-146 -196h-164v12l232 294
h156l232 -294v-12h-162z" />
    <glyph glyph-name="scircumflex" unicode="&#x15d;" horiz-adv-x="1016" 
d="M668.5 914.5q-54.5 39.5 -146.5 39.5q-66 0 -118.5 -21.5t-82 -59t-29.5 -83.5q0 -54 45.5 -92t140.5 -60l162 -40q146 -35 218 -107.5t72 -186.5q0 -95 -50.5 -168.5t-146.5 -115.5t-229 -42q-183 0 -290 78.5t-128 227.5h180q15 -79 73 -117.5t161 -38.5q116 0 184 45
t68 121q0 58 -43 96.5t-135 59.5l-164 38q-142 33 -216 108t-74 184q0 92 50.5 165t142 114t209.5 41q110 0 194 -37t133.5 -104t60.5 -155h-168q-19 71 -73.5 110.5zM522 1412l-146 -196h-164v12l232 294h156l232 -294v-12h-162z" />
    <glyph glyph-name="Scedilla" unicode="&#x15e;" horiz-adv-x="1244" 
d="M899.5 1204.5q-42.5 50.5 -112.5 77t-157 26.5q-94 0 -166.5 -30.5t-112 -84.5t-39.5 -123q0 -100 81.5 -153t198.5 -83l144 -40q168 -43 289 -132.5t121 -267.5q0 -111 -54.5 -202t-159 -148t-249.5 -68l-5 -26q63 -10 105.5 -51t42.5 -117q0 -62 -34.5 -109t-102 -73
t-163.5 -26l-6 112q71 0 112.5 22t41.5 68q0 32 -15.5 50t-47.5 27.5t-89 14.5l22 109q-132 12 -230 65t-153.5 138.5t-62.5 195.5h184q8 -78 55 -131.5t120.5 -80t162.5 -26.5q100 0 179.5 32t125 91.5t45.5 136.5q0 66 -37.5 111t-98 73t-150.5 54l-178 48
q-178 52 -273 144t-95 234q0 119 65.5 211.5t179 143.5t253.5 51q138 0 248 -50t174 -137.5t68 -196.5h-176q-8 70 -50.5 120.5z" />
    <glyph glyph-name="scedilla" unicode="&#x15f;" horiz-adv-x="1016" 
d="M668.5 914.5q-54.5 39.5 -146.5 39.5q-66 0 -118.5 -21.5t-82 -59t-29.5 -83.5q0 -54 45.5 -92t140.5 -60l162 -40q146 -35 218 -107.5t72 -186.5q0 -86 -41.5 -155t-121.5 -113t-191 -55l-6 -31q63 -10 105.5 -51t42.5 -117q0 -62 -34.5 -109t-102 -73t-163.5 -26
l-6 112q71 0 112.5 22t41.5 68q0 32 -15.5 50t-47.5 27.5t-89 14.5l23 113q-153 13 -242.5 91t-108.5 212h180q15 -79 73 -117.5t161 -38.5q116 0 184 45t68 121q0 58 -43 96.5t-135 59.5l-164 38q-142 33 -216 108t-74 184q0 92 50.5 165t142 114t209.5 41q110 0 194 -37
t133.5 -104t60.5 -155h-168q-19 71 -73.5 110.5z" />
    <glyph glyph-name="Scaron" unicode="&#x160;" horiz-adv-x="1244" 
d="M899.5 1204.5q-42.5 50.5 -112.5 77t-157 26.5q-94 0 -166.5 -30.5t-112 -84.5t-39.5 -123q0 -100 81.5 -153t198.5 -83l144 -40q168 -43 289 -132.5t121 -267.5q0 -119 -62.5 -214.5t-181 -150.5t-282.5 -55q-154 0 -269 50t-180 141t-73 211h184q8 -78 55 -131.5
t120.5 -80t162.5 -26.5q100 0 179.5 32t125 91.5t45.5 136.5q0 66 -37.5 111t-98 73t-150.5 54l-178 48q-178 52 -273 144t-95 234q0 119 65.5 211.5t179 143.5t253.5 51q138 0 248 -50t174 -137.5t68 -196.5h-176q-8 70 -50.5 120.5zM620 1688l146 196h164v-12l-232 -294
h-156l-232 294v12h162z" />
    <glyph glyph-name="scaron" unicode="&#x161;" horiz-adv-x="1016" 
d="M668.5 914.5q-54.5 39.5 -146.5 39.5q-66 0 -118.5 -21.5t-82 -59t-29.5 -83.5q0 -54 45.5 -92t140.5 -60l162 -40q146 -35 218 -107.5t72 -186.5q0 -95 -50.5 -168.5t-146.5 -115.5t-229 -42q-183 0 -290 78.5t-128 227.5h180q15 -79 73 -117.5t161 -38.5q116 0 184 45
t68 121q0 58 -43 96.5t-135 59.5l-164 38q-142 33 -216 108t-74 184q0 92 50.5 165t142 114t209.5 41q110 0 194 -37t133.5 -104t60.5 -155h-168q-19 71 -73.5 110.5zM524 1326l146 196h164v-12l-232 -294h-156l-232 294v12h162z" />
    <glyph glyph-name="uni0162" unicode="&#x162;" horiz-adv-x="1252" 
d="M80 1448h1092v-160h-454v-1288h-7l-9 -50q63 -10 105.5 -51t42.5 -117q0 -62 -34.5 -109t-102 -73t-163.5 -26l-6 112q71 0 112.5 22t41.5 68q0 32 -15.5 50t-47.5 27.5t-89 14.5l27 132h-37v1288h-456v160z" />
    <glyph glyph-name="Tcaron" unicode="&#x164;" horiz-adv-x="1252" 
d="M80 1448h1092v-160h-454v-1288h-182v1288h-456v160zM626 1688l146 196h164v-12l-232 -294h-156l-232 294v12h162z" />
    <glyph glyph-name="tcaron" unicode="&#x165;" horiz-adv-x="698" 
d="M612 942h-228v-630q0 -96 38 -129t104 -33q50 0 102 4v-160q-52 -8 -120 -8q-76 0 -144 31.5t-111 95.5t-43 155v674h-164v144h164v260h174v-260h228v-144zM502 1586h174l-50 -366h-124v366z" />
    <glyph glyph-name="Tbar" unicode="&#x166;" horiz-adv-x="1252" 
d="M80 1448h1092v-160h-454v-476h222v-132h-222v-680h-182v680h-222v132h222v476h-456v160z" />
    <glyph glyph-name="tbar" unicode="&#x167;" horiz-adv-x="696" 
d="M46 722h164v220h-164v144h164v260h174v-260h228v-144h-228v-220h228v-130h-228v-280q0 -96 38 -129t104 -33q50 0 102 4v-160q-52 -8 -120 -8q-76 0 -144 31.5t-111 95.5t-43 155v324h-164v130z" />
    <glyph glyph-name="Utilde" unicode="&#x168;" horiz-adv-x="1448" 
d="M1288 1448v-958q0 -148 -70 -265.5t-198 -184t-296 -66.5t-296 66.5t-198 184t-70 265.5v958h180v-944q0 -105 46.5 -187t133.5 -128.5t204 -46.5q118 0 204.5 46.5t133 128.5t46.5 187v944h180zM402.5 1712q28.5 57 78 88.5t109.5 31.5q37 0 65 -11t71 -35
q35 -21 62.5 -32.5t59.5 -11.5q41 0 68.5 30.5t27.5 75.5l130 -10q0 -73 -28.5 -128t-78.5 -84.5t-111 -29.5q-45 0 -76 12.5t-66 35.5q-30 21 -55 31.5t-59 10.5q-40 0 -66 -31t-26 -77l-134 6q0 71 28.5 128z" />
    <glyph glyph-name="utilde" unicode="&#x169;" horiz-adv-x="1132" 
d="M824 1086h170v-1086h-170v184h-12q-42 -89 -123.5 -143.5t-198.5 -54.5q-105 0 -184 45.5t-123.5 137.5t-44.5 227v690h172v-678q0 -77 30 -135t83.5 -89.5t122.5 -31.5q65 0 129.5 33t106.5 99.5t42 161.5v640zM246.5 1350q28.5 57 78 88.5t109.5 31.5q37 0 65 -11
t71 -35q35 -21 62.5 -32.5t59.5 -11.5q41 0 68.5 30.5t27.5 75.5l130 -10q0 -73 -28.5 -128t-78.5 -84.5t-111 -29.5q-45 0 -76 12.5t-66 35.5q-30 21 -55 31.5t-59 10.5q-40 0 -66 -31t-26 -77l-134 6q0 71 28.5 128z" />
    <glyph glyph-name="Umacron" unicode="&#x16a;" horiz-adv-x="1448" 
d="M1288 1448v-958q0 -148 -70 -265.5t-198 -184t-296 -66.5t-296 66.5t-198 184t-70 265.5v958h180v-944q0 -105 46.5 -187t133.5 -128.5t204 -46.5q118 0 204.5 46.5t133 128.5t46.5 187v944h180zM1056 1668h-664v142h664v-142z" />
    <glyph glyph-name="umacron" unicode="&#x16b;" horiz-adv-x="1132" 
d="M824 1086h170v-1086h-170v184h-12q-42 -89 -123.5 -143.5t-198.5 -54.5q-105 0 -184 45.5t-123.5 137.5t-44.5 227v690h172v-678q0 -77 30 -135t83.5 -89.5t122.5 -31.5q65 0 129.5 33t106.5 99.5t42 161.5v640zM900 1306h-664v142h664v-142z" />
    <glyph glyph-name="Ubreve" unicode="&#x16c;" horiz-adv-x="1448" 
d="M1288 1448v-958q0 -148 -70 -265.5t-198 -184t-296 -66.5t-296 66.5t-198 184t-70 265.5v958h180v-944q0 -105 46.5 -187t133.5 -128.5t204 -46.5q118 0 204.5 46.5t133 128.5t46.5 187v944h180zM985.5 1675q-36.5 -59 -104 -92t-157.5 -33q-89 0 -155.5 33t-102.5 92
t-36 135h158q0 -59 33.5 -97.5t102.5 -38.5q70 0 104 38.5t34 97.5h160q0 -76 -36.5 -135z" />
    <glyph glyph-name="ubreve" unicode="&#x16d;" horiz-adv-x="1132" 
d="M824 1086h170v-1086h-170v184h-12q-42 -89 -123.5 -143.5t-198.5 -54.5q-105 0 -184 45.5t-123.5 137.5t-44.5 227v690h172v-678q0 -77 30 -135t83.5 -89.5t122.5 -31.5q65 0 129.5 33t106.5 99.5t42 161.5v640zM829.5 1313q-36.5 -59 -104 -92t-157.5 -33
q-89 0 -155.5 33t-102.5 92t-36 135h158q0 -59 33.5 -97.5t102.5 -38.5q70 0 104 38.5t34 97.5h160q0 -76 -36.5 -135z" />
    <glyph glyph-name="Uring" unicode="&#x16e;" horiz-adv-x="1448" 
d="M1288 1448v-958q0 -148 -70 -265.5t-198 -184t-296 -66.5t-296 66.5t-198 184t-70 265.5v958h180v-944q0 -105 46.5 -187t133.5 -128.5t204 -46.5q118 0 204.5 46.5t133 128.5t46.5 187v944h180zM620.5 1575.5q-47.5 27.5 -75 74.5t-27.5 102q0 56 27.5 103.5t75 75
t103.5 27.5q55 0 102.5 -27.5t75.5 -75t28 -103.5q0 -55 -28 -102t-75.5 -74.5t-102.5 -27.5q-56 0 -103.5 27.5zM797 1679.5q29 29.5 29 72.5t-29 72.5t-73 29.5q-43 0 -72.5 -30t-29.5 -72q0 -43 29.5 -72.5t72.5 -29.5q44 0 73 29.5z" />
    <glyph glyph-name="uring" unicode="&#x16f;" horiz-adv-x="1132" 
d="M824 1086h170v-1086h-170v184h-12q-42 -89 -123.5 -143.5t-198.5 -54.5q-105 0 -184 45.5t-123.5 137.5t-44.5 227v690h172v-678q0 -77 30 -135t83.5 -89.5t122.5 -31.5q65 0 129.5 33t106.5 99.5t42 161.5v640zM438.5 1239.5q-58.5 31.5 -92.5 86.5t-34 122q0 66 34 123
t93 91t129 34t128.5 -34t92 -91t33.5 -123q0 -67 -33.5 -122t-91.5 -86.5t-129 -31.5t-129.5 31.5zM637.5 1334.5q30.5 18.5 47.5 49t17 64.5q0 35 -17 67t-47.5 51.5t-69.5 19.5q-38 0 -68.5 -19.5t-48 -51.5t-17.5 -67q0 -34 17.5 -64.5t48 -49t68.5 -18.5q39 0 69.5 18.5
z" />
    <glyph glyph-name="Uhungarumlaut" unicode="&#x170;" horiz-adv-x="1448" 
d="M1288 1448v-958q0 -148 -70 -265.5t-198 -184t-296 -66.5t-296 66.5t-198 184t-70 265.5v958h180v-944q0 -105 46.5 -187t133.5 -128.5t204 -46.5q118 0 204.5 46.5t133 128.5t46.5 187v944h180zM984 1868h190l-258 -300h-150zM632 1868h186l-210 -300h-136z" />
    <glyph glyph-name="uhungarumlaut" unicode="&#x171;" horiz-adv-x="1132" 
d="M824 1086h170v-1086h-170v184h-12q-42 -89 -123.5 -143.5t-198.5 -54.5q-105 0 -184 45.5t-123.5 137.5t-44.5 227v690h172v-678q0 -77 30 -135t83.5 -89.5t122.5 -31.5q65 0 129.5 33t106.5 99.5t42 161.5v640zM828 1506h190l-258 -300h-150zM476 1506h186l-210 -300
h-136z" />
    <glyph glyph-name="Uogonek" unicode="&#x172;" horiz-adv-x="1448" 
d="M1288 1448v-958q0 -131 -55 -239t-157 -178t-239 -91q-63 -48 -99 -94t-36 -98q0 -34 16.5 -51t57.5 -17q46 0 94 24l12 -124q-26 -18 -64.5 -30t-85.5 -12q-90 0 -146.5 48.5t-57.5 137.5q0 119 115 212q-146 16 -255.5 85.5t-168.5 180t-59 246.5v958h180v-944
q0 -105 46.5 -187t133.5 -128.5t204 -46.5q118 0 204.5 46.5t133 128.5t46.5 187v944h180z" />
    <glyph glyph-name="uogonek" unicode="&#x173;" horiz-adv-x="1132" 
d="M824 1086h170v-1086q-76 -54 -119 -104.5t-43 -107.5q0 -34 16.5 -51t57.5 -17q46 0 94 24l12 -124q-26 -18 -64.5 -30t-85.5 -12q-90 0 -146.5 48.5t-57.5 137.5q0 67 40.5 131t125.5 118v171h-12q-42 -89 -123.5 -143.5t-198.5 -54.5q-105 0 -184 45.5t-123.5 137.5
t-44.5 227v690h172v-678q0 -77 30 -135t83.5 -89.5t122.5 -31.5q65 0 129.5 33t106.5 99.5t42 161.5v640z" />
    <glyph glyph-name="Wcircumflex" unicode="&#x174;" horiz-adv-x="1874" 
d="M32 1448h182l302 -1172h14l306 1172h202l308 -1172h12l302 1172h182l-396 -1448h-186l-316 1146h-12l-318 -1146h-186zM936 1774l-146 -196h-164v12l232 294h156l232 -294v-12h-162z" />
    <glyph glyph-name="wcircumflex" unicode="&#x175;" horiz-adv-x="1592" 
d="M52 1086h182l232 -828h10l230 828h184l226 -824h12l232 824h180l-330 -1086h-170l-236 828h-16l-234 -828h-172zM794 1412l-146 -196h-164v12l232 294h156l232 -294v-12h-162z" />
    <glyph glyph-name="Ycircumflex" unicode="&#x176;" horiz-adv-x="1298" 
d="M242 1448l398 -672h18l398 672h208l-524 -854v-594h-182v594l-522 854h206zM648 1774l-146 -196h-164v12l232 294h156l232 -294v-12h-162z" />
    <glyph glyph-name="ycircumflex" unicode="&#x177;" horiz-adv-x="1084" 
d="M152 -404v154q36 -4 84 -4q43 0 72 9t58 44.5t56 110.5l32 82l-402 1094h188l296 -862h12l296 862h188l-460 -1242q-48 -127 -128 -189.5t-196 -62.5q-52 0 -96 4zM540 1412l-146 -196h-164v12l232 294h156l232 -294v-12h-162z" />
    <glyph glyph-name="Ydieresis" unicode="&#x178;" horiz-adv-x="1298" 
d="M242 1448l398 -672h18l398 672h208l-524 -854v-594h-182v594l-522 854h206zM388.5 1644q-26.5 16 -42.5 42.5t-16 55.5q0 48 34 81t80 33q51 0 83.5 -32t32.5 -82q0 -46 -33 -80t-83 -34q-29 0 -55.5 16zM797 1644q-27 16 -43 42.5t-16 55.5q0 49 34.5 81.5t81.5 32.5
q48 0 81 -32.5t33 -81.5q0 -30 -15 -56t-41.5 -42t-57.5 -16q-30 0 -57 16z" />
    <glyph glyph-name="Zacute" unicode="&#x179;" horiz-adv-x="1218" 
d="M112 130l778 1158h-786v160h1002v-130l-778 -1158h786v-160h-1002v130zM704 1924h198l-222 -328h-148z" />
    <glyph glyph-name="zacute" unicode="&#x17a;" horiz-adv-x="1050" 
d="M106 130l612 786v12h-592v158h814v-136l-594 -780v-12h614v-158h-854v130zM620 1562h198l-222 -328h-148z" />
    <glyph glyph-name="Zdotaccent" unicode="&#x17b;" horiz-adv-x="1218" 
d="M112 130l778 1158h-786v160h1002v-130l-778 -1158h786v-160h-1002v130zM523 1661q-35 33 -35 81t35 81t85 33t86 -33t36 -81t-36 -81t-86 -33t-85 33z" />
    <glyph glyph-name="zdotaccent" unicode="&#x17c;" horiz-adv-x="1050" 
d="M106 130l612 786v12h-592v158h814v-136l-594 -780v-12h614v-158h-854v130zM439 1299q-35 33 -35 81t35 81t85 33t86 -33t36 -81t-36 -81t-86 -33t-85 33z" />
    <glyph glyph-name="Zcaron" unicode="&#x17d;" horiz-adv-x="1218" 
d="M112 130l778 1158h-786v160h1002v-130l-778 -1158h786v-160h-1002v130zM608 1688l146 196h164v-12l-232 -294h-156l-232 294v12h162z" />
    <glyph glyph-name="zcaron" unicode="&#x17e;" horiz-adv-x="1050" 
d="M106 130l612 786v12h-592v158h814v-136l-594 -780v-12h614v-158h-854v130zM524 1326l146 196h164v-12l-232 -294h-156l-232 294v12h162z" />
    <glyph glyph-name="florin" unicode="&#x192;" horiz-adv-x="742" 
d="M636 906h-200v-976q0 -163 -81 -250.5t-231 -87.5q-59 0 -112 14l14 156q13 -5 44.5 -7.5t53.5 -2.5q58 0 95 48t37 130v976h-176v146h176v106q0 112 39 192.5t108 122t159 41.5q40 0 89.5 -7.5t78.5 -18.5l-42 -156q-40 12 -82 12q-83 0 -126.5 -47t-43.5 -139v-106h200
v-146z" />
    <glyph glyph-name="Aringacute" unicode="&#x1fa;" horiz-adv-x="1322" 
d="M36 0l530 1448h190l530 -1448h-190l-145 408h-582l-145 -408h-188zM896 566l-230 648h-12l-230 -648h472zM728 2172h182l-182 -176h-140zM554.5 1574.5q-47.5 26.5 -75 71t-27.5 96.5q0 54 27.5 99t75 71t103.5 26q55 0 102.5 -26.5t75.5 -71.5t28 -98q0 -52 -28 -96.5
t-75.5 -71t-102.5 -26.5q-56 0 -103.5 26.5zM731 1673.5q29 27.5 29 68.5t-28.5 69t-73.5 29q-43 -1 -72.5 -29t-29.5 -69t29 -68.5t73 -27.5t73 27.5z" />
    <glyph glyph-name="aringacute" unicode="&#x1fb;" horiz-adv-x="1096" 
d="M201.5 546q115.5 69 292.5 82q68 5 152.5 9.5t141.5 6.5v88q0 105 -62.5 161.5t-183.5 56.5q-99 0 -162 -40.5t-82 -105.5h-180q11 87 68 154t151.5 104.5t212.5 37.5q156 0 282 -79.5t126 -304.5v-716h-170v148h-8q-20 -42 -61.5 -81.5t-108 -66t-154.5 -26.5
q-104 0 -188 40t-133 115.5t-49 178.5q0 169 115.5 238zM320.5 172.5q62.5 -44.5 165.5 -44.5q93 0 161.5 37t104.5 98t36 131v109l-274 -19q-122 -8 -189 -53t-67 -131q0 -83 62.5 -127.5zM636 1810h182l-182 -176h-140zM462.5 1212.5q-47.5 26.5 -75 71t-27.5 96.5
q0 54 27.5 99t75 71t103.5 26q55 0 102.5 -26.5t75.5 -71.5t28 -98q0 -52 -28 -96.5t-75.5 -71t-102.5 -26.5q-56 0 -103.5 26.5zM639 1311.5q29 27.5 29 68.5t-28.5 69t-73.5 29q-43 -1 -72.5 -29t-29.5 -69t29 -68.5t73 -27.5t73 27.5z" />
    <glyph glyph-name="AEacute" unicode="&#x1fc;" horiz-adv-x="1944" 
d="M734 1448h1084v-160h-696v-484h652v-158h-652v-486h708v-160h-890v408h-515l-191 -408h-198zM940 566v722h-104l-337 -722h441zM1368 1924h198l-222 -328h-148z" />
    <glyph glyph-name="aeacute" unicode="&#x1fd;" horiz-adv-x="1812" 
d="M1024 36q-108 58 -161 160h-5q-22 -61 -81 -111.5t-143 -80.5t-178 -30q-104 0 -188 40t-133 115.5t-49 178.5q0 117 59 182.5t146.5 91t202.5 34.5l294 15v101q0 105 -62.5 161.5t-183.5 56.5q-99 0 -162 -40.5t-82 -105.5h-180q11 87 68 154t151.5 104.5t212.5 37.5
q109 0 207.5 -36t151.5 -136q59 83 147 127.5t202 44.5q123 0 229 -54.5t172.5 -176t66.5 -311.5v-72h-786q4 -113 46.5 -193t116.5 -121.5t171 -41.5q99 0 169 42.5t101 125.5l166 -44q-25 -82 -86 -144.5t-150.5 -97t-197.5 -34.5q-144 0 -252 58zM320.5 173
q62.5 -45 165.5 -45q93 0 161.5 37t104.5 98t36 131v95l-274 -19q-125 -8 -190.5 -46.5t-65.5 -121.5q0 -84 62.5 -129zM1552 632q0 91 -36.5 162.5t-103.5 112.5t-154 41q-91 0 -161 -43t-110 -115.5t-46 -157.5h611zM992 1562h198l-222 -328h-148z" />
    <glyph glyph-name="Oslashacute" unicode="&#x1fe;" horiz-adv-x="1488" 
d="M182 14l108 160q-89 99 -137.5 238.5t-48.5 311.5q0 225 82 393.5t227 259.5t331 91q98 0 187 -27t164 -78l95 141l110 -72l-105 -156q90 -99 139.5 -239.5t49.5 -312.5q0 -225 -82 -393.5t-227.5 -259.5t-330.5 -91q-200 0 -354 106l-98 -146zM1180 952q-30 102 -85 176
l-608 -900q110 -80 257 -80q133 0 238.5 67t166.5 197t61 312q0 126 -30 228zM307.5 498q29.5 -101 83.5 -175l608 899q-112 78 -255 78q-133 0 -238.5 -67t-166.5 -197t-61 -312q0 -125 29.5 -226zM840 1924h198l-222 -328h-148z" />
    <glyph glyph-name="oslashacute" unicode="&#x1ff;" horiz-adv-x="1162" 
d="M146 14l78 116q-67 74 -102.5 178t-35.5 230q0 167 62 294.5t174.5 197.5t259.5 70q141 0 252 -66l70 104l108 -74l-77 -114q67 -75 103 -180t36 -232q0 -167 -61.5 -294t-173 -196.5t-257.5 -69.5q-144 0 -257 68l-71 -106zM759 185.5q72 55.5 107.5 148t35.5 204.5
q0 76 -16.5 144t-48.5 122l-423 -627q72 -47 168 -47q105 0 177 55.5zM322 275l423 627q-71 46 -163 46q-107 0 -179.5 -56t-108.5 -149t-36 -205q0 -154 64 -263zM678 1562h198l-222 -328h-148z" />
    <glyph glyph-name="uni0218" unicode="&#x218;" horiz-adv-x="1244" 
d="M899.5 1204.5q-42.5 50.5 -112.5 77t-157 26.5q-94 0 -166.5 -30.5t-112 -84.5t-39.5 -123q0 -100 81.5 -153t198.5 -83l144 -40q168 -43 289 -132.5t121 -267.5q0 -119 -62.5 -214.5t-181 -150.5t-282.5 -55q-154 0 -269 50t-180 141t-73 211h184q8 -78 55 -131.5
t120.5 -80t162.5 -26.5q100 0 179.5 32t125 91.5t45.5 136.5q0 66 -37.5 111t-98 73t-150.5 54l-178 48q-178 52 -273 144t-95 234q0 119 65.5 211.5t179 143.5t253.5 51q138 0 248 -50t174 -137.5t68 -196.5h-176q-8 70 -50.5 120.5zM538 -140h174l-122 -366h-134z" />
    <glyph glyph-name="uni0219" unicode="&#x219;" horiz-adv-x="1016" 
d="M668.5 914.5q-54.5 39.5 -146.5 39.5q-66 0 -118.5 -21.5t-82 -59t-29.5 -83.5q0 -54 45.5 -92t140.5 -60l162 -40q146 -35 218 -107.5t72 -186.5q0 -95 -50.5 -168.5t-146.5 -115.5t-229 -42q-183 0 -290 78.5t-128 227.5h180q15 -79 73 -117.5t161 -38.5q116 0 184 45
t68 121q0 58 -43 96.5t-135 59.5l-164 38q-142 33 -216 108t-74 184q0 92 50.5 165t142 114t209.5 41q110 0 194 -37t133.5 -104t60.5 -155h-168q-19 71 -73.5 110.5zM434 -114h174l-122 -366h-134z" />
    <glyph glyph-name="uni021A" unicode="&#x21a;" horiz-adv-x="1252" 
d="M80 1448h1092v-160h-454v-1288h-182v1288h-456v160zM540 -114h174l-122 -366h-134z" />
    <glyph glyph-name="uni021B" unicode="&#x21b;" horiz-adv-x="696" 
d="M612 942h-228v-630q0 -96 38 -129t104 -33q50 0 102 4v-160q-52 -8 -120 -8q-76 0 -144 31.5t-111 95.5t-43 155v674h-164v144h164v260h174v-260h228v-144zM306 -114h174l-122 -366h-134z" />
    <glyph glyph-name="uni02B0" unicode="&#x2b0;" horiz-adv-x="776" 
d="M230 724h-152v964h148v-364h6q26 62 82 97t136 35q73 0 129 -32.5t87.5 -92.5t31.5 -141v-466h-150v440q0 76 -42 120t-112 44q-72 0 -118 -46t-46 -124v-434z" />
    <glyph glyph-name="uni02B2" unicode="&#x2b2;" horiz-adv-x="312" 
d="M232 1448v-776q0 -108 -64.5 -162t-179.5 -54h-32v120h22q50 0 76 25.5t26 72.5v774h152zM94.5 1571q-24.5 25 -24.5 61q0 35 25 60.5t59 25.5q37 0 63.5 -25.5t26.5 -60.5t-26.5 -60.5t-63.5 -25.5q-35 0 -59.5 25z" />
    <glyph glyph-name="uni02B3" unicode="&#x2b3;" horiz-adv-x="510" 
d="M78 1448h148v-122h6q21 60 73 95t117 35q44 0 58 -4v-140q-7 3 -27 6.5t-41 3.5q-80 0 -131 -46t-51 -128v-424h-152v724z" />
    <glyph glyph-name="uni02B7" unicode="&#x2b7;" horiz-adv-x="1070" 
d="M22 1448h154l138 -538h6l140 538h152l142 -538h6l136 538h154l-202 -724h-164l-144 514h-10l-142 -514h-164z" />
    <glyph glyph-name="uni02B8" unicode="&#x2b8;" horiz-adv-x="726" 
d="M92 442l2 128q14 -2 38 -2q47 0 78 18.5t48 63.5l22 58l-258 740h160l178 -572h4l178 572h164l-292 -824q-29 -84 -89 -133t-153 -49h-80z" />
    <glyph glyph-name="circumflex" unicode="&#x2c6;" horiz-adv-x="882" 
d="M440 1412l-146 -196h-164v12l232 294h156l232 -294v-12h-162z" />
    <glyph glyph-name="caron" unicode="&#x2c7;" horiz-adv-x="882" 
d="M442 1326l146 196h164v-12l-232 -294h-156l-232 294v12h162z" />
    <glyph glyph-name="breve" unicode="&#x2d8;" horiz-adv-x="868" 
d="M695.5 1313q-36.5 -59 -104 -92t-157.5 -33q-89 0 -155.5 33t-102.5 92t-36 135h158q0 -59 33.5 -97.5t102.5 -38.5q70 0 104 38.5t34 97.5h160q0 -76 -36.5 -135z" />
    <glyph glyph-name="dotaccent" unicode="&#x2d9;" horiz-adv-x="448" 
d="M139 1299q-35 33 -35 81t35 81t85 33t86 -33t36 -81t-36 -81t-86 -33t-85 33z" />
    <glyph glyph-name="ring" unicode="&#x2da;" horiz-adv-x="590" 
d="M164.5 1239.5q-58.5 31.5 -92.5 86.5t-34 122q0 66 34 123t93 91t129 34t128.5 -34t92 -91t33.5 -123q0 -67 -33.5 -122t-91.5 -86.5t-129 -31.5t-129.5 31.5zM363.5 1334.5q30.5 18.5 47.5 49t17 64.5q0 35 -17 67t-47.5 51.5t-69.5 19.5q-38 0 -68.5 -19.5t-48 -51.5
t-17.5 -67q0 -34 17.5 -64.5t48 -49t68.5 -18.5q39 0 69.5 18.5z" />
    <glyph glyph-name="ogonek" unicode="&#x2db;" horiz-adv-x="504" 
d="M131.5 -373.5q-56.5 48.5 -57.5 137.5q0 83 61.5 159.5t192.5 136.5l82 -60q-76 -54 -119 -104.5t-43 -107.5q0 -34 16.5 -51t57.5 -17q46 0 94 24l12 -124q-26 -18 -64.5 -30t-85.5 -12q-90 0 -146.5 48.5z" />
    <glyph glyph-name="tilde" unicode="&#x2dc;" horiz-adv-x="968" 
d="M162.5 1350q28.5 57 78 88.5t109.5 31.5q37 0 65 -11t71 -35q35 -21 62.5 -32.5t59.5 -11.5q41 0 68.5 30.5t27.5 75.5l130 -10q0 -73 -28.5 -128t-78.5 -84.5t-111 -29.5q-45 0 -76 12.5t-66 35.5q-30 21 -55 31.5t-59 10.5q-40 0 -66 -31t-26 -77l-134 6q0 71 28.5 128
z" />
    <glyph glyph-name="hungarumlaut" unicode="&#x2dd;" horiz-adv-x="710" 
d="M590 1494h190l-258 -300h-150zM238 1494h186l-210 -300h-136z" />
    <glyph glyph-name="uni02E1" unicode="&#x2e1;" horiz-adv-x="306" 
d="M230 724h-152v964h152v-964z" />
    <glyph glyph-name="uni02E2" unicode="&#x2e2;" horiz-adv-x="690" 
d="M449 1318q-38 28 -99 28q-56 0 -96 -27t-40 -69q0 -33 27 -56t85 -36l124 -28q97 -22 146.5 -71t49.5 -123q0 -67 -39 -118.5t-107 -79.5t-154 -28q-129 0 -207 57.5t-93 162.5h146q28 -106 154 -106q62 0 103 27.5t41 70.5q0 70 -106 92l-122 26q-196 41 -196 202
q0 65 35 113.5t98.5 74.5t146.5 26q123 0 199.5 -56t90.5 -154h-140q-9 44 -47 72z" />
    <glyph glyph-name="uni02E3" unicode="&#x2e3;" horiz-adv-x="704" 
d="M354 1176l150 272h162l-214 -358l222 -366h-158l-162 276l-164 -276h-160l222 366l-212 358h158z" />
    <glyph glyph-name="gravecomb" unicode="&#x300;" horiz-adv-x="0" 
d="M-442 1206h-170l-256 288h238z" />
    <glyph glyph-name="acutecomb" unicode="&#x301;" horiz-adv-x="0" 
d="M-194 1562h198l-222 -328h-148z" />
    <glyph glyph-name="tildecomb" unicode="&#x303;" horiz-adv-x="0" 
d="M-829.5 1350q28.5 57 78 88.5t109.5 31.5q37 0 65 -11t71 -35q35 -21 62.5 -32.5t59.5 -11.5q41 0 68.5 30.5t27.5 75.5l130 -10q0 -73 -28.5 -128t-78.5 -84.5t-111 -29.5q-45 0 -76 12.5t-66 35.5q-30 21 -55 31.5t-59 10.5q-40 0 -66 -31t-26 -77l-134 6
q0 71 28.5 128z" />
    <glyph glyph-name="Alpha" unicode="&#x391;" horiz-adv-x="1322" 
d="M36 0l530 1448h190l530 -1448h-190l-145 408h-582l-145 -408h-188zM896 566l-230 648h-12l-230 -648h472z" />
    <glyph glyph-name="Beta" unicode="&#x392;" horiz-adv-x="1268" 
d="M160 1448h508q147 0 247 -50t149.5 -137t49.5 -197q0 -130 -65 -202.5t-171 -101.5v-14q70 -4 138 -48t112 -124.5t44 -189.5q0 -113 -51.5 -199t-160.5 -135.5t-274 -49.5h-526v1448zM921.5 222q76.5 62 76.5 164q0 74 -37.5 136.5t-107 99t-159.5 36.5h-354v-498h344
q161 0 237.5 62zM804 844.5q64 30.5 101 87t37 130.5q0 100 -69 163t-205 63h-328v-474h322q78 0 142 30.5z" />
    <glyph glyph-name="Gamma" unicode="&#x393;" horiz-adv-x="1118" 
d="M1036 1288h-696v-1288h-180v1448h876v-160z" />
    <glyph glyph-name="uni0394" unicode="&#x394;" horiz-adv-x="1322" 
d="M566 1448h190l530 -1448h-1250zM1038 160l-372 1054h-12l-372 -1054h756z" />
    <glyph glyph-name="Epsilon" unicode="&#x395;" horiz-adv-x="1162" 
d="M160 1448h878v-160h-698v-484h652v-158h-652v-486h708v-160h-888v1448z" />
    <glyph glyph-name="Zeta" unicode="&#x396;" horiz-adv-x="1218" 
d="M112 130l778 1158h-786v160h1002v-130l-778 -1158h786v-160h-1002v130z" />
    <glyph glyph-name="Eta" unicode="&#x397;" horiz-adv-x="1446" 
d="M160 1448h180v-644h766v644h182v-1448h-182v646h-766v-646h-180v1448z" />
    <glyph glyph-name="Theta" unicode="&#x398;" horiz-adv-x="1488" 
d="M1046 644h-606v160h606v-160zM1302 330.5q-82 -168.5 -227.5 -259.5t-330.5 -91q-186 0 -331 91t-227 259.5t-82 393.5t82 393.5t227 259.5t331 91q185 0 330.5 -91t227.5 -259.5t82 -393.5t-82 -393.5zM1149 1036q-61 130 -166.5 197t-238.5 67t-238.5 -67t-166.5 -197
t-61 -312t61 -312t166.5 -197t238.5 -67t238.5 67t166.5 197t61 312t-61 312z" />
    <glyph glyph-name="IotaGreek" unicode="&#x399;" horiz-adv-x="500" 
d="M340 0h-180v1448h180v-1448z" />
    <glyph glyph-name="Kappa" unicode="&#x39a;" horiz-adv-x="1272" 
d="M160 1448h180v-716h18l644 716h236l-606 -654l606 -794h-220l-498 670l-180 -204v-466h-180v1448z" />
    <glyph glyph-name="Lambda" unicode="&#x39b;" horiz-adv-x="1322" 
d="M36 0l530 1448h190l530 -1448h-190l-430 1214h-12l-430 -1214h-188z" />
    <glyph glyph-name="Mu" unicode="&#x39c;" horiz-adv-x="1746" 
d="M376 1448l488 -1192h18l488 1192h216v-1448h-170v1094h-14l-450 -1094h-160l-450 1094h-12v-1094h-170v1448h216z" />
    <glyph glyph-name="Nu" unicode="&#x39d;" horiz-adv-x="1470" 
d="M1310 0h-172l-784 1128h-14v-1128h-180v1448h174l784 -1130h14v1130h178v-1448z" />
    <glyph glyph-name="Xi" unicode="&#x39e;" horiz-adv-x="1046" 
d="M64 160h918v-160h-918v160zM150 816h742v-158h-742v158zM68 1448h900v-160h-900v160z" />
    <glyph glyph-name="Omicron" unicode="&#x39f;" horiz-adv-x="1488" 
d="M1302 330.5q-82 -168.5 -227.5 -259.5t-330.5 -91q-186 0 -331 91t-227 259.5t-82 393.5t82 393.5t227 259.5t331 91q185 0 330.5 -91t227.5 -259.5t82 -393.5t-82 -393.5zM1149 1036q-61 130 -166.5 197t-238.5 67t-238.5 -67t-166.5 -197t-61 -312t61 -312t166.5 -197
t238.5 -67t238.5 67t166.5 197t61 312t-61 312z" />
    <glyph glyph-name="Pi" unicode="&#x3a0;" horiz-adv-x="1410" 
d="M1248 0h-182v1288h-724v-1288h-180v1448h1086v-1448z" />
    <glyph glyph-name="Rho" unicode="&#x3a1;" horiz-adv-x="1238" 
d="M160 1448h492q164 0 275 -60t165 -163.5t54 -236.5q0 -132 -54 -236.5t-164.5 -165t-273.5 -60.5h-314v-526h-180v1448zM646 686q164 0 243 82.5t79 219.5q0 138 -79 219t-245 81h-304v-602h306z" />
    <glyph glyph-name="Sigma" unicode="&#x3a3;" horiz-adv-x="1226" 
d="M1112 0h-998v148l460 556l-460 564v150h954v-168h-695l421 -534v-18l-421 -530h739v-168z" />
    <glyph glyph-name="Tau" unicode="&#x3a4;" horiz-adv-x="1252" 
d="M80 1448h1092v-160h-454v-1288h-182v1288h-456v160z" />
    <glyph glyph-name="Upsilon" unicode="&#x3a5;" horiz-adv-x="1298" 
d="M242 1448l398 -672h18l398 672h208l-524 -854v-594h-182v594l-522 854h206z" />
    <glyph glyph-name="Phi" unicode="&#x3a6;" horiz-adv-x="1468" 
d="M824 1258q158 -2 285.5 -70t200 -188.5t72.5 -273.5q0 -156 -71.5 -276.5t-198 -188.5t-288.5 -71v-190h-174v190q-162 2 -290.5 69.5t-201 188t-72.5 274.5t74 275.5t202.5 190t287.5 70.5v190h174v-190zM308.5 531q48.5 -82 136.5 -127.5t205 -47.5v736
q-116 -2 -204.5 -48t-137 -129t-48.5 -193q0 -109 48.5 -191zM1027 405q87 46 134 128.5t47 192.5q0 109 -48 191t-135 127.5t-201 47.5v-736q116 3 203 49z" />
    <glyph glyph-name="Chi" unicode="&#x3a7;" horiz-adv-x="1254" 
d="M620 850h12l370 598h212l-454 -724l454 -724h-212l-370 586h-12l-370 -586h-212l466 724l-466 724h214z" />
    <glyph glyph-name="Psi" unicode="&#x3a8;" horiz-adv-x="1526" 
d="M1366 1448v-542q0 -161 -65 -281t-181 -188t-266 -82v-355h-180v355q-151 14 -267 82t-181.5 187.5t-65.5 281.5v542h180v-542q0 -114 42 -197.5t117 -132.5t175 -62v934h180v-933q152 20 242 120.5t90 270.5v542h180z" />
    <glyph glyph-name="uni03A9" unicode="&#x3a9;" horiz-adv-x="1490" 
d="M104 160h300v12q-142 93 -221 243.5t-79 350.5q0 203 82 362.5t228 249.5t332 90q184 0 330 -90t228 -250t82 -362q0 -200 -79 -350.5t-223 -243.5v-12h302v-160h-518v202q95 41 172.5 123t123.5 195.5t46 243.5q0 149 -60 271.5t-166 193.5t-238 71q-134 0 -241 -71
t-167 -193.5t-60 -271.5q0 -129 46 -243t124 -196t172 -123v-202h-516v160z" />
    <glyph glyph-name="alpha" unicode="&#x3b1;" horiz-adv-x="1248" 
d="M302.5 50q-103.5 72 -160 200.5t-56.5 293.5q0 161 59 287.5t164.5 197.5t238.5 71q141 0 232 -78t146 -218h1l61 282h160l-125 -543l139 -543h-160l-66 272h-2q-58 -136 -155 -215t-237 -79q-136 0 -239.5 72zM293 331q35 -93 99 -146t146 -53q137 0 217 127.5
t115 280.5l1 3l-1 3q-31 153 -105 276.5t-215 123.5q-84 0 -150.5 -51.5t-104 -144t-37.5 -210.5q0 -116 35 -209z" />
    <glyph glyph-name="beta" unicode="&#x3b2;" horiz-adv-x="1152" 
d="M794.5 1414q95.5 -54 146.5 -142t51 -186q0 -84 -36.5 -163.5t-107.5 -134.5q102 -54 155 -155.5t53 -216.5q0 -122 -57.5 -221.5t-159 -157t-227.5 -57.5q-189 0 -290 140l-12 -6v-522h-172v1482q0 113 56 202.5t154.5 140.5t221.5 51q129 0 224.5 -54zM344 267.5
q34 -58.5 98 -93t148 -34.5q88 0 155 37.5t103 101t36 139.5q0 71 -32.5 133.5t-91.5 100.5t-134 38h-138v158h80q78 0 136 33t89 87.5t31 115.5q0 64 -33.5 115t-92 80t-128.5 29q-71 0 -130.5 -29.5t-94.5 -83t-35 -121.5v-678q0 -70 34 -128.5z" />
    <glyph glyph-name="gamma" unicode="&#x3b3;" horiz-adv-x="1036" 
d="M240 1086l282 -822l276 822h186l-378 -1064v-430h-172v430l-382 1064h188z" />
    <glyph glyph-name="delta" unicode="&#x3b4;" horiz-adv-x="1048" 
d="M216.5 1382.5q44.5 62.5 128.5 97t199 34.5q73 0 133.5 -12t128.5 -38v-168q-53 21 -123 37.5t-135 16.5q-83 0 -128.5 -30.5t-45.5 -81.5q0 -45 46 -89.5t166 -88.5q212 -75 312 -211t100 -335v-18q0 -147 -57 -264t-164 -184.5t-251 -67.5q-146 0 -253.5 67t-164 184.5
t-56.5 264.5v18q0 111 42.5 205.5t115.5 158.5t160 86v6q-93 37 -145.5 105.5t-52.5 160.5q0 84 44.5 146.5zM281.5 314q29.5 -81 91.5 -128.5t153 -47.5t152.5 48t91.5 129t30 181v20q0 80 -34.5 157t-97 133t-142.5 72q-91 0 -152.5 -48.5t-91.5 -130.5t-30 -183v-20
q0 -101 29.5 -182z" />
    <glyph glyph-name="epsilon" unicode="&#x3b5;" horiz-adv-x="1056" 
d="M134.5 443q48.5 68 165.5 100q-194 55 -194 237q0 99 52.5 171.5t147 110.5t218.5 38t217.5 -37.5t150 -108t70.5 -168.5h-180q-17 74 -84.5 118t-173.5 44q-73 0 -127.5 -21.5t-84.5 -59.5t-30 -87q0 -69 59 -108.5t173 -39.5h130v-146h-130q-73 0 -129 -24t-86.5 -65.5
t-30.5 -92.5q0 -50 33 -88t94 -59t141 -21q117 0 181 44t85 136h180q-12 -101 -71 -177t-157.5 -117.5t-225.5 -41.5q-126 0 -227 39.5t-158 111t-57 163.5q0 81 48.5 149z" />
    <glyph glyph-name="zeta" unicode="&#x3b6;" horiz-adv-x="1012" 
d="M916 1322l-334 -434l-56 -72q-78 -101 -114.5 -156.5t-59 -123.5t-22.5 -158q0 -72 42 -125.5t114 -74.5l130 -40q121 -36 189.5 -94.5t68.5 -127.5q0 -68 -48 -144.5t-130 -145.5l-104 90q43 46 67.5 92t24.5 78q0 28 -39 55t-107 47l-88 26q-139 40 -218.5 136
t-79.5 224q0 116 31.5 212.5t89.5 184t155 199.5l266 318h-614v160h836v-126z" />
    <glyph glyph-name="eta" unicode="&#x3b7;" horiz-adv-x="1140" 
d="M310 0h-172v1086h166v-170h14q41 87 119.5 135.5t198.5 48.5q112 0 194 -45.5t127 -137.5t45 -227v-1098h-172v1086q0 126 -65 197t-181 71q-79 0 -141 -34.5t-97.5 -101t-35.5 -158.5v-652z" />
    <glyph glyph-name="theta" unicode="&#x3b8;" horiz-adv-x="1048" 
d="M921.5 265q-54.5 -144 -155.5 -214.5t-240 -70.5t-240.5 70.5t-157.5 215t-56 360.5v176q0 321 120 478.5t332 157.5q214 0 333 -157t119 -479v-176q0 -217 -54.5 -361zM765.5 1077.5q-34.5 101.5 -97 154t-144.5 52.5q-83 0 -146 -52.5t-98.5 -154t-35.5 -243.5v-48h556
v48q0 142 -34.5 243.5zM280.5 349.5q36.5 -104.5 100.5 -160t145 -55.5q83 0 145 55t95.5 159.5t33.5 247.5v30h-556v-30q0 -142 36.5 -246.5z" />
    <glyph glyph-name="iota" unicode="&#x3b9;" horiz-adv-x="502" 
d="M304 1086l-2 -814q0 -120 126 -120q33 0 82 14v-160q-33 -9 -66 -14.5t-78 -5.5q-108 0 -171 67.5t-63 216.5v816h172z" />
    <glyph glyph-name="kappa" unicode="&#x3ba;" horiz-adv-x="1230" 
d="M354 636h98l382 450h242l-465 -543l465 -543h-252l-391 462h-79v-462h-200v1086h200v-450z" />
    <glyph glyph-name="lambda" unicode="&#x3bb;" horiz-adv-x="1138" 
d="M858 33.5q-62 49.5 -96 148.5l-227 646h-11l-286 -828h-186l391 1063l-35 89q-33 86 -70.5 121t-95.5 35q-39 0 -90 -12l-44 152q19 7 52.5 13.5t71.5 6.5q117 0 197 -61t125 -187l370 -996q15 -40 31.5 -61t52.5 -21l40 2l36 -150q-47 -10 -80 -10q-84 0 -146 49.5z" />
    <glyph glyph-name="uni03BC" unicode="&#x3bc;" horiz-adv-x="1214" 
d="M138 1086h172v-640q0 -87 37 -154t104 -103.5t155 -36.5q89 0 157 37t105.5 104t37.5 153v640h172v-1086h-172v162h-10q-42 -85 -119 -129.5t-171 -44.5q-93 0 -169.5 44.5t-118.5 129.5h-8v-570h-172v1494z" />
    <glyph glyph-name="nu" unicode="&#x3bd;" horiz-adv-x="1128" 
d="M52 1086h186l312 -904h12q117 185 180 333t88 279.5t28 291.5h174q-2 -276 -103.5 -552.5t-300.5 -533.5h-174z" />
    <glyph glyph-name="xi" unicode="&#x3be;" horiz-adv-x="1048" 
d="M751.5 1300q-51.5 8 -103.5 8q-130 0 -202 -51t-72 -145q0 -97 79.5 -149.5t224.5 -52.5h140v-160h-140q-180 0 -273 -77.5t-93 -230.5q0 -113 65 -187.5t191 -104.5l110 -26q94 -21 150 -48t82 -65t26 -91q-1 -72 -48.5 -153.5t-127.5 -150.5l-114 86q59 63 79.5 101.5
t20.5 68.5q0 45 -32 68t-114 40l-60 14q-220 47 -324 150.5t-104 277.5q0 158 76.5 262t224.5 149q-113 42 -176 118.5t-63 178.5q0 100 59 176.5t165.5 119t245.5 42.5q72 0 140.5 -11t115.5 -29l-28 -156q-69 20 -120.5 28z" />
    <glyph glyph-name="omicron" unicode="&#x3bf;" horiz-adv-x="1162" 
d="M322.5 47.5q-112.5 69.5 -174.5 196.5t-62 294t62 294.5t174.5 197.5t259.5 70q146 0 257.5 -70t173 -197.5t61.5 -294.5t-61.5 -294t-173 -196.5t-257.5 -69.5q-147 0 -259.5 69.5zM759 185.5q72 55.5 107.5 148t35.5 204.5t-35.5 205t-107.5 149t-177 56
q-107 0 -179.5 -56t-108.5 -149t-36 -205t36 -204.5t108.5 -148t179.5 -55.5q105 0 177 55.5z" />
    <glyph glyph-name="pi" unicode="&#x3c0;" horiz-adv-x="1230" 
d="M1128 928h-158v-656q0 -68 35 -94t87 -26q21 0 45 5t39 9v-158q-77 -22 -144 -22q-232 0 -232 284v658h-412v-928h-172v928h-160v158h1072v-158z" />
    <glyph glyph-name="rho" unicode="&#x3c1;" horiz-adv-x="1110" 
d="M183 857q57 122 156.5 182.5t228.5 60.5q142 0 245 -73.5t157 -207t54 -311.5v-20q0 -148 -54 -263t-154 -180t-234 -65q-95 0 -165 34.5t-122 101.5l3 -520h-172v962q0 177 57 299zM293 457q4 -76 33.5 -150t91 -123.5t154.5 -49.5q90 0 152 47.5t92 128t30 178.5v20
q0 194 -70 313t-208 119q-94 0 -156 -55t-91 -141.5t-29 -183.5z" />
    <glyph glyph-name="sigma" unicode="&#x3c3;" horiz-adv-x="1228" 
d="M157 801q57 117 164.5 184t250.5 67h556v-158h-272q90 -64 140 -167t50 -231v-20q0 -130 -57 -244t-163.5 -183t-249.5 -69q-145 0 -253 69.5t-165.5 191t-57.5 273.5v24q0 146 57 263zM329.5 324q29.5 -85 91.5 -135.5t155 -50.5q91 0 151.5 50.5t89.5 135.5t29 190v24
q0 99 -29 179.5t-90.5 128.5t-154.5 48q-91 0 -152 -48t-90.5 -128.5t-29.5 -179.5v-24q0 -105 29.5 -190z" />
    <glyph glyph-name="tau" unicode="&#x3c4;" horiz-adv-x="912" 
d="M900 928h-368v-662q0 -57 16 -84.5t38 -33.5t54 -6q24 0 47.5 9t38.5 21l46 -136q-44 -33 -87.5 -44.5t-96.5 -11.5q-115 0 -171.5 70t-56.5 224v654h-348v158h888v-158z" />
    <glyph glyph-name="upsilon" unicode="&#x3c5;" horiz-adv-x="1138" 
d="M310 1086v-668q0 -146 61.5 -214t154.5 -68q88 0 158 55t109 150.5t39 210.5q-3 114 -38 259.5t-86 274.5h178q47 -92 80.5 -244t33.5 -290q0 -156 -50 -285.5t-155 -208t-263 -78.5q-183 0 -288.5 110t-105.5 332v664h172z" />
    <glyph glyph-name="phi" unicode="&#x3c6;" horiz-adv-x="1432" 
d="M683 1045q61 55 181 55q133 0 243 -71.5t174.5 -197t64.5 -279.5q0 -148 -56.5 -270.5t-180 -203t-315.5 -95.5v-391h-172v391q-189 16 -308.5 97.5t-173.5 208.5t-54 285q0 172 62 307.5t182 218.5l104 -128q-85 -76 -128.5 -173t-47.5 -225q0 -105 38.5 -196.5
t120.5 -154t205 -79.5v730q0 116 61 171zM1006.5 219.5q85.5 60.5 126.5 147.5t41 185q-3 108 -41 198.5t-107.5 144t-161.5 53.5q-34 0 -52 -20t-18 -50v-735q127 16 212.5 76.5z" />
    <glyph glyph-name="chi" unicode="&#x3c7;" horiz-adv-x="1166" 
d="M523 346l-249 476q-33 62 -49.5 83.5t-38 28t-74.5 6.5h-42v158h42q83 0 133 -16.5t88.5 -58.5t82.5 -127l200 -386l308 576h182l-401 -741l249 -489q25 -50 43.5 -71t42.5 -27t76 -6h42v-160h-42q-85 0 -136 15t-89 55t-79 120l-200 400l-306 -590h-182z" />
    <glyph glyph-name="psi" unicode="&#x3c8;" horiz-adv-x="1464" 
d="M310 1086v-506q0 -205 99 -312t261 -126v944h172v-941q121 19 203 81t121.5 148.5t39.5 179.5q-4 126 -37 267t-85 265h182q47 -96 79.5 -239t32.5 -293q0 -149 -53.5 -271t-173.5 -202.5t-309 -96.5v-448h-172v447q-254 19 -393 167t-139 430v506h172z" />
    <glyph glyph-name="omega" unicode="&#x3c9;" horiz-adv-x="1588" 
d="M331 881q-36 -91 -49.5 -170.5t-13.5 -172.5q0 -125 27 -215t77.5 -137.5t119.5 -47.5q94 0 148 83.5t54 238.5v326h200v-326q0 -155 54.5 -238.5t147.5 -83.5q69 0 119.5 47.5t77.5 137.5t27 215q0 94 -13.5 173.5t-49.5 170t-103 204.5h194q152 -241 152 -534
q0 -180 -46 -308.5t-134 -196t-210 -67.5q-116 0 -196.5 59.5t-119.5 173.5q-39 -114 -119.5 -173.5t-196.5 -59.5q-121 0 -208.5 67.5t-133.5 196t-46 308.5q0 296 150 534h194q-67 -114 -103 -205z" />
    <glyph glyph-name="uni0401" unicode="&#x401;" horiz-adv-x="1162" 
d="M160 1448h878v-160h-698v-484h652v-158h-652v-486h708v-160h-888v1448zM336.5 1644q-26.5 16 -42.5 42.5t-16 55.5q0 48 34 81t80 33q51 0 83.5 -32t32.5 -82q0 -46 -33 -80t-83 -34q-29 0 -55.5 16zM745 1644q-27 16 -43 42.5t-16 55.5q0 49 34.5 81.5t81.5 32.5
q48 0 81 -32.5t33 -81.5q0 -30 -15 -56t-41.5 -42t-57.5 -16q-30 0 -57 16z" />
    <glyph glyph-name="uni0410" unicode="&#x410;" horiz-adv-x="1322" 
d="M36 0l530 1448h190l530 -1448h-190l-145 408h-582l-145 -408h-188zM896 566l-230 648h-12l-230 -648h472z" />
    <glyph glyph-name="uni0411" unicode="&#x411;" horiz-adv-x="1284" 
d="M160 1448h876v-160h-696v-446h362q155 0 263.5 -50t164.5 -143.5t56 -220.5t-56 -223.5t-165 -150.5t-263 -54h-542v1448zM866.5 195q69.5 39 105.5 102t36 135q0 69 -36 126.5t-105 91.5t-165 34h-362v-528h362q95 0 164.5 39z" />
    <glyph glyph-name="uni0412" unicode="&#x412;" horiz-adv-x="1268" 
d="M160 1448h508q147 0 247 -50t149.5 -137t49.5 -197q0 -130 -65 -202.5t-171 -101.5v-14q70 -4 138 -48t112 -124.5t44 -189.5q0 -113 -51.5 -199t-160.5 -135.5t-274 -49.5h-526v1448zM921.5 222q76.5 62 76.5 164q0 74 -37.5 136.5t-107 99t-159.5 36.5h-354v-498h344
q161 0 237.5 62zM804 844.5q64 30.5 101 87t37 130.5q0 100 -69 163t-205 63h-328v-474h322q78 0 142 30.5z" />
    <glyph glyph-name="uni0413" unicode="&#x413;" horiz-adv-x="1118" 
d="M1036 1288h-696v-1288h-180v1448h876v-160z" />
    <glyph glyph-name="uni0414" unicode="&#x414;" horiz-adv-x="1462" 
d="M36 160h92q82 73 136 231.5t68 446.5l32 610h864v-1288h166v-508h-172v348h-1014v-350h-172v510zM1056 160v1128h-528l-24 -450q-23 -464 -160 -678h712z" />
    <glyph glyph-name="uni0415" unicode="&#x415;" horiz-adv-x="1162" 
d="M160 1448h878v-160h-698v-484h652v-158h-652v-486h708v-160h-888v1448z" />
    <glyph glyph-name="uni0416" unicode="&#x416;" horiz-adv-x="1870" 
d="M1026 808h176l376 640h216l-430 -696l468 -752h-208l-390 640h-208v-640h-182v640h-208l-392 -640h-206l470 756l-430 692h218l374 -640h174v640h182v-640z" />
    <glyph glyph-name="uni0417" unicode="&#x417;" horiz-adv-x="1264" 
d="M380.5 28q-112.5 48 -178 135t-70.5 201h182q5 -67 48.5 -118t114.5 -78.5t157 -27.5q94 0 169.5 32.5t118 90t42.5 131.5q0 80 -41.5 141t-120.5 95t-190 34h-118v158h118q87 0 155 31t105.5 87t37.5 130q0 71 -33.5 126t-94.5 85.5t-142 30.5q-78 0 -146 -28
t-111 -79.5t-47 -120.5h-174q5 112 70 199.5t173 136t237 48.5q134 0 234.5 -52.5t154.5 -141.5t53 -194q1 -122 -65 -209t-181 -119v-10q93 -15 161.5 -62.5t105 -121t35.5 -164.5q1 -117 -65 -211.5t-181.5 -148.5t-257.5 -54q-143 0 -255.5 48z" />
    <glyph glyph-name="uni0418" unicode="&#x418;" horiz-adv-x="1470" 
d="M338 1448v-1130h12l788 1130h172v-1448h-180v1128h-14l-784 -1128h-172v1448h178z" />
    <glyph glyph-name="uni0419" unicode="&#x419;" horiz-adv-x="1470" 
d="M338 1448v-1130h12l788 1130h172v-1448h-180v1128h-14l-784 -1128h-172v1448h178zM997.5 1675q-36.5 -59 -104 -92t-157.5 -33q-89 0 -155.5 33t-102.5 92t-36 135h158q0 -59 33.5 -97.5t102.5 -38.5q70 0 104 38.5t34 97.5h160q0 -76 -36.5 -135z" />
    <glyph glyph-name="uni041A" unicode="&#x41a;" horiz-adv-x="1264" 
d="M472 664h-132v-664h-180v1448h180v-626h132l520 626h216l-584 -706l604 -742h-216z" />
    <glyph glyph-name="uni041B" unicode="&#x41b;" horiz-adv-x="1394" 
d="M36 164l42 2q90 0 139.5 57t73 181.5t31.5 347.5l24 696h888v-1448h-182v1288h-534l-22 -572q-11 -252 -46 -403.5t-119.5 -232t-240.5 -80.5h-54v164z" />
    <glyph glyph-name="uni041C" unicode="&#x41c;" horiz-adv-x="1746" 
d="M376 1448l488 -1192h18l488 1192h216v-1448h-170v1094h-14l-450 -1094h-160l-450 1094h-12v-1094h-170v1448h216z" />
    <glyph glyph-name="uni041D" unicode="&#x41d;" horiz-adv-x="1446" 
d="M160 1448h180v-644h766v644h182v-1448h-182v646h-766v-646h-180v1448z" />
    <glyph glyph-name="uni041E" unicode="&#x41e;" horiz-adv-x="1488" 
d="M1302 330.5q-82 -168.5 -227.5 -259.5t-330.5 -91q-186 0 -331 91t-227 259.5t-82 393.5t82 393.5t227 259.5t331 91q185 0 330.5 -91t227.5 -259.5t82 -393.5t-82 -393.5zM1149 1036q-61 130 -166.5 197t-238.5 67t-238.5 -67t-166.5 -197t-61 -312t61 -312t166.5 -197
t238.5 -67t238.5 67t166.5 197t61 312t-61 312z" />
    <glyph glyph-name="uni041F" unicode="&#x41f;" horiz-adv-x="1410" 
d="M1248 0h-182v1288h-724v-1288h-180v1448h1086v-1448z" />
    <glyph glyph-name="uni0420" unicode="&#x420;" horiz-adv-x="1238" 
d="M160 1448h492q164 0 275 -60t165 -163.5t54 -236.5q0 -132 -54 -236.5t-164.5 -165t-273.5 -60.5h-314v-526h-180v1448zM646 686q164 0 243 82.5t79 219.5q0 138 -79 219t-245 81h-304v-602h306z" />
    <glyph glyph-name="uni0421" unicode="&#x421;" horiz-adv-x="1420" 
d="M1068.5 1158.5q-59.5 69.5 -144 105.5t-180.5 36q-133 0 -238.5 -67t-166.5 -197t-61 -312t61 -312t166.5 -197t238.5 -67q96 0 180 35.5t143.5 105t80.5 165.5h180q-26 -145 -108 -252.5t-205.5 -164.5t-270.5 -57q-186 0 -331 91t-227 259.5t-82 393.5t82 393.5
t227 259.5t331 91q146 0 269.5 -57t206 -164.5t108.5 -254.5h-180q-20 97 -79.5 166.5z" />
    <glyph glyph-name="uni0422" unicode="&#x422;" horiz-adv-x="1252" 
d="M80 1448h1092v-160h-454v-1288h-182v1288h-456v160z" />
    <glyph glyph-name="uni0423" unicode="&#x423;" horiz-adv-x="1214" 
d="M238 148h90q126 0 186 140l24 54l-502 1106h194l396 -892l362 892h192l-502 -1212q-35 -83 -72.5 -136t-104 -86.5t-171.5 -33.5h-92v168z" />
    <glyph glyph-name="uni0424" unicode="&#x424;" horiz-adv-x="1552" 
d="M1178.5 1204q126.5 -72 198 -202.5t71.5 -297.5t-71.5 -298t-198 -203.5t-286.5 -72.5h-24v-190h-182v190h-26q-161 0 -287.5 72t-197.5 202t-71 298t71 298.5t198 203t287 72.5h26v198h182v-198h24q160 0 286.5 -72zM455 1067q-85 -51 -129 -145t-44 -220
q0 -125 44 -218t129 -143.5t205 -50.5h26v828h-26q-120 0 -205 -51zM892 290q120 0 204.5 50.5t128 143.5t43.5 220q0 126 -43.5 219t-128 144t-204.5 51h-24v-828h24z" />
    <glyph glyph-name="uni0425" unicode="&#x425;" horiz-adv-x="1254" 
d="M620 850h12l370 598h212l-454 -724l454 -724h-212l-370 586h-12l-370 -586h-212l466 724l-466 724h214z" />
    <glyph glyph-name="uni0426" unicode="&#x426;" horiz-adv-x="1464" 
d="M1376 -342h-186v342h-1030v1448h170v-1284h742v1284h172v-1278h152z" />
    <glyph glyph-name="uni0427" unicode="&#x427;" horiz-adv-x="1396" 
d="M354 1448v-484q0 -152 77 -214t229 -62q204 0 396 57v703h180v-1448h-180v583q-97 -30 -187 -44.5t-209 -14.5q-238 0 -362 104t-124 336v484h180z" />
    <glyph glyph-name="uni0428" unicode="&#x428;" horiz-adv-x="1872" 
d="M340 1448v-1284h506v1284h180v-1284h504v1284h182v-1448h-1552v1448h180z" />
    <glyph glyph-name="uni0429" unicode="&#x429;" horiz-adv-x="1922" 
d="M1834 -342h-176v342h-1498v1448h180v-1284h506v1284h180v-1284h504v1284h182v-1290h142z" />
    <glyph glyph-name="uni042A" unicode="&#x42a;" horiz-adv-x="1592" 
d="M80 1448h578v-606h362q155 0 263.5 -50t164.5 -143.5t56 -220.5t-56 -223.5t-165 -150.5t-263 -54h-542v1290h-398v158zM1020 156q95 0 164.5 39t105.5 102t36 135q0 69 -36 126.5t-105 91.5t-165 34h-362v-528h362z" />
    <glyph glyph-name="uni042B" unicode="&#x42b;" horiz-adv-x="1668" 
d="M965.5 792q108.5 -50 164.5 -143.5t56 -220.5t-56 -223.5t-165 -150.5t-263 -54h-542v1448h180v-606h362q155 0 263.5 -50zM702 156q95 0 164.5 39t105.5 102t36 135q0 69 -36 126.5t-105 91.5t-165 34h-362v-528h362zM1508 0h-180v1448h180v-1448z" />
    <glyph glyph-name="uni042C" unicode="&#x42c;" horiz-adv-x="1272" 
d="M965.5 792q108.5 -50 164.5 -143.5t56 -220.5t-56 -223.5t-165 -150.5t-263 -54h-542v1448h180v-606h362q155 0 263.5 -50zM702 156q95 0 164.5 39t105.5 102t36 135q0 69 -36 126.5t-105 91.5t-165 34h-362v-528h362z" />
    <glyph glyph-name="uni042D" unicode="&#x42d;" horiz-adv-x="1306" 
d="M344.5 280q39.5 -69 112.5 -104.5t187 -35.5q117 0 200.5 64.5t127 175t46.5 246.5h-566v158h566v18q0 150 -47 264t-135 177t-208 63q-155 0 -236.5 -81t-103.5 -237h-184q14 142 77 250t176 169t271 61q175 0 305.5 -82t200.5 -232t70 -350v-164q0 -198 -69.5 -347.5
t-196 -231t-294.5 -81.5q-166 0 -282.5 61t-180 167.5t-77.5 245.5h184q17 -105 56.5 -174z" />
    <glyph glyph-name="uni042E" unicode="&#x42e;" horiz-adv-x="1988" 
d="M340 788h266q12 207 96 361t225 236.5t317 82.5q185 0 330.5 -91t227.5 -259.5t82 -393.5t-82 -393.5t-227.5 -259.5t-330.5 -91q-172 0 -310.5 78.5t-223.5 225.5t-102 346h-268v-630h-180v1448h180v-660zM1649 1036q-61 130 -166.5 197t-238.5 67t-238.5 -67
t-166.5 -197t-61 -312t61 -312t166.5 -197t238.5 -67t238.5 67t166.5 197t61 312t-61 312z" />
    <glyph glyph-name="uni042F" unicode="&#x42f;" horiz-adv-x="1308" 
d="M968 0v562h-314l-35 1l-303 -563h-210l326 596q-135 47 -202.5 153t-67.5 253q0 132 53.5 232.5t164.5 157t276 56.5h492v-1448h-180zM417.5 797q77.5 -71 244.5 -71h306v562h-304q-168 0 -246 -75t-78 -211q0 -134 77.5 -205z" />
    <glyph glyph-name="uni0430" unicode="&#x430;" horiz-adv-x="1096" 
d="M201.5 546q115.5 69 292.5 82q68 5 152.5 9.5t141.5 6.5v88q0 105 -62.5 161.5t-183.5 56.5q-99 0 -162 -40.5t-82 -105.5h-180q11 87 68 154t151.5 104.5t212.5 37.5q156 0 282 -79.5t126 -304.5v-716h-170v148h-8q-20 -42 -61.5 -81.5t-108 -66t-154.5 -26.5
q-104 0 -188 40t-133 115.5t-49 178.5q0 169 115.5 238zM320.5 172.5q62.5 -44.5 165.5 -44.5q93 0 161.5 37t104.5 98t36 131v109l-274 -19q-122 -8 -189 -53t-67 -131q0 -83 62.5 -127.5z" />
    <glyph glyph-name="uni0431" unicode="&#x431;" horiz-adv-x="1148" 
d="M933.5 1326q-55.5 -20 -118 -26t-173.5 -10l-52 -2q-168 -6 -253 -114t-103 -322h14q54 99 149.5 148.5t214.5 49.5q129 0 230.5 -60t159.5 -178t58 -284q0 -168 -60 -292.5t-169.5 -191t-254.5 -66.5q-148 0 -258.5 69.5t-171 206.5t-60.5 334v114q0 365 125.5 552.5
t374.5 193.5q32 2 90 2h52q88 0 137 7.5t83 36.5l84 -106q-43 -42 -98.5 -62zM742.5 179q70.5 49 108 139t37.5 210q0 176 -83.5 273t-232.5 97q-144 0 -227 -97t-87 -273q0 -119 38.5 -209t110.5 -139.5t169 -49.5q96 0 166.5 49z" />
    <glyph glyph-name="uni0432" unicode="&#x432;" horiz-adv-x="1094" 
d="M138 1086h444q117 0 203.5 -35.5t133.5 -101t47 -151.5q0 -95 -56 -151t-154 -75q65 -10 122.5 -44.5t93.5 -94.5t36 -141q0 -84 -43.5 -150.5t-124.5 -104t-190 -37.5h-512v1086zM783.5 196.5q48.5 40.5 48.5 109.5q0 84 -48.5 132t-133.5 48h-348v-330h348
q85 0 133.5 40.5zM737.5 671q56.5 41 56.5 113q0 69 -56.5 107.5t-155.5 38.5h-280v-300h280q99 0 155.5 41z" />
    <glyph glyph-name="uni0433" unicode="&#x433;" horiz-adv-x="886" 
d="M810 928h-500v-928h-172v1086h672v-158z" />
    <glyph glyph-name="uni0434" unicode="&#x434;" horiz-adv-x="1214" 
d="M22 158h90q46 47 74 106t46.5 152t31.5 244l36 426h696v-928h166v-470h-170v312h-798v-312h-172v470zM824 158v770h-364l-28 -268q-21 -198 -47.5 -315.5t-78.5 -186.5h518z" />
    <glyph glyph-name="uni0435" unicode="&#x435;" horiz-adv-x="1132" 
d="M324 47q-115 69 -176.5 195t-61.5 292t61.5 294.5t173 200t257.5 71.5q123 0 229 -54.5t172.5 -176t66.5 -311.5v-72h-788q4 -113 47 -193t117.5 -121.5t171.5 -41.5q92 0 155.5 34.5t96.5 89.5h184q-26 -82 -86.5 -144.5t-150 -97t-199.5 -34.5q-155 0 -270 69zM872 632
q0 91 -36.5 162.5t-103.5 112.5t-154 41q-91 0 -161.5 -43t-111 -115.5t-46.5 -157.5h613z" />
    <glyph glyph-name="uni0436" unicode="&#x436;" horiz-adv-x="1622" 
d="M508 552l-434 534h204l360 -462h88v462h172v-462h86l360 462h204l-430 -534l434 -552h-206l-364 466h-84v-466h-172v466h-82l-368 -466h-206z" />
    <glyph glyph-name="uni0437" unicode="&#x437;" horiz-adv-x="956" 
d="M316.5 168.5q60.5 -38.5 159.5 -38.5q106 0 173 43.5t67 130.5q0 53 -26.5 93t-75.5 62.5t-114 22.5h-184v154h184q95 0 144.5 42.5t49.5 111.5q0 73 -52 116.5t-144 43.5q-62 0 -112.5 -19t-80 -53.5t-31.5 -77.5h-180q3 87 54 155.5t140 106.5t202 38t198.5 -39.5
t132.5 -108t47 -154.5q0 -88 -50 -146.5t-134 -83.5v-10q61 -5 107.5 -40t72.5 -91.5t26 -124.5q0 -97 -52.5 -170.5t-146 -113.5t-213.5 -40q-115 0 -207.5 38t-145.5 106t-55 156h182q4 -71 64.5 -109.5z" />
    <glyph glyph-name="uni0438" unicode="&#x438;" horiz-adv-x="1162" 
d="M828 1086h196v-1086h-172v834l-516 -834h-198v1086h172v-834z" />
    <glyph glyph-name="uni0439" unicode="&#x439;" horiz-adv-x="1162" 
d="M828 1086h196v-1086h-172v834l-516 -834h-198v1086h172v-834zM841.5 1313q-36.5 -59 -104 -92t-157.5 -33q-89 0 -155.5 33t-102.5 92t-36 135h158q0 -59 33.5 -97.5t102.5 -38.5q70 0 104 38.5t34 97.5h160q0 -76 -36.5 -135z" />
    <glyph glyph-name="uni043A" unicode="&#x43a;" horiz-adv-x="1046" 
d="M138 1086h172v-470h128l368 470h220l-436 -552l442 -534h-222l-370 456h-130v-456h-172v1086z" />
    <glyph glyph-name="uni043B" unicode="&#x43b;" horiz-adv-x="1146" 
d="M42 158h38q67 0 102.5 37t53 131t24.5 280l20 480h728v-1086h-170v928h-396l-16 -386q-8 -188 -40 -305t-100 -177t-186 -60h-58v158z" />
    <glyph glyph-name="uni043C" unicode="&#x43c;" horiz-adv-x="1466" 
d="M1108 1086h222v-1086h-172v826l-356 -826h-138l-354 839v-839h-172v1086h226l370 -856z" />
    <glyph glyph-name="uni043D" unicode="&#x43d;" horiz-adv-x="1132" 
d="M310 620h514v466h172v-1086h-172v462h-514v-462h-172v1086h172v-466z" />
    <glyph glyph-name="uni043E" unicode="&#x43e;" horiz-adv-x="1162" 
d="M322.5 47.5q-112.5 69.5 -174.5 196.5t-62 294t62 294.5t174.5 197.5t259.5 70q146 0 257.5 -70t173 -197.5t61.5 -294.5t-61.5 -294t-173 -196.5t-257.5 -69.5q-147 0 -259.5 69.5zM759 185.5q72 55.5 107.5 148t35.5 204.5t-35.5 205t-107.5 149t-177 56
q-107 0 -179.5 -56t-108.5 -149t-36 -205t36 -204.5t108.5 -148t179.5 -55.5q105 0 177 55.5z" />
    <glyph glyph-name="uni043F" unicode="&#x43f;" horiz-adv-x="1132" 
d="M138 1086h858v-1086h-172v928h-514v-928h-172v1086z" />
    <glyph glyph-name="uni0440" unicode="&#x440;" horiz-adv-x="1186" 
d="M138 1086h166v-172h20q32 52 62 87.5t93 67t159 31.5q136 0 240.5 -68.5t163 -195.5t58.5 -296t-58.5 -296.5t-163 -196.5t-238.5 -69q-95 0 -158.5 31.5t-95.5 69t-62 87.5h-14v-574h-172v1494zM342 328q36 -93 106 -144.5t168 -51.5q100 0 170.5 53.5t106 147
t35.5 211.5q0 115 -35.5 206t-105.5 143.5t-171 52.5q-100 0 -169.5 -50t-105 -140.5t-35.5 -211.5q0 -123 36 -216z" />
    <glyph glyph-name="uni0441" unicode="&#x441;" horiz-adv-x="1084" 
d="M318.5 49.5q-112.5 71.5 -172.5 198.5t-60 290q0 164 61.5 291.5t173 199t257.5 71.5q115 0 208 -42.5t151.5 -120t72.5 -179.5h-172q-12 52 -46 95t-87.5 69t-122.5 26q-96 0 -169.5 -50t-114 -141.5t-40.5 -212.5q0 -125 39.5 -218t113 -143.5t171.5 -50.5
q97 0 165.5 49.5t90.5 138.5h172q-14 -98 -70 -175.5t-148 -122t-210 -44.5q-151 0 -263.5 71.5z" />
    <glyph glyph-name="uni0442" unicode="&#x442;" horiz-adv-x="1036" 
d="M74 1086h888v-158h-356v-928h-172v928h-360v158z" />
    <glyph glyph-name="uni0443" unicode="&#x443;" horiz-adv-x="1084" 
d="M152 -404v154q36 -4 84 -4q43 0 72 9t58 44.5t56 110.5l32 82l-402 1094h188l296 -862h12l296 862h188l-460 -1242q-48 -127 -128 -189.5t-196 -62.5q-52 0 -96 4z" />
    <glyph glyph-name="uni0444" unicode="&#x444;" horiz-adv-x="1336" 
d="M582 -22q-147 0 -259.5 69.5t-174.5 196.5t-62 294t62 294.5t174.5 197.5t259.5 70v348h172v-348q147 0 259 -70t173.5 -197.5t61.5 -294.5t-61.5 -294t-173.5 -196.5t-259 -69.5v-348h-172v348zM582 948q-107 0 -179.5 -56t-108.5 -149t-36 -205t35.5 -204t108.5 -147
t180 -55v816zM933 187q72 55 107.5 147t35.5 204t-35.5 205t-108 149t-178.5 56v-816q107 0 179 55z" />
    <glyph glyph-name="uni0445" unicode="&#x445;" horiz-adv-x="1050" 
d="M524 644l258 442h198l-350 -542l350 -544h-196l-260 420l-256 -420h-198l342 544l-342 542h198z" />
    <glyph glyph-name="uni0446" unicode="&#x446;" horiz-adv-x="1218" 
d="M994 158h156v-508h-172v350h-842v1086h172v-928h514v928h172v-928z" />
    <glyph glyph-name="uni0447" unicode="&#x447;" horiz-adv-x="1116" 
d="M978 0h-170v377q-124 -37 -260 -37q-125 0 -217.5 45t-142.5 134.5t-50 220.5v350h172v-350q0 -119 65.5 -179.5t172.5 -60.5q131 0 260 37v549h170v-1086z" />
    <glyph glyph-name="uni0448" unicode="&#x448;" horiz-adv-x="1602" 
d="M310 1086v-928h406v928h170v-928h406v928h174v-1086h-1328v1086h172z" />
    <glyph glyph-name="uni0449" unicode="&#x449;" horiz-adv-x="1696" 
d="M1608 -312h-176v312h-1294v1086h172v-928h406v928h170v-928h406v928h174v-928h162z" />
    <glyph glyph-name="uni044A" unicode="&#x44a;" horiz-adv-x="1278" 
d="M336 928h-300v158h300v-158zM1010.5 652.5q89.5 -43.5 135.5 -121.5t46 -179q0 -99 -46.5 -179t-136 -126.5t-213.5 -46.5h-458v1086h172v-390h286q125 0 214.5 -43.5zM796 158q64 0 114.5 23.5t79 66t28.5 96.5q0 55 -28.5 99t-79 68.5t-114.5 24.5h-286v-378h286z" />
    <glyph glyph-name="uni044B" unicode="&#x44b;" horiz-adv-x="1470" 
d="M810.5 652.5q89.5 -43.5 135.5 -121.5t46 -179q0 -99 -46.5 -179t-136 -126.5t-213.5 -46.5h-458v1086h172v-390h286q125 0 214.5 -43.5zM596 158q64 0 114.5 23.5t79 66t28.5 96.5q0 55 -28.5 99t-79 68.5t-114.5 24.5h-286v-378h286zM1162 1086h172v-1086h-172v1086z
" />
    <glyph glyph-name="uni044C" unicode="&#x44c;" horiz-adv-x="1078" 
d="M810.5 652.5q89.5 -43.5 135.5 -121.5t46 -179q0 -99 -46.5 -179t-136 -126.5t-213.5 -46.5h-458v1086h172v-390h286q125 0 214.5 -43.5zM596 158q64 0 114.5 23.5t79 66t28.5 96.5q0 55 -28.5 99t-79 68.5t-114.5 24.5h-286v-378h286z" />
    <glyph glyph-name="uni044D" unicode="&#x44d;" horiz-adv-x="1050" 
d="M385 912.5q-57 -28.5 -94 -75.5t-37 -101h-168q0 93 58 177t153.5 135.5t200.5 51.5q144 0 249.5 -73.5t161 -197t55.5 -269.5v-40q0 -146 -55.5 -269.5t-161 -197t-249.5 -73.5q-117 0 -211 52t-147.5 142t-53.5 198h168q0 -60 34.5 -113t91 -85.5t118.5 -33.5
q82 1 145 48t100 122t46 160h-401v156h400q-11 84 -48.5 155.5t-99 115.5t-142.5 45q-56 -1 -113 -29.5z" />
    <glyph glyph-name="uni044E" unicode="&#x44e;" horiz-adv-x="1590" 
d="M230 612h273q13 147 77.5 257.5t170.5 170.5t241 60q147 0 259 -70t173.5 -197.5t61.5 -294.5t-61.5 -294t-173.5 -196.5t-259 -69.5q-133 0 -238 58.5t-170 166t-80 251.5h-274v-454h-172v1086h172v-474zM1172 187q73 55 108.5 147t35.5 204t-36 204.5t-108.5 148
t-179.5 55.5q-106 0 -178 -55.5t-107 -148t-35 -204.5t35 -204t107 -147t178 -55q107 0 180 55z" />
    <glyph glyph-name="uni044F" unicode="&#x44f;" horiz-adv-x="1090" 
d="M790 440h-288l-250 -440h-186l264 464q-99 33 -152.5 110t-53.5 188q0 100 45.5 173t131.5 112t203 39h448v-1086h-162v440zM346.5 640.5q50.5 -44.5 139.5 -44.5h304v334h-286q-97 0 -152.5 -45t-55.5 -123q0 -77 50.5 -121.5z" />
    <glyph glyph-name="uni0451" unicode="&#x451;" horiz-adv-x="1132" 
d="M324 47q-115 69 -176.5 195t-61.5 292t61.5 294.5t173 200t257.5 71.5q123 0 229 -54.5t172.5 -176t66.5 -311.5v-72h-788q4 -113 47 -193t117.5 -121.5t171.5 -41.5q92 0 155.5 34.5t96.5 89.5h184q-26 -82 -86.5 -144.5t-150 -97t-199.5 -34.5q-155 0 -270 69zM872 632
q0 91 -36.5 162.5t-103.5 112.5t-154 41q-91 0 -161.5 -43t-111 -115.5t-46.5 -157.5h613zM308.5 1282q-26.5 16 -42.5 42.5t-16 55.5q0 48 34 81t80 33q51 0 83.5 -32t32.5 -82q0 -46 -33 -80t-83 -34q-29 0 -55.5 16zM717 1282q-27 16 -43 42.5t-16 55.5q0 49 34.5 81.5
t81.5 32.5q48 0 81 -32.5t33 -81.5q0 -30 -15 -56t-41.5 -42t-57.5 -16q-30 0 -57 16z" />
    <glyph glyph-name="uni1D43" unicode="&#x1d43;" horiz-adv-x="726" 
d="M117 1082q73 54 199 60q138 10 182 10v70q0 56 -37 88t-101 32q-58 0 -100 -27t-50 -69l-146 2q8 65 49 112t106.5 71.5t144.5 24.5q78 0 143 -25.5t104 -78.5t39 -132v-496h-146v110h-4q-27 -55 -84 -89.5t-138 -34.5q-66 0 -119 24.5t-84 73t-31 116.5q0 104 73 158z
M226.5 848.5q36.5 -30.5 91.5 -30.5q51 0 92 23.5t64.5 63.5t23.5 89v61l-158 -13q-150 -11 -150 -114q0 -49 36.5 -79.5z" />
    <glyph glyph-name="uni1D47" unicode="&#x1d47;" horiz-adv-x="800" 
d="M90 1688h152v-376h6q26 63 78.5 103.5t139.5 40.5q81 0 146.5 -44t103.5 -128t38 -200q0 -114 -37 -198.5t-102.5 -130t-148.5 -45.5t-137.5 42t-80.5 104h-6v-132h-152v964zM287.5 904.5q47.5 -68.5 130.5 -68.5q85 0 132.5 70t47.5 180q0 111 -47.5 179.5t-132.5 68.5
q-83 0 -130.5 -68.5t-47.5 -179.5q0 -113 47.5 -181.5z" />
    <glyph glyph-name="uni1D48" unicode="&#x1d48;" horiz-adv-x="800" 
d="M562 724v132h-8q-28 -61 -80 -103.5t-136 -42.5q-83 0 -149.5 45.5t-104.5 130.5t-38 198q0 116 38 200t104.5 128t149.5 44q82 0 136 -41.5t80 -102.5h4v376h152v-964h-148zM514 1265q-48 69 -132 69t-132 -69.5t-48 -178.5q0 -112 48 -181t132 -69q55 0 96 31.5
t62.5 88t21.5 130.5q0 110 -48 179z" />
    <glyph glyph-name="uni1D49" unicode="&#x1d49;" horiz-adv-x="752" 
d="M205.5 756.5q-77.5 46.5 -119.5 131.5t-42 196q0 109 42.5 193.5t118.5 131.5t175 47q92 0 166.5 -42t118 -122.5t43.5 -193.5v-50h-512q0 -99 53 -159.5t143 -60.5q60 0 103 27.5t59 68.5h142q-24 -100 -104.5 -157t-203.5 -57q-105 0 -182.5 46.5zM562 1146
q0 55 -23 99.5t-63.5 69.5t-91.5 25q-52 0 -94 -26t-67 -70.5t-27 -97.5h366z" />
    <glyph glyph-name="uni1D4D" unicode="&#x1d4d;" horiz-adv-x="794" 
d="M171 493q-81 51 -99 139h140q17 -37 61.5 -57.5t110.5 -20.5q82 0 130 40.5t48 121.5v148h-8q-24 -58 -79.5 -95t-136.5 -37q-83 0 -149.5 41t-104.5 120.5t-38 192.5q0 115 38 198.5t104.5 127.5t149.5 44q82 0 136 -41.5t80 -102.5h8v136h150v-736q0 -130 -90 -200
t-242 -70q-128 0 -209 51zM514 913q48 63 48 173t-48 179t-132 69t-132 -69.5t-48 -178.5q0 -108 48 -172t132 -64t132 63z" />
    <glyph glyph-name="uni1D4F" unicode="&#x1d4f;" horiz-adv-x="708" 
d="M78 1688h152v-544h10l274 304h180l-284 -314l296 -410h-182l-230 321l-64 -70v-251h-152v964z" />
    <glyph glyph-name="uni1D50" unicode="&#x1d50;" horiz-adv-x="1152" 
d="M78 1448h146v-122h6q23 61 74.5 95.5t125.5 34.5t126 -37t70 -101h8q22 64 80 101t136 37q102 0 163 -65.5t61 -180.5v-486h-154v462q0 68 -35 105t-95 37q-67 0 -103.5 -41.5t-36.5 -106.5v-456h-148v464q0 64 -35.5 102t-96.5 38q-62 0 -101 -43t-39 -113v-448h-152
v724z" />
    <glyph glyph-name="uni1D52" unicode="&#x1d52;" horiz-adv-x="768" 
d="M206 757q-77 47 -119.5 132t-42.5 195q0 109 42.5 193.5t119.5 131.5t178 47t178 -47t119.5 -131.5t42.5 -193.5q0 -110 -42.5 -195t-119.5 -132t-178 -47t-178 47zM482.5 863q41.5 33 63.5 91t22 130q0 73 -22 131.5t-63.5 91.5t-98.5 33t-98.5 -33t-63.5 -91.5
t-22 -131.5q0 -72 22 -130t63.5 -91t98.5 -33t98.5 33z" />
    <glyph glyph-name="uni1D56" unicode="&#x1d56;" horiz-adv-x="788" 
d="M78 1448h152v-136h4q28 63 81 103.5t137 40.5q82 0 148 -43.5t104 -127.5t38 -201q0 -113 -37 -197.5t-103 -130.5t-150 -46t-137 41.5t-81 104.5h-4v-404h-152v996zM248 956.5q22 -56.5 62.5 -88.5t95.5 -32q85 0 132.5 70t47.5 180q0 111 -47.5 179.5t-132.5 68.5
q-55 0 -95.5 -31.5t-62.5 -87.5t-22 -129t22 -129.5z" />
    <glyph glyph-name="uni1D57" unicode="&#x1d57;" horiz-adv-x="470" 
d="M418 1330h-140v-400q0 -47 23.5 -67.5t62.5 -20.5q40 0 58 2v-124q-32 -4 -78 -4q-100 0 -159 48t-59 144v422h-102v118h102v172h152v-172h140v-118z" />
    <glyph glyph-name="uni1D58" unicode="&#x1d58;" horiz-adv-x="770" 
d="M542 1448h152v-724h-146v128h-6q-26 -63 -84 -99.5t-136 -36.5q-73 0 -128 32.5t-85.5 92.5t-30.5 141v466h152v-442q0 -72 42 -116t108 -44q42 0 79 20t60 58t23 90v434z" />
    <glyph glyph-name="uni1D5B" unicode="&#x1d5b;" horiz-adv-x="726" 
d="M452 724h-176l-254 724h160l178 -562h8l174 562h164z" />
    <glyph glyph-name="uni1D62" unicode="&#x1d62;" horiz-adv-x="310" 
d="M80 474h152v-724h-152v724zM95 597.5q-25 25.5 -25 60.5t25 60.5t61 25.5t62 -25.5t26 -60.5q0 -36 -26 -61t-62 -25t-61 25.5z" />
    <glyph glyph-name="uni1D63" unicode="&#x1d63;" horiz-adv-x="510" 
d="M78 474h148v-122h6q21 60 73 95t117 35q44 0 58 -4v-140q-7 3 -27 6.5t-41 3.5q-80 0 -131 -46t-51 -128v-424h-152v724z" />
    <glyph glyph-name="uni1D64" unicode="&#x1d64;" horiz-adv-x="770" 
d="M542 474h152v-724h-146v128h-6q-26 -63 -84 -99.5t-136 -36.5q-73 0 -128 32.5t-85.5 92.5t-30.5 141v466h152v-442q0 -72 42 -116t108 -44q42 0 79 20t60 58t23 90v434z" />
    <glyph glyph-name="uni1D65" unicode="&#x1d65;" horiz-adv-x="726" 
d="M452 -250h-176l-254 724h160l178 -562h8l174 562h164z" />
    <glyph glyph-name="uni1D9C" unicode="&#x1d9c;" horiz-adv-x="734" 
d="M205 757.5q-77 47.5 -119 132.5t-42 194t42 193t119 131.5t179 47.5q84 0 151 -32t107.5 -90.5t47.5 -135.5h-146q-10 59 -51.5 98.5t-106.5 39.5q-54 0 -96 -31t-66 -87.5t-24 -131.5q0 -76 23 -133t65 -88t98 -31q59 0 103 35.5t55 102.5h146q-7 -79 -46.5 -138
t-106 -91.5t-153.5 -32.5q-102 0 -179 47.5z" />
    <glyph glyph-name="uni1DA0" unicode="&#x1da0;" horiz-adv-x="466" 
d="M434 1330h-146v-606h-156v606h-102v118h102v68q0 69 29 117.5t78.5 73.5t110.5 25q35 0 46 -1.5t44 -8.5v-120q-28 4 -60 4q-46 0 -69 -24t-23 -70v-64h146v-118z" />
    <glyph glyph-name="uni1DBB" unicode="&#x1dbb;" horiz-adv-x="702" 
d="M66 818l378 498v6h-360v126h544v-102l-360 -494v-4h374v-124h-576v94z" />
    <glyph glyph-name="Wgrave" unicode="&#x1e80;" horiz-adv-x="1874" 
d="M32 1448h182l302 -1172h14l306 1172h202l308 -1172h12l302 1172h182l-396 -1448h-186l-316 1146h-12l-318 -1146h-186zM646 1924h200l170 -328h-150z" />
    <glyph glyph-name="wgrave" unicode="&#x1e81;" horiz-adv-x="1592" 
d="M52 1086h182l232 -828h10l230 828h184l226 -824h12l232 824h180l-330 -1086h-170l-236 828h-16l-234 -828h-172zM504 1562h200l170 -328h-150z" />
    <glyph glyph-name="Wacute" unicode="&#x1e82;" horiz-adv-x="1874" 
d="M32 1448h182l302 -1172h14l306 1172h202l308 -1172h12l302 1172h182l-396 -1448h-186l-316 1146h-12l-318 -1146h-186zM1034 1924h198l-222 -328h-148z" />
    <glyph glyph-name="wacute" unicode="&#x1e83;" horiz-adv-x="1592" 
d="M52 1086h182l232 -828h10l230 828h184l226 -824h12l232 824h180l-330 -1086h-170l-236 828h-16l-234 -828h-172zM892 1562h198l-222 -328h-148z" />
    <glyph glyph-name="Wdieresis" unicode="&#x1e84;" horiz-adv-x="1874" 
d="M32 1448h182l302 -1172h14l306 1172h202l308 -1172h12l302 1172h182l-396 -1448h-186l-316 1146h-12l-318 -1146h-186zM678.5 1644q-26.5 16 -42.5 42.5t-16 55.5q0 48 34 81t80 33q51 0 83.5 -32t32.5 -82q0 -46 -33 -80t-83 -34q-29 0 -55.5 16zM1087 1644
q-27 16 -43 42.5t-16 55.5q0 49 34.5 81.5t81.5 32.5q48 0 81 -32.5t33 -81.5q0 -30 -15 -56t-41.5 -42t-57.5 -16q-30 0 -57 16z" />
    <glyph glyph-name="wdieresis" unicode="&#x1e85;" horiz-adv-x="1592" 
d="M52 1086h182l232 -828h10l230 828h184l226 -824h12l232 824h180l-330 -1086h-170l-236 828h-16l-234 -828h-172zM536.5 1282q-26.5 16 -42.5 42.5t-16 55.5q0 48 34 81t80 33q51 0 83.5 -32t32.5 -82q0 -46 -33 -80t-83 -34q-29 0 -55.5 16zM945 1282q-27 16 -43 42.5
t-16 55.5q0 49 34.5 81.5t81.5 32.5q48 0 81 -32.5t33 -81.5q0 -30 -15 -56t-41.5 -42t-57.5 -16q-30 0 -57 16z" />
    <glyph glyph-name="Ygrave" unicode="&#x1ef2;" horiz-adv-x="1298" 
d="M242 1448l398 -672h18l398 672h208l-524 -854v-594h-182v594l-522 854h206zM358 1924h200l170 -328h-150z" />
    <glyph glyph-name="ygrave" unicode="&#x1ef3;" horiz-adv-x="1084" 
d="M152 -404v154q36 -4 84 -4q43 0 72 9t58 44.5t56 110.5l32 82l-402 1094h188l296 -862h12l296 862h188l-460 -1242q-48 -127 -128 -189.5t-196 -62.5q-52 0 -96 4zM250 1562h200l170 -328h-150z" />
    <glyph glyph-name="uni2000" unicode="&#x2002;" horiz-adv-x="1024" 
 />
    <glyph glyph-name="uni2001" unicode="&#x2003;" horiz-adv-x="2048" 
 />
    <glyph glyph-name="uni2004" unicode="&#x2004;" horiz-adv-x="684" 
 />
    <glyph glyph-name="uni2005" unicode="&#x2005;" horiz-adv-x="512" 
 />
    <glyph glyph-name="uni2006" unicode="&#x2006;" horiz-adv-x="340" 
 />
    <glyph glyph-name="uni2007" unicode="&#x2007;" horiz-adv-x="1258" 
 />
    <glyph glyph-name="uni2009" unicode="&#x2009;" horiz-adv-x="254" 
 />
    <glyph glyph-name="uni200A" unicode="&#x200a;" horiz-adv-x="136" 
 />
    <glyph glyph-name="figuredash" unicode="&#x2012;" horiz-adv-x="1258" 
d="M1278 540h-1294v158h1294v-158z" />
    <glyph glyph-name="endash" unicode="&#x2013;" horiz-adv-x="964" 
d="M980 540h-996v158h996v-158z" />
    <glyph glyph-name="emdash" unicode="&#x2014;" horiz-adv-x="1960" 
d="M1976 540h-1992v158h1992v-158z" />
    <glyph glyph-name="uni2015" unicode="&#x2015;" horiz-adv-x="1960" 
d="M1976 540h-1992v158h1992v-158z" />
    <glyph glyph-name="quoteleft" unicode="&#x2018;" horiz-adv-x="452" 
d="M230 1448h148l-110 -544h-194z" />
    <glyph glyph-name="quoteright" unicode="&#x2019;" horiz-adv-x="452" 
d="M222 902h-148l110 544h194z" />
    <glyph glyph-name="quotesinglbase" unicode="&#x201a;" horiz-adv-x="452" 
d="M222 -366h-148l110 544h194z" />
    <glyph glyph-name="quotedblleft" unicode="&#x201c;" horiz-adv-x="900" 
d="M234 1450h148l-110 -544h-194zM614 1450h148l-110 -544h-194z" />
    <glyph glyph-name="quotedblright" unicode="&#x201d;" horiz-adv-x="900" 
d="M664 902h-148l110 544h194zM284 902h-148l110 544h194z" />
    <glyph glyph-name="quotedblbase" unicode="&#x201e;" horiz-adv-x="832" 
d="M602 -410h-148l110 544h194zM222 -410h-148l110 544h194z" />
    <glyph glyph-name="dagger" unicode="&#x2020;" horiz-adv-x="1224" 
d="M692 1086h402v-160h-402v-926h-182v926h-378v160h378v362h182v-362z" />
    <glyph glyph-name="daggerdbl" unicode="&#x2021;" horiz-adv-x="1046" 
d="M618 1052h386v-158h-386v-736h386v-158h-386v-404h-196v404h-380v158h380v736h-380v158h380v366h196v-366z" />
    <glyph glyph-name="bullet" unicode="&#x2022;" horiz-adv-x="1044" 
d="M412 399.5q-47 27.5 -74.5 75t-27.5 103.5q0 55 27.5 102t74.5 74.5t102 27.5q56 0 103.5 -27.5t75 -74.5t27.5 -102q0 -56 -27.5 -103.5t-75 -75t-103.5 -27.5q-55 0 -102 27.5z" />
    <glyph glyph-name="uni2023" unicode="&#x2023;" horiz-adv-x="1044" 
d="M302 894l524 -316l-524 -318v634z" />
    <glyph glyph-name="twodotenleader" unicode="&#x2025;" horiz-adv-x="1040" 
d="M195.5 5.5q-29.5 17.5 -47 47.5t-16.5 65q-1 34 16.5 63.5t47 47t64.5 17.5q34 0 63.5 -17.5t47 -47t17.5 -63.5q0 -35 -17.5 -65t-47 -47.5t-63.5 -17.5q-35 0 -64.5 17.5zM715.5 5.5q-29.5 17.5 -47 47.5t-16.5 65q-1 34 16.5 63.5t47 47t64.5 17.5q34 0 63.5 -17.5
t47 -47t17.5 -63.5q0 -35 -17.5 -65t-47 -47.5t-63.5 -17.5q-35 0 -64.5 17.5z" />
    <glyph glyph-name="ellipsis" unicode="&#x2026;" horiz-adv-x="1560" 
d="M195.5 5.5q-29.5 17.5 -47 47.5t-16.5 65q-1 34 16.5 63.5t47 47t64.5 17.5q34 0 63.5 -17.5t47 -47t17.5 -63.5q0 -35 -17.5 -65t-47 -47.5t-63.5 -17.5q-35 0 -64.5 17.5zM715.5 5.5q-29.5 17.5 -47 47.5t-16.5 65q-1 34 16.5 63.5t47 47t64.5 17.5q34 0 63.5 -17.5
t47 -47t17.5 -63.5q0 -35 -17.5 -65t-47 -47.5t-63.5 -17.5q-35 0 -64.5 17.5zM1235.5 5.5q-29.5 17.5 -47 47.5t-16.5 65q-1 34 16.5 63.5t47 47t64.5 17.5q34 0 63.5 -17.5t47 -47t17.5 -63.5q0 -35 -17.5 -65t-47 -47.5t-63.5 -17.5q-35 0 -64.5 17.5z" />
    <glyph glyph-name="perthousand" unicode="&#x2030;" horiz-adv-x="2432" 
d="M284.5 819q-65.5 43 -99 121.5t-33.5 183.5q0 102 34.5 180.5t100 122t155.5 43.5q93 0 158 -43.5t98.5 -121.5t33.5 -181q0 -104 -34 -182.5t-99.5 -122t-156.5 -43.5q-92 0 -157.5 43zM550 959.5q36 59.5 36 164.5t-35 164t-109 58q-70 0 -107 -59.5t-37 -162.5
q0 -104 37 -164t107 -60q72 0 108 59.5zM1168 22q-66 43 -99.5 121.5t-32.5 182.5q-1 103 33.5 182t100.5 122.5t156 43.5q92 0 157 -43.5t98 -122t33 -182.5q0 -103 -34 -182t-99 -122t-155 -42q-92 -1 -158 42zM1432 163q36 59 36 163q0 105 -34 164.5t-104 59.5
q-72 0 -111 -59.5t-39 -164.5q0 -103 37 -162.5t109 -59.5q70 0 106 59zM1832 21.5q-66 43.5 -100 122t-34 182.5q0 102 35 180.5t101 122.5t156 45q93 -1 157.5 -45t97.5 -122t33 -181q0 -104 -33.5 -182.5t-98.5 -122t-156 -43.5q-92 0 -158 43.5zM2096.5 161.5
q35.5 58.5 35.5 164.5t-35 164.5t-107 57.5q-69 0 -106.5 -59t-37.5 -163q0 -105 36 -164t108 -58q71 -1 106.5 57.5zM1290 1448h162l-996 -1448h-162z" />
    <glyph glyph-name="prime" unicode="&#x2032;" horiz-adv-x="410" 
d="M134 1448h192l-118 -522h-124z" />
    <glyph glyph-name="doubleprime" unicode="&#x2033;" horiz-adv-x="780" 
d="M134 1448h192l-118 -522h-124zM504 1448h192l-118 -522h-124z" />
    <glyph glyph-name="guilsinglleft" unicode="&#x2039;" horiz-adv-x="686" 
d="M404 156l-286 424v20l286 424h150l-270 -434l270 -434h-150z" />
    <glyph glyph-name="guilsinglright" unicode="&#x203a;" horiz-adv-x="688" 
d="M386 590l-268 434h152l286 -424v-20l-286 -424h-152z" />
    <glyph glyph-name="uni203B" unicode="&#x203b;" horiz-adv-x="1234" 
d="M182 346l316 321l-316 321l128 130l316 -321l316 321l128 -130l-316 -321l316 -321l-128 -130l-316 321l-316 -321zM115.5 753.5q29.5 30.5 84.5 30.5t84.5 -30.5t29.5 -79.5q0 -48 -28.5 -77t-85.5 -29q-55 0 -84.5 29t-29.5 77q0 49 29.5 79.5zM534 321.5
q30 30.5 84 30.5t84 -30.5t30 -77.5t-30 -77.5t-84 -30.5t-84 30.5t-30 77.5t30 77.5zM534 1169q30 31 84 31t84 -31t30 -79q0 -46 -30.5 -77t-83.5 -31t-83.5 31t-30.5 77q0 48 30 79zM951 753q31 31 85 31t85 -31t31 -79t-31 -77t-85 -29t-85 29t-31 77t31 79z" />
    <glyph glyph-name="fraction" unicode="&#x2044;" horiz-adv-x="514" 
d="M674 1448h162l-996 -1448h-162z" />
    <glyph glyph-name="uni2070" unicode="&#x2070;" horiz-adv-x="848" 
d="M229 761.5q-82 53.5 -125.5 154.5t-43.5 240t43.5 240t125.5 154.5t195 53.5q112 0 194 -53t126 -154t44 -241t-44 -240.5t-126 -154t-194 -53.5q-113 0 -195 53.5zM574.5 919q55.5 83 55.5 237q0 156 -55.5 238t-150.5 82t-149.5 -82t-54.5 -238q0 -153 54.5 -236.5
t149.5 -83.5t150.5 83z" />
    <glyph glyph-name="uni2071" unicode="&#x2071;" horiz-adv-x="310" 
d="M80 1448h152v-724h-152v724zM95 1571.5q-25 25.5 -25 60.5t25 60.5t61 25.5t62 -25.5t26 -60.5q0 -36 -26 -61t-62 -25t-61 25.5z" />
    <glyph glyph-name="uni2074" unicode="&#x2074;" horiz-adv-x="840" 
d="M58 1008l412 584h196v-580h118v-126h-118v-162h-150v162h-458v122zM516 1012v408h-6l-292 -404v-4h298z" />
    <glyph glyph-name="uni2075" unicode="&#x2075;" horiz-adv-x="796" 
d="M236.5 744.5q-73.5 32.5 -115.5 91t-43 132.5h152q3 -58 50 -96t122 -38q53 0 96 22t67.5 62t24.5 90t-25.5 89t-69.5 61t-97 22q-47 0 -88 -17t-66 -47l-146 26l50 450h546v-126h-416l-32 -250h6q27 35 77.5 55.5t108.5 20.5q85 0 153.5 -36t107.5 -100t39 -146
q0 -85 -42.5 -153t-119.5 -106.5t-174 -38.5q-92 0 -165.5 32.5z" />
    <glyph glyph-name="uni2076" unicode="&#x2076;" horiz-adv-x="818" 
d="M238 756q-81 44 -129.5 139t-48.5 239q0 140 43 246.5t126 166t199 59.5q89 0 158 -34t109 -92t47 -128h-152q-10 56 -53.5 87t-108.5 31q-105 0 -160.5 -83t-55.5 -231h6q33 61 98.5 95.5t145.5 34.5q81 0 148 -35.5t105.5 -98.5t38.5 -142q0 -85 -42.5 -153
t-119.5 -106.5t-174 -38.5q-99 0 -180 44zM511.5 857q42.5 23 67.5 62t25 85q0 47 -24.5 85.5t-67.5 60.5t-94 22q-53 0 -95.5 -20.5t-66.5 -58t-24 -85.5q0 -45 23.5 -85t66 -64.5t96.5 -24.5q51 0 93.5 23z" />
    <glyph glyph-name="uni2077" unicode="&#x2077;" horiz-adv-x="742" 
d="M526 1460v6h-482v126h644v-130l-416 -738h-164z" />
    <glyph glyph-name="uni2078" unicode="&#x2078;" horiz-adv-x="822" 
d="M230 744q-80 32 -126 88t-46 124q0 48 25.5 94.5t72.5 79t108 42.5v4q-77 18 -124.5 72t-47.5 126q0 64 41.5 116.5t113.5 83t161 30.5q90 0 163 -30.5t114 -83t41 -116.5q0 -71 -47 -125.5t-121 -72.5v-4q57 -9 104 -41t74.5 -78.5t27.5 -96.5q0 -68 -46.5 -124
t-128 -88t-181.5 -32q-98 0 -178 32zM507.5 843q44.5 19 69.5 51.5t25 73.5t-25 74t-69.5 52.5t-99.5 19.5q-53 0 -96 -19.5t-67.5 -52.5t-24.5 -74q0 -39 24 -72t67 -52.5t97 -19.5q55 0 99.5 19zM493 1243.5q38 17.5 59.5 47.5t21.5 67t-21.5 67t-59.5 47.5t-85 17.5
q-45 0 -82.5 -17.5t-59.5 -48t-22 -66.5q0 -37 22.5 -67.5t60 -47.5t81.5 -17q47 0 85 17.5z" />
    <glyph glyph-name="uni2079" unicode="&#x2079;" horiz-adv-x="818" 
d="M578 1562.5q81 -43.5 129.5 -138t48.5 -238.5q0 -139 -42 -246.5t-124 -167.5t-196 -60q-88 0 -157.5 33t-111.5 91t-51 132h152q13 -60 57.5 -91t110.5 -31q101 0 155.5 84t54.5 234h-6q-30 -60 -96 -95t-146 -35q-82 0 -149 35.5t-105 99t-38 143.5q0 84 42.5 151
t118.5 105t173 38q99 0 180 -43.5zM306 1463q-43 -23 -67.5 -61.5t-24.5 -85.5t24.5 -85.5t67.5 -60.5t96 -22q52 0 96 23.5t68 62.5t20 82q-6 76 -58 123t-126 47q-53 0 -96 -23z" />
    <glyph glyph-name="uni207A" unicode="&#x207a;" horiz-adv-x="844" 
d="M358 1022h-250v130h250v236h132v-236h246v-130h-246v-234h-132v234z" />
    <glyph glyph-name="uni207B" unicode="&#x207b;" horiz-adv-x="844" 
d="M736 1022h-628v130h628v-130z" />
    <glyph glyph-name="uni207C" unicode="&#x207c;" horiz-adv-x="846" 
d="M132 1294h582v-128h-582v128zM132 1010h582v-128h-582v128z" />
    <glyph glyph-name="uni207D" unicode="&#x207d;" horiz-adv-x="476" 
d="M161.5 1436.5q43.5 148.5 130.5 281.5h148q-73 -109 -118.5 -275t-45.5 -325q0 -164 47 -329.5t117 -268.5h-148q-174 261 -174 598q0 170 43.5 318.5z" />
    <glyph glyph-name="uni207E" unicode="&#x207e;" horiz-adv-x="476" 
d="M182 520h-146q73 106 118.5 270t45.5 328q0 163 -45.5 326.5t-118.5 273.5h146q176 -258 176 -600q0 -343 -176 -598z" />
    <glyph glyph-name="uni207F" unicode="&#x207f;" horiz-adv-x="774" 
d="M230 724h-152v724h146v-124h6q25 61 83 96.5t133 35.5q74 0 130.5 -32.5t88 -92.5t31.5 -141v-466h-152v440q0 76 -42 120t-112 44t-115 -46t-45 -124v-434z" />
    <glyph glyph-name="uni2080" unicode="&#x2080;" horiz-adv-x="848" 
d="M229 -212.5q-82 53.5 -125.5 154.5t-43.5 240t43.5 240t125.5 154.5t195 53.5q112 0 194 -53t126 -154t44 -241t-44 -240.5t-126 -154t-194 -53.5q-113 0 -195 53.5zM574.5 -55q55.5 83 55.5 237q0 156 -55.5 238t-150.5 82t-149.5 -82t-54.5 -238q0 -153 54.5 -236.5
t149.5 -83.5t150.5 83z" />
    <glyph glyph-name="uni2081" unicode="&#x2081;" horiz-adv-x="594" 
d="M292 462h-6l-222 -148v152l230 152h148v-868h-150v712z" />
    <glyph glyph-name="uni2082" unicode="&#x2082;" horiz-adv-x="810" 
d="M84 -138l332 294q82 72 116 117t34 97q0 62 -48 99t-122 37q-75 0 -121.5 -40t-46.5 -106h-150q0 80 41 141t114 95t165 34t164 -33.5t112 -92.5t40 -132q0 -57 -23 -106.5t-70 -100.5t-131 -123l-182 -158v-6h432v-128h-656v112z" />
    <glyph glyph-name="uni2083" unicode="&#x2083;" horiz-adv-x="828" 
d="M237.5 -229.5q-77.5 32.5 -122 91t-45.5 132.5h156q3 -56 55 -91t131 -35q54 0 97 17t67 47.5t24 69.5q0 60 -56.5 97t-151.5 37h-70v116h70q79 0 130.5 35t51.5 93q0 56 -44 91t-116 35q-73 0 -124 -35.5t-52 -92.5h-148q1 73 44 130.5t116.5 89.5t163.5 32
q91 0 162 -31t110.5 -85.5t39.5 -123.5q0 -74 -50.5 -124t-129.5 -64v-4q102 -15 158 -71t56 -137q0 -71 -44.5 -128.5t-124 -90.5t-179.5 -33q-97 0 -174.5 32.5z" />
    <glyph glyph-name="uni2084" unicode="&#x2084;" horiz-adv-x="840" 
d="M58 34l412 584h196v-580h118v-126h-118v-162h-150v162h-458v122zM516 38v408h-6l-292 -404v-4h298z" />
    <glyph glyph-name="uni2085" unicode="&#x2085;" horiz-adv-x="796" 
d="M236.5 -229.5q-73.5 32.5 -115.5 91t-43 132.5h152q3 -58 50 -96t122 -38q53 0 96 22t67.5 62t24.5 90t-25.5 89t-69.5 61t-97 22q-47 0 -88 -17t-66 -47l-146 26l50 450h546v-126h-416l-32 -250h6q27 35 77.5 55.5t108.5 20.5q85 0 153.5 -36t107.5 -100t39 -146
q0 -85 -42.5 -153t-119.5 -106.5t-174 -38.5q-92 0 -165.5 32.5z" />
    <glyph glyph-name="uni2086" unicode="&#x2086;" horiz-adv-x="818" 
d="M238 -218q-81 44 -129.5 139t-48.5 239q0 140 43 246.5t126 166t199 59.5q89 0 158 -34t109 -92t47 -128h-152q-10 56 -53.5 87t-108.5 31q-105 0 -160.5 -83t-55.5 -231h6q33 61 98.5 95.5t145.5 34.5q81 0 148 -35.5t105.5 -98.5t38.5 -142q0 -85 -42.5 -153
t-119.5 -106.5t-174 -38.5q-99 0 -180 44zM511.5 -117q42.5 23 67.5 62t25 85q0 47 -24.5 85.5t-67.5 60.5t-94 22q-53 0 -95.5 -20.5t-66.5 -58t-24 -85.5q0 -45 23.5 -85t66 -64.5t96.5 -24.5q51 0 93.5 23z" />
    <glyph glyph-name="uni2087" unicode="&#x2087;" horiz-adv-x="742" 
d="M526 486v6h-482v126h644v-130l-416 -738h-164z" />
    <glyph glyph-name="uni2088" unicode="&#x2088;" horiz-adv-x="822" 
d="M230 -230q-80 32 -126 88t-46 124q0 48 25.5 94.5t72.5 79t108 42.5v4q-77 18 -124.5 72t-47.5 126q0 64 41.5 116.5t113.5 83t161 30.5q90 0 163 -30.5t114 -83t41 -116.5q0 -71 -47 -125.5t-121 -72.5v-4q57 -9 104 -41t74.5 -78.5t27.5 -96.5q0 -68 -46.5 -124
t-128 -88t-181.5 -32q-98 0 -178 32zM507.5 -131q44.5 19 69.5 51.5t25 73.5t-25 74t-69.5 52.5t-99.5 19.5q-53 0 -96 -19.5t-67.5 -52.5t-24.5 -74q0 -39 24 -72t67 -52.5t97 -19.5q55 0 99.5 19zM493 269.5q38 17.5 59.5 47.5t21.5 67t-21.5 67t-59.5 47.5t-85 17.5
q-45 0 -82.5 -17.5t-59.5 -48t-22 -66.5q0 -37 22.5 -67.5t60 -47.5t81.5 -17q47 0 85 17.5z" />
    <glyph glyph-name="uni2089" unicode="&#x2089;" horiz-adv-x="818" 
d="M578 588.5q81 -43.5 129.5 -138t48.5 -238.5q0 -139 -42 -246.5t-124 -167.5t-196 -60q-88 0 -157.5 33t-111.5 91t-51 132h152q13 -60 57.5 -91t110.5 -31q101 0 155.5 84t54.5 234h-6q-30 -60 -96 -95t-146 -35q-82 0 -149 35.5t-105 99t-38 143.5q0 84 42.5 151
t118.5 105t173 38q99 0 180 -43.5zM306 489q-43 -23 -67.5 -61.5t-24.5 -85.5t24.5 -85.5t67.5 -60.5t96 -22q52 0 96 23.5t68 62.5t20 82q-6 76 -58 123t-126 47q-53 0 -96 -23z" />
    <glyph glyph-name="uni208A" unicode="&#x208a;" horiz-adv-x="844" 
d="M358 48h-250v130h250v236h132v-236h246v-130h-246v-234h-132v234z" />
    <glyph glyph-name="uni208B" unicode="&#x208b;" horiz-adv-x="844" 
d="M736 48h-628v130h628v-130z" />
    <glyph glyph-name="uni208C" unicode="&#x208c;" horiz-adv-x="846" 
d="M132 320h582v-128h-582v128zM132 36h582v-128h-582v128z" />
    <glyph glyph-name="uni2090" unicode="&#x2090;" horiz-adv-x="726" 
d="M117 108q73 54 199 60q138 10 182 10v70q0 56 -37 88t-101 32q-58 0 -100 -27t-50 -69l-146 2q8 65 49 112t106.5 71.5t144.5 24.5q78 0 143 -25.5t104 -78.5t39 -132v-496h-146v110h-4q-27 -55 -84 -89.5t-138 -34.5q-66 0 -119 24.5t-84 73t-31 116.5q0 104 73 158z
M226.5 -125.5q36.5 -30.5 91.5 -30.5q51 0 92 23.5t64.5 63.5t23.5 89v61l-158 -13q-150 -11 -150 -114q0 -49 36.5 -79.5z" />
    <glyph glyph-name="uni2091" unicode="&#x2091;" horiz-adv-x="752" 
d="M205.5 -217.5q-77.5 46.5 -119.5 131.5t-42 196q0 109 42.5 193.5t118.5 131.5t175 47q92 0 166.5 -42t118 -122.5t43.5 -193.5v-50h-512q0 -99 53 -159.5t143 -60.5q60 0 103 27.5t59 68.5h142q-24 -100 -104.5 -157t-203.5 -57q-105 0 -182.5 46.5zM562 172
q0 55 -23 99.5t-63.5 69.5t-91.5 25q-52 0 -94 -26t-67 -70.5t-27 -97.5h366z" />
    <glyph glyph-name="uni2092" unicode="&#x2092;" horiz-adv-x="768" 
d="M206 -217q-77 47 -119.5 132t-42.5 195q0 109 42.5 193.5t119.5 131.5t178 47t178 -47t119.5 -131.5t42.5 -193.5q0 -110 -42.5 -195t-119.5 -132t-178 -47t-178 47zM482.5 -111q41.5 33 63.5 91t22 130q0 73 -22 131.5t-63.5 91.5t-98.5 33t-98.5 -33t-63.5 -91.5
t-22 -131.5q0 -72 22 -130t63.5 -91t98.5 -33t98.5 33z" />
    <glyph glyph-name="uni2093" unicode="&#x2093;" horiz-adv-x="704" 
d="M354 202l150 272h162l-214 -358l222 -366h-158l-162 276l-164 -276h-160l222 366l-212 358h158z" />
    <glyph glyph-name="uni2095" unicode="&#x2095;" horiz-adv-x="776" 
d="M230 -250h-152v964h148v-364h6q26 62 82 97t136 35q73 0 129 -32.5t87.5 -92.5t31.5 -141v-466h-150v440q0 76 -42 120t-112 44q-72 0 -118 -46t-46 -124v-434z" />
    <glyph glyph-name="uni2096" unicode="&#x2096;" horiz-adv-x="708" 
d="M78 714h152v-544h10l274 304h180l-284 -314l296 -410h-182l-230 321l-64 -70v-251h-152v964z" />
    <glyph glyph-name="uni2097" unicode="&#x2097;" horiz-adv-x="306" 
d="M230 -250h-152v964h152v-964z" />
    <glyph glyph-name="uni2098" unicode="&#x2098;" horiz-adv-x="1152" 
d="M78 474h146v-122h6q23 61 74.5 95.5t125.5 34.5t126 -37t70 -101h8q22 64 80 101t136 37q102 0 163 -65.5t61 -180.5v-486h-154v462q0 68 -35 105t-95 37q-67 0 -103.5 -41.5t-36.5 -106.5v-456h-148v464q0 64 -35.5 102t-96.5 38q-62 0 -101 -43t-39 -113v-448h-152v724
z" />
    <glyph glyph-name="uni2099" unicode="&#x2099;" horiz-adv-x="774" 
d="M230 -250h-152v724h146v-124h6q25 61 83 96.5t133 35.5q74 0 130.5 -32.5t88 -92.5t31.5 -141v-466h-152v440q0 76 -42 120t-112 44t-115 -46t-45 -124v-434z" />
    <glyph glyph-name="uni209A" unicode="&#x209a;" horiz-adv-x="788" 
d="M78 474h152v-136h4q28 63 81 103.5t137 40.5q82 0 148 -43.5t104 -127.5t38 -201q0 -113 -37 -197.5t-103 -130.5t-150 -46t-137 41.5t-81 104.5h-4v-404h-152v996zM248 -17.5q22 -56.5 62.5 -88.5t95.5 -32q85 0 132.5 70t47.5 180q0 111 -47.5 179.5t-132.5 68.5
q-55 0 -95.5 -31.5t-62.5 -87.5t-22 -129t22 -129.5z" />
    <glyph glyph-name="uni209B" unicode="&#x209b;" horiz-adv-x="690" 
d="M449 344q-38 28 -99 28q-56 0 -96 -27t-40 -69q0 -33 27 -56t85 -36l124 -28q97 -22 146.5 -71t49.5 -123q0 -67 -39 -118.5t-107 -79.5t-154 -28q-129 0 -207 57.5t-93 162.5h146q28 -106 154 -106q62 0 103 27.5t41 70.5q0 70 -106 92l-122 26q-196 41 -196 202
q0 65 35 113.5t98.5 74.5t146.5 26q123 0 199.5 -56t90.5 -154h-140q-9 44 -47 72z" />
    <glyph glyph-name="uni209C" unicode="&#x209c;" horiz-adv-x="470" 
d="M418 356h-140v-400q0 -47 23.5 -67.5t62.5 -20.5q40 0 58 2v-124q-32 -4 -78 -4q-100 0 -159 48t-59 144v422h-102v118h102v172h152v-172h140v-118z" />
    <glyph glyph-name="uni20A9" unicode="&#x20a9;" horiz-adv-x="1864" 
d="M250 644h-208v160h164l-174 644h182l163 -644h287l168 644h200l168 -644h287l163 644h184l-175 -644h165v-160h-209l-175 -644h-186l-177 644h-289l-176 -644h-188zM512 274h14l96 370h-204zM1033 804l-95 344h-12l-94 -344h201zM1338 274h14l94 370h-204z" />
    <glyph glyph-name="Euro" unicode="&#x20ac;" horiz-adv-x="1296" 
d="M958 794h-570q-2 -46 -2 -70t2 -70h514l-66 -142h-427q41 -175 147.5 -269.5t251.5 -94.5q88 0 165.5 33.5t142.5 90.5l74 -150q-74 -70 -173 -106t-209 -36q-145 0 -264.5 63.5t-200.5 183.5t-113 285h-194l50 142h126l-2 70l2 70h-176l50 142h144q32 165 113 285
t200.5 183.5t264.5 63.5q111 0 208.5 -38t175.5 -110l-70 -152q-148 132 -314 132q-145 0 -251.5 -94.5t-147.5 -269.5h615z" />
    <glyph glyph-name="uni20B9" unicode="&#x20b9;" horiz-adv-x="1046" 
d="M958 940h-149q-22 -155 -140.5 -249.5t-340.5 -94.5l-6 -2l478 -582v-12h-226l-516 630l-2 122h256q128 0 206.5 47.5t99.5 140.5h-576l48 166h524q-25 87 -101 133.5t-201 46.5h-270l48 162h918l-50 -166l-229 2q58 -75 77 -178h202z" />
    <glyph glyph-name="uni20BA" unicode="&#x20ba;" horiz-adv-x="1148" 
d="M470 1202l300 136v-176l-300 -137v-154l300 137v-178l-300 -136v-546q181 1 287.5 114t106.5 374h182q0 -219 -70.5 -366t-200 -218.5t-307.5 -71.5q-96 0 -176 8v626l-212 -96v176l212 96v154l-212 -96v178l212 96v326h178v-246z" />
    <glyph glyph-name="uni2103" unicode="&#x2103;" horiz-adv-x="2272" 
d="M275 852q-75 44 -119 118t-44 162q0 89 44 164.5t118.5 119.5t163.5 44t163.5 -44t118.5 -119.5t44 -164.5q0 -88 -44 -162t-119 -118t-163 -44t-163 44zM529 974.5q42 24.5 66.5 66.5t24.5 91q0 50 -24.5 92.5t-66.5 67t-91 24.5q-50 0 -92.5 -24.5t-67 -67t-24.5 -92.5
q0 -49 24.5 -91t67 -66.5t92.5 -24.5q49 0 91 24.5zM1920.5 1158.5q-59.5 69.5 -144 105.5t-180.5 36q-133 0 -238.5 -67t-166.5 -197t-61 -312t61 -312t166.5 -197t238.5 -67q96 0 180 35.5t143.5 105t80.5 165.5h180q-26 -145 -108 -252.5t-205.5 -164.5t-270.5 -57
q-186 0 -331 91t-227 259.5t-82 393.5t82 393.5t227 259.5t331 91q146 0 269.5 -57t206 -164.5t108.5 -254.5h-180q-20 97 -79.5 166.5z" />
    <glyph glyph-name="uni2109" unicode="&#x2109;" horiz-adv-x="2016" 
d="M275 852q-75 44 -119 118t-44 162q0 89 44 164.5t118.5 119.5t163.5 44t163.5 -44t118.5 -119.5t44 -164.5q0 -88 -44 -162t-119 -118t-163 -44t-163 44zM529 974.5q42 24.5 66.5 66.5t24.5 91q0 50 -24.5 92.5t-66.5 67t-91 24.5q-50 0 -92.5 -24.5t-67 -67t-24.5 -92.5
q0 -49 24.5 -91t67 -66.5t92.5 -24.5q49 0 91 24.5zM1036 1448h872v-160h-692v-484h626v-158h-626v-646h-180v1448z" />
    <glyph glyph-name="trademark" unicode="&#x2122;" horiz-adv-x="1182" 
d="M654 1284v-356h-92v520h114l160 -380l160 380h112v-520h-92v353l-156 -353h-50zM222 1368h-158v80h408v-80h-158v-440h-92v440z" />
    <glyph glyph-name="estimated" unicode="&#x212e;" horiz-adv-x="1226" 
d="M812.5 8.5q-91.5 -28.5 -186.5 -28.5q-139 0 -255.5 73.5t-184.5 199t-68 273.5q0 145 73 271t191 200.5t244 74.5q133 0 243 -68.5t174.5 -189t64.5 -268.5v-46h-748v-318q56 -51 124 -79.5t142 -28.5q195 0 362 118v-102q-84 -53 -175.5 -81.5zM486.5 950
q-69.5 -32 -126.5 -88v-270h528v280q-52 52 -120 81t-142 29q-70 0 -139.5 -32z" />
    <glyph glyph-name="uni2153" unicode="&#x2153;" horiz-adv-x="1760" 
d="M248 1338h-6l-190 -126v152l196 130h150v-770h-150v614zM1188 1448h162l-996 -1448h-162zM1226.5 18.5q-71.5 30.5 -112 84.5t-40.5 121h152q0 -32 21.5 -57.5t58.5 -40t82 -14.5q46 0 83 15t58 41t21 58q0 51 -50.5 81.5t-131.5 30.5h-62v108h62q71 0 117.5 30t46.5 78
q0 47 -40.5 78.5t-103.5 31.5q-42 0 -76.5 -14.5t-55 -40.5t-20.5 -57h-146q2 65 41 117t106 81.5t151 29.5q85 0 151 -27.5t102.5 -76.5t36.5 -110q0 -65 -46.5 -109t-123.5 -55v-6q94 -12 146 -61t52 -121q0 -64 -40.5 -115.5t-113 -81t-164.5 -29.5q-90 0 -161.5 30.5z
" />
    <glyph glyph-name="uni215A" unicode="&#x215a;" horiz-adv-x="1918" 
d="M1376 1448h162l-996 -1448h-162zM211 695.5q-67 29.5 -105 83.5t-40 123h146q1 -53 44.5 -86.5t107.5 -33.5q47 0 85 19t59.5 53t21.5 76q0 43 -22.5 77t-61 52.5t-86.5 18.5q-39 0 -76 -17.5t-58 -46.5l-140 28l42 406h502v-120h-376l-28 -222h4q26 34 73.5 55t104.5 21
q73 0 134.5 -31.5t97.5 -87.5t36 -127q0 -77 -39.5 -138.5t-110.5 -96.5t-162 -35q-86 0 -153 29.5zM1393.5 28.5q-74.5 40.5 -119 126t-44.5 213.5q0 120 38.5 214t114 148t181.5 54q79 0 142.5 -30.5t102 -83.5t45.5 -118h-150q-7 48 -45 75t-95 27q-91 0 -138.5 -73.5
t-47.5 -206.5h6q22 55 84.5 88.5t135.5 33.5q74 0 133.5 -31.5t93 -87.5t33.5 -125q0 -74 -38.5 -134.5t-108 -95t-157.5 -34.5q-92 0 -166.5 40.5zM1638 123q37 19 58.5 52t21.5 73t-21.5 73t-59 52t-81.5 19q-46 0 -84.5 -19.5t-59.5 -53t-18 -71.5q8 -65 51.5 -104.5
t110.5 -39.5q45 0 82 19z" />
    <glyph glyph-name="oneeighth" unicode="&#x215b;" horiz-adv-x="1826" 
d="M1250 1448h162l-996 -1448h-162zM248 1292h-6l-190 -126v152l196 130h150v-770h-150v614zM1286.5 17q-74.5 29 -116.5 79t-42 110q0 45 25 86t69 68.5t98 35.5v6q-74 15 -118 64.5t-44 111.5q0 57 38.5 103t106 72.5t149.5 26.5t149.5 -26.5t106 -72.5t38.5 -103
q0 -62 -44 -111.5t-118 -64.5v-6q57 -10 100.5 -38t67.5 -68t24 -84q0 -60 -42 -110t-116.5 -79t-165.5 -29t-165.5 29zM1537 111q38 17 59.5 45.5t21.5 61.5q0 34 -22 61.5t-60 44t-84 16.5t-84.5 -16t-61 -44t-22.5 -62q0 -33 22 -61.5t60.5 -45.5t85.5 -17t85 17z
M1525.5 461.5q33.5 15.5 53 41.5t19.5 57q0 30 -19.5 55.5t-53 41t-73.5 15.5t-73 -15.5t-52 -41t-19 -55.5q0 -31 19 -57t52 -41.5t73 -15.5t73.5 15.5z" />
    <glyph glyph-name="threeeighths" unicode="&#x215c;" horiz-adv-x="1958" 
d="M1382 1448h162l-996 -1448h-162zM210.5 696.5q-71.5 30.5 -112 84.5t-40.5 121h152q0 -32 21.5 -57.5t58.5 -40t82 -14.5q46 0 83 15t58 41t21 58q0 51 -50.5 81.5t-131.5 30.5h-62v108h62q71 0 117.5 30t46.5 78q0 47 -40.5 78.5t-103.5 31.5q-42 0 -76.5 -14.5
t-55 -40.5t-20.5 -57h-146q2 65 41 117t106 81.5t151 29.5q85 0 151 -27.5t102.5 -76.5t36.5 -110q0 -65 -46.5 -109t-123.5 -55v-6q94 -12 146 -61t52 -121q0 -64 -40.5 -115.5t-113 -81t-164.5 -29.5q-90 0 -161.5 30.5zM1418.5 17q-74.5 29 -116.5 79t-42 110q0 45 25 86
t69 68.5t98 35.5v6q-74 15 -118 64.5t-44 111.5q0 57 38.5 103t106 72.5t149.5 26.5t149.5 -26.5t106 -72.5t38.5 -103q0 -62 -44 -111.5t-118 -64.5v-6q57 -10 100.5 -38t67.5 -68t24 -84q0 -60 -42 -110t-116.5 -79t-165.5 -29t-165.5 29zM1669 111q38 17 59.5 45.5
t21.5 61.5q0 34 -22 61.5t-60 44t-84 16.5t-84.5 -16t-61 -44t-22.5 -62q0 -33 22 -61.5t60.5 -45.5t85.5 -17t85 17zM1657.5 461.5q33.5 15.5 53 41.5t19.5 57q0 30 -19.5 55.5t-53 41t-73.5 15.5t-73 -15.5t-52 -41t-19 -55.5q0 -31 19 -57t52 -41.5t73 -15.5t73.5 15.5z
" />
    <glyph glyph-name="fiveeighths" unicode="&#x215d;" horiz-adv-x="1952" 
d="M1376 1448h162l-996 -1448h-162zM211 695.5q-67 29.5 -105 83.5t-40 123h146q1 -53 44.5 -86.5t107.5 -33.5q47 0 85 19t59.5 53t21.5 76q0 43 -22.5 77t-61 52.5t-86.5 18.5q-39 0 -76 -17.5t-58 -46.5l-140 28l42 406h502v-120h-376l-28 -222h4q26 34 73.5 55t104.5 21
q73 0 134.5 -31.5t97.5 -87.5t36 -127q0 -77 -39.5 -138.5t-110.5 -96.5t-162 -35q-86 0 -153 29.5zM1412.5 17q-74.5 29 -116.5 79t-42 110q0 45 25 86t69 68.5t98 35.5v6q-74 15 -118 64.5t-44 111.5q0 57 38.5 103t106 72.5t149.5 26.5t149.5 -26.5t106 -72.5t38.5 -103
q0 -62 -44 -111.5t-118 -64.5v-6q57 -10 100.5 -38t67.5 -68t24 -84q0 -60 -42 -110t-116.5 -79t-165.5 -29t-165.5 29zM1663 111q38 17 59.5 45.5t21.5 61.5q0 34 -22 61.5t-60 44t-84 16.5t-84.5 -16t-61 -44t-22.5 -62q0 -33 22 -61.5t60.5 -45.5t85.5 -17t85 17z
M1651.5 461.5q33.5 15.5 53 41.5t19.5 57q0 30 -19.5 55.5t-53 41t-73.5 15.5t-73 -15.5t-52 -41t-19 -55.5q0 -31 19 -57t52 -41.5t73 -15.5t73.5 15.5z" />
    <glyph glyph-name="seveneighths" unicode="&#x215e;" horiz-adv-x="1736" 
d="M1162 1448h162l-996 -1448h-162zM464 1322v6h-428v120h586v-120l-370 -650h-158zM1196.5 17q-74.5 29 -116.5 79t-42 110q0 45 25 86t69 68.5t98 35.5v6q-74 15 -118 64.5t-44 111.5q0 57 38.5 103t106 72.5t149.5 26.5t149.5 -26.5t106 -72.5t38.5 -103
q0 -62 -44 -111.5t-118 -64.5v-6q57 -10 100.5 -38t67.5 -68t24 -84q0 -60 -42 -110t-116.5 -79t-165.5 -29t-165.5 29zM1447 111q38 17 59.5 45.5t21.5 61.5q0 34 -22 61.5t-60 44t-84 16.5t-84.5 -16t-61 -44t-22.5 -62q0 -33 22 -61.5t60.5 -45.5t85.5 -17t85 17z
M1435.5 461.5q33.5 15.5 53 41.5t19.5 57q0 30 -19.5 55.5t-53 41t-73.5 15.5t-73 -15.5t-52 -41t-19 -55.5q0 -31 19 -57t52 -41.5t73 -15.5t73.5 15.5z" />
    <glyph glyph-name="uni215F" unicode="&#x215f;" horiz-adv-x="1090" 
d="M1250 1448h162l-996 -1448h-162zM248 1292h-6l-190 -126v152l196 130h150v-770h-150v614z" />
    <glyph glyph-name="arrowleft" unicode="&#x2190;" horiz-adv-x="1870" 
d="M182 634l636 636l112 -108l-450 -450h1156v-158h-1156l450 -446l-112 -110z" />
    <glyph glyph-name="arrowup" unicode="&#x2191;" horiz-adv-x="1870" 
d="M856 1156l-444 -444l-114 110l636 634l636 -634l-110 -110l-446 444v-1156h-158v1156z" />
    <glyph glyph-name="arrowright" unicode="&#x2192;" horiz-adv-x="1870" 
d="M940 106l448 448h-1154v158h1154l-448 448l112 110l636 -636l-636 -636z" />
    <glyph glyph-name="arrowdown" unicode="&#x2193;" horiz-adv-x="1870" 
d="M1014 292l444 444l114 -110l-636 -634l-636 634l110 110l446 -444v1156h158v-1156z" />
    <glyph glyph-name="arrowboth" unicode="&#x2194;" horiz-adv-x="2640" 
d="M182 634l634 634l110 -110l-446 -446h1678l-446 446l112 110l634 -634l-634 -636l-112 112l446 444h-1678l446 -444l-110 -112z" />
    <glyph glyph-name="arrowupdn" unicode="&#x2195;" horiz-adv-x="1870" 
d="M302 200l110 112l446 -444v1506l-446 -446l-110 110l634 636l636 -636l-110 -110l-446 446v-1506l446 444l110 -112l-636 -634z" />
    <glyph glyph-name="uni2196" unicode="&#x2196;" horiz-adv-x="1870" 
d="M408 1448h896l2 -156h-630l816 -816l-112 -114l-818 818l2 -630h-156v898z" />
    <glyph glyph-name="uni2197" unicode="&#x2197;" horiz-adv-x="1870" 
d="M380 476l816 816h-632l2 156h898v-898h-158v630l-816 -818z" />
    <glyph glyph-name="uni2198" unicode="&#x2198;" horiz-adv-x="1870" 
d="M1462 0h-896l-2 156h630l-816 816l112 114l818 -818l-2 630h156v-898z" />
    <glyph glyph-name="uni2199" unicode="&#x2199;" horiz-adv-x="1870" 
d="M1490 972l-816 -816h632l-2 -156h-898v898h158v-630l816 818z" />
    <glyph glyph-name="partialdiff" unicode="&#x2202;" horiz-adv-x="1228" 
d="M757.5 958.5q77.5 -33.5 132.5 -94.5q-14 131 -66 229.5t-130 151.5t-166 53q-68 0 -133.5 -13t-138.5 -37l-16 158q53 21 90 33t91 20.5t125 8.5q179 0 300.5 -98t181.5 -276.5t60 -421.5v-56q1 -182 -56 -326.5t-164.5 -227t-253.5 -82.5q-145 0 -252 67t-163.5 184.5
t-56.5 264.5v22q0 137 54 244.5t156.5 168.5t243.5 61q84 0 161.5 -33.5zM462 791.5q-62 -42.5 -92 -114.5t-30 -159v-22q0 -100 30 -181t91.5 -129t152.5 -48q92 0 154 56.5t92 154t30 223.5v68q-9 40 -39.5 84.5t-89.5 77t-145 32.5q-92 0 -154 -42.5z" />
    <glyph glyph-name="product" unicode="&#x220f;" horiz-adv-x="1408" 
d="M1242 -206h-200v1496h-678v-1496h-198v1654h1076v-1654z" />
    <glyph glyph-name="summation" unicode="&#x2211;" horiz-adv-x="1230" 
d="M1166 -264h-1102v148l606 706l-606 708v150h1026v-158h-786l564 -674v-54l-561 -666h859v-160z" />
    <glyph glyph-name="minus" unicode="&#x2212;" horiz-adv-x="1284" 
d="M1098 486h-910v162h910v-162z" />
    <glyph glyph-name="radical" unicode="&#x221a;" horiz-adv-x="1224" 
d="M556 300l422 1148h200l-542 -1448h-152l-239 606h-187v160h326z" />
    <glyph glyph-name="infinity" unicode="&#x221e;" horiz-adv-x="1828" 
d="M830 850q54 -54 86 -94q40 54 84 94q158 158 352 158q106 0 195.5 -52.5t142 -142.5t52.5 -197t-52.5 -197t-142 -142.5t-195.5 -52.5q-190 0 -352 154q-53 53 -84 98q-24 -33 -86 -98q-162 -154 -350 -154q-108 0 -198.5 52.5t-143 142.5t-52.5 197t52.5 197t143 142.5
t198.5 52.5q192 0 350 -158zM282.5 502q30.5 -52 83 -82t114.5 -30q122 0 232 110q52 50 100 116q-36 47 -53 68t-47 48q-49 50 -108 80t-124 30q-62 0 -114.5 -30.5t-83 -82.5t-30.5 -113q0 -62 30.5 -114zM1547.5 729q-30.5 52 -82.5 82.5t-113 30.5q-126 0 -236 -110
q-39 -37 -82 -94l-18 -22q42 -58 100 -116q53 -51 111 -80.5t125 -29.5q61 0 113 30t82.5 82t30.5 114q0 61 -30.5 113z" />
    <glyph glyph-name="integral" unicode="&#x222b;" horiz-adv-x="528" 
d="M249 -342q-79 -82 -229 -82q-53 0 -114 16l16 154q14 -4 48 -8t48 -4q72 0 105 39.5t33 122.5v1266q0 170 83.5 261t240.5 91q62 0 142 -20l-22 -146q-29 8 -120 8q-78 0 -115 -47t-37 -147v-1266q0 -156 -79 -238z" />
    <glyph glyph-name="approxequal" unicode="&#x2248;" horiz-adv-x="1284" 
d="M301 887q59 29 125 29q50 0 98 -14.5t124 -43.5q69 -29 117.5 -43.5t96.5 -14.5q67 0 125 32t103 94v-166q-99 -114 -232 -114q-50 0 -98 14.5t-124 43.5q-69 29 -117.5 43.5t-98.5 14.5q-66 0 -123.5 -32t-102.5 -94v166q48 56 107 85zM301 457q59 29 125 29
q50 0 98 -14.5t124 -43.5q69 -29 117.5 -43.5t96.5 -14.5q67 0 125 32t103 94v-166q-99 -114 -232 -114q-50 0 -98 14.5t-124 43.5q-69 29 -117.5 43.5t-98.5 14.5q-66 0 -123.5 -32t-102.5 -94v166q48 56 107 85z" />
    <glyph glyph-name="notequal" unicode="&#x2260;" horiz-adv-x="1284" 
d="M932 1088l-93 -232h241v-158h-304l-106 -264h410v-156h-473l-93 -232h-164l94 232h-238v156h300l107 264h-407v158h470l94 232h162z" />
    <glyph glyph-name="lessequal" unicode="&#x2264;" horiz-adv-x="1284" 
d="M186 68v162h914v-162h-914zM186 784l914 326v-174l-632 -206v-10l632 -206v-174l-914 326v118z" />
    <glyph glyph-name="greaterequal" unicode="&#x2265;" horiz-adv-x="1284" 
d="M186 230h914v-162h-914v162zM186 340v174l632 206v10l-632 206v174l914 -326v-118z" />
    <glyph glyph-name="uni2460" unicode="&#x2460;" horiz-adv-x="1784" 
d="M497 40.5q-181 106.5 -287 288t-106 395.5t106 395.5t287 288t395 106.5t395.5 -106.5t288 -288t106.5 -395.5t-106.5 -395.5t-288 -288t-395.5 -106.5t-395 106.5zM1210.5 174q146.5 86 233 232t86.5 318t-86.5 318t-233 232t-318.5 86t-318 -86t-232 -232t-86 -318
t86 -318t232 -232t318 -86t318.5 86zM1016 370h-140v574h-6l-160 -104v124l176 112h130v-706z" />
    <glyph glyph-name="uni2461" unicode="&#x2461;" horiz-adv-x="1784" 
d="M497 40.5q-181 106.5 -287 288t-106 395.5t106 395.5t287 288t395 106.5t395.5 -106.5t288 -288t106.5 -395.5t-106.5 -395.5t-288 -288t-395.5 -106.5t-395 106.5zM1210.5 174q146.5 86 233 232t86.5 318t-86.5 318t-233 232t-318.5 86t-318 -86t-232 -232t-86 -318
t86 -318t232 -232t318 -86t318.5 86zM646 476l252 238q58 57 81 89.5t23 72.5q0 47 -33 75.5t-83 28.5q-51 0 -81.5 -30t-30.5 -82h-134q0 67 31.5 118t87.5 78.5t129 27.5t129.5 -26.5t87.5 -73t31 -106.5q0 -42 -16 -80.5t-55.5 -84.5t-112.5 -113l-112 -112v-6h306v-114
h-500v100z" />
    <glyph glyph-name="uni2462" unicode="&#x2462;" horiz-adv-x="1784" 
d="M497 40.5q-181 106.5 -287 288t-106 395.5t106 395.5t287 288t395 106.5t395.5 -106.5t288 -288t106.5 -395.5t-106.5 -395.5t-288 -288t-395.5 -106.5t-395 106.5zM1210.5 174q146.5 86 233 232t86.5 318t-86.5 318t-233 232t-318.5 86t-318 -86t-232 -232t-86 -318
t86 -318t232 -232t318 -86t318.5 86zM758 386.5q-60 26.5 -94 74t-34 107.5h140q0 -40 35.5 -66t88.5 -26q55 0 90.5 28t35.5 72q0 46 -37.5 74t-102.5 28h-62v106h62q54 0 88 27.5t34 70.5q0 41 -29 66.5t-77 25.5q-50 0 -84.5 -25t-35.5 -67h-134q1 59 34.5 105.5
t91.5 72.5t128 26q71 0 125.5 -26t84.5 -71t30 -99q0 -60 -36 -100.5t-96 -51.5v-6q77 -9 118.5 -53t41.5 -111q0 -59 -35 -106.5t-96.5 -74.5t-138.5 -27q-76 0 -136 26.5z" />
    <glyph glyph-name="uni2463" unicode="&#x2463;" horiz-adv-x="1784" 
d="M497 40.5q-181 106.5 -287 288t-106 395.5t106 395.5t287 288t395 106.5t395.5 -106.5t288 -288t106.5 -395.5t-106.5 -395.5t-288 -288t-395.5 -106.5t-395 106.5zM1210.5 174q146.5 86 233 232t86.5 318t-86.5 318t-233 232t-318.5 86t-318 -86t-232 -232t-86 -318
t86 -318t232 -232t318 -86t318.5 86zM614 608l300 468h174v-464h90v-114h-90v-128h-134v128h-340v110zM958 612v310h-8l-196 -306v-4h204z" />
    <glyph glyph-name="uni2464" unicode="&#x2464;" horiz-adv-x="1784" 
d="M497 40.5q-181 106.5 -287 288t-106 395.5t106 395.5t287 288t395 106.5t395.5 -106.5t288 -288t106.5 -395.5t-106.5 -395.5t-288 -288t-395.5 -106.5t-395 106.5zM1210.5 174q146.5 86 233 232t86.5 318t-86.5 318t-233 232t-318.5 86t-318 -86t-232 -232t-86 -318
t86 -318t232 -232t318 -86t318.5 86zM766.5 382.5q-57.5 26.5 -91 73.5t-35.5 106h136q3 -41 37 -67.5t83 -26.5q56 0 92 36.5t36 91.5q0 58 -37 94t-95 38q-82 0 -112 -60h-128l40 404h426v-114h-312l-20 -182h8q18 26 55 42t83 16q64 0 115.5 -30t80.5 -83.5t28 -120.5
q1 -70 -32 -125.5t-92.5 -87t-135.5 -31.5q-72 0 -129.5 26.5z" />
    <glyph glyph-name="uni2465" unicode="&#x2465;" horiz-adv-x="1784" 
d="M497 40.5q-181 106.5 -287 288t-106 395.5t106 395.5t287 288t395 106.5t395.5 -106.5t288 -288t106.5 -395.5t-106.5 -395.5t-288 -288t-395.5 -106.5t-395 106.5zM1210.5 174q146.5 86 233 232t86.5 318t-86.5 318t-233 232t-318.5 86t-318 -86t-232 -232t-86 -318
t86 -318t232 -232t318 -86t318.5 86zM700 443.5q-80 81.5 -80 262.5q0 119 35 204.5t100 130.5t153 45q68 0 122.5 -26.5t87.5 -73t40 -104.5h-138q-8 39 -37.5 61.5t-74.5 22.5q-74 0 -113 -61t-39 -169h8q23 47 71.5 72.5t108.5 25.5q62 0 113 -29t80 -81t29 -118
q0 -71 -33 -127t-93 -87.5t-138 -31.5q-122 2 -202 83.5zM993.5 509q36.5 37 36.5 93q0 55 -36 92.5t-92 37.5q-36 0 -66 -17.5t-47.5 -47.5t-18.5 -65q0 -35 17 -64.5t47 -47.5t66 -18q57 0 93.5 37z" />
    <glyph glyph-name="uni2466" unicode="&#x2466;" horiz-adv-x="1784" 
d="M497 40.5q-181 106.5 -287 288t-106 395.5t106 395.5t287 288t395 106.5t395.5 -106.5t288 -288t106.5 -395.5t-106.5 -395.5t-288 -288t-395.5 -106.5t-395 106.5zM1210.5 174q146.5 86 233 232t86.5 318t-86.5 318t-233 232t-318.5 86t-318 -86t-232 -232t-86 -318
t86 -318t232 -232t318 -86t318.5 86zM994 958v4h-350v114h492v-116l-298 -590h-146z" />
    <glyph glyph-name="uni2467" unicode="&#x2467;" horiz-adv-x="1784" 
d="M497 40.5q-181 106.5 -287 288t-106 395.5t106 395.5t287 288t395 106.5t395.5 -106.5t288 -288t106.5 -395.5t-106.5 -395.5t-288 -288t-395.5 -106.5t-395 106.5zM1210.5 174q146.5 86 233 232t86.5 318t-86.5 318t-233 232t-318.5 86t-318 -86t-232 -232t-86 -318
t86 -318t232 -232t318 -86t318.5 86zM754.5 386q-62.5 26 -97.5 72t-35 102q0 67 44 116t110 60v4q-57 12 -92 55t-34 101q-1 54 30.5 97.5t88 68t127.5 24.5q70 0 126 -24.5t87.5 -68t30.5 -97.5q1 -58 -34 -101t-92 -55v-4q66 -11 110 -60t44 -116q0 -56 -35 -102t-97 -72
t-140 -26q-79 0 -141.5 26zM989 495q35 29 35 75q0 49 -36 79.5t-92 30.5q-57 0 -93.5 -30.5t-36.5 -79.5q0 -45 36 -74.5t94 -29.5t93 29zM975 811.5q31 27.5 31 70.5t-30.5 69.5t-79.5 28.5q-50 -2 -80 -28.5t-30 -69.5q0 -44 30.5 -71t79.5 -27q48 0 79 27.5z" />
    <glyph glyph-name="uni2468" unicode="&#x2468;" horiz-adv-x="1784" 
d="M497 40.5q-181 106.5 -287 288t-106 395.5t106 395.5t287 288t395 106.5t395.5 -106.5t288 -288t106.5 -395.5t-106.5 -395.5t-288 -288t-395.5 -106.5t-395 106.5zM1210.5 174q146.5 86 233 232t86.5 318t-86.5 318t-233 232t-318.5 86t-318 -86t-232 -232t-86 -318
t86 -318t232 -232t318 -86t318.5 86zM1085 1005.5q81 -80.5 81 -261.5q0 -119 -35 -206t-99.5 -132.5t-151.5 -45.5q-69 0 -123.5 26.5t-87 74t-39.5 107.5h134q11 -41 40.5 -64.5t75.5 -23.5q73 0 111.5 61.5t38.5 170.5h-8q-24 -45 -72 -70.5t-108 -25.5q-62 0 -113 29
t-79.5 80.5t-27.5 116.5q-1 69 31.5 124.5t92 87.5t136.5 32q122 0 203 -80.5zM793.5 938q-37.5 -37 -37.5 -90q0 -55 36.5 -92.5t91.5 -37.5q36 0 66.5 18t48 47.5t17.5 64.5q0 34 -17 63t-47 46.5t-66 18.5q-55 -1 -92.5 -38z" />
    <glyph glyph-name="uni2469" unicode="&#x2469;" horiz-adv-x="1784" 
d="M497 40.5q-181 106.5 -287 288t-106 395.5t106 395.5t287 288t395 106.5t395.5 -106.5t288 -288t106.5 -395.5t-106.5 -395.5t-288 -288t-395.5 -106.5t-395 106.5zM1210.5 174q146.5 86 233 232t86.5 318t-86.5 318t-233 232t-318.5 86t-318 -86t-232 -232t-86 -318
t86 -318t232 -232t318 -86t318.5 86zM714 408h-140v500h-2l-146 -90v122l156 100h132v-632zM966.5 433q-58.5 39 -89 113t-29.5 176q-1 103 30 176t89.5 111.5t138.5 38.5q121 0 189.5 -85.5t68.5 -240.5q0 -102 -31 -176t-89 -113t-138 -39q-81 0 -139.5 39zM1191 564
q31 54 31 158t-31 158t-85 54t-84.5 -53.5t-31.5 -158.5q0 -104 31 -158t85 -54t85 54z" />
    <glyph glyph-name="uni246A" unicode="&#x246a;" horiz-adv-x="1784" 
d="M497 40.5q-181 106.5 -287 288t-106 395.5t106 395.5t287 288t395 106.5t395.5 -106.5t288 -288t106.5 -395.5t-106.5 -395.5t-288 -288t-395.5 -106.5t-395 106.5zM1210.5 174q146.5 86 233 232t86.5 318t-86.5 318t-233 232t-318.5 86t-318 -86t-232 -232t-86 -318
t86 -318t232 -232t318 -86t318.5 86zM800 408h-140v500h-2l-144 -90v122l154 100h132v-632zM1222 408h-140v500h-4l-144 -90v122l156 100h132v-632z" />
    <glyph glyph-name="uni246B" unicode="&#x246b;" horiz-adv-x="1784" 
d="M497 40.5q-181 106.5 -287 288t-106 395.5t106 395.5t287 288t395 106.5t395.5 -106.5t288 -288t106.5 -395.5t-106.5 -395.5t-288 -288t-395.5 -106.5t-395 106.5zM1210.5 174q146.5 86 233 232t86.5 318t-86.5 318t-233 232t-318.5 86t-318 -86t-232 -232t-86 -318
t86 -318t232 -232t318 -86t318.5 86zM878 518l228 204q47 47 66.5 75t19.5 61q0 39 -26.5 62.5t-67.5 23.5q-44 0 -70 -25t-26 -69h-132q0 61 28.5 108t80.5 72.5t119 25.5q68 0 120 -24t81 -66.5t29 -97.5q0 -38 -15 -72.5t-51.5 -76.5t-103.5 -101l-86 -84v-4h262v-114
h-456v102zM596 908h-2l-144 -90v122l156 100h130v-632h-140v500z" />
    <glyph glyph-name="uni246C" unicode="&#x246c;" horiz-adv-x="1784" 
d="M497 40.5q-181 106.5 -287 288t-106 395.5t106 395.5t287 288t395 106.5t395.5 -106.5t288 -288t106.5 -395.5t-106.5 -395.5t-288 -288t-395.5 -106.5t-395 106.5zM1210.5 174q146.5 86 233 232t86.5 318t-86.5 318t-233 232t-318.5 86t-318 -86t-232 -232t-86 -318
t86 -318t232 -232t318 -86t318.5 86zM724 408h-140v500h-2l-144 -90v122l156 100h130v-632zM977 424q-55 24 -86.5 67t-32.5 97h140q3 -33 32 -53.5t72 -20.5q45 0 73.5 23t28.5 59t-31.5 59.5t-84.5 24.5h-58v100h58q46 0 74 23t28 59q0 33 -24 54.5t-64 21.5
q-39 0 -68 -21.5t-30 -54.5h-134q1 54 31.5 96.5t83 66t117.5 23.5t115.5 -24t78.5 -64.5t28 -89.5q0 -53 -32.5 -89t-87.5 -45v-4q69 -7 107.5 -47t36.5 -99q1 -53 -30.5 -95.5t-88 -66.5t-127.5 -24q-70 0 -125 24z" />
    <glyph glyph-name="uni246D" unicode="&#x246d;" horiz-adv-x="1784" 
d="M497 40.5q-181 106.5 -287 288t-106 395.5t106 395.5t287 288t395 106.5t395.5 -106.5t288 -288t106.5 -395.5t-106.5 -395.5t-288 -288t-395.5 -106.5t-395 106.5zM1210.5 174q146.5 86 233 232t86.5 318t-86.5 318t-233 232t-318.5 86t-318 -86t-232 -232t-86 -318
t86 -318t232 -232t318 -86t318.5 86zM716 408h-140v500h-4l-142 -90v122l154 100h132v-632zM846 628l264 412h176v-410h78v-112h-78v-110h-132v110h-308v110zM1156 630v258h-6l-164 -254v-4h170z" />
    <glyph glyph-name="uni246E" unicode="&#x246e;" horiz-adv-x="1784" 
d="M497 40.5q-181 106.5 -287 288t-106 395.5t106 395.5t287 288t395 106.5t395.5 -106.5t288 -288t106.5 -395.5t-106.5 -395.5t-288 -288t-395.5 -106.5t-395 106.5zM1210.5 174q146.5 86 233 232t86.5 318t-86.5 318t-233 232t-318.5 86t-318 -86t-232 -232t-86 -318
t86 -318t232 -232t318 -86t318.5 86zM730 408h-140v500h-4l-142 -90v122l154 100h132v-632zM987.5 420q-53.5 24 -84 67t-31.5 97h136q1 -34 30 -57t70 -23q47 0 76 30t28 78q1 48 -29.5 78t-78.5 30q-33 0 -57.5 -13t-36.5 -37h-126l32 366h394v-116h-278l-16 -154h4
q17 26 51 42t77 16q56 0 102.5 -27t72.5 -74.5t25 -106.5q1 -63 -29.5 -113t-85.5 -78.5t-125 -28.5q-67 0 -120.5 24z" />
    <glyph glyph-name="uni246F" unicode="&#x246f;" horiz-adv-x="1784" 
d="M497 40.5q-181 106.5 -287 288t-106 395.5t106 395.5t287 288t395 106.5t395.5 -106.5t288 -288t106.5 -395.5t-106.5 -395.5t-288 -288t-395.5 -106.5t-395 106.5zM1210.5 174q146.5 86 233 232t86.5 318t-86.5 318t-233 232t-318.5 86t-318 -86t-232 -232t-86 -318
t86 -318t232 -232t318 -86t318.5 86zM722 408h-140v500h-2l-144 -90v122l154 100h132v-632zM927.5 474.5q-73.5 72.5 -73.5 229.5q0 106 32 183.5t91 119t139 41.5q63 0 113 -24.5t80 -67t35 -94.5h-136q-7 31 -31.5 48.5t-60.5 17.5q-60 0 -92 -52t-32 -142h4q21 42 64 66
t96 24q57 0 102 -26t70 -72.5t24 -105.5q1 -63 -29 -113.5t-85 -78.5t-126 -28q-111 2 -184.5 74.5zM1187 540.5q30 30.5 29 75.5q2 47 -28 77t-76 29q-46 1 -77 -29.5t-31 -76.5q0 -44 31 -75t77 -31q45 0 75 30.5z" />
    <glyph glyph-name="uni2470" unicode="&#x2470;" horiz-adv-x="1784" 
d="M497 40.5q-181 106.5 -287 288t-106 395.5t106 395.5t287 288t395 106.5t395.5 -106.5t288 -288t106.5 -395.5t-106.5 -395.5t-288 -288t-395.5 -106.5t-395 106.5zM1210.5 174q146.5 86 233 232t86.5 318t-86.5 318t-233 232t-318.5 86t-318 -86t-232 -232t-86 -318
t86 -318t232 -232t318 -86t318.5 86zM750 408h-140v500h-2l-142 -90v122l154 100h130v-632zM1182 920v4h-304v116h448v-116l-262 -516h-144z" />
    <glyph glyph-name="uni2471" unicode="&#x2471;" horiz-adv-x="1784" 
d="M497 40.5q-181 106.5 -287 288t-106 395.5t106 395.5t287 288t395 106.5t395.5 -106.5t288 -288t106.5 -395.5t-106.5 -395.5t-288 -288t-395.5 -106.5t-395 106.5zM1210.5 174q146.5 86 233 232t86.5 318t-86.5 318t-233 232t-318.5 86t-318 -86t-232 -232t-86 -318
t86 -318t232 -232t318 -86t318.5 86zM722 408h-140v500h-2l-144 -90v122l154 100h132v-632zM975 423q-57 23 -89 64t-32 91q0 60 39.5 103.5t100.5 52.5v4q-51 11 -83.5 49.5t-32.5 90.5q0 48 29.5 87t81 61t115.5 22q65 0 116.5 -22t80.5 -61t29 -87q0 -52 -32.5 -90.5
t-83.5 -49.5v-4q59 -9 99.5 -53t40.5 -103q0 -50 -32 -91t-89 -64t-129 -23t-129 23zM1179 526.5q29 24.5 29 63.5t-29 64.5t-75 25.5q-45 0 -74.5 -25.5t-29.5 -64.5t29 -63.5t75 -24.5t75 24.5zM1168.5 803q25.5 23 25.5 59t-25 59t-65 23q-39 0 -64.5 -23t-25.5 -59
q0 -35 25.5 -58.5t64.5 -23.5t64.5 23z" />
    <glyph glyph-name="uni2472" unicode="&#x2472;" horiz-adv-x="1784" 
d="M497 40.5q-181 106.5 -287 288t-106 395.5t106 395.5t287 288t395 106.5t395.5 -106.5t288 -288t106.5 -395.5t-106.5 -395.5t-288 -288t-395.5 -106.5t-395 106.5zM1210.5 174q146.5 86 233 232t86.5 318t-86.5 318t-233 232t-318.5 86t-318 -86t-232 -232t-86 -318
t86 -318t232 -232t318 -86t318.5 86zM722 408h-140v500h-2l-144 -90v122l154 100h132v-632zM1281.5 971q72.5 -75 72.5 -237q0 -104 -32.5 -179t-91.5 -115t-138 -40q-63 0 -113 24.5t-80 67.5t-37 96h138q7 -33 31.5 -50.5t60.5 -17.5q62 0 94 51.5t32 144.5h-6
q-21 -42 -64 -66t-96 -24q-56 0 -101 26t-70 72.5t-25 103.5q0 64 30 114t85 78t127 28q111 -2 183.5 -77zM1022 909q-30 -31 -30 -75q0 -47 30 -77.5t76 -30.5q45 0 75.5 31.5t30.5 76.5q0 44 -30 75t-76 31t-76 -31z" />
    <glyph glyph-name="uni2473" unicode="&#x2473;" horiz-adv-x="1784" 
d="M497 40.5q-181 106.5 -287 288t-106 395.5t106 395.5t287 288t395 106.5t395.5 -106.5t288 -288t106.5 -395.5t-106.5 -395.5t-288 -288t-395.5 -106.5t-395 106.5zM1210.5 174q146.5 86 233 232t86.5 318t-86.5 318t-233 232t-318.5 86t-318 -86t-232 -232t-86 -318
t86 -318t232 -232t318 -86t318.5 86zM370 518l228 204q46 41 67 71.5t21 64.5q0 38 -27.5 62t-68.5 24q-44 0 -69.5 -24.5t-26.5 -69.5h-130q0 61 28.5 108t80 72.5t117.5 25.5q69 0 121 -24t80.5 -66.5t28.5 -97.5q0 -38 -14.5 -72.5t-51 -76.5t-102.5 -101l-96 -84v-4h272
v-114h-458v102zM978 481q-68 87 -68 241q0 155 68.5 240.5t189.5 85.5t189.5 -85.5t68.5 -240.5q0 -154 -68 -241t-190 -87t-190 87zM1251.5 562.5q30.5 52.5 30.5 151.5q0 108 -29.5 164t-84.5 56q-54 0 -84.5 -53.5t-31.5 -158.5q0 -104 31 -158t85 -54q53 0 83.5 52.5z
" />
    <glyph glyph-name="uni24B6" unicode="&#x24b6;" horiz-adv-x="1784" 
d="M497 40.5q-181 106.5 -287 288t-106 395.5t106 395.5t287 288t395 106.5t395.5 -106.5t288 -288t106.5 -395.5t-106.5 -395.5t-288 -288t-395.5 -106.5t-395 106.5zM1210.5 174q146.5 86 233 232t86.5 318t-86.5 318t-233 232t-318.5 86t-318 -86t-232 -232t-86 -318
t86 -318t232 -232t318 -86t318.5 86zM560 370l246 706h176l246 -706h-150l-55 168h-258l-55 -168h-150zM988 648l-90 276h-6l-91 -276h187z" />
    <glyph glyph-name="uni24B7" unicode="&#x24b7;" horiz-adv-x="1784" 
d="M497 40.5q-181 106.5 -287 288t-106 395.5t106 395.5t287 288t395 106.5t395.5 -106.5t288 -288t106.5 -395.5t-106.5 -395.5t-288 -288t-395.5 -106.5t-395 106.5zM1210.5 174q146.5 86 233 232t86.5 318t-86.5 318t-233 232t-318.5 86t-318 -86t-232 -232t-86 -318
t86 -318t232 -232t318 -86t318.5 86zM640 1076h274q112 0 172 -49.5t60 -130.5q0 -62 -34 -100.5t-92 -51.5v-8q40 -2 76 -23.5t57.5 -59.5t20.5 -89q1 -56 -26.5 -100t-82 -69t-133.5 -25h-292v706zM1000 510.5q30 24.5 30 67.5q0 46 -32.5 75t-87.5 29h-132v-196h130
q62 0 92 24.5zM975 805q31 25 31 69q0 40 -28 65t-78 25h-122v-184h118q48 0 79 25z" />
    <glyph glyph-name="uni24B8" unicode="&#x24b8;" horiz-adv-x="1784" 
d="M497 40.5q-181 106.5 -287 288t-106 395.5t106 395.5t287 288t395 106.5t395.5 -106.5t288 -288t106.5 -395.5t-106.5 -395.5t-288 -288t-395.5 -106.5t-395 106.5zM1210.5 174q146.5 86 233 232t86.5 318t-86.5 318t-233 232t-318.5 86t-318 -86t-232 -232t-86 -318
t86 -318t232 -232t318 -86t318.5 86zM1016.5 928.5q-42.5 33.5 -106.5 33.5q-85 0 -136.5 -63t-51.5 -175q0 -114 51 -176t137 -62q63 0 105.5 32.5t52.5 91.5l140 -2q-8 -67 -47 -124t-104.5 -90.5t-150.5 -33.5q-94 0 -167.5 44t-115 126t-41.5 194t42 194t115.5 125
t166.5 43q81 0 146.5 -30t106 -86.5t49.5 -135.5h-140q-9 61 -51.5 94.5z" />
    </font>
</defs>
</svg>
