<svg width="24" height="24" viewBox="0 0 24 24" fill="none" xmlns="http://www.w3.org/2000/svg">
<path d="M1.80951 14.7143H16.7381C18.4843 14.7143 19.9047 16.1348 19.9047 17.881C19.9047 19.6271 18.4843 21.0476 16.7381 21.0476C14.9919 21.0476 13.5714 19.6271 13.5714 17.881V17.4286" stroke="white" stroke-width="1.5" stroke-miterlimit="10" stroke-linecap="round" stroke-linejoin="round"/>
<path d="M1.80951 12H16.7381C18.4752 12 19.9047 10.5795 19.9047 8.83334C19.9047 7.0962 18.4752 5.66667 16.7381 5.66667C15.0009 5.66667 13.5714 7.08715 13.5714 8.83334V9.28572" stroke="white" stroke-width="1.5" stroke-miterlimit="10" stroke-linecap="round" stroke-linejoin="round"/>
<path d="M1.80951 9.28573H8.42332C9.77141 9.28573 10.8571 8.19096 10.8571 6.85192C10.8571 5.50382 9.76236 4.41811 8.42332 4.41811C7.07522 4.41811 5.9895 5.51287 5.9895 6.85192V7.19573" stroke="white" stroke-width="1.5" stroke-miterlimit="10" stroke-linecap="round" stroke-linejoin="round"/>
</svg>
