<svg width="60" height="60" viewBox="0 0 60 60" fill="none" xmlns="http://www.w3.org/2000/svg">
<path fill-rule="evenodd" clip-rule="evenodd" d="M19.6194 46.2663C18.7869 45.7814 18.5036 44.7065 18.9834 43.8711L21.0244 39.443C21.9379 40.1615 22.9324 40.7691 23.9963 41.254L21.99 45.6237C21.5101 46.4649 20.4462 46.7512 19.6194 46.2663ZM36.8402 41.476C37.9214 41.032 38.939 40.4595 39.8756 39.776L39.8814 39.7818L41.7316 43.877C42.2115 44.7182 41.9224 45.7873 41.0956 46.2722C40.5405 46.5993 39.8814 46.576 39.361 46.2722C39.1009 46.1203 38.8812 45.9041 38.725 45.6296L36.8402 41.476Z" fill="#FFAA1F"/>
<path fill-rule="evenodd" clip-rule="evenodd" d="M33.7264 13.1122C36.8081 12.2067 41.1445 12.9428 44.099 15.928V15.9221C47.094 18.9424 47.8109 23.3881 46.8454 26.5252C46.4753 27.7286 44.9374 28.0558 44.0585 27.1678L38.5138 21.5654L32.9748 15.9689C32.0555 15.04 32.4776 13.4802 33.7264 13.1122ZM13.1085 26.4317C12.2123 23.3121 12.9409 18.9307 15.8954 15.9455C18.8845 12.9194 23.2845 12.195 26.3835 13.1764C27.5746 13.5503 27.8984 15.1043 27.0195 15.9922L21.4748 21.5946L15.9358 27.1912C15.0165 28.12 13.4728 27.6936 13.1085 26.4317Z" fill="#FFB320"/>
<path d="M38.6633 17.5929C37.7266 16.9094 36.709 16.3369 35.6278 15.8929C33.9511 15.2094 32.1241 14.8297 30.2103 14.8297C28.0999 14.8297 26.0936 15.2912 24.2839 16.1149C23.2201 16.5998 22.2256 17.2074 21.3121 17.9259C17.9297 20.6015 15.75 24.7609 15.75 29.4345C15.75 34.108 17.9297 38.2674 21.3121 40.943C22.2198 41.6615 23.2143 42.2691 24.2839 42.754C26.0936 43.5777 28.0941 44.0392 30.2103 44.0392C32.1298 44.0392 33.9569 43.6595 35.6278 42.976C36.709 42.532 37.7266 41.9595 38.6633 41.276C42.2942 38.6238 44.6648 34.3066 44.6648 29.4345C44.6648 24.5623 42.3 20.2451 38.6633 17.5929Z" fill="#FF5258"/>
<path fill-rule="evenodd" clip-rule="evenodd" d="M15.9172 27.2097C16.4872 23.4534 18.4773 20.1685 21.3122 17.9259C22.2257 17.2074 23.2202 16.5998 24.284 16.1149C25.2966 15.6541 26.3707 15.3066 27.4902 15.0899C27.4303 15.4168 27.2762 15.7329 27.0195 15.9922L21.4748 21.5946L15.9358 27.1912C15.9297 27.1974 15.9235 27.2036 15.9172 27.2097ZM44.5403 27.5102C44.3672 27.4283 44.2039 27.3146 44.0585 27.1678L38.5138 21.5654L32.9748 15.9689C32.6993 15.6905 32.5442 15.3554 32.4959 15.0127C33.584 15.1884 34.6324 15.4871 35.6279 15.8929C36.7091 16.3369 37.7267 16.9094 38.6633 17.5929C41.8132 19.8901 44.0089 23.4362 44.5403 27.5102Z" fill="#DD161D"/>
<path fill-rule="evenodd" clip-rule="evenodd" d="M31.3964 28.6212L30.9685 21.2032C30.9396 20.6891 30.5176 20.286 30.003 20.286C29.4884 20.286 29.0663 20.6891 29.0374 21.2032L28.5691 29.3234V29.3877V29.4344C28.5691 30.0516 28.9508 30.5785 29.4887 30.7873L36.5826 34.3884C37.0393 34.6221 37.5944 34.4527 37.8546 34.0028C38.109 33.553 37.976 32.9805 37.5481 32.7001L37.5424 32.7059L31.3964 28.6212Z" fill="white" fill-opacity="0.6"/>
</svg>
