<svg width="60" height="60" viewBox="0 0 60 60" fill="none" xmlns="http://www.w3.org/2000/svg">
<path fill-rule="evenodd" clip-rule="evenodd" d="M13.5 27.7562C13.5 26.894 13.8709 26.0736 14.5181 25.504L18.2251 22.2419V18.275C18.2251 17.1704 19.1205 16.275 20.2251 16.275H25.0056L28.3931 13.294C29.5262 12.2969 31.2238 12.2969 32.3569 13.294L35.7443 16.275H35.7444H40.5251C41.6297 16.275 42.5251 17.1704 42.5251 18.275V22.242V22.2421L46.2319 25.504C46.8791 26.0736 47.25 26.894 47.25 27.7562V30.8536V44.9999V45.3H47.2352C47.0846 46.816 45.8056 48 44.25 48H16.5C14.9444 48 13.6653 46.8159 13.5148 45.3H13.5V45V30.8536V27.7562Z" fill="white"/>
<path d="M13.5 27.7562C13.5 26.894 13.8709 26.0736 14.5181 25.504L28.3931 13.294C29.5262 12.2969 31.2238 12.2969 32.3569 13.294L46.2319 25.504C46.8791 26.0736 47.25 26.894 47.25 27.7562V44.9999C47.25 46.6568 45.9068 47.9999 44.25 47.9999H16.5C14.8431 47.9999 13.5 46.6568 13.5 44.9999V27.7562Z" fill="#FFA29C"/>
<rect x="18.2251" y="16.275" width="24.3" height="27" rx="2" fill="#A56EFF"/>
<path fill-rule="evenodd" clip-rule="evenodd" d="M35.7444 16.275L42.5251 22.242V41.275C42.5251 42.3795 41.6297 43.275 40.5251 43.275H20.2251C19.1205 43.275 18.2251 42.3795 18.2251 41.275V22.2419L25.0057 16.275H35.7444Z" fill="#6416DA"/>
<path d="M13.5 30.8536C13.5 29.2478 15.2968 28.2968 16.6246 29.1997L30.375 38.55L44.1254 29.1997C45.4532 28.2968 47.25 29.2478 47.25 30.8536V45.3H13.5V30.8536Z" fill="#FFA29C"/>
<path fill-rule="evenodd" clip-rule="evenodd" d="M37.8 23.7H22.95V25.05H37.8V23.7ZM33.0749 27.675H22.95V29.025H33.0749V27.675Z" fill="white" fill-opacity="0.6"/>
</svg>
