<svg width="13" height="14" viewBox="0 0 13 14" fill="none" xmlns="http://www.w3.org/2000/svg">
<path fill-rule="evenodd" clip-rule="evenodd" d="M10.9967 2.50255C10.0594 1.56529 8.53981 1.56529 7.60255 2.50255L2.00255 8.10255C1.06529 9.03981 1.06529 10.5594 2.00255 11.4967C2.93957 12.4337 4.45863 12.4339 5.39595 11.4974C5.39619 11.4971 5.39643 11.4969 5.39667 11.4967L5.79395 11.0967C6.02749 10.8617 6.40738 10.8604 6.64247 11.0939C6.87756 11.3275 6.87881 11.7074 6.64527 11.9425L6.24659 12.3438L6.24519 12.3452C4.83931 13.7511 2.55991 13.7511 1.15402 12.3452C-0.251863 10.9393 -0.251863 8.65991 1.15402 7.25402L6.75402 1.65402C8.15991 0.248137 10.4393 0.248137 11.8452 1.65402C13.25 3.05887 13.2511 5.33591 11.8483 6.74205L9.08458 9.58459C8.26448 10.4047 6.93479 10.4046 6.11469 9.58455C5.29459 8.76445 5.29459 7.4348 6.11469 6.6147L8.87535 3.85404C9.10966 3.61973 9.48956 3.61973 9.72387 3.85404C9.95819 4.08836 9.95819 4.46826 9.72387 4.70257L6.96322 7.46323C6.61174 7.8147 6.61174 8.38455 6.96322 8.73602C7.31381 9.08662 7.8817 9.08749 8.23338 8.73864L10.9966 5.89662C11.9339 4.95937 11.9339 3.43981 10.9967 2.50255Z" fill="#6B7280"/>
</svg>
