<svg width="14" height="14" viewBox="0 0 14 14" fill="none" xmlns="http://www.w3.org/2000/svg">
<path d="M6.75699 11.84L6.75322 11.8381L6.74028 11.8313L6.69357 11.8063C6.65348 11.7847 6.59587 11.7531 6.52324 11.712C6.37805 11.6298 6.17246 11.5094 5.92654 11.354C5.4358 11.044 4.77902 10.5916 4.11967 10.0234C2.83103 8.91284 1.3999 7.2462 1.3999 5.24961C1.3999 3.50991 2.81021 2.09961 4.5499 2.09961C5.53998 2.09961 6.4227 2.55627 6.9999 3.26971C7.57711 2.55627 8.45982 2.09961 9.4499 2.09961C11.1896 2.09961 12.5999 3.50991 12.5999 5.24961C12.5999 7.2462 11.1688 8.91284 9.88013 10.0234C9.22079 10.5916 8.56401 11.044 8.07326 11.354C7.82734 11.5094 7.62175 11.6298 7.47656 11.712C7.40394 11.7531 7.34633 11.7847 7.30624 11.8063L7.25952 11.8313L7.24658 11.8381L7.24282 11.84L7.24162 11.8407C7.0909 11.9206 6.9089 11.9206 6.75861 11.8409L6.75699 11.84Z" fill="#9CA3AF"/>
</svg>
