<svg width="48" height="48" viewBox="0 0 48 48" fill="none" xmlns="http://www.w3.org/2000/svg">
<path d="M21.5938 15.9401C21.6842 15.3977 22.1535 15.0001 22.7035 15.0001H25.2974C25.8474 15.0001 26.3167 15.3977 26.4071 15.9401L26.6206 17.2212C26.683 17.5952 26.9329 17.9068 27.2647 18.0904C27.3389 18.1315 27.4122 18.1739 27.4846 18.2176C27.8097 18.4139 28.205 18.4749 28.5606 18.3417L29.7774 17.8859C30.2924 17.6929 30.8714 17.9006 31.1464 18.3768L32.4434 20.6233C32.7183 21.0996 32.6087 21.7048 32.1841 22.0543L31.1798 22.8812C30.8873 23.122 30.7423 23.4938 30.7493 23.8726C30.7501 23.915 30.7504 23.9575 30.7504 24.0001C30.7504 24.0427 30.7501 24.0851 30.7493 24.1275C30.7423 24.5063 30.8873 24.8782 31.1798 25.119L32.1841 25.9458C32.6087 26.2953 32.7183 26.9006 32.4434 27.3769L31.1464 29.6233C30.8714 30.0996 30.2924 30.3072 29.7774 30.1143L28.5606 29.6584C28.205 29.5252 27.8097 29.5862 27.4847 29.7825C27.4122 29.8262 27.3389 29.8687 27.2647 29.9097C26.9329 30.0934 26.683 30.4049 26.6206 30.779L26.4071 32.06C26.3167 32.6025 25.8474 33.0001 25.2974 33.0001H22.7035C22.1535 33.0001 21.6842 32.6025 21.5938 32.06L21.3803 30.779C21.3179 30.4049 21.0679 30.0934 20.7362 29.9097C20.662 29.8687 20.5887 29.8262 20.5163 29.7825C20.1912 29.5862 19.7959 29.5252 19.4403 29.6584L18.2235 30.1143C17.7085 30.3072 17.1295 30.0996 16.8545 29.6233L15.5575 27.3769C15.2826 26.9006 15.3922 26.2953 15.8168 25.9458L16.8211 25.119C17.1136 24.8782 17.2586 24.5064 17.2516 24.1275C17.2508 24.0852 17.2504 24.0427 17.2504 24.0001C17.2504 23.9575 17.2508 23.915 17.2516 23.8726C17.2586 23.4938 17.1136 23.122 16.8211 22.8812L15.8168 22.0544C15.3922 21.7048 15.2826 21.0996 15.5575 20.6233L16.8545 18.3769C17.1295 17.9006 17.7085 17.6929 18.2235 17.8859L19.4403 18.3417C19.7959 18.4749 20.1912 18.4139 20.5162 18.2177C20.5887 18.1739 20.662 18.1315 20.7362 18.0904C21.0679 17.9068 21.3179 17.5952 21.3803 17.2212L21.5938 15.9401Z" stroke="#D1D5DB" stroke-width="1.5" stroke-linecap="round" stroke-linejoin="round"/>
<path d="M27.0002 24C27.0002 25.6569 25.6571 27 24.0002 27C22.3434 27 21.0002 25.6569 21.0002 24C21.0002 22.3431 22.3434 21 24.0002 21C25.6571 21 27.0002 22.3431 27.0002 24Z" stroke="#D1D5DB" stroke-width="1.5" stroke-linecap="round" stroke-linejoin="round"/>
</svg>
