<svg width="14" height="14" viewBox="0 0 14 14" fill="none" xmlns="http://www.w3.org/2000/svg">
<path fill-rule="evenodd" clip-rule="evenodd" d="M6.99995 1.40039C5.4348 1.40039 3.89855 1.52573 2.40078 1.76701C1.39532 1.92898 0.699951 2.80967 0.699951 3.79851V7.40227C0.699951 8.39112 1.39533 9.2718 2.40079 9.43377C2.99465 9.52944 3.59457 9.60688 4.19995 9.66551V12.0754C4.19995 12.2877 4.32786 12.4792 4.52404 12.5604C4.72022 12.6417 4.94603 12.5968 5.09618 12.4466L7.60153 9.94127C7.69663 9.84618 7.82817 9.789 7.9708 9.78426C9.20124 9.74335 10.4123 9.62496 11.5991 9.43377C12.6046 9.2718 13.3 8.39112 13.3 7.40227V3.79851C13.3 2.80967 12.6046 1.92898 11.5991 1.76701C10.1014 1.52573 8.5651 1.40039 6.99995 1.40039ZM6.99995 6.30039C7.38655 6.30039 7.69995 5.98699 7.69995 5.60039C7.69995 5.21379 7.38655 4.90039 6.99995 4.90039C6.61335 4.90039 6.29995 5.21379 6.29995 5.60039C6.29995 5.98699 6.61335 6.30039 6.99995 6.30039ZM5.59995 5.60039C5.59995 5.98699 5.28655 6.30039 4.89995 6.30039C4.51335 6.30039 4.19995 5.98699 4.19995 5.60039C4.19995 5.21379 4.51335 4.90039 4.89995 4.90039C5.28655 4.90039 5.59995 5.21379 5.59995 5.60039ZM9.09995 6.30039C9.48655 6.30039 9.79995 5.98699 9.79995 5.60039C9.79995 5.21379 9.48655 4.90039 9.09995 4.90039C8.71335 4.90039 8.39995 5.21379 8.39995 5.60039C8.39995 5.98699 8.71335 6.30039 9.09995 6.30039Z" fill="#9CA3AF"/>
</svg>
