<svg width="48" height="48" viewBox="0 0 48 48" fill="none" xmlns="http://www.w3.org/2000/svg">
<path d="M21.5935 15.9401C21.6839 15.3977 22.1533 15.0001 22.7032 15.0001H25.2972C25.8471 15.0001 26.3165 15.3977 26.4069 15.9401L26.6204 17.2212C26.6827 17.5952 26.9327 17.9068 27.2645 18.0904C27.3386 18.1315 27.412 18.1739 27.4844 18.2176C27.8094 18.4139 28.2048 18.4749 28.5603 18.3417L29.7772 17.8859C30.2922 17.6929 30.8712 17.9006 31.1461 18.3768L32.4431 20.6233C32.7181 21.0996 32.6084 21.7048 32.1839 22.0543L31.1795 22.8812C30.887 23.122 30.742 23.4938 30.749 23.8726C30.7498 23.915 30.7502 23.9575 30.7502 24.0001C30.7502 24.0427 30.7498 24.0851 30.749 24.1275C30.742 24.5063 30.887 24.8782 31.1795 25.119L32.1839 25.9458C32.6084 26.2953 32.7181 26.9006 32.4431 27.3769L31.1461 29.6233C30.8712 30.0996 30.2922 30.3072 29.7772 30.1143L28.5603 29.6584C28.2048 29.5252 27.8094 29.5862 27.4844 29.7825C27.412 29.8262 27.3386 29.8687 27.2645 29.9097C26.9327 30.0934 26.6827 30.4049 26.6204 30.779L26.4069 32.06C26.3165 32.6025 25.8471 33.0001 25.2972 33.0001H22.7032C22.1533 33.0001 21.6839 32.6025 21.5935 32.06L21.38 30.779C21.3177 30.4049 21.0677 30.0934 20.7359 29.9097C20.6618 29.8687 20.5884 29.8262 20.516 29.7825C20.191 29.5862 19.7956 29.5252 19.4401 29.6584L18.2232 30.1143C17.7082 30.3072 17.1292 30.0996 16.8543 29.6233L15.5573 27.3769C15.2823 26.9006 15.392 26.2953 15.8165 25.9458L16.8209 25.119C17.1134 24.8782 17.2584 24.5064 17.2514 24.1275C17.2506 24.0852 17.2502 24.0427 17.2502 24.0001C17.2502 23.9575 17.2506 23.915 17.2514 23.8726C17.2584 23.4938 17.1134 23.122 16.8209 22.8812L15.8165 22.0544C15.392 21.7048 15.2823 21.0996 15.5573 20.6233L16.8543 18.3769C17.1292 17.9006 17.7082 17.6929 18.2232 17.8859L19.4401 18.3417C19.7956 18.4749 20.191 18.4139 20.516 18.2177C20.5884 18.1739 20.6618 18.1315 20.7359 18.0904C21.0677 17.9068 21.3177 17.5952 21.38 17.2212L21.5935 15.9401Z" stroke="#1F2A37" stroke-width="1.5" stroke-linecap="round" stroke-linejoin="round"/>
<path d="M27 24C27 25.6569 25.6568 27 24 27C22.3431 27 21 25.6569 21 24C21 22.3431 22.3431 21 24 21C25.6568 21 27 22.3431 27 24Z" stroke="#1F2A37" stroke-width="1.5" stroke-linecap="round" stroke-linejoin="round"/>
</svg>
