<svg width="16" height="17" viewBox="0 0 16 17" fill="none" xmlns="http://www.w3.org/2000/svg">
<path d="M5.75 8.5C5.75 8.63807 5.63807 8.75 5.5 8.75C5.36193 8.75 5.25 8.63807 5.25 8.5C5.25 8.36193 5.36193 8.25 5.5 8.25C5.63807 8.25 5.75 8.36193 5.75 8.5ZM5.75 8.5H5.5M8.25 8.5C8.25 8.63807 8.13807 8.75 8 8.75C7.86193 8.75 7.75 8.63807 7.75 8.5C7.75 8.36193 7.86193 8.25 8 8.25C8.13807 8.25 8.25 8.36193 8.25 8.5ZM8.25 8.5H8M10.75 8.5C10.75 8.63807 10.6381 8.75 10.5 8.75C10.3619 8.75 10.25 8.63807 10.25 8.5C10.25 8.36193 10.3619 8.25 10.5 8.25C10.6381 8.25 10.75 8.36193 10.75 8.5ZM10.75 8.5H10.5M14 8.5C14 11.5376 11.3137 14 8 14C7.40835 14 6.83671 13.9215 6.29678 13.7752C5.64677 14.2319 4.85467 14.5 4 14.5C3.86719 14.5 3.73584 14.4935 3.60645 14.4809C3.5 14.4705 3.39453 14.4559 3.29053 14.4373C3.61288 14.0569 3.84185 13.5951 3.94259 13.0872C4.00302 12.7825 3.8538 12.4866 3.63123 12.2699C2.6198 11.2854 2 9.95907 2 8.5C2 5.46243 4.68629 3 8 3C11.3137 3 14 5.46243 14 8.5Z" stroke="white" stroke-width="1.2" stroke-linecap="round" stroke-linejoin="round"/>
</svg>
