<svg width="16" height="19" viewBox="0 0 16 19" fill="none" xmlns="http://www.w3.org/2000/svg">
<path d="M7.45794 2.69683C7.40402 2.87168 7.375 3.05745 7.375 3.25C7.375 3.59518 7.65482 3.875 8 3.875H11.75C12.0952 3.875 12.375 3.59518 12.375 3.25C12.375 3.05745 12.346 2.87168 12.2921 2.69683M7.45794 2.69683C7.69396 1.93131 8.40702 1.375 9.25 1.375H10.5C11.343 1.375 12.056 1.93131 12.2921 2.69683M7.45794 2.69683C7.14489 2.71548 6.83281 2.73774 6.52174 2.76356C5.57916 2.84179 4.875 3.64437 4.875 4.59018V6.375M12.2921 2.69683C12.6051 2.71548 12.9172 2.73774 13.2283 2.76356C14.1708 2.84179 14.875 3.64436 14.875 4.59018V13.25C14.875 14.2855 14.0355 15.125 13 15.125H11.125M4.875 6.375H2.0625C1.54473 6.375 1.125 6.79473 1.125 7.3125V16.6875C1.125 17.2053 1.54473 17.625 2.0625 17.625H10.1875C10.7053 17.625 11.125 17.2053 11.125 16.6875V15.125M4.875 6.375H10.1875C10.7053 6.375 11.125 6.79473 11.125 7.3125V15.125M4.25 12.625L5.5 13.875L8 10.75" stroke="white" stroke-width="1.5" stroke-linecap="round" stroke-linejoin="round"/>
</svg>
