<svg width="48" height="48" viewBox="0 0 48 48" fill="none" xmlns="http://www.w3.org/2000/svg">
<path d="M26.8569 29.0817C28.7514 28.857 30.5783 28.4116 32.3111 27.7719C30.8743 26.177 29.9998 24.0656 29.9998 21.75V21.0492C29.9999 21.0328 30 21.0164 30 21C30 17.6863 27.3137 15 24 15C20.6863 15 18 17.6863 18 21L17.9998 21.75C17.9998 24.0656 17.1253 26.177 15.6885 27.7719C17.4214 28.4116 19.2484 28.857 21.1431 29.0818M26.8569 29.0817C25.92 29.1928 24.9666 29.25 23.9998 29.25C23.0332 29.25 22.0799 29.1929 21.1431 29.0818M26.8569 29.0817C26.9498 29.3711 27 29.6797 27 30C27 31.6569 25.6569 33 24 33C22.3431 33 21 31.6569 21 30C21 29.6797 21.0502 29.3712 21.1431 29.0818" stroke="#D1D5DB" stroke-width="1.5" stroke-linecap="round" stroke-linejoin="round"/>
</svg>
