<svg width="14" height="14" viewBox="0 0 14 14" fill="none" xmlns="http://www.w3.org/2000/svg">
<path d="M5.5998 11.375C5.5998 11.0851 5.83486 10.85 6.1248 10.85H7.8748C8.16475 10.85 8.3998 11.0851 8.3998 11.375C8.3998 11.6649 8.16475 11.9 7.8748 11.9H6.1248C5.83486 11.9 5.5998 11.6649 5.5998 11.375Z" fill="#6B7280"/>
<path fill-rule="evenodd" clip-rule="evenodd" d="M2.7998 2.8C2.7998 1.6402 3.74001 0.7 4.8998 0.7H9.0998C10.2596 0.7 11.1998 1.6402 11.1998 2.8V11.2C11.1998 12.3598 10.2596 13.3 9.0998 13.3H4.8998C3.74001 13.3 2.7998 12.3598 2.7998 11.2V2.8ZM5.5998 1.75V2.275C5.5998 2.56495 5.83486 2.8 6.1248 2.8H7.8748C8.16475 2.8 8.3998 2.56495 8.3998 2.275V1.75H9.0998C9.6797 1.75 10.1498 2.2201 10.1498 2.8V11.2C10.1498 11.7799 9.6797 12.25 9.0998 12.25H4.8998C4.31991 12.25 3.8498 11.7799 3.8498 11.2V2.8C3.8498 2.2201 4.31991 1.75 4.8998 1.75H5.5998Z" fill="#6B7280"/>
</svg>
