<svg width="20" height="20" viewBox="0 0 20 20" fill="none" xmlns="http://www.w3.org/2000/svg">
<path d="M10.2502 10.1833C10.6948 9.79844 11.0515 9.3224 11.2959 8.78752C11.5403 8.25263 11.6668 7.67142 11.6668 7.08333C11.6668 5.97826 11.2278 4.91846 10.4464 4.13705C9.66504 3.35565 8.60523 2.91667 7.50016 2.91667C6.39509 2.91667 5.33529 3.35565 4.55388 4.13705C3.77248 4.91846 3.3335 5.97826 3.3335 7.08333C3.33349 7.67142 3.46 8.25263 3.70443 8.78752C3.94887 9.3224 4.30551 9.79844 4.75016 10.1833C3.58361 10.7116 2.59388 11.5646 1.89931 12.6405C1.20474 13.7163 0.834723 14.9694 0.833496 16.25C0.833496 16.471 0.921293 16.683 1.07757 16.8393C1.23385 16.9955 1.44582 17.0833 1.66683 17.0833C1.88784 17.0833 2.0998 16.9955 2.25609 16.8393C2.41237 16.683 2.50016 16.471 2.50016 16.25C2.50016 14.9239 3.02695 13.6521 3.96463 12.7145C4.90231 11.7768 6.17408 11.25 7.50016 11.25C8.82624 11.25 10.098 11.7768 11.0357 12.7145C11.9734 13.6521 12.5002 14.9239 12.5002 16.25C12.5002 16.471 12.588 16.683 12.7442 16.8393C12.9005 16.9955 13.1125 17.0833 13.3335 17.0833C13.5545 17.0833 13.7665 16.9955 13.9228 16.8393C14.079 16.683 14.1668 16.471 14.1668 16.25C14.1656 14.9694 13.7956 13.7163 13.101 12.6405C12.4064 11.5646 11.4167 10.7116 10.2502 10.1833ZM7.50016 9.58333C7.00571 9.58333 6.52236 9.43671 6.11124 9.16201C5.70011 8.8873 5.37968 8.49686 5.19046 8.04004C5.00125 7.58323 4.95174 7.08056 5.0482 6.59561C5.14466 6.11065 5.38276 5.6652 5.7324 5.31557C6.08203 4.96593 6.52748 4.72783 7.01244 4.63137C7.49739 4.53491 8.00006 4.58442 8.45687 4.77363C8.91369 4.96285 9.30413 5.28328 9.57884 5.69441C9.85354 6.10553 10.0002 6.58888 10.0002 7.08333C10.0002 7.74637 9.73677 8.38226 9.26793 8.8511C8.79909 9.31994 8.1632 9.58333 7.50016 9.58333ZM15.6168 9.85C16.1501 9.24944 16.4985 8.50755 16.62 7.71362C16.7415 6.91969 16.6309 6.10756 16.3016 5.375C15.9723 4.64244 15.4383 4.02066 14.7639 3.58452C14.0895 3.14837 13.3033 2.91645 12.5002 2.91667C12.2791 2.91667 12.0672 3.00446 11.9109 3.16074C11.7546 3.31702 11.6668 3.52899 11.6668 3.75C11.6668 3.97101 11.7546 4.18297 11.9109 4.33926C12.0672 4.49554 12.2791 4.58333 12.5002 4.58333C13.1632 4.58333 13.7991 4.84673 14.2679 5.31557C14.7368 5.78441 15.0002 6.42029 15.0002 7.08333C14.999 7.52103 14.8829 7.95075 14.6635 8.32952C14.4442 8.70828 14.1292 9.02282 13.7502 9.24167C13.6266 9.31293 13.5234 9.41472 13.4505 9.53728C13.3775 9.65985 13.3372 9.79908 13.3335 9.94167C13.33 10.0831 13.3626 10.2232 13.4282 10.3485C13.4938 10.4739 13.5903 10.5805 13.7085 10.6583L14.0335 10.875L14.1418 10.9333C15.1463 11.4098 15.9938 12.1633 16.5843 13.1053C17.1749 14.0472 17.484 15.1383 17.4752 16.25C17.4752 16.471 17.563 16.683 17.7192 16.8393C17.8755 16.9955 18.0875 17.0833 18.3085 17.0833C18.5295 17.0833 18.7415 16.9955 18.8978 16.8393C19.054 16.683 19.1418 16.471 19.1418 16.25C19.1486 14.9712 18.8283 13.7119 18.2114 12.5917C17.5944 11.4716 16.7013 10.5278 15.6168 9.85Z" fill="#6B7280"/>
</svg>
