<svg width="17" height="17" viewBox="0 0 17 17" fill="none" xmlns="http://www.w3.org/2000/svg">
<path d="M10.3269 6.5L10.0962 12.5M6.90385 12.5L6.67308 6.5M13.3184 4.36038C13.5464 4.39481 13.7736 4.43165 14 4.47086M13.3184 4.36038L12.6065 13.615C12.5464 14.3965 11.8948 15 11.111 15H5.88905C5.10524 15 4.45358 14.3965 4.39346 13.615L3.68157 4.36038M13.3184 4.36038C12.5542 4.24496 11.781 4.15657 11 4.09622M3 4.47086C3.22638 4.43165 3.45358 4.39481 3.68157 4.36038M3.68157 4.36038C4.44585 4.24496 5.219 4.15657 6 4.09622M11 4.09622V3.48546C11 2.69922 10.3929 2.04282 9.60706 2.01768C9.23948 2.00592 8.87043 2 8.5 2C8.12957 2 7.76052 2.00592 7.39294 2.01768C6.6071 2.04282 6 2.69922 6 3.48546V4.09622M11 4.09622C10.175 4.03247 9.34131 4 8.5 4C7.65869 4 6.82496 4.03247 6 4.09622" stroke="#4B5563" stroke-width="1.5" stroke-linecap="round" stroke-linejoin="round"/>
</svg>
