<svg width="14" height="14" viewBox="0 0 14 14" fill="none" xmlns="http://www.w3.org/2000/svg">
<path fill-rule="evenodd" clip-rule="evenodd" d="M1.3999 2.45C1.3999 1.8701 1.87 1.4 2.4499 1.4H3.25376C3.7459 1.4 4.172 1.74181 4.27876 2.22222L4.78011 4.4783C4.90063 5.02066 4.57779 5.56304 4.04357 5.71567L3.39062 5.90223C3.10307 5.98439 2.94065 6.29065 3.05468 6.56711C3.87091 8.54612 5.45378 10.129 7.43279 10.9452C7.70925 11.0593 8.01551 10.8968 8.09767 10.6093L8.28423 9.95633C8.43686 9.42212 8.97924 9.09927 9.52161 9.21979L11.7777 9.72114C12.2581 9.8279 12.5999 10.254 12.5999 10.7461V11.55C12.5999 12.1299 12.1298 12.6 11.5499 12.6H10.4999C9.69591 12.6 8.91551 12.4956 8.17187 12.2994C5.01655 11.4666 2.53326 8.98335 1.70055 5.82803C1.50429 5.08439 1.3999 4.30399 1.3999 3.5V2.45Z" fill="#6B7280"/>
</svg>
