<svg width="12" height="12" viewBox="0 0 12 12" fill="none" xmlns="http://www.w3.org/2000/svg">
<g clip-path="url(#clip0_497_23752)">
<path d="M10.8656 1.13442C10.353 0.621859 9.522 0.621859 9.00943 1.13442L8.43085 1.713L10.287 3.56916L10.8656 2.99058C11.3782 2.47801 11.3782 1.64699 10.8656 1.13442Z" fill="#1F2A37"/>
<path d="M9.75668 4.09949L7.90052 2.24333L1.82511 8.31875C1.51671 8.62714 1.29002 9.00752 1.16551 9.4255L0.765616 10.7679C0.726306 10.8999 0.76248 11.0428 0.859844 11.1402C0.957209 11.2375 1.1001 11.2737 1.23207 11.2344L2.57451 10.8345C2.9925 10.71 3.37287 10.4833 3.68127 10.1749L9.75668 4.09949Z" fill="#1F2A37"/>
</g>
<defs>
<clipPath id="clip0_497_23752">
<rect width="12" height="12" fill="white"/>
</clipPath>
</defs>
</svg>
