<svg width="40" height="20" viewBox="0 0 40 20" fill="none" xmlns="http://www.w3.org/2000/svg">
<path d="M40 0H0V2.4901H40V0Z" fill="white"/>
<path d="M40 17.4747H0V19.9648H40V17.4747Z" fill="white"/>
<path d="M37.2899 4.42587V12.8465L34.0607 6.02728C33.8319 5.49934 33.5328 5.14738 33.2424 4.90981C32.5913 4.39068 31.949 4.42587 31.949 4.42587H22.7893L19.9912 8.01584L17.1931 4.42587H9.31808C8.65816 4.42587 8.23581 4.62825 7.96304 4.88342C7.4703 5.34976 7.4791 6.00968 7.4791 6.00968V12.8465L4.24989 6.02728C4.02112 5.49934 3.72195 5.14738 3.43159 4.90981C2.78047 4.39068 2.13814 4.42587 2.13814 4.42587H0V15.5477H2.71007V7.89266C2.71007 7.89266 5.77211 14.3775 5.87769 14.5975C5.94809 14.747 6.15926 15.1078 6.6872 15.3366C6.95117 15.4509 7.28553 15.5301 7.71667 15.5389H17.2635L19.9912 12.037L22.7189 15.5389H30.6819C31.3418 15.5389 31.7642 15.3454 32.037 15.0814C32.5297 14.615 32.5121 13.9375 32.5121 13.9375V7.88386C32.5121 7.88386 35.5741 14.3687 35.6797 14.5887C35.7501 14.7382 35.9613 15.099 36.4892 15.3278C36.7444 15.4421 37.0084 15.5037 37.5187 15.5301C37.5187 15.5301 38.0818 15.5301 38.6714 15.5301C39.3137 15.5301 39.9824 15.5301 39.9824 15.5301V4.42587H37.2811H37.2899ZM15.6885 13.524H10.1892V10.9899H14.5886V8.97493H10.1892V6.44083H15.6181L18.4162 10.0308L15.6885 13.5328V13.524ZM29.8108 8.80775V8.97493H25.4114V10.9899H29.8108V13.524H24.2939L21.5662 10.0308L24.3643 6.44083H29.8108V8.80775Z" fill="white"/>
</svg>
