<svg width="180" height="17" viewBox="0 0 180 17" fill="none" xmlns="http://www.w3.org/2000/svg">
<path d="M32.8825 0H0V2.04702H32.8825V0Z" fill="white"/>
<path d="M32.8825 14.3653H0V16.4123H32.8825V14.3653Z" fill="white"/>
<path d="M64.2603 12.246V9.44667H71.0089V6.45933H64.2603V2.99458H71.942V0H59.5369V11.9639C59.5369 15.038 60.9619 16.4051 64.1518 16.4051H72.1952V13.4177H65.5984C64.7304 13.4177 64.2675 13.0127 64.2675 12.246" fill="white"/>
<path d="M95.0597 12.246V9.44667H101.808V6.45933H95.0597V2.99458H102.741V0H90.3364V11.9639C90.3364 15.038 91.7614 16.4051 94.9512 16.4051H102.995V13.4177H96.3979C95.5227 13.4177 95.067 13.0127 95.067 12.246" fill="white"/>
<path d="M172.065 12.246V9.44667H178.814V6.45933H172.065V2.99458H179.747V0H167.342V11.9639C167.342 15.038 168.767 16.4051 171.957 16.4051H180V13.4177H173.403C172.528 13.4177 172.072 13.0127 172.072 12.246" fill="white"/>
<path d="M147.371 0H142.8V16.4051H147.371V0Z" fill="white"/>
<path d="M161.403 9.03438L161.563 8.99098C161.563 8.99098 164.933 8.18085 164.933 4.94034V4.70887C164.933 4.31827 164.81 0.925861 160.514 0.195299C159.754 0.0650996 158.901 0 157.845 0H150.756V16.4051H155.393V10.293H156.716C159.754 10.293 160.369 14.0398 161.165 16.4051H166.177C165.852 15.6818 165.592 15.2767 164.941 13.5335C163.537 9.75771 161.411 9.03438 161.411 9.03438M160.521 5.2369C160.521 5.98193 160.246 6.56059 159.747 6.85716C159.212 7.17542 158.344 7.32009 157.02 7.32009H155.378V2.92948H157.02C158.474 2.92948 159.255 3.06691 159.718 3.39965C160.268 3.79024 160.521 4.39061 160.521 5.11393V5.2369Z" fill="white"/>
<path d="M132.13 16.4123H136.789V2.99458H141.411V0H127.154V2.99458H132.13V16.4123Z" fill="white"/>
<path d="M48.5283 2.37975C47.588 0.0361664 45.5555 0 45.541 0H42.5464V16.4051H46.3439V4.77397L46.4596 5.04883C46.4813 5.09947 48.6368 9.94577 50.0256 13.4684C51.0311 16.029 52.0799 16.3906 53.4108 16.4123H56.8394V0H53.0274V12.3979L48.5356 2.37975H48.5283Z" fill="white"/>
<path d="M111.183 2.37975C110.242 0.0361664 108.21 0 108.188 0H105.193V16.4051H108.991V4.77397L109.107 5.04883C109.128 5.09947 111.284 9.94577 112.673 13.4684C113.678 16.029 114.727 16.3906 116.051 16.4123H119.479V0H115.667V12.3979L111.175 2.37975H111.183Z" fill="white"/>
<path d="M83.9855 7.80472L89.6926 0H85.6998C84.9258 0 84.3689 0.347198 83.783 1.20796L81.396 4.92587L79.009 1.20796C78.4231 0.347198 77.8661 0 77.0922 0H73.0994L78.8571 7.97108L78.8354 8.00725L72.9475 16.4123H76.2748C77.3526 16.4123 77.9095 16.1447 78.481 15.349L81.396 10.6763L81.4539 10.7704L84.311 15.3563C84.8824 16.1447 85.4322 16.4196 86.5099 16.4196H89.8372L83.9638 7.84088L83.9855 7.80472Z" fill="white"/>
<path d="M30.6547 3.63835V10.5606L28.0001 4.95481C27.812 4.52081 27.5661 4.23148 27.3274 4.03618C26.7921 3.60942 26.2641 3.63835 26.2641 3.63835H18.7342L16.434 6.58953L14.1338 3.63835H7.66005C7.11755 3.63835 6.77036 3.80472 6.54612 4.01448C6.14106 4.39785 6.14829 4.94034 6.14829 4.94034V10.5606L3.49368 4.95481C3.30561 4.52081 3.05968 4.23148 2.82098 4.03618C2.28572 3.60942 1.75769 3.63835 1.75769 3.63835H0V12.7812H2.22785V6.48827C2.22785 6.48827 4.74504 11.8192 4.83184 12C4.8897 12.123 5.0633 12.4196 5.4973 12.6076C5.7143 12.7017 5.98916 12.7668 6.34359 12.774H14.1917L16.434 9.89514L18.6763 12.774H25.2225C25.765 12.774 26.1122 12.6149 26.3364 12.3979C26.7415 12.0145 26.727 11.4575 26.727 11.4575V6.48103C26.727 6.48103 29.2442 11.812 29.331 11.9928C29.3888 12.1158 29.5624 12.4123 29.9964 12.6004C30.2062 12.6944 30.4232 12.7451 30.8427 12.7668C30.8427 12.7668 31.3057 12.7668 31.7903 12.7668C32.3183 12.7668 32.8681 12.7668 32.8681 12.7668V3.63835H30.6474H30.6547ZM12.8969 11.1176H8.37615V9.03438H11.9928V7.37796H8.37615V5.29477H12.8391L15.1393 8.24596L12.8969 11.1248V11.1176ZM24.5064 7.24053V7.37796H20.8897V9.03438H24.5064V11.1176H19.9711L17.7288 8.24596L20.029 5.29477H24.5064V7.24053Z" fill="white"/>
</svg>
