<svg width="14" height="14" viewBox="0 0 14 14" fill="none" xmlns="http://www.w3.org/2000/svg">
<path fill-rule="evenodd" clip-rule="evenodd" d="M7 14C10.866 14 14 10.866 14 7C14 3.13401 10.866 0 7 0C3.13401 0 0 3.13401 0 7C0 10.866 3.13401 14 7 14ZM4.49641 3.78927C4.30114 3.59401 3.98456 3.59401 3.7893 3.78927C3.59404 3.98453 3.59404 4.30111 3.7893 4.49638L6.29289 6.99996L3.7893 9.50355C3.59404 9.69882 3.59404 10.0154 3.7893 10.2107C3.98456 10.4059 4.30114 10.4059 4.49641 10.2107L7 7.70707L9.50358 10.2107C9.69885 10.4059 10.0154 10.4059 10.2107 10.2107C10.406 10.0154 10.406 9.69882 10.2107 9.50356L7.7071 6.99996L10.2107 4.49638C10.406 4.30111 10.406 3.98453 10.2107 3.78927C10.0154 3.59401 9.69885 3.59401 9.50358 3.78927L7 6.29286L4.49641 3.78927Z" fill="#111928"/>
</svg>
