<svg fill="none" height="16" viewBox="0 0 16 16" width="16" xmlns="http://www.w3.org/2000/svg" xmlns:xlink="http://www.w3.org/1999/xlink"><clipPath id="a"><rect height="16" rx="2" width="16"/></clipPath><g clip-path="url(#a)"><g fill="#4b5563"><path d="m8 4.5c-.27614 0-.5-.22386-.5-.5s.22386-.5.5-.5.5.22386.5.5-.22386.5-.5.5z"/><path d="m8 8.5c-.27614 0-.5-.22386-.5-.5s.22386-.5.5-.5.5.22386.5.5-.22386.5-.5.5z"/><path d="m8 12.5c-.27614 0-.5-.2239-.5-.5s.22386-.5.5-.5.5.2239.5.5-.22386.5-.5.5z"/></g><path d="m8 4.5c-.27614 0-.5-.22386-.5-.5s.22386-.5.5-.5.5.22386.5.5-.22386.5-.5.5z" stroke="#4b5563" stroke-linecap="round" stroke-linejoin="round" stroke-width="1.5"/><path d="m8 8.5c-.27614 0-.5-.22386-.5-.5s.22386-.5.5-.5.5.22386.5.5-.22386.5-.5.5z" stroke="#4b5563" stroke-linecap="round" stroke-linejoin="round" stroke-width="1.5"/><path d="m8 12.5c-.27614 0-.5-.2239-.5-.5s.22386-.5.5-.5.5.2239.5.5-.22386.5-.5.5z" stroke="#4b5563" stroke-linecap="round" stroke-linejoin="round" stroke-width="1.5"/></g></svg>