<svg fill="none" height="16" viewBox="0 0 16 16" width="16" xmlns="http://www.w3.org/2000/svg" xmlns:xlink="http://www.w3.org/1999/xlink"><clipPath id="a"><rect height="16" rx="2" width="16"/></clipPath><g clip-path="url(#a)"><path d="m5.02426 4.17574c-.23431-.23432-.61421-.23432-.84852 0-.23432.23431-.23432.61421 0 .84852l2.97573 2.97574-2.97573 2.9757c-.23432.2344-.23432.6143 0 .8486.23431.2343.61421.2343.84852 0l2.97574-2.97577 2.9757 2.97577c.2344.2343.6143.2343.8486 0s.2343-.6142 0-.8486l-2.97577-2.9757 2.97577-2.97574c.2343-.23431.2343-.61421 0-.84852-.2343-.23432-.6142-.23432-.8486 0l-2.9757 2.97573z" fill="#D1D5DB"/></g></svg>