<svg width="21" height="21" viewBox="0 0 21 21" fill="none" xmlns="http://www.w3.org/2000/svg">
<g clip-path="url(#clip0_45_883)">
<path d="M18.9114 3.70001H10.7561C10.4346 3.70001 10.1737 3.96161 10.1737 4.28407V15.9661C10.1737 16.2886 10.4346 16.5502 10.7561 16.5502H18.9114C19.2331 16.5502 19.494 16.2886 19.494 15.9661V4.28407C19.4941 3.96161 19.2331 3.70001 18.9114 3.70001Z" fill="#F1F5F7"/>
<path d="M16.5814 14.214H10.7561C10.4346 14.214 10.1737 13.9523 10.1737 13.6299C10.1737 13.3074 10.4346 13.0457 10.7561 13.0457H16.5814C16.9028 13.0457 17.1638 13.3074 17.1638 13.6299C17.1638 13.9523 16.9028 14.214 16.5814 14.214Z" fill="#F97E00"/>
<path d="M13.6687 6.03644C12.0598 6.03644 10.7561 7.34363 10.7561 8.95683C10.7561 10.5703 12.0598 11.8774 13.6687 11.8774C15.2777 11.8774 16.5814 10.5703 16.5814 8.95683H13.6687V6.03644Z" fill="#F97E00"/>
<path d="M14.8337 4.86816V7.78875H17.7463C17.7463 6.17539 16.4428 4.86816 14.8337 4.86816Z" fill="#F97E00"/>
<path d="M11.1278 1.49791C10.9948 1.38694 10.8166 1.33897 10.6489 1.37416L1.32851 3.12631C1.05241 3.17795 0.853157 3.41854 0.853157 3.70002V16.5503C0.853157 16.8306 1.05241 17.0723 1.32851 17.124L10.6489 18.8762C10.6838 18.8831 10.7199 18.8868 10.7561 18.8868C10.8912 18.8868 11.0228 18.8399 11.1278 18.7522C11.2619 18.6414 11.3385 18.4755 11.3385 18.3025V1.94783C11.3384 1.77369 11.2618 1.60893 11.1278 1.49791Z" fill="#F56F00"/>
<path d="M4.93097 14.2139C4.60941 14.2139 4.34831 13.9523 4.34831 13.6298V7.78869C4.34831 7.46623 4.60941 7.20459 4.93097 7.20459H6.67851C7.96351 7.20459 9.00851 8.25248 9.00851 9.54104C9.00851 10.8295 7.96351 11.8774 6.67851 11.8774H5.51339V13.6298C5.51339 13.9522 5.25226 14.2139 4.93097 14.2139ZM5.51339 10.7092H6.67851C7.3205 10.7092 7.84359 10.1846 7.84359 9.54104C7.84359 8.89732 7.3205 8.37295 6.67851 8.37295H5.51339V10.7092Z" fill="#FCFCFC"/>
</g>
<defs>
<clipPath id="clip0_45_883">
<rect width="20" height="20" fill="white" transform="translate(0.173584 0.124756)"/>
</clipPath>
</defs>
</svg>
