<svg width="21" height="21" viewBox="0 0 21 21" fill="none" xmlns="http://www.w3.org/2000/svg">
<g clip-path="url(#clip0_45_979)">
<path d="M18.9936 16.5499H10.8382C10.5167 16.5499 10.2558 16.2894 10.2558 15.9658V4.28381C10.2558 3.96143 10.5167 3.69971 10.8382 3.69971H18.9936C19.3152 3.69971 19.5761 3.96139 19.5761 4.28381V15.9658C19.5762 16.2894 19.3153 16.5499 18.9936 16.5499Z" fill="#F1F5F7"/>
<path d="M16.6635 7.20444H10.8382C10.5167 7.20444 10.2558 6.94381 10.2558 6.6203C10.2558 6.29655 10.5167 6.03619 10.8382 6.03619H16.6635C16.9849 6.03619 17.2459 6.29783 17.2459 6.6203C17.2459 6.94276 16.9849 7.20444 16.6635 7.20444Z" fill="#2997D2"/>
<path d="M16.6635 9.54091H10.8382C10.5167 9.54091 10.2558 9.28005 10.2558 8.95654C10.2558 8.63302 10.5167 8.37244 10.8382 8.37244H16.6635C16.9849 8.37244 17.2459 8.63431 17.2459 8.95654C17.2459 9.27923 16.9849 9.54091 16.6635 9.54091Z" fill="#2997D2"/>
<path d="M16.6635 11.8771H10.8382C10.5167 11.8771 10.2558 11.6167 10.2558 11.293C10.2558 10.9694 10.5167 10.7089 10.8382 10.7089H16.6635C16.9849 10.7089 17.2459 10.9705 17.2459 11.293C17.2459 11.6154 16.9849 11.8771 16.6635 11.8771Z" fill="#2997D2"/>
<path d="M16.6635 14.2135H10.8382C10.5167 14.2135 10.2558 13.9531 10.2558 13.6295C10.2558 13.3059 10.5167 13.0455 10.8382 13.0455H16.6635C16.9849 13.0455 17.2459 13.3072 17.2459 13.6295C17.2459 13.9518 16.9849 14.2135 16.6635 14.2135Z" fill="#2997D2"/>
<path d="M11.21 1.49883C11.077 1.38676 10.8987 1.34012 10.731 1.37399L1.41065 3.12629C1.13562 3.17758 0.935303 3.41942 0.935303 3.69977V16.5499C0.935303 16.8302 1.13456 17.0722 1.41065 17.1235L10.731 18.8759C10.7672 18.8829 10.8021 18.8863 10.8382 18.8863C10.9733 18.8863 11.105 18.8395 11.21 18.752C11.344 18.641 11.4206 18.4762 11.4206 18.3023V1.9475C11.4206 1.77329 11.344 1.60977 11.21 1.49883Z" fill="#2997D2"/>
<rect x="2.75745" y="5.30298" width="6.63525" height="9.36613" fill="white"/>
<path d="M8.87554 4.41272L11.4206 6.29306V14.015C11.4212 14.1003 11.4051 14.1849 11.3732 14.2639C11.3413 14.343 11.2942 14.4149 11.2347 14.4756C11.1752 14.5364 11.1043 14.5847 11.0262 14.6179C10.948 14.6511 10.8642 14.6685 10.7794 14.6691H2.48927C2.31968 14.6679 2.15736 14.5997 2.03737 14.4791C1.91739 14.3585 1.84938 14.1953 1.84802 14.0247V5.05709C1.84802 4.70113 2.13668 4.41272 2.49315 4.41272H8.87554ZM4.57018 11.2733H3.70936V13.4383H8.87554V12.5725L4.57018 12.5718V11.2733ZM6.29245 11.0564C6.20765 11.0564 6.12367 11.0732 6.04532 11.1058C5.96698 11.1385 5.89579 11.1863 5.83582 11.2466C5.77586 11.3069 5.72829 11.3785 5.69584 11.4574C5.66338 11.5362 5.64668 11.6206 5.64668 11.7059C5.64668 11.7912 5.66338 11.8757 5.69584 11.9545C5.72829 12.0333 5.77586 12.1049 5.83582 12.1653C5.89579 12.2256 5.96698 12.2734 6.04532 12.3061C6.12367 12.3387 6.20765 12.3555 6.29245 12.3555C6.46372 12.3555 6.62797 12.2871 6.74908 12.1653C6.87019 12.0434 6.93822 11.8782 6.93822 11.7059C6.93822 11.5337 6.87019 11.3684 6.74908 11.2466C6.62797 11.1248 6.46372 11.0564 6.29245 11.0564ZM6.29245 7.5922C5.86428 7.5922 5.45364 7.76329 5.15088 8.06784C4.84811 8.37238 4.67802 8.78544 4.67802 9.21613C4.67802 9.64682 4.84811 10.0599 5.15088 10.3644C5.45364 10.669 5.86428 10.8401 6.29245 10.8401C6.72062 10.8401 7.13126 10.669 7.43402 10.3644C7.73679 10.0599 7.90688 9.64682 7.90688 9.21613C7.90688 8.78544 7.73679 8.37238 7.43402 8.06784C7.13126 7.76329 6.72062 7.5922 6.29245 7.5922ZM6.29245 8.45808C6.49232 8.45808 6.68401 8.53795 6.82534 8.68011C6.96667 8.82227 7.04607 9.01508 7.04607 9.21613C7.04607 9.41718 6.96667 9.60999 6.82534 9.75215C6.68401 9.89431 6.49232 9.97418 6.29245 9.97418C6.09258 9.97418 5.90089 9.89431 5.75956 9.75215C5.61823 9.60999 5.53883 9.41718 5.53883 9.21613C5.53883 9.01508 5.61823 8.82227 5.75956 8.68011C5.90089 8.53795 6.09258 8.45808 6.29245 8.45808ZM6.72318 5.64349H5.86172V6.50937H3.70936V7.37589H8.87554V6.50937H6.72254L6.72318 5.64349Z" fill="#2997D2"/>
</g>
<defs>
<clipPath id="clip0_45_979">
<rect width="20" height="20" fill="white" transform="translate(0.255737 0.124756)"/>
</clipPath>
</defs>
</svg>
