<svg width="21" height="21" viewBox="0 0 21 21" fill="none" xmlns="http://www.w3.org/2000/svg">
<g clip-path="url(#clip0_45_913)">
<path d="M19.5576 16.5499H11.4023C11.0808 16.5499 10.8198 16.2894 10.8198 15.9658V4.28381C10.8198 3.96143 11.0808 3.69971 11.4023 3.69971H19.5576C19.8793 3.69971 20.1402 3.96139 20.1402 4.28381V15.9658C20.1402 16.2894 19.8793 16.5499 19.5576 16.5499Z" fill="#F1F5F7"/>
<path d="M17.2275 7.20444H11.4023C11.0808 7.20444 10.8198 6.94381 10.8198 6.6203C10.8198 6.29655 11.0808 6.03619 11.4023 6.03619H17.2275C17.549 6.03619 17.81 6.29783 17.81 6.6203C17.81 6.94276 17.549 7.20444 17.2275 7.20444Z" fill="#1B80E4"/>
<path d="M17.2275 9.54091H11.4023C11.0808 9.54091 10.8198 9.28005 10.8198 8.95654C10.8198 8.63302 11.0808 8.37244 11.4023 8.37244H17.2275C17.549 8.37244 17.81 8.63431 17.81 8.95654C17.81 9.27923 17.549 9.54091 17.2275 9.54091Z" fill="#1B80E4"/>
<path d="M17.2275 11.8771H11.4023C11.0808 11.8771 10.8198 11.6167 10.8198 11.293C10.8198 10.9694 11.0808 10.7089 11.4023 10.7089H17.2275C17.549 10.7089 17.81 10.9705 17.81 11.293C17.81 11.6154 17.549 11.8771 17.2275 11.8771Z" fill="#1B80E4"/>
<path d="M17.2275 14.2135H11.4023C11.0808 14.2135 10.8198 13.9531 10.8198 13.6295C10.8198 13.3059 11.0808 13.0455 11.4023 13.0455H17.2275C17.549 13.0455 17.81 13.3072 17.81 13.6295C17.81 13.9518 17.549 14.2135 17.2275 14.2135Z" fill="#1B80E4"/>
<path d="M11.774 1.49883C11.641 1.38676 11.4628 1.34012 11.2951 1.37399L1.97468 3.12629C1.69964 3.17758 1.49933 3.41942 1.49933 3.69977V16.5499C1.49933 16.8302 1.69859 17.0722 1.97468 17.1235L11.2951 18.8759C11.3312 18.8829 11.3661 18.8863 11.4023 18.8863C11.5374 18.8863 11.669 18.8395 11.774 18.752C11.908 18.641 11.9846 18.4762 11.9846 18.3023V1.9475C11.9846 1.77329 11.908 1.60977 11.774 1.49883Z" fill="#1872D9"/>
<path d="M9.06874 13.1108C9.03839 13.3782 8.82867 13.5921 8.56191 13.6248C8.53734 13.6283 8.51406 13.6294 8.48972 13.6294C8.24968 13.6294 8.0305 13.48 7.94445 13.2509L6.74195 10.0361L5.53968 13.2509C5.44652 13.501 5.20171 13.6539 4.93167 13.626C4.66707 13.5979 4.45503 13.3923 4.41785 13.127L3.83523 9.03841C3.7898 8.72056 4.01121 8.42411 4.32921 8.37829C4.64835 8.33185 4.9432 8.55485 4.98859 8.8738L5.24843 10.7009L6.19578 8.167C6.36574 7.71134 7.11613 7.71134 7.2873 8.167L8.17949 10.5523L8.49296 7.72294C8.52906 7.40286 8.82515 7.1729 9.13628 7.20681C9.45648 7.24392 9.68613 7.53255 9.65128 7.85278L9.06874 13.1108Z" fill="#FCFCFC"/>
</g>
<defs>
<clipPath id="clip0_45_913">
<rect width="20" height="20" fill="white" transform="translate(0.819763 0.124756)"/>
</clipPath>
</defs>
</svg>
