<svg width="18" height="17" viewBox="0 0 18 17" fill="none" xmlns="http://www.w3.org/2000/svg">
<path d="M2.67795 17H15.9002C16.4011 17 16.8816 16.801 17.2358 16.4468C17.5901 16.0925 17.7891 15.6121 17.7891 15.1111V1.88889C17.7891 1.38792 17.5901 0.907478 17.2358 0.553243C16.8816 0.199007 16.4011 0 15.9002 0H2.67795C2.17699 0 1.69654 0.199007 1.34231 0.553243C0.98807 0.907478 0.789063 1.38792 0.789062 1.88889V15.1111C0.789063 15.6121 0.98807 16.0925 1.34231 16.4468C1.69654 16.801 2.17699 17 2.67795 17ZM5.51128 10.3889L7.74301 12.6206L11.178 7.55556L15.9002 14.1667H2.67795L5.51128 10.3889Z" fill="#227DE9"/>
</svg>
