<svg width="21" height="21" viewBox="0 0 21 21" fill="none" xmlns="http://www.w3.org/2000/svg">
<g clip-path="url(#clip0_45_823)">
<path d="M19.5477 16.5502H11.3923C11.0708 16.5502 10.8099 16.2886 10.8099 15.9661V4.28407C10.8099 3.96161 11.0708 3.70001 11.3923 3.70001H19.5477C19.8693 3.70001 20.1302 3.96161 20.1302 4.28407V15.9661C20.1303 16.2886 19.8693 16.5502 19.5477 16.5502Z" fill="#F1F5F7"/>
<path d="M13.7225 7.2046H11.3923C11.0708 7.2046 10.8099 6.94292 10.8099 6.62046C10.8099 6.29808 11.0708 6.03644 11.3923 6.03644H13.7225C14.044 6.03644 14.3049 6.29808 14.3049 6.62046C14.3049 6.94292 14.044 7.2046 13.7225 7.2046Z" fill="#46B34C"/>
<path d="M13.7225 9.54101H11.3923C11.0708 9.54101 10.8099 9.27941 10.8099 8.95679C10.8099 8.63464 11.0708 8.37292 11.3923 8.37292H13.7225C14.044 8.37292 14.3049 8.63464 14.3049 8.95679C14.3049 9.27937 14.044 9.54101 13.7225 9.54101Z" fill="#46B34C"/>
<path d="M13.7225 11.8773H11.3923C11.0708 11.8773 10.8099 11.6156 10.8099 11.2934C10.8099 10.9709 11.0708 10.7092 11.3923 10.7092H13.7225C14.044 10.7092 14.3049 10.9709 14.3049 11.2934C14.3049 11.6156 14.044 11.8773 13.7225 11.8773Z" fill="#46B34C"/>
<path d="M13.7225 14.214H11.3923C11.0708 14.214 10.8099 13.9523 10.8099 13.6299C10.8099 13.3074 11.0708 13.0457 11.3923 13.0457H13.7225C14.044 13.0457 14.3049 13.3074 14.3049 13.6299C14.3049 13.9523 14.044 14.214 13.7225 14.214Z" fill="#46B34C"/>
<path d="M17.2176 7.2046H16.0525C15.731 7.2046 15.4699 6.94292 15.4699 6.62046C15.4699 6.29808 15.731 6.03644 16.0525 6.03644H17.2176C17.539 6.03644 17.8 6.29808 17.8 6.62046C17.8 6.94292 17.539 7.2046 17.2176 7.2046Z" fill="#46B34C"/>
<path d="M17.2176 9.54101H16.0525C15.731 9.54101 15.4699 9.27941 15.4699 8.95679C15.4699 8.63464 15.731 8.37292 16.0525 8.37292H17.2176C17.539 8.37292 17.8 8.63464 17.8 8.95679C17.8 9.27937 17.539 9.54101 17.2176 9.54101Z" fill="#46B34C"/>
<path d="M17.2176 11.8773H16.0525C15.731 11.8773 15.4699 11.6156 15.4699 11.2934C15.4699 10.9709 15.731 10.7092 16.0525 10.7092H17.2176C17.539 10.7092 17.8 10.9709 17.8 11.2934C17.8 11.6156 17.539 11.8773 17.2176 11.8773Z" fill="#46B34C"/>
<path d="M17.2176 14.214H16.0525C15.731 14.214 15.4699 13.9523 15.4699 13.6299C15.4699 13.3074 15.731 13.0457 16.0525 13.0457H17.2176C17.539 13.0457 17.8 13.3074 17.8 13.6299C17.8 13.9523 17.539 14.214 17.2176 14.214Z" fill="#46B34C"/>
<path d="M11.764 1.49791C11.6311 1.38694 11.4528 1.33897 11.2851 1.37416L1.96473 3.12631C1.68864 3.17795 1.48938 3.41854 1.48938 3.70002V16.5503C1.48938 16.8306 1.68864 17.0723 1.96473 17.124L11.2851 18.8762C11.32 18.8831 11.3561 18.8868 11.3923 18.8868C11.5274 18.8868 11.659 18.8399 11.764 18.7522C11.8981 18.6414 11.9747 18.4755 11.9747 18.3025V1.94783C11.9747 1.77369 11.8981 1.60893 11.764 1.49791Z" fill="#3CA241"/>
<path d="M9.5004 12.0772L7.65821 9.96644L9.52137 7.56465C9.71942 7.3098 9.67259 6.94293 9.41981 6.74449C9.16704 6.54582 8.80114 6.59254 8.60216 6.84594L6.87657 9.07027L5.42266 7.40465C5.20954 7.15906 4.8413 7.13691 4.60126 7.34969C4.35903 7.56211 4.33446 7.93121 4.54653 8.17312L6.14852 10.0095L4.52442 12.1028C4.3263 12.3576 4.37298 12.7246 4.62567 12.923C4.73294 13.006 4.86005 13.0457 4.98458 13.0457C5.15813 13.0457 5.32954 12.9686 5.44469 12.8201L6.93024 10.9043L8.62411 12.8449C8.73954 12.978 8.90028 13.0457 9.06212 13.0457C9.19852 13.0457 9.33493 12.9978 9.44571 12.9007C9.68798 12.6883 9.71231 12.3192 9.5004 12.0772Z" fill="#FCFCFC"/>
</g>
<defs>
<clipPath id="clip0_45_823">
<rect width="20" height="20" fill="white" transform="translate(0.809814 0.124756)"/>
</clipPath>
</defs>
</svg>
