<svg width="21" height="21" viewBox="0 0 21 21" fill="none" xmlns="http://www.w3.org/2000/svg">
<path d="M19.1254 16.5499H10.9701C10.6486 16.5499 10.3876 16.2894 10.3876 15.9658V4.28381C10.3876 3.96143 10.6486 3.69971 10.9701 3.69971H19.1254C19.447 3.69971 19.708 3.96139 19.708 4.28381V15.9658C19.708 16.2894 19.4471 16.5499 19.1254 16.5499Z" fill="#F1F5F7"/>
<path d="M16.7953 7.20444H10.9701C10.6486 7.20444 10.3876 6.94381 10.3876 6.6203C10.3876 6.29655 10.6486 6.03619 10.9701 6.03619H16.7953C17.1168 6.03619 17.3778 6.29783 17.3778 6.6203C17.3778 6.94276 17.1168 7.20444 16.7953 7.20444Z" fill="#EA4C3A"/>
<path d="M16.7953 9.54091H10.9701C10.6486 9.54091 10.3876 9.28005 10.3876 8.95654C10.3876 8.63302 10.6486 8.37244 10.9701 8.37244H16.7953C17.1168 8.37244 17.3778 8.63431 17.3778 8.95654C17.3778 9.27923 17.1168 9.54091 16.7953 9.54091Z" fill="#EA4C3A"/>
<path d="M16.7953 11.8771H10.9701C10.6486 11.8771 10.3876 11.6167 10.3876 11.293C10.3876 10.9694 10.6486 10.7089 10.9701 10.7089H16.7953C17.1168 10.7089 17.3778 10.9705 17.3778 11.293C17.3778 11.6154 17.1168 11.8771 16.7953 11.8771Z" fill="#EA4C3A"/>
<path d="M16.7953 14.2135H10.9701C10.6486 14.2135 10.3876 13.9531 10.3876 13.6295C10.3876 13.3059 10.6486 13.0455 10.9701 13.0455H16.7953C17.1168 13.0455 17.3778 13.3072 17.3778 13.6295C17.3778 13.9518 17.1168 14.2135 16.7953 14.2135Z" fill="#EA4C3A"/>
<path d="M11.3418 1.49883C11.2088 1.38676 11.0306 1.34012 10.8629 1.37399L1.54249 3.12629C1.26745 3.17758 1.06714 3.41942 1.06714 3.69977V16.5499C1.06714 16.8302 1.2664 17.0722 1.54249 17.1235L10.8629 18.8759C10.8991 18.8829 10.9339 18.8863 10.9701 18.8863C11.1052 18.8863 11.2368 18.8395 11.3418 18.752C11.4759 18.641 11.5525 18.4762 11.5525 18.3023V1.9475C11.5524 1.77329 11.4758 1.60977 11.3418 1.49883Z" fill="#EA4C3A"/>
<path d="M6.32975 6.50905C6.49895 6.58878 6.46377 6.6921 6.41173 7.18023C6.35858 7.68371 6.1804 8.60344 5.83713 9.5082C5.4935 10.4115 4.98366 11.299 4.53933 11.956C4.09537 12.6133 3.71542 13.0404 3.42569 13.2871C3.13483 13.5338 2.93382 13.5996 2.80243 13.6214C2.67216 13.6431 2.61301 13.6214 2.57783 13.5551C2.54264 13.4892 2.53029 13.3807 2.56061 13.2481C2.59018 13.1171 2.66093 12.9637 2.86157 12.7671C3.06408 12.5699 3.39537 12.3284 3.85767 12.1042C4.31997 11.8796 4.91216 11.6715 5.39842 11.5288C5.88467 11.387 6.2635 11.3099 6.59516 11.2496C6.92756 11.189 7.21168 11.1459 7.49018 11.1234C7.76869 11.1025 8.04195 11.1025 8.30847 11.1234C8.575 11.1459 8.83553 11.189 9.06125 11.2444C9.28585 11.299 9.47601 11.3645 9.64184 11.4693C9.8073 11.5726 9.94992 11.7153 10.0207 11.8747C10.0925 12.0331 10.0925 12.209 10.033 12.3344C9.97388 12.4606 9.85484 12.5369 9.71896 12.5815C9.5827 12.6245 9.42885 12.6354 9.24468 12.5815C9.06125 12.5261 8.84714 12.4055 8.62254 12.2468C8.39756 12.0877 8.16024 11.8904 7.85254 11.5839C7.54409 11.2773 7.16451 10.8614 6.84484 10.456C6.52516 10.0506 6.2635 9.65644 6.08569 9.32216C5.90863 8.98788 5.81355 8.71424 5.73644 8.4406C5.65933 8.16622 5.60018 7.89258 5.5766 7.64627C5.55302 7.39996 5.56387 7.18023 5.58783 7.00467C5.61141 6.83023 5.64772 6.69772 5.70649 6.60975C5.76564 6.52365 5.84911 6.47873 5.90826 6.45702C5.9674 6.43531 6.00334 6.43531 6.03852 6.42969C6.07371 6.42408 6.1089 6.41322 6.16318 6.42969C6.21484 6.44542 6.28334 6.48734 6.35184 6.53001" stroke="white" stroke-width="0.92482" stroke-miterlimit="10" stroke-linejoin="round"/>
</svg>
