<svg width="20" height="21" viewBox="0 0 20 21" fill="none" xmlns="http://www.w3.org/2000/svg">
<path d="M7.1875 10.5C7.1875 10.6726 7.04759 10.8125 6.875 10.8125C6.70241 10.8125 6.5625 10.6726 6.5625 10.5C6.5625 10.3274 6.70241 10.1875 6.875 10.1875C7.04759 10.1875 7.1875 10.3274 7.1875 10.5ZM7.1875 10.5H6.875M10.3125 10.5C10.3125 10.6726 10.1726 10.8125 10 10.8125C9.82741 10.8125 9.6875 10.6726 9.6875 10.5C9.6875 10.3274 9.82741 10.1875 10 10.1875C10.1726 10.1875 10.3125 10.3274 10.3125 10.5ZM10.3125 10.5H10M13.4375 10.5C13.4375 10.6726 13.2976 10.8125 13.125 10.8125C12.9524 10.8125 12.8125 10.6726 12.8125 10.5C12.8125 10.3274 12.9524 10.1875 13.125 10.1875C13.2976 10.1875 13.4375 10.3274 13.4375 10.5ZM13.4375 10.5H13.125M17.5 10.5C17.5 14.297 14.1421 17.375 10 17.375C9.26044 17.375 8.54588 17.2769 7.87098 17.0941C7.05847 17.6649 6.06834 18 5 18C4.83398 18 4.6698 17.9919 4.50806 17.9761C4.375 17.9631 4.24316 17.9449 4.11316 17.9216C4.5161 17.4461 4.80231 16.8689 4.92824 16.234C5.00378 15.8531 4.81725 15.4832 4.53903 15.2124C3.27475 13.9818 2.5 12.3238 2.5 10.5C2.5 6.70304 5.85786 3.625 10 3.625C14.1421 3.625 17.5 6.70304 17.5 10.5Z" stroke="#D1D5DB" stroke-width="1.5" stroke-linecap="round" stroke-linejoin="round"/>
</svg>
