<svg width="40" height="40" viewBox="0 0 40 40" fill="none" xmlns="http://www.w3.org/2000/svg">
<g clip-path="url(#clip0_575_48929)">
<path d="M22.9209 6.37583L29.2389 12.6873V33.6065H10.7616V6.37583H22.9209ZM23.4907 5H9.38574V34.9823H30.6147V12.1175L23.4907 5Z" fill="#9CA3AF"/>
<path d="M22.6739 6.37583V12.9408H29.2389V33.6065H10.7616V6.37583H22.6739ZM23.4907 5H9.38574V34.9823H30.6147V12.1175L30.0622 11.565H24.0497V5.559L23.4907 5Z" fill="#9CA3AF"/>
<path fill-rule="evenodd" clip-rule="evenodd" d="M23.8174 7.09961H24.7642V7.10178L28.519 10.7634V11.8598H23.8174V7.09961Z" fill="#9CA3AF"/>
<path fill-rule="evenodd" clip-rule="evenodd" d="M30.6145 17.8113V15.4279L33 17.8134V29.6489H7V17.8134L9.3855 15.4258V17.8113H30.6145Z" fill="#3BA727"/>
<path d="M26.75 22.6055C26.7148 22.1792 26.4336 21.9243 25.8623 21.9287C25.313 21.9243 25.0581 22.144 25.0537 22.4385C25.0405 22.7681 25.3394 22.9482 25.9326 23.0713L26.46 23.1943C27.8267 23.4844 28.4375 24.1479 28.4463 25.1279C28.4375 26.376 27.4795 27.0747 25.8711 27.0791C24.2275 27.0747 23.1597 26.3628 23.1465 24.7939H24.7461C24.7725 25.3872 25.1812 25.6992 25.8447 25.6992C26.4204 25.6992 26.728 25.4663 26.7324 25.1279C26.728 24.8203 26.4644 24.6401 25.7568 24.4863L25.1152 24.3457C23.9946 24.0996 23.3091 23.5459 23.3135 22.5615C23.3047 21.3574 24.3682 20.5488 25.8623 20.5488C27.3872 20.5488 28.3496 21.3706 28.3584 22.6055H26.75Z" fill="white"/>
<path d="M18.3389 27V20.6367H20.0088V25.6465H22.6016V27H18.3389Z" fill="white"/>
<path d="M13.4961 20.6367L14.5684 22.5352H14.6211L15.7109 20.6367H17.583L15.6758 23.8184L17.6533 27H15.7373L14.6211 25.0752H14.5684L13.4609 27H11.5537L13.5137 23.8184L11.6152 20.6367H13.4961Z" fill="white"/>
</g>
<defs>
<clipPath id="clip0_575_48929">
<rect width="26" height="29.9823" fill="white" transform="translate(7 5)"/>
</clipPath>
</defs>
</svg>
