<svg width="20" height="20" viewBox="0 0 20 20" fill="none" xmlns="http://www.w3.org/2000/svg">
<g clip-path="url(#clip0_679_15754)">
<path d="M19.1665 8.75008H17.4998V7.08341C17.4998 6.8624 17.412 6.65044 17.2558 6.49416C17.0995 6.33788 16.8875 6.25008 16.6665 6.25008C16.4455 6.25008 16.2335 6.33788 16.0772 6.49416C15.921 6.65044 15.8332 6.8624 15.8332 7.08341V8.75008H14.1665C13.9455 8.75008 13.7335 8.83788 13.5772 8.99416C13.421 9.15044 13.3332 9.3624 13.3332 9.58342C13.3332 9.80443 13.421 10.0164 13.5772 10.1727C13.7335 10.329 13.9455 10.4167 14.1665 10.4167H15.8332V12.0834C15.8332 12.3044 15.921 12.5164 16.0772 12.6727C16.2335 12.829 16.4455 12.9167 16.6665 12.9167C16.8875 12.9167 17.0995 12.829 17.2558 12.6727C17.412 12.5164 17.4998 12.3044 17.4998 12.0834V10.4167H19.1665C19.3875 10.4167 19.5995 10.329 19.7558 10.1727C19.912 10.0164 19.9998 9.80443 19.9998 9.58342C19.9998 9.3624 19.912 9.15044 19.7558 8.99416C19.5995 8.83788 19.3875 8.75008 19.1665 8.75008ZM11.0832 10.1834C11.5278 9.79853 11.8845 9.32249 12.1289 8.7876C12.3733 8.25272 12.4998 7.67151 12.4998 7.08341C12.4998 5.97835 12.0609 4.91854 11.2794 4.13714C10.498 3.35573 9.43824 2.91675 8.33317 2.91675C7.2281 2.91675 6.16829 3.35573 5.38689 4.13714C4.60549 4.91854 4.1665 5.97835 4.1665 7.08341C4.1665 7.67151 4.29301 8.25272 4.53744 8.7876C4.78188 9.32249 5.13852 9.79853 5.58317 10.1834C4.41662 10.7117 3.42689 11.5647 2.73232 12.6405C2.03775 13.7164 1.66773 14.9695 1.6665 16.2501C1.6665 16.4711 1.7543 16.6831 1.91058 16.8393C2.06686 16.9956 2.27882 17.0834 2.49984 17.0834C2.72085 17.0834 2.93281 16.9956 3.08909 16.8393C3.24537 16.6831 3.33317 16.4711 3.33317 16.2501C3.33317 14.924 3.85996 13.6522 4.79764 12.7145C5.73532 11.7769 7.00709 11.2501 8.33317 11.2501C9.65925 11.2501 10.931 11.7769 11.8687 12.7145C12.8064 13.6522 13.3332 14.924 13.3332 16.2501C13.3332 16.4711 13.421 16.6831 13.5772 16.8393C13.7335 16.9956 13.9455 17.0834 14.1665 17.0834C14.3875 17.0834 14.5995 16.9956 14.7558 16.8393C14.912 16.6831 14.9998 16.4711 14.9998 16.2501C14.9986 14.9695 14.6286 13.7164 13.934 12.6405C13.2395 11.5647 12.2497 10.7117 11.0832 10.1834ZM8.33317 9.58342C7.83872 9.58342 7.35537 9.43679 6.94425 9.16209C6.53312 8.88739 6.21269 8.49694 6.02347 8.04012C5.83425 7.58331 5.78474 7.08064 5.88121 6.59569C5.97767 6.11074 6.21577 5.66528 6.5654 5.31565C6.91504 4.96602 7.36049 4.72791 7.84545 4.63145C8.3304 4.53499 8.83306 4.5845 9.28988 4.77372C9.74669 4.96294 10.1371 5.28337 10.4118 5.69449C10.6865 6.10561 10.8332 6.58896 10.8332 7.08341C10.8332 7.74646 10.5698 8.38234 10.1009 8.85118C9.6321 9.32002 8.99621 9.58342 8.33317 9.58342Z" fill="#4B5563"/>
</g>
<defs>
<clipPath id="clip0_679_15754">
<rect width="20" height="20" fill="white"/>
</clipPath>
</defs>
</svg>
