<svg width="14" height="14" viewBox="0 0 14 14" fill="none" xmlns="http://www.w3.org/2000/svg">
<path fill-rule="evenodd" clip-rule="evenodd" d="M6.46211 1.3125C5.92744 1.3125 5.47114 1.69905 5.38324 2.22644L5.27902 2.85176C5.26726 2.92229 5.21233 3.00405 5.10598 3.05519C4.90528 3.15171 4.71314 3.26305 4.53098 3.38777C4.43387 3.45426 4.33568 3.46103 4.26865 3.43592L3.67413 3.21319C3.17344 3.02562 2.61054 3.22752 2.3432 3.69055L1.80538 4.62209C1.53804 5.08512 1.64465 5.67357 2.05744 6.01339L2.54774 6.41702C2.60294 6.46246 2.64617 6.55073 2.63736 6.66792C2.62912 6.77761 2.62493 6.88836 2.62493 7C2.62493 7.11168 2.62912 7.22247 2.63737 7.3322C2.64618 7.4494 2.60295 7.53767 2.54775 7.58311L2.05744 7.98676C1.64465 8.32657 1.53804 8.91502 1.80538 9.37805L2.3432 10.3096C2.61054 10.7726 3.17344 10.9745 3.67413 10.7869L4.26878 10.5642C4.33581 10.5391 4.43399 10.5458 4.53111 10.6123C4.71323 10.737 4.90533 10.8483 5.10598 10.9448C5.21233 10.996 5.26726 11.0777 5.27902 11.1482L5.38324 11.7736C5.47114 12.301 5.92744 12.6875 6.46211 12.6875H7.53775C8.07242 12.6875 8.52872 12.301 8.61662 11.7736L8.72084 11.1482C8.7326 11.0777 8.78753 10.996 8.89388 10.9448C9.09458 10.8483 9.28672 10.737 9.46888 10.6122C9.56599 10.5457 9.66418 10.539 9.73121 10.5641L10.3257 10.7868C10.8264 10.9744 11.3893 10.7725 11.6567 10.3094L12.1945 9.37791C12.4618 8.91488 12.3552 8.32643 11.9424 7.98661L11.4521 7.58298C11.3969 7.53754 11.3537 7.44927 11.3625 7.33208C11.3707 7.22239 11.3749 7.11164 11.3749 7C11.3749 6.88832 11.3707 6.77753 11.3625 6.6678C11.3537 6.5506 11.3969 6.46233 11.4521 6.41689L11.9424 6.01324C12.3552 5.67343 12.4618 5.08498 12.1945 4.62195L11.6567 3.69041C11.3893 3.22738 10.8264 3.02548 10.3257 3.21305L9.73107 3.43583C9.66405 3.46094 9.56587 3.45417 9.46875 3.38768C9.28663 3.263 9.09453 3.15168 8.89388 3.05519C8.78753 3.00405 8.7326 2.92229 8.72084 2.85176L8.61662 2.22644C8.52872 1.69904 8.07242 1.3125 7.53775 1.3125H6.46211ZM7 9.1875C8.20812 9.1875 9.1875 8.20812 9.1875 7C9.1875 5.79188 8.20812 4.8125 7 4.8125C5.79188 4.8125 4.8125 5.79188 4.8125 7C4.8125 8.20812 5.79188 9.1875 7 9.1875Z" fill="#D1D5DB"/>
</svg>
