<svg width="20" height="20" viewBox="0 0 20 20" fill="none" xmlns="http://www.w3.org/2000/svg">
<path d="M11.0795 2.5C11.1965 2.5 11.3097 2.541 11.3996 2.61587L15.3201 5.88252C15.4341 5.97752 15.5 6.11825 15.5 6.26665V17C15.5 17.2761 15.2761 17.5 15 17.5H5C4.72386 17.5 4.5 17.2761 4.5 17V3C4.5 2.72386 4.72386 2.5 5 2.5H11.0795Z" stroke="#FF2116" stroke-linejoin="round"/>
<path d="M11 2.7998V4.9998C11 5.55209 11.4477 5.9998 12 5.9998H15.2" stroke="#FF2116"/>
<path d="M6.16008 13.8586C5.71964 13.461 6.19617 12.9147 7.4894 12.3345L8.30312 11.9694L8.62013 11.3433C8.79448 10.9989 9.05471 10.437 9.1984 10.0946L9.45967 9.47205L9.27963 9.01133C9.05825 8.44483 8.97931 7.59353 9.11976 7.28741C9.31002 6.87278 9.9332 6.91532 10.1799 7.35979C10.3726 7.70691 10.3529 8.33555 10.1245 9.12835L9.93724 9.77831L10.1022 10.0311C10.1929 10.1701 10.4579 10.5002 10.691 10.7646L11.1292 11.2567L11.6745 11.1924C13.4067 10.9884 14 11.3352 14 11.8324C14 12.46 12.6398 12.5118 11.4977 11.7876C11.2407 11.6246 11.0642 11.4628 11.0642 11.4628C11.0642 11.4628 10.3486 11.5943 9.99633 11.68C9.63268 11.7685 9.45125 11.8239 8.91857 11.9862C8.91857 11.9862 8.73167 12.2312 8.60988 12.4094C8.15677 13.072 7.62771 13.6212 7.24989 13.8211C6.82686 14.0449 6.38337 14.0602 6.16008 13.8586ZM6.85129 13.6357C7.09887 13.4976 7.59998 12.9625 7.94686 12.466L8.08731 12.2649L7.44782 12.5552C6.46015 13.0035 6.00831 13.426 6.24327 13.6815C6.37526 13.8251 6.53315 13.8132 6.85129 13.6357ZM13.2668 12.0101C13.5089 11.857 13.4738 11.5484 13.2 11.424C12.9869 11.3272 12.8152 11.3073 12.2617 11.3147C11.9216 11.3356 11.3747 11.3975 11.282 11.4163C11.282 11.4163 11.5825 11.6038 11.7158 11.6727C11.8934 11.7642 12.325 11.9342 12.64 12.0212C12.9508 12.1071 13.1306 12.0981 13.2668 12.0101ZM10.6872 11.0422C10.5406 10.9031 10.2914 10.6129 10.1334 10.3972C9.92674 10.1525 9.82311 9.97988 9.82311 9.97988C9.82311 9.97988 9.67205 10.4185 9.54812 10.6824L9.16147 11.5452L9.04937 11.7409C9.04937 11.7409 9.64533 11.5645 9.94855 11.493C10.2697 11.4172 10.9215 11.3015 10.9215 11.3015L10.6872 11.0422ZM9.85589 8.03275C9.89327 7.74957 9.90914 7.4668 9.80835 7.32421C9.52879 7.04832 9.19136 7.27839 9.24852 7.9343C9.26775 8.15495 9.32847 8.53215 9.40965 8.76464L9.55725 9.18733L9.66114 8.86897C9.71828 8.69387 9.80591 8.31757 9.85589 8.03275Z" fill="#FF2116" stroke="#FF2116"/>
</svg>
