<svg width="20" height="20" viewBox="0 0 20 20" fill="none" xmlns="http://www.w3.org/2000/svg">
<path d="M7.99461 3.28338C8.06995 2.83132 8.46106 2.5 8.91935 2.5H11.081C11.5393 2.5 11.9304 2.83132 12.0057 3.28338L12.1837 4.35092C12.2356 4.66262 12.4439 4.92226 12.7204 5.0753C12.7822 5.10952 12.8433 5.14486 12.9037 5.18131C13.1745 5.34487 13.504 5.39572 13.8003 5.28471L14.8143 4.90481C15.2435 4.74404 15.726 4.91709 15.9551 5.31398L17.0359 7.18601C17.2651 7.5829 17.1737 8.08728 16.8199 8.37855L15.9829 9.06756C15.7392 9.26823 15.6183 9.5781 15.6242 9.89377C15.6248 9.9291 15.6252 9.96451 15.6252 10C15.6252 10.0355 15.6248 10.0709 15.6242 10.1062C15.6183 10.4219 15.7392 10.7318 15.9829 10.9324L16.8199 11.6214C17.1737 11.9127 17.2651 12.4171 17.0359 12.814L15.9551 14.686C15.726 15.0829 15.2435 15.256 14.8143 15.0952L13.8003 14.7153C13.504 14.6043 13.1745 14.6551 12.9037 14.8187C12.8433 14.8551 12.7822 14.8905 12.7204 14.9247C12.4439 15.0777 12.2356 15.3374 12.1837 15.6491L12.0057 16.7166C11.9304 17.1687 11.5393 17.5 11.081 17.5H8.91935C8.46106 17.5 8.06995 17.1687 7.99461 16.7166L7.81668 15.6491C7.76473 15.3374 7.55642 15.0777 7.27995 14.9247C7.21814 14.8905 7.15704 14.8551 7.09668 14.8187C6.82581 14.6551 6.49637 14.6043 6.20007 14.7153L5.18601 15.0952C4.75685 15.256 4.27436 15.0829 4.04522 14.686L2.9644 12.814C2.73526 12.4171 2.82663 11.9127 3.18045 11.6215L4.01741 10.9324C4.26117 10.7318 4.382 10.4219 4.37615 10.1062C4.3755 10.0709 4.37517 10.0355 4.37517 10C4.37517 9.96452 4.3755 9.92911 4.37615 9.89379C4.382 9.57811 4.26117 9.26824 4.01741 9.06758L3.18045 8.37856C2.82663 8.08729 2.73525 7.58291 2.9644 7.18602L4.04522 5.31399C4.27436 4.9171 4.75685 4.74405 5.18601 4.90483L6.20006 5.28472C6.49636 5.39573 6.8258 5.34487 7.09667 5.18132C7.15703 5.14487 7.21813 5.10952 7.27995 5.0753C7.55642 4.92226 7.76473 4.66262 7.81668 4.35092L7.99461 3.28338Z" stroke="#1F2A37" stroke-width="1.5" stroke-linecap="round" stroke-linejoin="round"/>
<path d="M12.5 9.99993C12.5 11.3806 11.3807 12.4999 9.99998 12.4999C8.61926 12.4999 7.49998 11.3806 7.49998 9.99993C7.49998 8.61922 8.61926 7.49993 9.99998 7.49993C11.3807 7.49993 12.5 8.61922 12.5 9.99993Z" stroke="#1F2A37" stroke-width="1.5" stroke-linecap="round" stroke-linejoin="round"/>
</svg>
