<svg width="14" height="14" viewBox="0 0 14 14" fill="none" xmlns="http://www.w3.org/2000/svg">
<path fill-rule="evenodd" clip-rule="evenodd" d="M2.80213 12.6258C2.90459 12.6441 3.00843 12.6585 3.11319 12.6687C3.24051 12.6812 3.36961 12.6875 3.5 12.6875C4.26726 12.6875 4.98427 12.4676 5.59018 12.0874C6.04153 12.1937 6.51396 12.25 7 12.25C10.1045 12.25 12.6875 9.93455 12.6875 7C12.6875 4.06545 10.1045 1.75 7 1.75C3.89549 1.75 1.3125 4.06545 1.3125 7C1.3125 8.405 1.91018 9.67582 2.87216 10.6122C3.0075 10.7439 3.03396 10.8615 3.02063 10.9287C2.94732 11.2983 2.78068 11.6347 2.54541 11.9123C2.44426 12.0317 2.41457 12.196 2.46755 12.3433C2.52052 12.4905 2.6481 12.5982 2.80213 12.6258ZM4.8125 6.34375C4.45006 6.34375 4.15625 6.63756 4.15625 7C4.15625 7.36244 4.45006 7.65625 4.8125 7.65625C5.17494 7.65625 5.46875 7.36244 5.46875 7C5.46875 6.63756 5.17494 6.34375 4.8125 6.34375ZM6.34375 7C6.34375 6.63756 6.63756 6.34375 7 6.34375C7.36244 6.34375 7.65625 6.63756 7.65625 7C7.65625 7.36244 7.36244 7.65625 7 7.65625C6.63756 7.65625 6.34375 7.36244 6.34375 7ZM9.1875 6.34375C8.82506 6.34375 8.53125 6.63756 8.53125 7C8.53125 7.36244 8.82506 7.65625 9.1875 7.65625C9.54994 7.65625 9.84375 7.36244 9.84375 7C9.84375 6.63756 9.54994 6.34375 9.1875 6.34375Z" fill="#6B7280"/>
</svg>
