<svg fill="none" height="24" viewBox="0 0 25 24" width="25" xmlns="http://www.w3.org/2000/svg" xmlns:xlink="http://www.w3.org/1999/xlink"><clipPath id="a"><path d="m.5 0h24v24h-24z"/></clipPath><g clip-path="url(#a)" stroke="#D1D5DB" stroke-linecap="round" stroke-linejoin="round" stroke-width="1.5"><path d="m4.76077 14.3047-3.07031 4.2472c-.1385.2605-.20345.5516-.18831.844s.10984.5758.27455.8216c.15536.24.37151.4379.62804.5749.25654.1369.54499.2085.83812.2079h18.55984c.2932.0006.5816-.071.8382-.2079.2565-.137.4726-.3349.628-.5749.1514-.2532.2311-.5404.2311-.8328s-.0797-.5796-.2311-.8328l-2.9841-4.2472"/><path d="m6.06962 3.7832c-.45099 0-.88352.18476-1.20242.51363s-.49806.77491-.49806 1.24v8.76807h16.26086v-8.76807c0-.46509-.1791-.91113-.498-1.24-.319-.32887-.7515-.51363-1.2025-.51363z"/><path d="m11.0656 11.0493v-4.01333c-.0018-.06775.0132-.13477.0435-.19383.0303-.05907.0747-.10794.1284-.14136.0536-.03342.1146-.05012.1763-.0483.0617.00181.1218.02208.1738.05861l3.132 2.00665c.0524.03373.0957.08189.1259.13972s.046.12331.046.18995-.0158.13212-.046.18995-.0735.10599-.1259.13972l-3.132 2.00662c-.0531.0337-.1134.0514-.1748.0513-.0614-.0002-.1216-.0182-.1746-.0521-.053-.034-.0969-.0827-.1272-.1413s-.046-.1249-.0454-.1923z"/></g></svg>