<svg width="25" height="24" viewBox="0 0 25 24" fill="none" xmlns="http://www.w3.org/2000/svg">
<path d="M7.25 3V5.25M17.75 3V5.25M3.5 18.75V7.5C3.5 6.25736 4.50736 5.25 5.75 5.25H19.25C20.4926 5.25 21.5 6.25736 21.5 7.5V18.75M3.5 18.75C3.5 19.9926 4.50736 21 5.75 21H19.25C20.4926 21 21.5 19.9926 21.5 18.75M3.5 18.75V11.25C3.5 10.0074 4.50736 9 5.75 9H19.25C20.4926 9 21.5 10.0074 21.5 11.25V18.75M12.5 12.75H12.5075V12.7575H12.5V12.75ZM12.5 15H12.5075V15.0075H12.5V15ZM12.5 17.25H12.5075V17.2575H12.5V17.25ZM10.25 15H10.2575V15.0075H10.25V15ZM10.25 17.25H10.2575V17.2575H10.25V17.25ZM8 15H8.0075V15.0075H8V15ZM8 17.25H8.0075V17.2575H8V17.25ZM14.75 12.75H14.7575V12.7575H14.75V12.75ZM14.75 15H14.7575V15.0075H14.75V15ZM14.75 17.25H14.7575V17.2575H14.75V17.25ZM17 12.75H17.0075V12.7575H17V12.75ZM17 15H17.0075V15.0075H17V15Z" stroke="#1F2A37" stroke-width="1.5" stroke-linecap="round" stroke-linejoin="round"/>
</svg>
