<svg width="24" height="24" viewBox="0 0 24 24" fill="none" xmlns="http://www.w3.org/2000/svg">
<path d="M11.7097 4.67869C11.8239 4.44044 12.1761 4.44044 12.2903 4.67869L14.2704 8.80712C14.3169 8.90422 14.4126 8.97108 14.523 8.98367L19.2175 9.51898C19.4885 9.54987 19.5973 9.87192 19.397 10.0501L15.9262 13.1369C15.8446 13.2095 15.808 13.3177 15.8297 13.4226L16.751 17.8818C16.8042 18.1392 16.5193 18.3382 16.2813 18.21L12.1562 15.9894C12.0591 15.9371 11.9409 15.9371 11.8438 15.9894L7.71875 18.21C7.48068 18.3382 7.19582 18.1392 7.24899 17.8818L8.17031 13.4226C8.19198 13.3177 8.15543 13.2095 8.07379 13.1369L4.60303 10.0501C4.40273 9.87192 4.51154 9.54987 4.78246 9.51898L9.47695 8.98367C9.58737 8.97108 9.68306 8.90422 9.72963 8.80712L11.7097 4.67869Z" stroke="#1F2A37" stroke-width="1.5" stroke-linecap="round" stroke-linejoin="round"/>
</svg>
