<svg fill="none" height="24" viewBox="0 0 25 24" width="25" xmlns="http://www.w3.org/2000/svg" xmlns:xlink="http://www.w3.org/1999/xlink"><clipPath id="a"><path d="m.5 0h24v24h-24z"/></clipPath><g clip-path="url(#a)" stroke="#1f2a37" stroke-linecap="round" stroke-linejoin="round" stroke-width="1.5"><path d="m12.94 8.32031h-9.68c-.97202 0-1.76.71635-1.76 1.6v5.59999c0 .8837.78798 1.6 1.76 1.6h9.68"/><path d="m17.3397 18.8805c3.4021 0 6.16-2.7579 6.16-6.16 0-3.40203-2.7579-6.15995-6.16-6.15995s-6.16 2.75792-6.16 6.15995c0 3.4021 2.7579 6.16 6.16 6.16z"/><path d="m17.3403 16.2412c1.9441 0 3.52-1.576 3.52-3.52 0-1.9441-1.5759-3.52003-3.52-3.52003-1.944 0-3.52 1.57593-3.52 3.52003 0 1.944 1.576 3.52 3.52 3.52z"/></g></svg>