<svg width="20" height="20" viewBox="0 0 20 20" fill="none" xmlns="http://www.w3.org/2000/svg">
<path d="M11.0795 2.5C11.1965 2.5 11.3097 2.541 11.3996 2.61587L15.3201 5.88252C15.4341 5.97752 15.5 6.11825 15.5 6.26665V17C15.5 17.2761 15.2761 17.5 15 17.5H5C4.72386 17.5 4.5 17.2761 4.5 17V3C4.5 2.72386 4.72386 2.5 5 2.5H11.0795Z" stroke="#0FA715" stroke-linejoin="round"/>
<path d="M11 2.7998V4.9998C11 5.55209 11.4477 5.9998 12 5.9998H15.2" stroke="#0FA715"/>
<path d="M8.95312 8.34375L9.90625 10.0312H9.95312L10.9219 8.34375H12.5859L10.8906 11.1719L12.6484 14H10.9453L9.95312 12.2891H9.90625L8.92188 14H7.22656L8.96875 11.1719L7.28125 8.34375H8.95312Z" fill="#0FA715"/>
</svg>
