<svg width="24" height="24" viewBox="0 0 24 24" fill="none" xmlns="http://www.w3.org/2000/svg">
<g clip-path="url(#clip0_630_737)">
<path d="M18.5 9.99998V10.604C18.5 11.1559 18.197 11.6631 17.7112 11.9247L13.3928 14.25M5.5 9.99998V10.604C5.5 11.1559 5.80299 11.6631 6.28885 11.9247L10.6072 14.25M16.5 15.9231L13.3928 14.25M13.3928 14.25L12.7112 13.8829C12.2672 13.6439 11.7328 13.6439 11.2889 13.8829L10.6072 14.25M10.6072 14.25L7.5 15.9231M18.5 17C18.5 17.8284 17.8284 18.5 17 18.5H7C6.17157 18.5 5.5 17.8284 5.5 17L5.5 9.89592C5.5 9.3441 5.80299 8.83683 6.28885 8.57521L11.2889 5.88291C11.7328 5.64385 12.2672 5.64385 12.7111 5.88291L17.7112 8.57521C18.197 8.83683 18.5 9.3441 18.5 9.89592V17Z" stroke="#1F2A37" stroke-width="1.5" stroke-linecap="round" stroke-linejoin="round"/>
</g>
<defs>
<clipPath id="clip0_630_737">
<rect width="16" height="16" fill="white" transform="translate(4 4)"/>
</clipPath>
</defs>
</svg>
