<svg width="24" height="24" viewBox="0 0 24 24" fill="none" xmlns="http://www.w3.org/2000/svg">
<path d="M18.5 8.5V15.5C18.5 16.3284 17.8284 17 17 17H7C6.17157 17 5.5 16.3284 5.5 15.5V8.5M18.5 8.5C18.5 7.67157 17.8284 7 17 7H7C6.17157 7 5.5 7.67157 5.5 8.5M18.5 8.5V8.66181C18.5 9.1827 18.2298 9.6663 17.7861 9.93929L12.7861 13.0162C12.304 13.3129 11.696 13.3129 11.2139 13.0162L6.21385 9.93929C5.77023 9.6663 5.5 9.1827 5.5 8.66181V8.5" stroke="#1F2A37" stroke-width="1.5" stroke-linecap="round" stroke-linejoin="round"/>
</svg>
