<svg width="14" height="14" viewBox="0 0 14 14" fill="none" xmlns="http://www.w3.org/2000/svg">
<path d="M3.869 5.97949C4.33937 5.97949 4.76378 5.71942 5.05406 5.3493C5.50507 4.77423 6.07349 4.29564 6.72323 3.94962C7.14448 3.72528 7.51 3.39199 7.68725 2.94886C7.81128 2.6388 7.875 2.30791 7.875 1.97396V1.60449C7.875 1.36287 8.07088 1.16699 8.3125 1.16699C9.03737 1.16699 9.625 1.75462 9.625 2.47949C9.625 3.15128 9.47359 3.7877 9.20303 4.35649C9.04811 4.68218 9.26545 5.10449 9.62611 5.10449M9.62611 5.10449H11.4495C12.0484 5.10449 12.5844 5.50932 12.6478 6.10483C12.6741 6.35112 12.6875 6.60124 12.6875 6.85449C12.6875 8.5156 12.1089 10.0416 11.1423 11.2419C10.9161 11.5226 10.5666 11.667 10.2061 11.667H7.86348C7.58134 11.667 7.30104 11.6215 7.03338 11.5323L5.21662 10.9267C4.94896 10.8375 4.66866 10.792 4.38652 10.792H3.44412M9.62611 5.10449H8.3125M3.44412 10.792C3.49243 10.9113 3.54499 11.0285 3.60163 11.1433C3.71663 11.3763 3.55612 11.667 3.29623 11.667H2.76668C2.24827 11.667 1.76745 11.3648 1.61616 10.869C1.41872 10.2219 1.3125 9.53495 1.3125 8.82324C1.3125 7.91764 1.48447 7.0522 1.79753 6.25781C1.97549 5.80626 2.43094 5.54199 2.91629 5.54199H3.5304C3.80569 5.54199 3.96509 5.86627 3.82218 6.10156C3.3401 6.8952 3.0625 7.8268 3.0625 8.82324C3.0625 9.51946 3.19802 10.184 3.44412 10.792Z" stroke="#6B7280" stroke-linecap="round" stroke-linejoin="round"/>
</svg>
