<svg fill="none" height="12" viewBox="0 0 13 12" width="13" xmlns="http://www.w3.org/2000/svg" xmlns:xlink="http://www.w3.org/1999/xlink"><clipPath id="a"><path d="m.75 0h12v12h-12z"/></clipPath><g clip-path="url(#a)"><path d="m7.2278 2.13594-.27778.41574.27778-.41574c-.23023-.15383-.5009-.23594-.7778-.23594-.3713 0-.7274.1475-.98995.41005s-.41005.61865-.41005.98995c0 .27689.08211.54757.23594.7778.05459.0817.11735.157.18703.2249-.26359.01849-.51273.13142-.70078.31948-.2063.20629-.32219.48608-.32219.77782s.1159.57153.32218.77782c.20629.20629.48608.32218.77782.32218h.1v.8h-.1c-.29174 0-.57153.11589-.77782.32218-.20628.20629-.32218.48608-.32218.77782s.11589.57153.32218.77782c.2063.20629.48608.32218.77782.32218h2.4c.29174 0 .57153-.11589.77782-.32218s.32218-.48608.32218-.77782-.11589-.57153-.32218-.77782-.48608-.32218-.77782-.32218h-.1v-1.9c0-.29174-.11589-.57153-.32218-.77782-.07593-.07593-.16183-.13962-.25461-.18978.05897-.04287.11475-.09046.16674-.14245.1958-.1958.32913-.44525.38315-.71682l-.49039-.09755.49039.09755c.05402-.27158.0263-.55307-.07967-.80889l-.46194.19134.46194-.19134c-.10596-.25581-.2854-.47446-.51563-.6283zm-3.53343-.70902c.90439-.6043 1.96766-.926865 3.05536-.92692 1.45824.001673 2.85629.5817 3.88747 1.61284 1.0312 1.03121 1.6112 2.42936 1.6128 3.88771-.0001 1.0876-.3227 2.15077-.9269 3.05508-.6044.90447-1.46335 1.60947-2.46834 2.02567-1.00499.4163-2.11086.5252-3.17775.313-1.0669-.2122-2.04691-.736-2.81609-1.50522-.76919-.76918-1.29302-1.74919-1.50524-2.81609-.21222-1.06689-.1033-2.17276.31299-3.17775.41628-1.00499 1.12123-1.86398 2.0257-2.46832z" fill="#9ca3af" stroke="#9ca3af"/></g></svg>