<svg fill="none" height="24" viewBox="0 0 24 24" width="24" xmlns="http://www.w3.org/2000/svg"><g stroke="#1f2a37" stroke-linecap="round" stroke-linejoin="round" stroke-width="1.5"><path d="m2 9.69231c0 6.79739 5.51034 12.30769 12.3077 12.30769h1.8461c1.0196 0 1.8462-.8266 1.8462-1.8462v-1.1254c0-.4236-.2883-.7928-.6992-.8955l-3.6293-.9073c-.3603-.0901-.7395.0445-.9623.3416l-.7961 1.0615c-.231.308-.6306.4443-.9922.3118-2.7134-.994-4.86744-3.148-5.8614-5.8614-.13245-.3616.00377-.7612.31183-.9922l1.06143-.7961c.29711-.2228.43174-.602.34167-.9623l-.90732-3.6293c-.10273-.41093-.47195-.6992-.89552-.6992h-1.12544c-1.0196 0-1.84615.82655-1.84615 1.84615z"/><path d="m16 15c2.7951 0 5.1437-1.9112 5.8105-4.498m-5.8105 4.498c-2.7951 0-5.1437-1.9112-5.8105-4.498m5.8105 4.498c1.6569 0 3-2.6863 3-6 0-3.31371-1.3431-6-3-6m0 12c-1.6569 0-3-2.6863-3-6 0-3.31371 1.3431-6 3-6m0 0c2.2435 0 4.1993 1.23129 5.2287 3.05497m-5.2287-3.05497c-2.2435 0-4.1993 1.23129-5.2287 3.05497m10.4574 0c-1.4022 1.21196-3.2298 1.94503-5.2287 1.94503s-3.8265-.73307-5.2287-1.94503m10.4574 0c.4911.86998.7713 1.87478.7713 2.94503 0 .51866-.0658 1.0219-.1895 1.502m0 0c-1.7216.9545-3.7026 1.498-5.8105 1.498s-4.0889-.5435-5.8105-1.498m0 0c-.1237-.4801-.1895-.98334-.1895-1.502 0-1.07025.2802-2.07505.7713-2.94503"/></g></svg>