<svg fill="none" height="16" viewBox="0 0 16 16" width="16" xmlns="http://www.w3.org/2000/svg" xmlns:xlink="http://www.w3.org/1999/xlink"><clipPath id="a"><rect height="16" rx="2" width="16"/></clipPath><g clip-path="url(#a)"><path clip-rule="evenodd" d="m6.27138 1.44389c.07479-.37394.40312-.643109.78447-.643109h1.88831c.38135 0 .70968.269169.78447.643109l.26438 1.32192c.56349.21464 1.08329.51763 1.54269.89203l1.2786-.43254c.3612-.1222.7585.02756.9492.35781l.9441 1.63533c.1907.33025.1218.74918-.1647 1.00092l-1.0134.89058c.0464.29012.0705.58766.0705.89084 0 .30317-.0241.60072-.0705.89083l1.0134.89058c.2865.25171.3554.67071.1647 1.00091l-.9441 1.6353c-.1907.3303-.588.4801-.9492.3579l-1.2786-.4326c-.4594.3744-.9792.6774-1.54269.892l-.26438 1.322c-.07479.3739-.40312.6431-.78447.6431h-1.88831c-.38135 0-.70968-.2692-.78447-.6431l-.26438-1.322c-.56345-.2146-1.08331-.5176-1.54265-.892l-1.27863.4326c-.36124.1222-.75851-.0276-.94918-.3578l-.94416-1.6354c-.19067-.3302-.12173-.7492.16471-1.0009l1.01338-.89058c-.04637-.29011-.07047-.58766-.07047-.89084 0-.30317.0241-.60072.07047-.89083l-1.01338-.89058c-.28644-.25174-.35538-.67066-.16471-1.00092l.94416-1.63533c.19067-.33025.58794-.48001.94918-.35781l1.27862.43254c.45934-.37441.9792-.6774 1.54266-.89204zm1.72862 8.95691c1.32549 0 2.4-1.07454 2.4-2.40002s-1.07451-2.4-2.4-2.4c-1.32548 0-2.4 1.07452-2.4 2.4s1.07452 2.40002 2.4 2.40002z" fill="#D1D5DB" fill-rule="evenodd"/></g></svg>