<svg width="24" height="24" viewBox="0 0 24 24" fill="none" xmlns="http://www.w3.org/2000/svg">
<path d="M6 6V7M6 18V14M6 14L7.84673 13.5383C9.23623 13.1909 10.7042 13.3521 11.9852 13.9926L12.057 14.0285C13.3125 14.6562 14.7482 14.8239 16.1146 14.5025L18.1907 14.0139C18.0647 12.86 18 11.6875 18 10.5C18 9.32228 18.0636 8.15943 18.1876 7.01468L16.1146 7.50246C14.7482 7.82394 13.3125 7.65624 12.057 7.02852L11.9852 6.99261C10.7042 6.35208 9.23623 6.19094 7.84673 6.53832L6 7M6 14V7" stroke="#6B7280" stroke-width="1.5" stroke-linecap="round" stroke-linejoin="round"/>
</svg>
