<svg width="24" height="24" viewBox="0 0 24 24" fill="none" xmlns="http://www.w3.org/2000/svg">
<path fill-rule="evenodd" clip-rule="evenodd" d="M12 24C18.6274 24 24 18.6274 24 12C24 5.37258 18.6274 -1.43766e-06 12 -8.58275e-07C5.37258 -2.78888e-07 2.78888e-07 5.37259 8.58275e-07 12C1.43766e-06 18.6274 5.37259 24 12 24ZM11.2929 17.7071C10.9024 17.3166 10.9024 16.6834 11.2929 16.2929L14.5858 13L7 13C6.44771 13 6 12.5523 6 12C6 11.4477 6.44771 11 7 11L14.5858 11L11.2929 7.70711C10.9024 7.31658 10.9024 6.68342 11.2929 6.29289C11.6834 5.90237 12.3166 5.90237 12.7071 6.29289L17.7071 11.2929C18.0976 11.6834 18.0976 12.3166 17.7071 12.7071L12.7071 17.7071C12.3166 18.0976 11.6834 18.0976 11.2929 17.7071Z" fill="#9CA3AF"/>
</svg>
