<svg fill="none" height="20" viewBox="0 0 20 20" width="20" xmlns="http://www.w3.org/2000/svg" xmlns:xlink="http://www.w3.org/1999/xlink"><clipPath id="a"><path d="m0 0h20v20h-20z"/></clipPath><g clip-path="url(#a)"><path d="m19.1665 8.74935h-1.6667v-1.66667c0-.22101-.0878-.43297-.244-.58925-.1563-.15628-.3683-.24408-.5893-.24408s-.433.0878-.5893.24408c-.1562.15628-.244.36824-.244.58925v1.66667h-1.6667c-.221 0-.433.0878-.5893.24408-.1562.15628-.244.36824-.244.58925 0 .22102.0878.43302.244.58922.1563.1563.3683.2441.5893.2441h1.6667v1.6667c0 .221.0878.433.244.5892.1563.1563.3683.2441.5893.2441s.433-.0878.5893-.2441c.1562-.1562.244-.3682.244-.5892v-1.6667h1.6667c.221 0 .433-.0878.5893-.2441.1562-.1562.244-.3682.244-.58922 0-.22101-.0878-.43297-.244-.58925-.1563-.15628-.3683-.24408-.5893-.24408zm-8.0833 1.43335c.4446-.38491.8013-.86095 1.0457-1.39583.2444-.53489.3709-1.1161.3709-1.70419 0-1.10507-.4389-2.16487-1.2204-2.94628-.7814-.7814-1.84116-1.22038-2.94623-1.22038s-2.16488.43898-2.94628 1.22038c-.7814.78141-1.22039 1.84121-1.22039 2.94628 0 .58809.12651 1.1693.37094 1.70419.24444.53488.60108 1.01092 1.04573 1.39583-1.16655.5282-2.15628 1.3813-2.85085 2.4571s-1.06459 2.329-1.06582 3.6095c0 .2211.0878.433.24408.5893s.36824.2441.58926.2441c.22101 0 .43297-.0878.58925-.2441s.24408-.3682.24408-.5893c0-1.326.52679-2.5978 1.46447-3.5355s2.20945-1.4645 3.53553-1.4645 2.59783.5268 3.53553 1.4645 1.4645 2.2095 1.4645 3.5355c0 .2211.0878.433.244.5893.1563.1563.3683.2441.5893.2441s.433-.0878.5893-.2441c.1562-.1563.244-.3682.244-.5893-.0012-1.2805-.3712-2.5337-1.0658-3.6095-.6945-1.0758-1.6843-1.9289-2.8508-2.4571zm-2.75003-.60002c-.49445 0-.9778-.14662-1.38892-.42132-.41113-.27471-.73156-.66515-.92078-1.12197-.18922-.45681-.23873-.95948-.14226-1.44443.09646-.48496.33456-.93041.68419-1.28004.34964-.34964.79509-.58774 1.28005-.6842.48495-.09646.98761-.04696 1.44443.14226.45681.18922.84722.50965 1.12192.92078.2747.41112.4214.89447.4214 1.38892 0 .66304-.2634 1.29893-.7323 1.76777-.4688.46884-1.10469.73223-1.76773.73223z" fill="#D1D5DB"/></g></svg>