<svg width="14" height="14" viewBox="0 0 14 14" fill="none" xmlns="http://www.w3.org/2000/svg">
<path fill-rule="evenodd" clip-rule="evenodd" d="M4.37607 3.5H6.56113L6.5625 3.5H8.53408C9.62006 3.50156 10.4999 4.3824 10.4999 5.46875V10.9375C11.4664 10.9375 12.2499 10.154 12.2499 9.1875V3.56312C12.2499 2.68498 11.5938 1.92302 10.6959 1.84849C10.5654 1.83766 10.4346 1.8277 10.3036 1.81864C10.0119 1.25794 9.42569 0.875 8.75 0.875H7.875C7.19931 0.875 6.61306 1.25794 6.32145 1.81863C6.19037 1.8277 6.05955 1.83765 5.92897 1.84849C5.05263 1.92122 4.40662 2.64874 4.37607 3.5ZM7.875 1.75C7.39175 1.75 7 2.14175 7 2.625H9.625C9.625 2.14175 9.23325 1.75 8.75 1.75H7.875Z" fill="white"/>
<path fill-rule="evenodd" clip-rule="evenodd" d="M1.75 5.46875C1.75 4.86469 2.23969 4.375 2.84375 4.375H8.53125C9.13531 4.375 9.625 4.86469 9.625 5.46875V12.0312C9.625 12.6353 9.13531 13.125 8.53125 13.125H2.84375C2.23969 13.125 1.75 12.6353 1.75 12.0312V5.46875ZM7.34163 8.1483C7.49257 7.95963 7.46198 7.68431 7.2733 7.53337C7.08463 7.38243 6.80931 7.41302 6.65837 7.6017L5.21372 9.40751L4.68436 8.87814C4.51351 8.70729 4.2365 8.70729 4.06564 8.87814C3.89479 9.049 3.89479 9.326 4.06564 9.49686L4.94064 10.3719C5.02864 10.4599 5.14994 10.5062 5.27419 10.4993C5.39845 10.4924 5.51389 10.433 5.59163 10.3358L7.34163 8.1483Z" fill="white"/>
</svg>
