<svg width="24" height="24" viewBox="0 0 24 24" fill="none" xmlns="http://www.w3.org/2000/svg">
<g clip-path="url(#clip0_922_74949)">
<path d="M18.5 12.7964V9.19231C18.5 8.64048 18.197 8.13322 17.7112 7.8716L12.7111 5.17929C12.2672 4.94024 11.7328 4.94024 11.2889 5.17929L6.28885 7.8716C5.80299 8.13322 5.5 8.64048 5.5 9.19231L5.5 16.2964C5.5 17.1248 6.17157 17.7964 7 17.7964H9.5M18.5 9.29637V9.90043C18.5 10.4522 18.197 10.9595 17.7112 11.2211L13.3928 13.5464M5.5 9.29637V9.90043C5.5 10.4522 5.80299 10.9595 6.28885 11.2211L10.6072 13.5464M13.6429 13.7964L13.3928 13.5464M13.3928 13.5464L12.7112 13.1793C12.2672 12.9403 11.7328 12.9403 11.2889 13.1793L10.6072 13.5464M10.6072 13.5464L7.5 15.2195" stroke="#1F2A37" stroke-width="1.5" stroke-linecap="round" stroke-linejoin="round"/>
<path d="M18.8243 15.6272L16.9173 14.1234C16.5699 13.8494 16.0095 14.0615 16.0095 14.467V15.2717C12.4882 15.2717 13.03 19 13.03 19C13.03 19 14.1135 16.6698 16.0095 16.6698V17.4745C16.0095 17.88 16.5699 18.0921 16.9173 17.8181L18.8243 16.3143C19.0586 16.1296 19.0586 15.8119 18.8243 15.6272Z" stroke="#1F2A37" stroke-width="1.5" stroke-linecap="round" stroke-linejoin="round"/>
</g>
<defs>
<clipPath id="clip0_922_74949">
<rect width="16" height="16" fill="white" transform="translate(4 4)"/>
</clipPath>
</defs>
</svg>
