<svg width="20" height="20" viewBox="0 0 20 20" fill="none" xmlns="http://www.w3.org/2000/svg">
<path d="M9.70968 2.67869C9.82395 2.44044 10.1761 2.44044 10.2903 2.67869L12.2704 6.80712C12.3169 6.90422 12.4126 6.97108 12.523 6.98367L17.2175 7.51898C17.4885 7.54987 17.5973 7.87192 17.397 8.05007L13.9262 11.1369C13.8446 11.2095 13.808 11.3177 13.8297 11.4226L14.751 15.8818C14.8042 16.1392 14.5193 16.3382 14.2813 16.21L10.1562 13.9894C10.0591 13.9371 9.94086 13.9371 9.84384 13.9894L5.71875 16.21C5.48068 16.3382 5.19582 16.1392 5.24899 15.8818L6.17031 11.4226C6.19198 11.3177 6.15543 11.2095 6.07379 11.1369L2.60303 8.05007C2.40273 7.87192 2.51154 7.54987 2.78246 7.51898L7.47695 6.98367C7.58737 6.97108 7.68306 6.90422 7.72963 6.80712L9.70968 2.67869Z" stroke="#D1D5DB" stroke-width="1.5" stroke-linecap="round" stroke-linejoin="round"/>
</svg>
