<svg width="40" height="40" viewBox="0 0 40 40" fill="none" xmlns="http://www.w3.org/2000/svg">
<path d="M18.375 34H4V4H19.8125L27 11.1457V16.8571" stroke="#4B5563" stroke-width="2" stroke-linecap="round" stroke-linejoin="round"/>
<path d="M19 5V12H26" stroke="#4B5563" stroke-width="2" stroke-linecap="round" stroke-linejoin="round"/>
<path fill-rule="evenodd" clip-rule="evenodd" d="M29 38C33.9695 38 38 33.971 38 29C38 24.0305 33.9695 20 29 20C24.029 20 20 24.0305 20 29C20 33.971 24.029 38 29 38ZM29 24C29.5523 24 30 24.4477 30 25V28H33C33.5523 28 34 28.4477 34 29C34 29.5523 33.5523 30 33 30H30V33C30 33.5523 29.5523 34 29 34C28.4477 34 28 33.5523 28 33L28 30H25C24.4477 30 24 29.5523 24 29C24 28.4477 24.4477 28 25 28H28V25C28 24.4477 28.4477 24 29 24Z" fill="#FF4444"/>
</svg>
