<svg width="24" height="24" viewBox="0 0 24 24" fill="none" xmlns="http://www.w3.org/2000/svg">
<path fill-rule="evenodd" clip-rule="evenodd" d="M16.497 7.50304C15.5598 6.56578 14.0402 6.56578 13.1029 7.50304L7.50292 13.103C6.56566 14.0403 6.56566 15.5599 7.50292 16.4972C8.43994 17.4342 9.959 17.4344 10.8963 16.4979C10.8966 16.4976 10.8968 16.4974 10.897 16.4972L11.2943 16.0972C11.5279 15.8621 11.9077 15.8609 12.1428 16.0944C12.3779 16.328 12.3792 16.7079 12.1456 16.943L11.747 17.3443L11.7456 17.3457C10.3397 18.7516 8.06028 18.7516 6.65439 17.3457C5.2485 15.9398 5.2485 13.6604 6.65439 12.2545L12.2544 6.65451C13.6603 5.24863 15.9397 5.24863 17.3456 6.65451C18.7504 8.05935 18.7514 10.3364 17.3487 11.7425L14.5849 14.5851C13.7648 15.4052 12.4352 15.4051 11.6151 14.585C10.795 13.7649 10.795 12.4353 11.6151 11.6152L14.3757 8.85453C14.61 8.62022 14.9899 8.62022 15.2242 8.85453C15.4586 9.08885 15.4586 9.46875 15.2242 9.70306L12.4636 12.4637C12.1121 12.8152 12.1121 13.385 12.4636 13.7365C12.8142 14.0871 13.3821 14.088 13.7337 13.7391L16.497 10.8971C17.4342 9.95985 17.4343 8.4403 16.497 7.50304Z" fill="#6B7280"/>
</svg>
